%TF.GenerationSoftware,KiCad,Pcbnew,9.0.2*%
%TF.CreationDate,2025-06-22T14:52:54-04:00*%
%TF.ProjectId,PCB,5043422e-6b69-4636-9164-5f7063625858,rev?*%
%TF.SameCoordinates,Original*%
%TF.FileFunction,Profile,NP*%
%FSLAX46Y46*%
G04 Gerber Fmt 4.6, Leading zero omitted, Abs format (unit mm)*
G04 Created by KiCad (PCBNEW 9.0.2) date 2025-06-22 14:52:54*
%MOMM*%
%LPD*%
G01*
G04 APERTURE LIST*
%TA.AperFunction,Profile*%
%ADD10C,0.050000*%
%TD*%
%ADD11C,1.500000*%
%ADD12C,0.300000*%
%TA.AperFunction,Profile*%
%ADD13C,0.100000*%
%TD*%
G04 APERTURE END LIST*
D10*
X197319285Y-133487110D02*
X197679146Y-132544618D01*
X197717628Y-132434257D02*
G75*
G02*
X197679146Y-132544618I-1903228J601757D01*
G01*
X182411316Y-143494986D02*
X182745012Y-143490915D01*
X191000000Y-104612042D02*
X191000000Y-39000000D01*
X187723628Y-142510872D02*
G75*
G02*
X187532893Y-142579450I-771228J1845472D01*
G01*
X195359874Y-136837326D02*
G75*
G02*
X195253928Y-136978005I-1651374J1133426D01*
G01*
X198087483Y-131245152D02*
X198370300Y-130034342D01*
X194425128Y-137983143D02*
G75*
G02*
X194309295Y-138111837I-1543028J1272343D01*
G01*
X170328427Y-37000000D02*
G75*
G02*
X168914199Y-36414227I-27J2000000D01*
G01*
X194425128Y-137983143D02*
X195253926Y-136978004D01*
X192212319Y-140027319D02*
G75*
G02*
X192104923Y-140109055I-1265619J1551519D01*
G01*
X196417993Y-135267165D02*
G75*
G02*
X196288209Y-135484600I-1778093J913865D01*
G01*
X161671573Y-30000000D02*
X83328427Y-30000000D01*
X198569607Y-124700469D02*
G75*
G02*
X198605481Y-125014616I-1963407J-383331D01*
G01*
X198190179Y-122811943D02*
G75*
G02*
X198239642Y-123010592I-1913979J-582057D01*
G01*
X189965220Y-141487829D02*
G75*
G02*
X189852839Y-141548582I-1008620J1731429D01*
G01*
X193377391Y-139061163D02*
G75*
G02*
X193214398Y-139209834I-1426791J1400563D01*
G01*
X161671573Y-30000000D02*
G75*
G02*
X163085779Y-30585793I27J-1999900D01*
G01*
X193377391Y-139061163D02*
X194309296Y-138111838D01*
X183911069Y-143390840D02*
X185171044Y-143201843D01*
X197717628Y-132434257D02*
X198046824Y-131393286D01*
X82828427Y-143500000D02*
G75*
G02*
X81414221Y-142914207I-27J1999900D01*
G01*
X189030663Y-141959668D02*
G75*
G02*
X188907422Y-142016152I-894163J1788268D01*
G01*
X191132867Y-140798331D02*
X192104923Y-140109055D01*
X189000000Y-37000000D02*
X170328427Y-37000000D01*
X198594538Y-128464716D02*
G75*
G02*
X198576412Y-128654419I-1996138J95016D01*
G01*
X56085787Y-117585787D02*
X81414214Y-142914214D01*
X197561566Y-120828943D02*
G75*
G02*
X197675618Y-121119998I-1798566J-872657D01*
G01*
X182894708Y-143483472D02*
G75*
G02*
X182745012Y-143490914I-174108J1992772D01*
G01*
X198594538Y-128464716D02*
X198666093Y-126962112D01*
X55500000Y-46500000D02*
G75*
G02*
X57500000Y-44500000I2000000J0D01*
G01*
X182408684Y-143495020D02*
G75*
G02*
X182409995Y-143493687I-2147483647J2147483646D01*
G01*
X182053514Y-143499820D02*
G75*
G02*
X182026485Y-143500003I-27114J2006920D01*
G01*
X198667161Y-126797843D02*
X198605482Y-125014616D01*
X81914213Y-30585787D02*
X76585786Y-35914214D01*
X168914213Y-36414213D02*
X163085786Y-30585786D01*
X195359874Y-136837326D02*
X196288213Y-135484603D01*
X187723628Y-142510872D02*
X188907422Y-142016152D01*
X197561566Y-120828943D02*
X196523883Y-118690051D01*
X198569607Y-124700469D02*
X198239642Y-123010592D01*
X198190179Y-122811943D02*
X197675618Y-121119998D01*
X182053514Y-143499820D02*
X182408684Y-143495020D01*
X189965220Y-141487829D02*
X190982817Y-140894967D01*
X192212319Y-140027319D02*
X193214398Y-139209834D01*
X185327760Y-143171901D02*
X186345914Y-142934917D01*
X82828427Y-143500000D02*
X182026485Y-143500003D01*
X76000000Y-42500000D02*
G75*
G02*
X74000000Y-44500000I-2000000J0D01*
G01*
X76000000Y-37328427D02*
G75*
G02*
X76585793Y-35914221I1999900J27D01*
G01*
X76000000Y-37328427D02*
X76000000Y-42500000D01*
X191132867Y-140798331D02*
G75*
G02*
X190982817Y-140894966I-1157267J1632131D01*
G01*
X74000000Y-44500000D02*
X57500000Y-44500000D01*
X191145054Y-105359822D02*
G75*
G02*
X190999984Y-104612041I1854946J747822D01*
G01*
X183911069Y-143390840D02*
G75*
G02*
X183788482Y-143405374I-296769J1978840D01*
G01*
X197319285Y-133487110D02*
G75*
G02*
X197229650Y-133687952I-1869685J714010D01*
G01*
X185327760Y-143171901D02*
G75*
G02*
X185171044Y-143201843I-453460J1948301D01*
G01*
X55500000Y-46500000D02*
X55500000Y-116171573D01*
X186472966Y-142900904D02*
G75*
G02*
X186345914Y-142934915I-581066J1916304D01*
G01*
X196523883Y-118690051D02*
G75*
G02*
X196468347Y-118564845I1799617J873151D01*
G01*
X196417993Y-135267165D02*
X197229655Y-133687954D01*
X56085787Y-117585787D02*
G75*
G02*
X55500019Y-116171573I1414213J1414187D01*
G01*
X182894708Y-143483472D02*
X183788482Y-143405375D01*
X186472966Y-142900904D02*
X187532893Y-142579451D01*
X198087483Y-131245152D02*
G75*
G02*
X198046824Y-131393286I-1948083J455052D01*
G01*
X189000000Y-37000000D02*
G75*
G02*
X191000000Y-39000000I0J-2000000D01*
G01*
X198402335Y-129864270D02*
G75*
G02*
X198370303Y-130034343I-1978435J284570D01*
G01*
X81914213Y-30585787D02*
G75*
G02*
X83328427Y-29999978I1414287J-1414313D01*
G01*
X198667161Y-126797843D02*
G75*
G02*
X198666094Y-126962112I-1997961J-69157D01*
G01*
X196468351Y-118564844D02*
X191145053Y-105359821D01*
X198402335Y-129864270D02*
X198576415Y-128654419D01*
X189030663Y-141959668D02*
X189852838Y-141548581D01*
D11*
X81391603Y-124222000D02*
X82820175Y-124698190D01*
X82820175Y-124698190D02*
X85201127Y-124698190D01*
X85201127Y-124698190D02*
X86153508Y-124222000D01*
X86153508Y-124222000D02*
X86629699Y-123745809D01*
X86629699Y-123745809D02*
X87105889Y-122793428D01*
X87105889Y-122793428D02*
X87105889Y-121841047D01*
X87105889Y-121841047D02*
X86629699Y-120888666D01*
X86629699Y-120888666D02*
X86153508Y-120412476D01*
X86153508Y-120412476D02*
X85201127Y-119936285D01*
X85201127Y-119936285D02*
X83296365Y-119460095D01*
X83296365Y-119460095D02*
X82343984Y-118983904D01*
X82343984Y-118983904D02*
X81867794Y-118507714D01*
X81867794Y-118507714D02*
X81391603Y-117555333D01*
X81391603Y-117555333D02*
X81391603Y-116602952D01*
X81391603Y-116602952D02*
X81867794Y-115650571D01*
X81867794Y-115650571D02*
X82343984Y-115174380D01*
X82343984Y-115174380D02*
X83296365Y-114698190D01*
X83296365Y-114698190D02*
X85677318Y-114698190D01*
X85677318Y-114698190D02*
X87105889Y-115174380D01*
X89963032Y-114698190D02*
X95677318Y-114698190D01*
X92820175Y-124698190D02*
X92820175Y-114698190D01*
X99010652Y-124698190D02*
X99010652Y-114698190D01*
X99010652Y-114698190D02*
X104724938Y-124698190D01*
X104724938Y-124698190D02*
X104724938Y-114698190D01*
X111391604Y-114698190D02*
X113296366Y-114698190D01*
X113296366Y-114698190D02*
X114248747Y-115174380D01*
X114248747Y-115174380D02*
X115201128Y-116126761D01*
X115201128Y-116126761D02*
X115677318Y-118031523D01*
X115677318Y-118031523D02*
X115677318Y-121364857D01*
X115677318Y-121364857D02*
X115201128Y-123269619D01*
X115201128Y-123269619D02*
X114248747Y-124222000D01*
X114248747Y-124222000D02*
X113296366Y-124698190D01*
X113296366Y-124698190D02*
X111391604Y-124698190D01*
X111391604Y-124698190D02*
X110439223Y-124222000D01*
X110439223Y-124222000D02*
X109486842Y-123269619D01*
X109486842Y-123269619D02*
X109010651Y-121364857D01*
X109010651Y-121364857D02*
X109010651Y-118031523D01*
X109010651Y-118031523D02*
X109486842Y-116126761D01*
X109486842Y-116126761D02*
X110439223Y-115174380D01*
X110439223Y-115174380D02*
X111391604Y-114698190D01*
D12*
X80673558Y-129239638D02*
X80673558Y-127239638D01*
X80673558Y-127239638D02*
X81340225Y-128668209D01*
X81340225Y-128668209D02*
X82006891Y-127239638D01*
X82006891Y-127239638D02*
X82006891Y-129239638D01*
X83816415Y-129239638D02*
X83816415Y-128192019D01*
X83816415Y-128192019D02*
X83721177Y-128001542D01*
X83721177Y-128001542D02*
X83530701Y-127906304D01*
X83530701Y-127906304D02*
X83149748Y-127906304D01*
X83149748Y-127906304D02*
X82959272Y-128001542D01*
X83816415Y-129144400D02*
X83625939Y-129239638D01*
X83625939Y-129239638D02*
X83149748Y-129239638D01*
X83149748Y-129239638D02*
X82959272Y-129144400D01*
X82959272Y-129144400D02*
X82864034Y-128953923D01*
X82864034Y-128953923D02*
X82864034Y-128763447D01*
X82864034Y-128763447D02*
X82959272Y-128572971D01*
X82959272Y-128572971D02*
X83149748Y-128477733D01*
X83149748Y-128477733D02*
X83625939Y-128477733D01*
X83625939Y-128477733D02*
X83816415Y-128382495D01*
X85625939Y-129239638D02*
X85625939Y-127239638D01*
X85625939Y-129144400D02*
X85435463Y-129239638D01*
X85435463Y-129239638D02*
X85054510Y-129239638D01*
X85054510Y-129239638D02*
X84864034Y-129144400D01*
X84864034Y-129144400D02*
X84768796Y-129049161D01*
X84768796Y-129049161D02*
X84673558Y-128858685D01*
X84673558Y-128858685D02*
X84673558Y-128287257D01*
X84673558Y-128287257D02*
X84768796Y-128096780D01*
X84768796Y-128096780D02*
X84864034Y-128001542D01*
X84864034Y-128001542D02*
X85054510Y-127906304D01*
X85054510Y-127906304D02*
X85435463Y-127906304D01*
X85435463Y-127906304D02*
X85625939Y-128001542D01*
X87340225Y-129144400D02*
X87149749Y-129239638D01*
X87149749Y-129239638D02*
X86768796Y-129239638D01*
X86768796Y-129239638D02*
X86578320Y-129144400D01*
X86578320Y-129144400D02*
X86483082Y-128953923D01*
X86483082Y-128953923D02*
X86483082Y-128192019D01*
X86483082Y-128192019D02*
X86578320Y-128001542D01*
X86578320Y-128001542D02*
X86768796Y-127906304D01*
X86768796Y-127906304D02*
X87149749Y-127906304D01*
X87149749Y-127906304D02*
X87340225Y-128001542D01*
X87340225Y-128001542D02*
X87435463Y-128192019D01*
X87435463Y-128192019D02*
X87435463Y-128382495D01*
X87435463Y-128382495D02*
X86483082Y-128572971D01*
X89816416Y-129239638D02*
X89816416Y-127239638D01*
X89816416Y-128001542D02*
X90006892Y-127906304D01*
X90006892Y-127906304D02*
X90387845Y-127906304D01*
X90387845Y-127906304D02*
X90578321Y-128001542D01*
X90578321Y-128001542D02*
X90673559Y-128096780D01*
X90673559Y-128096780D02*
X90768797Y-128287257D01*
X90768797Y-128287257D02*
X90768797Y-128858685D01*
X90768797Y-128858685D02*
X90673559Y-129049161D01*
X90673559Y-129049161D02*
X90578321Y-129144400D01*
X90578321Y-129144400D02*
X90387845Y-129239638D01*
X90387845Y-129239638D02*
X90006892Y-129239638D01*
X90006892Y-129239638D02*
X89816416Y-129144400D01*
X91435464Y-127906304D02*
X91911654Y-129239638D01*
X92387845Y-127906304D02*
X91911654Y-129239638D01*
X91911654Y-129239638D02*
X91721178Y-129715828D01*
X91721178Y-129715828D02*
X91625940Y-129811066D01*
X91625940Y-129811066D02*
X91435464Y-129906304D01*
X95911655Y-128287257D02*
X95816417Y-128192019D01*
X95816417Y-128192019D02*
X95625941Y-128096780D01*
X95625941Y-128096780D02*
X95435465Y-128096780D01*
X95435465Y-128096780D02*
X95244989Y-128192019D01*
X95244989Y-128192019D02*
X95149750Y-128287257D01*
X95149750Y-128287257D02*
X95054512Y-128477733D01*
X95054512Y-128477733D02*
X95054512Y-128668209D01*
X95054512Y-128668209D02*
X95149750Y-128858685D01*
X95149750Y-128858685D02*
X95244989Y-128953923D01*
X95244989Y-128953923D02*
X95435465Y-129049161D01*
X95435465Y-129049161D02*
X95625941Y-129049161D01*
X95625941Y-129049161D02*
X95816417Y-128953923D01*
X95816417Y-128953923D02*
X95911655Y-128858685D01*
X95911655Y-128096780D02*
X95911655Y-128858685D01*
X95911655Y-128858685D02*
X96006893Y-128953923D01*
X96006893Y-128953923D02*
X96102131Y-128953923D01*
X96102131Y-128953923D02*
X96292608Y-128858685D01*
X96292608Y-128858685D02*
X96387846Y-128668209D01*
X96387846Y-128668209D02*
X96387846Y-128192019D01*
X96387846Y-128192019D02*
X96197370Y-127906304D01*
X96197370Y-127906304D02*
X95911655Y-127715828D01*
X95911655Y-127715828D02*
X95530703Y-127620590D01*
X95530703Y-127620590D02*
X95149750Y-127715828D01*
X95149750Y-127715828D02*
X94864036Y-127906304D01*
X94864036Y-127906304D02*
X94673560Y-128192019D01*
X94673560Y-128192019D02*
X94578322Y-128572971D01*
X94578322Y-128572971D02*
X94673560Y-128953923D01*
X94673560Y-128953923D02*
X94864036Y-129239638D01*
X94864036Y-129239638D02*
X95149750Y-129430114D01*
X95149750Y-129430114D02*
X95530703Y-129525352D01*
X95530703Y-129525352D02*
X95911655Y-129430114D01*
X95911655Y-129430114D02*
X96197370Y-129239638D01*
X97244989Y-129239638D02*
X97244989Y-127906304D01*
X97244989Y-127239638D02*
X97149751Y-127334876D01*
X97149751Y-127334876D02*
X97244989Y-127430114D01*
X97244989Y-127430114D02*
X97340227Y-127334876D01*
X97340227Y-127334876D02*
X97244989Y-127239638D01*
X97244989Y-127239638D02*
X97244989Y-127430114D01*
X97911656Y-127906304D02*
X98673560Y-127906304D01*
X98197370Y-127239638D02*
X98197370Y-128953923D01*
X98197370Y-128953923D02*
X98292608Y-129144400D01*
X98292608Y-129144400D02*
X98483084Y-129239638D01*
X98483084Y-129239638D02*
X98673560Y-129239638D01*
X99244989Y-129144400D02*
X99435465Y-129239638D01*
X99435465Y-129239638D02*
X99816417Y-129239638D01*
X99816417Y-129239638D02*
X100006894Y-129144400D01*
X100006894Y-129144400D02*
X100102132Y-128953923D01*
X100102132Y-128953923D02*
X100102132Y-128858685D01*
X100102132Y-128858685D02*
X100006894Y-128668209D01*
X100006894Y-128668209D02*
X99816417Y-128572971D01*
X99816417Y-128572971D02*
X99530703Y-128572971D01*
X99530703Y-128572971D02*
X99340227Y-128477733D01*
X99340227Y-128477733D02*
X99244989Y-128287257D01*
X99244989Y-128287257D02*
X99244989Y-128192019D01*
X99244989Y-128192019D02*
X99340227Y-128001542D01*
X99340227Y-128001542D02*
X99530703Y-127906304D01*
X99530703Y-127906304D02*
X99816417Y-127906304D01*
X99816417Y-127906304D02*
X100006894Y-128001542D01*
X100959275Y-129239638D02*
X100959275Y-127906304D01*
X100959275Y-128096780D02*
X101054513Y-128001542D01*
X101054513Y-128001542D02*
X101244989Y-127906304D01*
X101244989Y-127906304D02*
X101530704Y-127906304D01*
X101530704Y-127906304D02*
X101721180Y-128001542D01*
X101721180Y-128001542D02*
X101816418Y-128192019D01*
X101816418Y-128192019D02*
X101816418Y-129239638D01*
X101816418Y-128192019D02*
X101911656Y-128001542D01*
X101911656Y-128001542D02*
X102102132Y-127906304D01*
X102102132Y-127906304D02*
X102387846Y-127906304D01*
X102387846Y-127906304D02*
X102578323Y-128001542D01*
X102578323Y-128001542D02*
X102673561Y-128192019D01*
X102673561Y-128192019D02*
X102673561Y-129239638D01*
X104387847Y-129144400D02*
X104197371Y-129239638D01*
X104197371Y-129239638D02*
X103816418Y-129239638D01*
X103816418Y-129239638D02*
X103625942Y-129144400D01*
X103625942Y-129144400D02*
X103530704Y-128953923D01*
X103530704Y-128953923D02*
X103530704Y-128192019D01*
X103530704Y-128192019D02*
X103625942Y-128001542D01*
X103625942Y-128001542D02*
X103816418Y-127906304D01*
X103816418Y-127906304D02*
X104197371Y-127906304D01*
X104197371Y-127906304D02*
X104387847Y-128001542D01*
X104387847Y-128001542D02*
X104483085Y-128192019D01*
X104483085Y-128192019D02*
X104483085Y-128382495D01*
X104483085Y-128382495D02*
X103530704Y-128572971D01*
X106673562Y-127906304D02*
X107054514Y-129239638D01*
X107054514Y-129239638D02*
X107435467Y-128287257D01*
X107435467Y-128287257D02*
X107816419Y-129239638D01*
X107816419Y-129239638D02*
X108197371Y-127906304D01*
X108959276Y-129239638D02*
X108959276Y-127906304D01*
X108959276Y-127239638D02*
X108864038Y-127334876D01*
X108864038Y-127334876D02*
X108959276Y-127430114D01*
X108959276Y-127430114D02*
X109054514Y-127334876D01*
X109054514Y-127334876D02*
X108959276Y-127239638D01*
X108959276Y-127239638D02*
X108959276Y-127430114D01*
X109625943Y-127906304D02*
X110387847Y-127906304D01*
X109911657Y-127239638D02*
X109911657Y-128953923D01*
X109911657Y-128953923D02*
X110006895Y-129144400D01*
X110006895Y-129144400D02*
X110197371Y-129239638D01*
X110197371Y-129239638D02*
X110387847Y-129239638D01*
X111054514Y-129239638D02*
X111054514Y-127239638D01*
X111911657Y-129239638D02*
X111911657Y-128192019D01*
X111911657Y-128192019D02*
X111816419Y-128001542D01*
X111816419Y-128001542D02*
X111625943Y-127906304D01*
X111625943Y-127906304D02*
X111340228Y-127906304D01*
X111340228Y-127906304D02*
X111149752Y-128001542D01*
X111149752Y-128001542D02*
X111054514Y-128096780D01*
X114292610Y-129144400D02*
X114483086Y-129239638D01*
X114483086Y-129239638D02*
X114864038Y-129239638D01*
X114864038Y-129239638D02*
X115054515Y-129144400D01*
X115054515Y-129144400D02*
X115149753Y-128953923D01*
X115149753Y-128953923D02*
X115149753Y-128858685D01*
X115149753Y-128858685D02*
X115054515Y-128668209D01*
X115054515Y-128668209D02*
X114864038Y-128572971D01*
X114864038Y-128572971D02*
X114578324Y-128572971D01*
X114578324Y-128572971D02*
X114387848Y-128477733D01*
X114387848Y-128477733D02*
X114292610Y-128287257D01*
X114292610Y-128287257D02*
X114292610Y-128192019D01*
X114292610Y-128192019D02*
X114387848Y-128001542D01*
X114387848Y-128001542D02*
X114578324Y-127906304D01*
X114578324Y-127906304D02*
X114864038Y-127906304D01*
X114864038Y-127906304D02*
X115054515Y-128001542D01*
X116006896Y-129239638D02*
X116006896Y-127239638D01*
X116197372Y-128477733D02*
X116768801Y-129239638D01*
X116768801Y-127906304D02*
X116006896Y-128668209D01*
X117625944Y-129239638D02*
X117625944Y-127906304D01*
X117625944Y-127239638D02*
X117530706Y-127334876D01*
X117530706Y-127334876D02*
X117625944Y-127430114D01*
X117625944Y-127430114D02*
X117721182Y-127334876D01*
X117721182Y-127334876D02*
X117625944Y-127239638D01*
X117625944Y-127239638D02*
X117625944Y-127430114D01*
X118864039Y-129239638D02*
X118673563Y-129144400D01*
X118673563Y-129144400D02*
X118578325Y-128953923D01*
X118578325Y-128953923D02*
X118578325Y-127239638D01*
X119911658Y-129239638D02*
X119721182Y-129144400D01*
X119721182Y-129144400D02*
X119625944Y-128953923D01*
X119625944Y-128953923D02*
X119625944Y-127239638D01*
X122197373Y-129239638D02*
X122197373Y-127906304D01*
X122197373Y-127239638D02*
X122102135Y-127334876D01*
X122102135Y-127334876D02*
X122197373Y-127430114D01*
X122197373Y-127430114D02*
X122292611Y-127334876D01*
X122292611Y-127334876D02*
X122197373Y-127239638D01*
X122197373Y-127239638D02*
X122197373Y-127430114D01*
X123054516Y-129144400D02*
X123244992Y-129239638D01*
X123244992Y-129239638D02*
X123625944Y-129239638D01*
X123625944Y-129239638D02*
X123816421Y-129144400D01*
X123816421Y-129144400D02*
X123911659Y-128953923D01*
X123911659Y-128953923D02*
X123911659Y-128858685D01*
X123911659Y-128858685D02*
X123816421Y-128668209D01*
X123816421Y-128668209D02*
X123625944Y-128572971D01*
X123625944Y-128572971D02*
X123340230Y-128572971D01*
X123340230Y-128572971D02*
X123149754Y-128477733D01*
X123149754Y-128477733D02*
X123054516Y-128287257D01*
X123054516Y-128287257D02*
X123054516Y-128192019D01*
X123054516Y-128192019D02*
X123149754Y-128001542D01*
X123149754Y-128001542D02*
X123340230Y-127906304D01*
X123340230Y-127906304D02*
X123625944Y-127906304D01*
X123625944Y-127906304D02*
X123816421Y-128001542D01*
X124673564Y-129144400D02*
X124864040Y-129239638D01*
X124864040Y-129239638D02*
X125244992Y-129239638D01*
X125244992Y-129239638D02*
X125435469Y-129144400D01*
X125435469Y-129144400D02*
X125530707Y-128953923D01*
X125530707Y-128953923D02*
X125530707Y-128858685D01*
X125530707Y-128858685D02*
X125435469Y-128668209D01*
X125435469Y-128668209D02*
X125244992Y-128572971D01*
X125244992Y-128572971D02*
X124959278Y-128572971D01*
X124959278Y-128572971D02*
X124768802Y-128477733D01*
X124768802Y-128477733D02*
X124673564Y-128287257D01*
X124673564Y-128287257D02*
X124673564Y-128192019D01*
X124673564Y-128192019D02*
X124768802Y-128001542D01*
X124768802Y-128001542D02*
X124959278Y-127906304D01*
X124959278Y-127906304D02*
X125244992Y-127906304D01*
X125244992Y-127906304D02*
X125435469Y-128001542D01*
X127244993Y-127906304D02*
X127244993Y-129239638D01*
X126387850Y-127906304D02*
X126387850Y-128953923D01*
X126387850Y-128953923D02*
X126483088Y-129144400D01*
X126483088Y-129144400D02*
X126673564Y-129239638D01*
X126673564Y-129239638D02*
X126959279Y-129239638D01*
X126959279Y-129239638D02*
X127149755Y-129144400D01*
X127149755Y-129144400D02*
X127244993Y-129049161D01*
X128959279Y-129144400D02*
X128768803Y-129239638D01*
X128768803Y-129239638D02*
X128387850Y-129239638D01*
X128387850Y-129239638D02*
X128197374Y-129144400D01*
X128197374Y-129144400D02*
X128102136Y-128953923D01*
X128102136Y-128953923D02*
X128102136Y-128192019D01*
X128102136Y-128192019D02*
X128197374Y-128001542D01*
X128197374Y-128001542D02*
X128387850Y-127906304D01*
X128387850Y-127906304D02*
X128768803Y-127906304D01*
X128768803Y-127906304D02*
X128959279Y-128001542D01*
X128959279Y-128001542D02*
X129054517Y-128192019D01*
X129054517Y-128192019D02*
X129054517Y-128382495D01*
X129054517Y-128382495D02*
X128102136Y-128572971D01*
X129816422Y-129144400D02*
X130006898Y-129239638D01*
X130006898Y-129239638D02*
X130387850Y-129239638D01*
X130387850Y-129239638D02*
X130578327Y-129144400D01*
X130578327Y-129144400D02*
X130673565Y-128953923D01*
X130673565Y-128953923D02*
X130673565Y-128858685D01*
X130673565Y-128858685D02*
X130578327Y-128668209D01*
X130578327Y-128668209D02*
X130387850Y-128572971D01*
X130387850Y-128572971D02*
X130102136Y-128572971D01*
X130102136Y-128572971D02*
X129911660Y-128477733D01*
X129911660Y-128477733D02*
X129816422Y-128287257D01*
X129816422Y-128287257D02*
X129816422Y-128192019D01*
X129816422Y-128192019D02*
X129911660Y-128001542D01*
X129911660Y-128001542D02*
X130102136Y-127906304D01*
X130102136Y-127906304D02*
X130387850Y-127906304D01*
X130387850Y-127906304D02*
X130578327Y-128001542D01*
D13*
%TO.C,SW13*%
X141150501Y-40961000D02*
X140769501Y-40960999D01*
X141150501Y-41468999D02*
X140769501Y-41468999D01*
X149659499Y-43501001D02*
X150040499Y-43501001D01*
X149659499Y-44009000D02*
X150040499Y-44009001D01*
X140769361Y-40961805D02*
G75*
G02*
X140769501Y-41468999I1460639J-253194D01*
G01*
X141150585Y-40960642D02*
G75*
G02*
X141150501Y-41468999I1079415J-254357D01*
G01*
X149659415Y-44009358D02*
G75*
G02*
X149659500Y-43501001I-1079415J254358D01*
G01*
X150040639Y-44008195D02*
G75*
G02*
X150040499Y-43501001I-1460639J253195D01*
G01*
%TO.C,SW9*%
X107195501Y-75390000D02*
X106814501Y-75389999D01*
X107195501Y-75897999D02*
X106814501Y-75897999D01*
X115704499Y-77930001D02*
X116085499Y-77930001D01*
X115704499Y-78438000D02*
X116085499Y-78438001D01*
X106814361Y-75390805D02*
G75*
G02*
X106814501Y-75897999I1460639J-253194D01*
G01*
X107195585Y-75389642D02*
G75*
G02*
X107195501Y-75897999I1079415J-254357D01*
G01*
X115704415Y-78438358D02*
G75*
G02*
X115704500Y-77930001I-1079415J254358D01*
G01*
X116085639Y-78437195D02*
G75*
G02*
X116085499Y-77930001I-1460639J253195D01*
G01*
%TO.C,SW24*%
X158195501Y-75390000D02*
X157814501Y-75389999D01*
X158195501Y-75897999D02*
X157814501Y-75897999D01*
X166704499Y-77930001D02*
X167085499Y-77930001D01*
X166704499Y-78438000D02*
X167085499Y-78438001D01*
X157814361Y-75390805D02*
G75*
G02*
X157814501Y-75897999I1460639J-253194D01*
G01*
X158195585Y-75389642D02*
G75*
G02*
X158195501Y-75897999I1079415J-254357D01*
G01*
X166704415Y-78438358D02*
G75*
G02*
X166704500Y-77930001I-1079415J254358D01*
G01*
X167085639Y-78437195D02*
G75*
G02*
X167085499Y-77930001I-1460639J253195D01*
G01*
%TO.C,SW7*%
X107200501Y-40966000D02*
X106819501Y-40965999D01*
X107200501Y-41473999D02*
X106819501Y-41473999D01*
X115709499Y-43506001D02*
X116090499Y-43506001D01*
X115709499Y-44014000D02*
X116090499Y-44014001D01*
X106819361Y-40966805D02*
G75*
G02*
X106819501Y-41473999I1460639J-253194D01*
G01*
X107200585Y-40965642D02*
G75*
G02*
X107200501Y-41473999I1079415J-254357D01*
G01*
X115709415Y-44014358D02*
G75*
G02*
X115709500Y-43506001I-1079415J254358D01*
G01*
X116090639Y-44013195D02*
G75*
G02*
X116090499Y-43506001I-1460639J253195D01*
G01*
%TO.C,SW19*%
X141135001Y-92746000D02*
X140754001Y-92745999D01*
X141135001Y-93253999D02*
X140754001Y-93253999D01*
X149643999Y-95286001D02*
X150024999Y-95286001D01*
X149643999Y-95794000D02*
X150024999Y-95794001D01*
X140753861Y-92746805D02*
G75*
G02*
X140754001Y-93253999I1460639J-253194D01*
G01*
X141135085Y-92745642D02*
G75*
G02*
X141135001Y-93253999I1079415J-254357D01*
G01*
X149643915Y-95794358D02*
G75*
G02*
X149644000Y-95286001I-1079415J254358D01*
G01*
X150025139Y-95793195D02*
G75*
G02*
X150024999Y-95286001I-1460639J253195D01*
G01*
%TO.C,SW3*%
X90200501Y-57986000D02*
X89819501Y-57985999D01*
X90200501Y-58493999D02*
X89819501Y-58493999D01*
X98709499Y-60526001D02*
X99090499Y-60526001D01*
X98709499Y-61034000D02*
X99090499Y-61034001D01*
X89819361Y-57986805D02*
G75*
G02*
X89819501Y-58493999I1460639J-253194D01*
G01*
X90200585Y-57985642D02*
G75*
G02*
X90200501Y-58493999I1079415J-254357D01*
G01*
X98709415Y-61034358D02*
G75*
G02*
X98709500Y-60526001I-1079415J254358D01*
G01*
X99090639Y-61033195D02*
G75*
G02*
X99090499Y-60526001I-1460639J253195D01*
G01*
%TO.C,SW11*%
X175499001Y-48691000D02*
X175118001Y-48690999D01*
X175499001Y-49198999D02*
X175118001Y-49198999D01*
X184007999Y-51231001D02*
X184388999Y-51231001D01*
X184007999Y-51739000D02*
X184388999Y-51739001D01*
X175117861Y-48691805D02*
G75*
G02*
X175118001Y-49198999I1460639J-253195D01*
G01*
X175499085Y-48690642D02*
G75*
G02*
X175499000Y-49198999I1079415J-254358D01*
G01*
X184007915Y-51739358D02*
G75*
G02*
X184007999Y-51231001I-1079415J254357D01*
G01*
X184389139Y-51738195D02*
G75*
G02*
X184388999Y-51231001I-1460639J253194D01*
G01*
%TO.C,SW17*%
X141150501Y-75391000D02*
X140769501Y-75390999D01*
X141150501Y-75898999D02*
X140769501Y-75898999D01*
X149659499Y-77931001D02*
X150040499Y-77931001D01*
X149659499Y-78439000D02*
X150040499Y-78439001D01*
X140769361Y-75391805D02*
G75*
G02*
X140769501Y-75898999I1460639J-253194D01*
G01*
X141150585Y-75390642D02*
G75*
G02*
X141150501Y-75898999I1079415J-254357D01*
G01*
X149659415Y-78439358D02*
G75*
G02*
X149659500Y-77931001I-1079415J254358D01*
G01*
X150040639Y-78438195D02*
G75*
G02*
X150040499Y-77931001I-1460639J253195D01*
G01*
%TO.C,SW26*%
X175589001Y-100346000D02*
X175208001Y-100345999D01*
X175589001Y-100853999D02*
X175208001Y-100853999D01*
X184097999Y-102886001D02*
X184478999Y-102886001D01*
X184097999Y-103394000D02*
X184478999Y-103394001D01*
X175207861Y-100346805D02*
G75*
G02*
X175208001Y-100853999I1460639J-253195D01*
G01*
X175589085Y-100345642D02*
G75*
G02*
X175589000Y-100853999I1079415J-254358D01*
G01*
X184097915Y-103394358D02*
G75*
G02*
X184097999Y-102886001I-1079415J254357D01*
G01*
X184479139Y-103393195D02*
G75*
G02*
X184478999Y-102886001I-1460639J253194D01*
G01*
%TO.C,SW2*%
X90205501Y-40966000D02*
X89824501Y-40965999D01*
X90205501Y-41473999D02*
X89824501Y-41473999D01*
X98714499Y-43506001D02*
X99095499Y-43506001D01*
X98714499Y-44014000D02*
X99095499Y-44014001D01*
X89824361Y-40966805D02*
G75*
G02*
X89824501Y-41473999I1460639J-253194D01*
G01*
X90205585Y-40965642D02*
G75*
G02*
X90205501Y-41473999I1079415J-254357D01*
G01*
X98714415Y-44014358D02*
G75*
G02*
X98714500Y-43506001I-1079415J254358D01*
G01*
X99095639Y-44013195D02*
G75*
G02*
X99095499Y-43506001I-1460639J253195D01*
G01*
%TO.C,SW12*%
X124200501Y-40966000D02*
X123819501Y-40965999D01*
X124200501Y-41473999D02*
X123819501Y-41473999D01*
X132709499Y-43506001D02*
X133090499Y-43506001D01*
X132709499Y-44014000D02*
X133090499Y-44014001D01*
X123819361Y-40966805D02*
G75*
G02*
X123819501Y-41473999I1460639J-253194D01*
G01*
X124200585Y-40965642D02*
G75*
G02*
X124200501Y-41473999I1079415J-254357D01*
G01*
X132709415Y-44014358D02*
G75*
G02*
X132709500Y-43506001I-1079415J254358D01*
G01*
X133090639Y-44013195D02*
G75*
G02*
X133090499Y-43506001I-1460639J253195D01*
G01*
%TO.C,SW14*%
X124220501Y-57996000D02*
X123839501Y-57995999D01*
X124220501Y-58503999D02*
X123839501Y-58503999D01*
X132729499Y-60536001D02*
X133110499Y-60536001D01*
X132729499Y-61044000D02*
X133110499Y-61044001D01*
X123839361Y-57996805D02*
G75*
G02*
X123839501Y-58503999I1460639J-253194D01*
G01*
X124220585Y-57995642D02*
G75*
G02*
X124220501Y-58503999I1079415J-254357D01*
G01*
X132729415Y-61044358D02*
G75*
G02*
X132729500Y-60536001I-1079415J254358D01*
G01*
X133110639Y-61043195D02*
G75*
G02*
X133110499Y-60536001I-1460639J253195D01*
G01*
%TO.C,SW5*%
X90195501Y-92724000D02*
X89814501Y-92723999D01*
X90195501Y-93231999D02*
X89814501Y-93231999D01*
X98704499Y-95264001D02*
X99085499Y-95264001D01*
X98704499Y-95772000D02*
X99085499Y-95772001D01*
X89814361Y-92724805D02*
G75*
G02*
X89814501Y-93231999I1460639J-253194D01*
G01*
X90195585Y-92723642D02*
G75*
G02*
X90195501Y-93231999I1079415J-254357D01*
G01*
X98704415Y-95772358D02*
G75*
G02*
X98704500Y-95264001I-1079415J254358D01*
G01*
X99085639Y-95771195D02*
G75*
G02*
X99085499Y-95264001I-1460639J253195D01*
G01*
%TO.C,SW6*%
X64410501Y-105886000D02*
X64029501Y-105885999D01*
X64410501Y-106393999D02*
X64029501Y-106393999D01*
X72919499Y-108426001D02*
X73300499Y-108426001D01*
X72919499Y-108934000D02*
X73300499Y-108934001D01*
X64029361Y-105886805D02*
G75*
G02*
X64029501Y-106393999I1460639J-253195D01*
G01*
X64410585Y-105885642D02*
G75*
G02*
X64410500Y-106393999I1079415J-254358D01*
G01*
X72919415Y-108934358D02*
G75*
G02*
X72919499Y-108426001I-1079415J254357D01*
G01*
X73300639Y-108933195D02*
G75*
G02*
X73300499Y-108426001I-1460639J253194D01*
G01*
%TO.C,SW22*%
X158200501Y-40966000D02*
X157819501Y-40965999D01*
X158200501Y-41473999D02*
X157819501Y-41473999D01*
X166709499Y-43506001D02*
X167090499Y-43506001D01*
X166709499Y-44014000D02*
X167090499Y-44014001D01*
X157819361Y-40966805D02*
G75*
G02*
X157819501Y-41473999I1460639J-253194D01*
G01*
X158200585Y-40965642D02*
G75*
G02*
X158200501Y-41473999I1079415J-254357D01*
G01*
X166709415Y-44014358D02*
G75*
G02*
X166709500Y-43506001I-1079415J254358D01*
G01*
X167090639Y-44013195D02*
G75*
G02*
X167090499Y-43506001I-1460639J253195D01*
G01*
%TO.C,SW4*%
X90195501Y-75390000D02*
X89814501Y-75389999D01*
X90195501Y-75897999D02*
X89814501Y-75897999D01*
X98704499Y-77930001D02*
X99085499Y-77930001D01*
X98704499Y-78438000D02*
X99085499Y-78438001D01*
X89814361Y-75390805D02*
G75*
G02*
X89814501Y-75897999I1460639J-253194D01*
G01*
X90195585Y-75389642D02*
G75*
G02*
X90195501Y-75897999I1079415J-254357D01*
G01*
X98704415Y-78438358D02*
G75*
G02*
X98704500Y-77930001I-1079415J254358D01*
G01*
X99085639Y-78437195D02*
G75*
G02*
X99085499Y-77930001I-1460639J253195D01*
G01*
%TO.C,SW25*%
X158195501Y-92724000D02*
X157814501Y-92723999D01*
X158195501Y-93231999D02*
X157814501Y-93231999D01*
X166704499Y-95264001D02*
X167085499Y-95264001D01*
X166704499Y-95772000D02*
X167085499Y-95772001D01*
X157814361Y-92724805D02*
G75*
G02*
X157814501Y-93231999I1460639J-253194D01*
G01*
X158195585Y-92723642D02*
G75*
G02*
X158195501Y-93231999I1079415J-254357D01*
G01*
X166704415Y-95772358D02*
G75*
G02*
X166704500Y-95264001I-1079415J254358D01*
G01*
X167085639Y-95771195D02*
G75*
G02*
X167085499Y-95264001I-1460639J253195D01*
G01*
%TO.C,SW20*%
X175589001Y-65646000D02*
X175208001Y-65645999D01*
X175589001Y-66153999D02*
X175208001Y-66153999D01*
X184097999Y-68186001D02*
X184478999Y-68186001D01*
X184097999Y-68694000D02*
X184478999Y-68694001D01*
X175207861Y-65646805D02*
G75*
G02*
X175208001Y-66153999I1460639J-253195D01*
G01*
X175589085Y-65645642D02*
G75*
G02*
X175589000Y-66153999I1079415J-254358D01*
G01*
X184097915Y-68694358D02*
G75*
G02*
X184097999Y-68186001I-1079415J254357D01*
G01*
X184479139Y-68693195D02*
G75*
G02*
X184478999Y-68186001I-1460639J253194D01*
G01*
%TO.C,SW23*%
X158200501Y-57986000D02*
X157819501Y-57985999D01*
X158200501Y-58493999D02*
X157819501Y-58493999D01*
X166709499Y-60526001D02*
X167090499Y-60526001D01*
X166709499Y-61034000D02*
X167090499Y-61034001D01*
X157819361Y-57986805D02*
G75*
G02*
X157819501Y-58493999I1460639J-253194D01*
G01*
X158200585Y-57985642D02*
G75*
G02*
X158200501Y-58493999I1079415J-254357D01*
G01*
X166709415Y-61034358D02*
G75*
G02*
X166709500Y-60526001I-1079415J254358D01*
G01*
X167090639Y-61033195D02*
G75*
G02*
X167090499Y-60526001I-1460639J253195D01*
G01*
%TO.C,SW10*%
X107195501Y-92724000D02*
X106814501Y-92723999D01*
X107195501Y-93231999D02*
X106814501Y-93231999D01*
X115704499Y-95264001D02*
X116085499Y-95264001D01*
X115704499Y-95772000D02*
X116085499Y-95772001D01*
X106814361Y-92724805D02*
G75*
G02*
X106814501Y-93231999I1460639J-253194D01*
G01*
X107195585Y-92723642D02*
G75*
G02*
X107195501Y-93231999I1079415J-254357D01*
G01*
X115704415Y-95772358D02*
G75*
G02*
X115704500Y-95264001I-1079415J254358D01*
G01*
X116085639Y-95771195D02*
G75*
G02*
X116085499Y-95264001I-1460639J253195D01*
G01*
%TO.C,SW21*%
X175559001Y-83046000D02*
X175178001Y-83045999D01*
X175559001Y-83553999D02*
X175178001Y-83553999D01*
X184067999Y-85586001D02*
X184448999Y-85586001D01*
X184067999Y-86094000D02*
X184448999Y-86094001D01*
X175177861Y-83046805D02*
G75*
G02*
X175178001Y-83553999I1460639J-253195D01*
G01*
X175559085Y-83045642D02*
G75*
G02*
X175559000Y-83553999I1079415J-254358D01*
G01*
X184067915Y-86094358D02*
G75*
G02*
X184067999Y-85586001I-1079415J254357D01*
G01*
X184449139Y-86093195D02*
G75*
G02*
X184448999Y-85586001I-1460639J253194D01*
G01*
%TO.C,SW15*%
X141150501Y-57966000D02*
X140769501Y-57965999D01*
X141150501Y-58473999D02*
X140769501Y-58473999D01*
X149659499Y-60506001D02*
X150040499Y-60506001D01*
X149659499Y-61014000D02*
X150040499Y-61014001D01*
X140769361Y-57966805D02*
G75*
G02*
X140769501Y-58473999I1460639J-253194D01*
G01*
X141150585Y-57965642D02*
G75*
G02*
X141150501Y-58473999I1079415J-254357D01*
G01*
X149659415Y-61014358D02*
G75*
G02*
X149659500Y-60506001I-1079415J254358D01*
G01*
X150040639Y-61013195D02*
G75*
G02*
X150040499Y-60506001I-1460639J253195D01*
G01*
%TO.C,SW18*%
X124135001Y-92746000D02*
X123754001Y-92745999D01*
X124135001Y-93253999D02*
X123754001Y-93253999D01*
X132643999Y-95286001D02*
X133024999Y-95286001D01*
X132643999Y-95794000D02*
X133024999Y-95794001D01*
X123753861Y-92746805D02*
G75*
G02*
X123754001Y-93253999I1460639J-253194D01*
G01*
X124135085Y-92745642D02*
G75*
G02*
X124135001Y-93253999I1079415J-254357D01*
G01*
X132643915Y-95794358D02*
G75*
G02*
X132644000Y-95286001I-1079415J254358D01*
G01*
X133025139Y-95793195D02*
G75*
G02*
X133024999Y-95286001I-1460639J253195D01*
G01*
%TO.C,SW8*%
X107200501Y-57986000D02*
X106819501Y-57985999D01*
X107200501Y-58493999D02*
X106819501Y-58493999D01*
X115709499Y-60526001D02*
X116090499Y-60526001D01*
X115709499Y-61034000D02*
X116090499Y-61034001D01*
X106819361Y-57986805D02*
G75*
G02*
X106819501Y-58493999I1460639J-253194D01*
G01*
X107200585Y-57985642D02*
G75*
G02*
X107200501Y-58493999I1079415J-254357D01*
G01*
X115709415Y-61034358D02*
G75*
G02*
X115709500Y-60526001I-1079415J254358D01*
G01*
X116090639Y-61033195D02*
G75*
G02*
X116090499Y-60526001I-1460639J253195D01*
G01*
%TO.C,SW16*%
X124150501Y-75416000D02*
X123769501Y-75415999D01*
X124150501Y-75923999D02*
X123769501Y-75923999D01*
X132659499Y-77956001D02*
X133040499Y-77956001D01*
X132659499Y-78464000D02*
X133040499Y-78464001D01*
X123769361Y-75416805D02*
G75*
G02*
X123769501Y-75923999I1460639J-253194D01*
G01*
X124150585Y-75415642D02*
G75*
G02*
X124150501Y-75923999I1079415J-254357D01*
G01*
X132659415Y-78464358D02*
G75*
G02*
X132659500Y-77956001I-1079415J254358D01*
G01*
X133040639Y-78463195D02*
G75*
G02*
X133040499Y-77956001I-1460639J253195D01*
G01*
%TD*%
M02*
