<?xml version="1.0" standalone="no"?>
 <!DOCTYPE svg PUBLIC "-//W3C//DTD SVG 1.1//EN" 
 "http://www.w3.org/Graphics/SVG/1.1/DTD/svg11.dtd"> 
<svg
  xmlns:svg="http://www.w3.org/2000/svg"
  xmlns="http://www.w3.org/2000/svg"
  xmlns:xlink="http://www.w3.org/1999/xlink"
  version="1.1"
  width="297.0022mm" height="210.0072mm" viewBox="0.0000 0.0000 297.0022 210.0072">
<title>SVG Image created as PCB-Edge_Cuts.svg date 2025/06/22 14:53:07 </title>
  <desc>Image generated by PCBNEW </desc>
<g style="fill:#000000; fill-opacity:1.0000;stroke:#000000; stroke-opacity:1.0000;
stroke-linecap:round; stroke-linejoin:round;"
 transform="translate(0 0) scale(1 1)">
</g>
<g style="fill:none; 
stroke:#000000; stroke-width:0.0500; stroke-opacity:1; 
stroke-linecap:round; stroke-linejoin:round;">
<path d="M197.3193 133.4871
L197.6791 132.5446
" />
<path d="M197.6791 132.5446 A1.9961 1.9961 0.0 0 0 197.7176 132.4343" />
<path d="M182.4113 143.4950
L182.7450 143.4909
" />
<path d="M191.0000 104.6120
L191.0000 39.0000
" />
<path d="M187.5329 142.5795 A2.0001 2.0001 0.0 0 0 187.7236 142.5109" />
<path d="M195.2539 136.9780 A2.0029 2.0029 0.0 0 0 195.3599 136.8373" />
<path d="M198.0875 131.2452
L198.3703 130.0343
" />
<path d="M194.3093 138.1118 A1.9999 1.9999 0.0 0 0 194.4251 137.9831" />
<path d="M168.9142 36.4142 A2.0000 2.0000 0.0 0 0 170.3284 37.0000" />
<path d="M194.4251 137.9831
L195.2539 136.9780
" />
<path d="M192.1049 140.1091 A2.0022 2.0022 0.0 0 0 192.2123 140.0273" />
<path d="M196.2882 135.4846 A1.9992 1.9992 0.0 0 0 196.4180 135.2672" />
<path d="M161.6716 30.0000
L83.3284 30.0000
" />
<path d="M198.6055 125.0146 A2.0005 2.0005 0.0 0 0 198.5696 124.7005" />
<path d="M198.2396 123.0106 A2.0005 2.0005 0.0 0 0 198.1902 122.8119" />
<path d="M189.8528 141.5486 A2.0038 2.0038 0.0 0 0 189.9652 141.4878" />
<path d="M193.2144 139.2098 A1.9993 1.9993 0.0 0 0 193.3774 139.0612" />
<path d="M163.0858 30.5858 A1.9999 1.9999 0.0 0 0 161.6716 30.0000" />
<path d="M193.3774 139.0612
L194.3093 138.1118
" />
<path d="M183.9111 143.3908
L185.1710 143.2018
" />
<path d="M197.7176 132.4343
L198.0468 131.3933
" />
<path d="M81.4142 142.9142 A1.9999 1.9999 0.0 0 0 82.8284 143.5000" />
<path d="M188.9074 142.0162 A1.9994 1.9994 0.0 0 0 189.0307 141.9597" />
<path d="M191.1329 140.7983
L192.1049 140.1091
" />
<path d="M189.0000 37.0000
L170.3284 37.0000
" />
<path d="M198.5764 128.6544 A1.9984 1.9984 0.0 0 0 198.5945 128.4647" />
<path d="M56.0858 117.5858
L81.4142 142.9142
" />
<path d="M197.6756 121.1200 A1.9991 1.9991 0.0 0 0 197.5616 120.8289" />
<path d="M182.7450 143.4909 A2.0004 2.0004 0.0 0 0 182.8947 143.4835" />
<path d="M198.5945 128.4647
L198.6661 126.9621
" />
<path d="M57.5000 44.5000 A2.0000 2.0000 0.0 0 0 55.5000 46.5000" />
<path d="M182.4100 143.4937 A3267.5649 3267.5649 0.0 1 0 182.4087 143.4950" />
<path d="M182.0265 143.5000 A2.0071 2.0071 0.0 0 0 182.0535 143.4998" />
<path d="M198.6672 126.7978
L198.6055 125.0146
" />
<path d="M81.9142 30.5858
L76.5858 35.9142
" />
<path d="M168.9142 36.4142
L163.0858 30.5858
" />
<path d="M195.3599 136.8373
L196.2882 135.4846
" />
<path d="M187.7236 142.5109
L188.9074 142.0162
" />
<path d="M197.5616 120.8289
L196.5239 118.6901
" />
<path d="M198.5696 124.7005
L198.2396 123.0106
" />
<path d="M198.1902 122.8119
L197.6756 121.1200
" />
<path d="M182.0535 143.4998
L182.4087 143.4950
" />
<path d="M189.9652 141.4878
L190.9828 140.8950
" />
<path d="M192.2123 140.0273
L193.2144 139.2098
" />
<path d="M185.3278 143.1719
L186.3459 142.9349
" />
<path d="M82.8284 143.5000
L182.0265 143.5000
" />
<path d="M74.0000 44.5000 A2.0000 2.0000 0.0 0 0 76.0000 42.5000" />
<path d="M76.5858 35.9142 A1.9999 1.9999 0.0 0 0 76.0000 37.3284" />
<path d="M76.0000 37.3284
L76.0000 42.5000
" />
<path d="M190.9828 140.8950 A2.0008 2.0008 0.0 0 0 191.1329 140.7983" />
<path d="M74.0000 44.5000
L57.5000 44.5000
" />
<path d="M191.0000 104.6120 A2.0000 2.0000 0.0 0 0 191.1451 105.3598" />
<path d="M183.7885 143.4054 A2.0010 2.0010 0.0 0 0 183.9111 143.3908" />
<path d="M197.2297 133.6880 A2.0014 2.0014 0.0 0 0 197.3193 133.4871" />
<path d="M185.1710 143.2018 A2.0004 2.0004 0.0 0 0 185.3278 143.1719" />
<path d="M55.5000 46.5000
L55.5000 116.1716
" />
<path d="M186.3459 142.9349 A2.0025 2.0025 0.0 0 0 186.4730 142.9009" />
<path d="M196.4683 118.5648 A2.0003 2.0003 0.0 0 0 196.5239 118.6901" />
<path d="M196.4180 135.2672
L197.2297 133.6880
" />
<path d="M55.5000 116.1716 A2.0000 2.0000 0.0 0 0 56.0858 117.5858" />
<path d="M182.8947 143.4835
L183.7885 143.4054
" />
<path d="M186.4730 142.9009
L187.5329 142.5795
" />
<path d="M198.0468 131.3933 A2.0005 2.0005 0.0 0 0 198.0875 131.2452" />
<path d="M191.0000 39.0000 A2.0000 2.0000 0.0 0 0 189.0000 37.0000" />
<path d="M198.3703 130.0343 A1.9988 1.9988 0.0 0 0 198.4023 129.8643" />
<path d="M83.3284 30.0000 A2.0001 2.0001 0.0 0 0 81.9142 30.5858" />
<path d="M198.6661 126.9621 A1.9992 1.9992 0.0 0 0 198.6672 126.7978" />
<path d="M196.4684 118.5648
L191.1451 105.3598
" />
<path d="M198.4023 129.8643
L198.5764 128.6544
" />
<path d="M189.0307 141.9597
L189.8528 141.5486
" />
</g>
<g style="fill:none; 
stroke:#000000; stroke-width:1.5000; stroke-opacity:1; 
stroke-linecap:round; stroke-linejoin:round;">
<text x="78.5000" y="126.0000"
textLength="40.5952" font-size="13.3333" lengthAdjust="spacingAndGlyphs"
text-anchor="start" opacity="0" stroke-opacity="0">STNO</text>
<g class="stroked-text"><desc>STNO</desc>
<path d="M81.3916 124.2220
L82.8202 124.6982
" />
<path d="M82.8202 124.6982
L85.2011 124.6982
" />
<path d="M85.2011 124.6982
L86.1535 124.2220
" />
<path d="M86.1535 124.2220
L86.6297 123.7458
" />
<path d="M86.6297 123.7458
L87.1059 122.7934
" />
<path d="M87.1059 122.7934
L87.1059 121.8410
" />
<path d="M87.1059 121.8410
L86.6297 120.8887
" />
<path d="M86.6297 120.8887
L86.1535 120.4125
" />
<path d="M86.1535 120.4125
L85.2011 119.9363
" />
<path d="M85.2011 119.9363
L83.2964 119.4601
" />
<path d="M83.2964 119.4601
L82.3440 118.9839
" />
<path d="M82.3440 118.9839
L81.8678 118.5077
" />
<path d="M81.8678 118.5077
L81.3916 117.5553
" />
<path d="M81.3916 117.5553
L81.3916 116.6030
" />
<path d="M81.3916 116.6030
L81.8678 115.6506
" />
<path d="M81.8678 115.6506
L82.3440 115.1744
" />
<path d="M82.3440 115.1744
L83.2964 114.6982
" />
<path d="M83.2964 114.6982
L85.6773 114.6982
" />
<path d="M85.6773 114.6982
L87.1059 115.1744
" />
<path d="M89.9630 114.6982
L95.6773 114.6982
" />
<path d="M92.8202 124.6982
L92.8202 114.6982
" />
<path d="M99.0107 124.6982
L99.0107 114.6982
" />
<path d="M99.0107 114.6982
L104.7249 124.6982
" />
<path d="M104.7249 124.6982
L104.7249 114.6982
" />
<path d="M111.3916 114.6982
L113.2964 114.6982
" />
<path d="M113.2964 114.6982
L114.2487 115.1744
" />
<path d="M114.2487 115.1744
L115.2011 116.1268
" />
<path d="M115.2011 116.1268
L115.6773 118.0315
" />
<path d="M115.6773 118.0315
L115.6773 121.3649
" />
<path d="M115.6773 121.3649
L115.2011 123.2696
" />
<path d="M115.2011 123.2696
L114.2487 124.2220
" />
<path d="M114.2487 124.2220
L113.2964 124.6982
" />
<path d="M113.2964 124.6982
L111.3916 124.6982
" />
<path d="M111.3916 124.6982
L110.4392 124.2220
" />
<path d="M110.4392 124.2220
L109.4868 123.2696
" />
<path d="M109.4868 123.2696
L109.0107 121.3649
" />
<path d="M109.0107 121.3649
L109.0107 118.0315
" />
<path d="M109.0107 118.0315
L109.4868 116.1268
" />
<path d="M109.4868 116.1268
L110.4392 115.1744
" />
<path d="M110.4392 115.1744
L111.3916 114.6982
" />
</g></g>
<g style="fill:none; 
stroke:#000000; stroke-width:0.3000; stroke-opacity:1; 
stroke-linecap:round; stroke-linejoin:round;">
<text x="80.0000" y="129.5000"
textLength="51.3571" font-size="2.6667" lengthAdjust="spacingAndGlyphs"
text-anchor="start" opacity="0" stroke-opacity="0">Made by @itsme with skill issues</text>
<g class="stroked-text"><desc>Made by @itsme with skill issues</desc>
<path d="M80.6736 129.2396
L80.6736 127.2396
" />
<path d="M80.6736 127.2396
L81.3402 128.6682
" />
<path d="M81.3402 128.6682
L82.0069 127.2396
" />
<path d="M82.0069 127.2396
L82.0069 129.2396
" />
<path d="M83.8164 129.2396
L83.8164 128.1920
" />
<path d="M83.8164 128.1920
L83.7212 128.0015
" />
<path d="M83.7212 128.0015
L83.5307 127.9063
" />
<path d="M83.5307 127.9063
L83.1497 127.9063
" />
<path d="M83.1497 127.9063
L82.9593 128.0015
" />
<path d="M83.8164 129.1444
L83.6259 129.2396
" />
<path d="M83.6259 129.2396
L83.1497 129.2396
" />
<path d="M83.1497 129.2396
L82.9593 129.1444
" />
<path d="M82.9593 129.1444
L82.8640 128.9539
" />
<path d="M82.8640 128.9539
L82.8640 128.7634
" />
<path d="M82.8640 128.7634
L82.9593 128.5730
" />
<path d="M82.9593 128.5730
L83.1497 128.4777
" />
<path d="M83.1497 128.4777
L83.6259 128.4777
" />
<path d="M83.6259 128.4777
L83.8164 128.3825
" />
<path d="M85.6259 129.2396
L85.6259 127.2396
" />
<path d="M85.6259 129.1444
L85.4355 129.2396
" />
<path d="M85.4355 129.2396
L85.0545 129.2396
" />
<path d="M85.0545 129.2396
L84.8640 129.1444
" />
<path d="M84.8640 129.1444
L84.7688 129.0492
" />
<path d="M84.7688 129.0492
L84.6736 128.8587
" />
<path d="M84.6736 128.8587
L84.6736 128.2873
" />
<path d="M84.6736 128.2873
L84.7688 128.0968
" />
<path d="M84.7688 128.0968
L84.8640 128.0015
" />
<path d="M84.8640 128.0015
L85.0545 127.9063
" />
<path d="M85.0545 127.9063
L85.4355 127.9063
" />
<path d="M85.4355 127.9063
L85.6259 128.0015
" />
<path d="M87.3402 129.1444
L87.1497 129.2396
" />
<path d="M87.1497 129.2396
L86.7688 129.2396
" />
<path d="M86.7688 129.2396
L86.5783 129.1444
" />
<path d="M86.5783 129.1444
L86.4831 128.9539
" />
<path d="M86.4831 128.9539
L86.4831 128.1920
" />
<path d="M86.4831 128.1920
L86.5783 128.0015
" />
<path d="M86.5783 128.0015
L86.7688 127.9063
" />
<path d="M86.7688 127.9063
L87.1497 127.9063
" />
<path d="M87.1497 127.9063
L87.3402 128.0015
" />
<path d="M87.3402 128.0015
L87.4355 128.1920
" />
<path d="M87.4355 128.1920
L87.4355 128.3825
" />
<path d="M87.4355 128.3825
L86.4831 128.5730
" />
<path d="M89.8164 129.2396
L89.8164 127.2396
" />
<path d="M89.8164 128.0015
L90.0069 127.9063
" />
<path d="M90.0069 127.9063
L90.3878 127.9063
" />
<path d="M90.3878 127.9063
L90.5783 128.0015
" />
<path d="M90.5783 128.0015
L90.6736 128.0968
" />
<path d="M90.6736 128.0968
L90.7688 128.2873
" />
<path d="M90.7688 128.2873
L90.7688 128.8587
" />
<path d="M90.7688 128.8587
L90.6736 129.0492
" />
<path d="M90.6736 129.0492
L90.5783 129.1444
" />
<path d="M90.5783 129.1444
L90.3878 129.2396
" />
<path d="M90.3878 129.2396
L90.0069 129.2396
" />
<path d="M90.0069 129.2396
L89.8164 129.1444
" />
<path d="M91.4355 127.9063
L91.9117 129.2396
" />
<path d="M92.3878 127.9063
L91.9117 129.2396
" />
<path d="M91.9117 129.2396
L91.7212 129.7158
" />
<path d="M91.7212 129.7158
L91.6259 129.8111
" />
<path d="M91.6259 129.8111
L91.4355 129.9063
" />
<path d="M95.9117 128.2873
L95.8164 128.1920
" />
<path d="M95.8164 128.1920
L95.6259 128.0968
" />
<path d="M95.6259 128.0968
L95.4355 128.0968
" />
<path d="M95.4355 128.0968
L95.2450 128.1920
" />
<path d="M95.2450 128.1920
L95.1497 128.2873
" />
<path d="M95.1497 128.2873
L95.0545 128.4777
" />
<path d="M95.0545 128.4777
L95.0545 128.6682
" />
<path d="M95.0545 128.6682
L95.1497 128.8587
" />
<path d="M95.1497 128.8587
L95.2450 128.9539
" />
<path d="M95.2450 128.9539
L95.4355 129.0492
" />
<path d="M95.4355 129.0492
L95.6259 129.0492
" />
<path d="M95.6259 129.0492
L95.8164 128.9539
" />
<path d="M95.8164 128.9539
L95.9117 128.8587
" />
<path d="M95.9117 128.0968
L95.9117 128.8587
" />
<path d="M95.9117 128.8587
L96.0069 128.9539
" />
<path d="M96.0069 128.9539
L96.1021 128.9539
" />
<path d="M96.1021 128.9539
L96.2926 128.8587
" />
<path d="M96.2926 128.8587
L96.3878 128.6682
" />
<path d="M96.3878 128.6682
L96.3878 128.1920
" />
<path d="M96.3878 128.1920
L96.1974 127.9063
" />
<path d="M96.1974 127.9063
L95.9117 127.7158
" />
<path d="M95.9117 127.7158
L95.5307 127.6206
" />
<path d="M95.5307 127.6206
L95.1497 127.7158
" />
<path d="M95.1497 127.7158
L94.8640 127.9063
" />
<path d="M94.8640 127.9063
L94.6736 128.1920
" />
<path d="M94.6736 128.1920
L94.5783 128.5730
" />
<path d="M94.5783 128.5730
L94.6736 128.9539
" />
<path d="M94.6736 128.9539
L94.8640 129.2396
" />
<path d="M94.8640 129.2396
L95.1497 129.4301
" />
<path d="M95.1497 129.4301
L95.5307 129.5254
" />
<path d="M95.5307 129.5254
L95.9117 129.4301
" />
<path d="M95.9117 129.4301
L96.1974 129.2396
" />
<path d="M97.2450 129.2396
L97.2450 127.9063
" />
<path d="M97.2450 127.2396
L97.1498 127.3349
" />
<path d="M97.1498 127.3349
L97.2450 127.4301
" />
<path d="M97.2450 127.4301
L97.3402 127.3349
" />
<path d="M97.3402 127.3349
L97.2450 127.2396
" />
<path d="M97.2450 127.2396
L97.2450 127.4301
" />
<path d="M97.9117 127.9063
L98.6736 127.9063
" />
<path d="M98.1974 127.2396
L98.1974 128.9539
" />
<path d="M98.1974 128.9539
L98.2926 129.1444
" />
<path d="M98.2926 129.1444
L98.4831 129.2396
" />
<path d="M98.4831 129.2396
L98.6736 129.2396
" />
<path d="M99.2450 129.1444
L99.4355 129.2396
" />
<path d="M99.4355 129.2396
L99.8164 129.2396
" />
<path d="M99.8164 129.2396
L100.0069 129.1444
" />
<path d="M100.0069 129.1444
L100.1021 128.9539
" />
<path d="M100.1021 128.9539
L100.1021 128.8587
" />
<path d="M100.1021 128.8587
L100.0069 128.6682
" />
<path d="M100.0069 128.6682
L99.8164 128.5730
" />
<path d="M99.8164 128.5730
L99.5307 128.5730
" />
<path d="M99.5307 128.5730
L99.3402 128.4777
" />
<path d="M99.3402 128.4777
L99.2450 128.2873
" />
<path d="M99.2450 128.2873
L99.2450 128.1920
" />
<path d="M99.2450 128.1920
L99.3402 128.0015
" />
<path d="M99.3402 128.0015
L99.5307 127.9063
" />
<path d="M99.5307 127.9063
L99.8164 127.9063
" />
<path d="M99.8164 127.9063
L100.0069 128.0015
" />
<path d="M100.9593 129.2396
L100.9593 127.9063
" />
<path d="M100.9593 128.0968
L101.0545 128.0015
" />
<path d="M101.0545 128.0015
L101.2450 127.9063
" />
<path d="M101.2450 127.9063
L101.5307 127.9063
" />
<path d="M101.5307 127.9063
L101.7212 128.0015
" />
<path d="M101.7212 128.0015
L101.8164 128.1920
" />
<path d="M101.8164 128.1920
L101.8164 129.2396
" />
<path d="M101.8164 128.1920
L101.9117 128.0015
" />
<path d="M101.9117 128.0015
L102.1021 127.9063
" />
<path d="M102.1021 127.9063
L102.3878 127.9063
" />
<path d="M102.3878 127.9063
L102.5783 128.0015
" />
<path d="M102.5783 128.0015
L102.6736 128.1920
" />
<path d="M102.6736 128.1920
L102.6736 129.2396
" />
<path d="M104.3878 129.1444
L104.1974 129.2396
" />
<path d="M104.1974 129.2396
L103.8164 129.2396
" />
<path d="M103.8164 129.2396
L103.6259 129.1444
" />
<path d="M103.6259 129.1444
L103.5307 128.9539
" />
<path d="M103.5307 128.9539
L103.5307 128.1920
" />
<path d="M103.5307 128.1920
L103.6259 128.0015
" />
<path d="M103.6259 128.0015
L103.8164 127.9063
" />
<path d="M103.8164 127.9063
L104.1974 127.9063
" />
<path d="M104.1974 127.9063
L104.3878 128.0015
" />
<path d="M104.3878 128.0015
L104.4831 128.1920
" />
<path d="M104.4831 128.1920
L104.4831 128.3825
" />
<path d="M104.4831 128.3825
L103.5307 128.5730
" />
<path d="M106.6736 127.9063
L107.0545 129.2396
" />
<path d="M107.0545 129.2396
L107.4355 128.2873
" />
<path d="M107.4355 128.2873
L107.8164 129.2396
" />
<path d="M107.8164 129.2396
L108.1974 127.9063
" />
<path d="M108.9593 129.2396
L108.9593 127.9063
" />
<path d="M108.9593 127.2396
L108.8640 127.3349
" />
<path d="M108.8640 127.3349
L108.9593 127.4301
" />
<path d="M108.9593 127.4301
L109.0545 127.3349
" />
<path d="M109.0545 127.3349
L108.9593 127.2396
" />
<path d="M108.9593 127.2396
L108.9593 127.4301
" />
<path d="M109.6259 127.9063
L110.3878 127.9063
" />
<path d="M109.9117 127.2396
L109.9117 128.9539
" />
<path d="M109.9117 128.9539
L110.0069 129.1444
" />
<path d="M110.0069 129.1444
L110.1974 129.2396
" />
<path d="M110.1974 129.2396
L110.3878 129.2396
" />
<path d="M111.0545 129.2396
L111.0545 127.2396
" />
<path d="M111.9117 129.2396
L111.9117 128.1920
" />
<path d="M111.9117 128.1920
L111.8164 128.0015
" />
<path d="M111.8164 128.0015
L111.6259 127.9063
" />
<path d="M111.6259 127.9063
L111.3402 127.9063
" />
<path d="M111.3402 127.9063
L111.1498 128.0015
" />
<path d="M111.1498 128.0015
L111.0545 128.0968
" />
<path d="M114.2926 129.1444
L114.4831 129.2396
" />
<path d="M114.4831 129.2396
L114.8640 129.2396
" />
<path d="M114.8640 129.2396
L115.0545 129.1444
" />
<path d="M115.0545 129.1444
L115.1498 128.9539
" />
<path d="M115.1498 128.9539
L115.1498 128.8587
" />
<path d="M115.1498 128.8587
L115.0545 128.6682
" />
<path d="M115.0545 128.6682
L114.8640 128.5730
" />
<path d="M114.8640 128.5730
L114.5783 128.5730
" />
<path d="M114.5783 128.5730
L114.3878 128.4777
" />
<path d="M114.3878 128.4777
L114.2926 128.2873
" />
<path d="M114.2926 128.2873
L114.2926 128.1920
" />
<path d="M114.2926 128.1920
L114.3878 128.0015
" />
<path d="M114.3878 128.0015
L114.5783 127.9063
" />
<path d="M114.5783 127.9063
L114.8640 127.9063
" />
<path d="M114.8640 127.9063
L115.0545 128.0015
" />
<path d="M116.0069 129.2396
L116.0069 127.2396
" />
<path d="M116.1974 128.4777
L116.7688 129.2396
" />
<path d="M116.7688 127.9063
L116.0069 128.6682
" />
<path d="M117.6259 129.2396
L117.6259 127.9063
" />
<path d="M117.6259 127.2396
L117.5307 127.3349
" />
<path d="M117.5307 127.3349
L117.6259 127.4301
" />
<path d="M117.6259 127.4301
L117.7212 127.3349
" />
<path d="M117.7212 127.3349
L117.6259 127.2396
" />
<path d="M117.6259 127.2396
L117.6259 127.4301
" />
<path d="M118.8640 129.2396
L118.6736 129.1444
" />
<path d="M118.6736 129.1444
L118.5783 128.9539
" />
<path d="M118.5783 128.9539
L118.5783 127.2396
" />
<path d="M119.9117 129.2396
L119.7212 129.1444
" />
<path d="M119.7212 129.1444
L119.6259 128.9539
" />
<path d="M119.6259 128.9539
L119.6259 127.2396
" />
<path d="M122.1974 129.2396
L122.1974 127.9063
" />
<path d="M122.1974 127.2396
L122.1021 127.3349
" />
<path d="M122.1021 127.3349
L122.1974 127.4301
" />
<path d="M122.1974 127.4301
L122.2926 127.3349
" />
<path d="M122.2926 127.3349
L122.1974 127.2396
" />
<path d="M122.1974 127.2396
L122.1974 127.4301
" />
<path d="M123.0545 129.1444
L123.2450 129.2396
" />
<path d="M123.2450 129.2396
L123.6259 129.2396
" />
<path d="M123.6259 129.2396
L123.8164 129.1444
" />
<path d="M123.8164 129.1444
L123.9117 128.9539
" />
<path d="M123.9117 128.9539
L123.9117 128.8587
" />
<path d="M123.9117 128.8587
L123.8164 128.6682
" />
<path d="M123.8164 128.6682
L123.6259 128.5730
" />
<path d="M123.6259 128.5730
L123.3402 128.5730
" />
<path d="M123.3402 128.5730
L123.1498 128.4777
" />
<path d="M123.1498 128.4777
L123.0545 128.2873
" />
<path d="M123.0545 128.2873
L123.0545 128.1920
" />
<path d="M123.0545 128.1920
L123.1498 128.0015
" />
<path d="M123.1498 128.0015
L123.3402 127.9063
" />
<path d="M123.3402 127.9063
L123.6259 127.9063
" />
<path d="M123.6259 127.9063
L123.8164 128.0015
" />
<path d="M124.6736 129.1444
L124.8640 129.2396
" />
<path d="M124.8640 129.2396
L125.2450 129.2396
" />
<path d="M125.2450 129.2396
L125.4355 129.1444
" />
<path d="M125.4355 129.1444
L125.5307 128.9539
" />
<path d="M125.5307 128.9539
L125.5307 128.8587
" />
<path d="M125.5307 128.8587
L125.4355 128.6682
" />
<path d="M125.4355 128.6682
L125.2450 128.5730
" />
<path d="M125.2450 128.5730
L124.9593 128.5730
" />
<path d="M124.9593 128.5730
L124.7688 128.4777
" />
<path d="M124.7688 128.4777
L124.6736 128.2873
" />
<path d="M124.6736 128.2873
L124.6736 128.1920
" />
<path d="M124.6736 128.1920
L124.7688 128.0015
" />
<path d="M124.7688 128.0015
L124.9593 127.9063
" />
<path d="M124.9593 127.9063
L125.2450 127.9063
" />
<path d="M125.2450 127.9063
L125.4355 128.0015
" />
<path d="M127.2450 127.9063
L127.2450 129.2396
" />
<path d="M126.3879 127.9063
L126.3879 128.9539
" />
<path d="M126.3879 128.9539
L126.4831 129.1444
" />
<path d="M126.4831 129.1444
L126.6736 129.2396
" />
<path d="M126.6736 129.2396
L126.9593 129.2396
" />
<path d="M126.9593 129.2396
L127.1498 129.1444
" />
<path d="M127.1498 129.1444
L127.2450 129.0492
" />
<path d="M128.9593 129.1444
L128.7688 129.2396
" />
<path d="M128.7688 129.2396
L128.3878 129.2396
" />
<path d="M128.3878 129.2396
L128.1974 129.1444
" />
<path d="M128.1974 129.1444
L128.1021 128.9539
" />
<path d="M128.1021 128.9539
L128.1021 128.1920
" />
<path d="M128.1021 128.1920
L128.1974 128.0015
" />
<path d="M128.1974 128.0015
L128.3878 127.9063
" />
<path d="M128.3878 127.9063
L128.7688 127.9063
" />
<path d="M128.7688 127.9063
L128.9593 128.0015
" />
<path d="M128.9593 128.0015
L129.0545 128.1920
" />
<path d="M129.0545 128.1920
L129.0545 128.3825
" />
<path d="M129.0545 128.3825
L128.1021 128.5730
" />
<path d="M129.8164 129.1444
L130.0069 129.2396
" />
<path d="M130.0069 129.2396
L130.3878 129.2396
" />
<path d="M130.3878 129.2396
L130.5783 129.1444
" />
<path d="M130.5783 129.1444
L130.6736 128.9539
" />
<path d="M130.6736 128.9539
L130.6736 128.8587
" />
<path d="M130.6736 128.8587
L130.5783 128.6682
" />
<path d="M130.5783 128.6682
L130.3878 128.5730
" />
<path d="M130.3878 128.5730
L130.1021 128.5730
" />
<path d="M130.1021 128.5730
L129.9117 128.4777
" />
<path d="M129.9117 128.4777
L129.8164 128.2873
" />
<path d="M129.8164 128.2873
L129.8164 128.1920
" />
<path d="M129.8164 128.1920
L129.9117 128.0015
" />
<path d="M129.9117 128.0015
L130.1021 127.9063
" />
<path d="M130.1021 127.9063
L130.3878 127.9063
" />
<path d="M130.3878 127.9063
L130.5783 128.0015
" />
</g></g>
<g style="fill:none; 
stroke:#000000; stroke-width:0.1000; stroke-opacity:1; 
stroke-linecap:round; stroke-linejoin:round;">
<path d="M141.1505 40.9610
L140.7695 40.9610
" />
<path d="M141.1505 41.4690
L140.7695 41.4690
" />
<path d="M149.6595 43.5010
L150.0405 43.5010
" />
<path d="M149.6595 44.0090
L150.0405 44.0090
" />
<path d="M140.7695 41.4690 A1.4824 1.4824 0.0 1 0 140.7694 40.9618" />
<path d="M141.1505 41.4690 A1.1090 1.1090 0.0 1 0 141.1506 40.9606" />
<path d="M149.6595 43.5010 A1.1090 1.1090 0.0 1 0 149.6594 44.0094" />
<path d="M150.0405 43.5010 A1.4824 1.4824 0.0 1 0 150.0406 44.0082" />
<path d="M107.1955 75.3900
L106.8145 75.3900
" />
<path d="M107.1955 75.8980
L106.8145 75.8980
" />
<path d="M115.7045 77.9300
L116.0855 77.9300
" />
<path d="M115.7045 78.4380
L116.0855 78.4380
" />
<path d="M106.8145 75.8980 A1.4824 1.4824 0.0 1 0 106.8144 75.3908" />
<path d="M107.1955 75.8980 A1.1090 1.1090 0.0 1 0 107.1956 75.3896" />
<path d="M115.7045 77.9300 A1.1090 1.1090 0.0 1 0 115.7044 78.4384" />
<path d="M116.0855 77.9300 A1.4824 1.4824 0.0 1 0 116.0856 78.4372" />
<path d="M158.1955 75.3900
L157.8145 75.3900
" />
<path d="M158.1955 75.8980
L157.8145 75.8980
" />
<path d="M166.7045 77.9300
L167.0855 77.9300
" />
<path d="M166.7045 78.4380
L167.0855 78.4380
" />
<path d="M157.8145 75.8980 A1.4824 1.4824 0.0 1 0 157.8144 75.3908" />
<path d="M158.1955 75.8980 A1.1090 1.1090 0.0 1 0 158.1956 75.3896" />
<path d="M166.7045 77.9300 A1.1090 1.1090 0.0 1 0 166.7044 78.4384" />
<path d="M167.0855 77.9300 A1.4824 1.4824 0.0 1 0 167.0856 78.4372" />
<path d="M107.2005 40.9660
L106.8195 40.9660
" />
<path d="M107.2005 41.4740
L106.8195 41.4740
" />
<path d="M115.7095 43.5060
L116.0905 43.5060
" />
<path d="M115.7095 44.0140
L116.0905 44.0140
" />
<path d="M106.8195 41.4740 A1.4824 1.4824 0.0 1 0 106.8194 40.9668" />
<path d="M107.2005 41.4740 A1.1090 1.1090 0.0 1 0 107.2006 40.9656" />
<path d="M115.7095 43.5060 A1.1090 1.1090 0.0 1 0 115.7094 44.0144" />
<path d="M116.0905 43.5060 A1.4824 1.4824 0.0 1 0 116.0906 44.0132" />
<path d="M141.1350 92.7460
L140.7540 92.7460
" />
<path d="M141.1350 93.2540
L140.7540 93.2540
" />
<path d="M149.6440 95.2860
L150.0250 95.2860
" />
<path d="M149.6440 95.7940
L150.0250 95.7940
" />
<path d="M140.7540 93.2540 A1.4824 1.4824 0.0 1 0 140.7539 92.7468" />
<path d="M141.1350 93.2540 A1.1090 1.1090 0.0 1 0 141.1351 92.7456" />
<path d="M149.6440 95.2860 A1.1090 1.1090 0.0 1 0 149.6439 95.7944" />
<path d="M150.0250 95.2860 A1.4824 1.4824 0.0 1 0 150.0251 95.7932" />
<path d="M90.2005 57.9860
L89.8195 57.9860
" />
<path d="M90.2005 58.4940
L89.8195 58.4940
" />
<path d="M98.7095 60.5260
L99.0905 60.5260
" />
<path d="M98.7095 61.0340
L99.0905 61.0340
" />
<path d="M89.8195 58.4940 A1.4824 1.4824 0.0 1 0 89.8194 57.9868" />
<path d="M90.2005 58.4940 A1.1090 1.1090 0.0 1 0 90.2006 57.9856" />
<path d="M98.7095 60.5260 A1.1090 1.1090 0.0 1 0 98.7094 61.0344" />
<path d="M99.0905 60.5260 A1.4824 1.4824 0.0 1 0 99.0906 61.0332" />
<path d="M175.4990 48.6910
L175.1180 48.6910
" />
<path d="M175.4990 49.1990
L175.1180 49.1990
" />
<path d="M184.0080 51.2310
L184.3890 51.2310
" />
<path d="M184.0080 51.7390
L184.3890 51.7390
" />
<path d="M175.1180 49.1990 A1.4824 1.4824 0.0 1 0 175.1179 48.6918" />
<path d="M175.4990 49.1990 A1.1090 1.1090 0.0 1 0 175.4991 48.6906" />
<path d="M184.0080 51.2310 A1.1090 1.1090 0.0 1 0 184.0079 51.7394" />
<path d="M184.3890 51.2310 A1.4824 1.4824 0.0 1 0 184.3891 51.7382" />
<path d="M141.1505 75.3910
L140.7695 75.3910
" />
<path d="M141.1505 75.8990
L140.7695 75.8990
" />
<path d="M149.6595 77.9310
L150.0405 77.9310
" />
<path d="M149.6595 78.4390
L150.0405 78.4390
" />
<path d="M140.7695 75.8990 A1.4824 1.4824 0.0 1 0 140.7694 75.3918" />
<path d="M141.1505 75.8990 A1.1090 1.1090 0.0 1 0 141.1506 75.3906" />
<path d="M149.6595 77.9310 A1.1090 1.1090 0.0 1 0 149.6594 78.4394" />
<path d="M150.0405 77.9310 A1.4824 1.4824 0.0 1 0 150.0406 78.4382" />
<path d="M175.5890 100.3460
L175.2080 100.3460
" />
<path d="M175.5890 100.8540
L175.2080 100.8540
" />
<path d="M184.0980 102.8860
L184.4790 102.8860
" />
<path d="M184.0980 103.3940
L184.4790 103.3940
" />
<path d="M175.2080 100.8540 A1.4824 1.4824 0.0 1 0 175.2079 100.3468" />
<path d="M175.5890 100.8540 A1.1090 1.1090 0.0 1 0 175.5891 100.3456" />
<path d="M184.0980 102.8860 A1.1090 1.1090 0.0 1 0 184.0979 103.3944" />
<path d="M184.4790 102.8860 A1.4824 1.4824 0.0 1 0 184.4791 103.3932" />
<path d="M90.2055 40.9660
L89.8245 40.9660
" />
<path d="M90.2055 41.4740
L89.8245 41.4740
" />
<path d="M98.7145 43.5060
L99.0955 43.5060
" />
<path d="M98.7145 44.0140
L99.0955 44.0140
" />
<path d="M89.8245 41.4740 A1.4824 1.4824 0.0 1 0 89.8244 40.9668" />
<path d="M90.2055 41.4740 A1.1090 1.1090 0.0 1 0 90.2056 40.9656" />
<path d="M98.7145 43.5060 A1.1090 1.1090 0.0 1 0 98.7144 44.0144" />
<path d="M99.0955 43.5060 A1.4824 1.4824 0.0 1 0 99.0956 44.0132" />
<path d="M124.2005 40.9660
L123.8195 40.9660
" />
<path d="M124.2005 41.4740
L123.8195 41.4740
" />
<path d="M132.7095 43.5060
L133.0905 43.5060
" />
<path d="M132.7095 44.0140
L133.0905 44.0140
" />
<path d="M123.8195 41.4740 A1.4824 1.4824 0.0 1 0 123.8194 40.9668" />
<path d="M124.2005 41.4740 A1.1090 1.1090 0.0 1 0 124.2006 40.9656" />
<path d="M132.7095 43.5060 A1.1090 1.1090 0.0 1 0 132.7094 44.0144" />
<path d="M133.0905 43.5060 A1.4824 1.4824 0.0 1 0 133.0906 44.0132" />
<path d="M124.2205 57.9960
L123.8395 57.9960
" />
<path d="M124.2205 58.5040
L123.8395 58.5040
" />
<path d="M132.7295 60.5360
L133.1105 60.5360
" />
<path d="M132.7295 61.0440
L133.1105 61.0440
" />
<path d="M123.8395 58.5040 A1.4824 1.4824 0.0 1 0 123.8394 57.9968" />
<path d="M124.2205 58.5040 A1.1090 1.1090 0.0 1 0 124.2206 57.9956" />
<path d="M132.7295 60.5360 A1.1090 1.1090 0.0 1 0 132.7294 61.0444" />
<path d="M133.1105 60.5360 A1.4824 1.4824 0.0 1 0 133.1106 61.0432" />
<path d="M90.1955 92.7240
L89.8145 92.7240
" />
<path d="M90.1955 93.2320
L89.8145 93.2320
" />
<path d="M98.7045 95.2640
L99.0855 95.2640
" />
<path d="M98.7045 95.7720
L99.0855 95.7720
" />
<path d="M89.8145 93.2320 A1.4824 1.4824 0.0 1 0 89.8144 92.7248" />
<path d="M90.1955 93.2320 A1.1090 1.1090 0.0 1 0 90.1956 92.7236" />
<path d="M98.7045 95.2640 A1.1090 1.1090 0.0 1 0 98.7044 95.7724" />
<path d="M99.0855 95.2640 A1.4824 1.4824 0.0 1 0 99.0856 95.7712" />
<path d="M64.4105 105.8860
L64.0295 105.8860
" />
<path d="M64.4105 106.3940
L64.0295 106.3940
" />
<path d="M72.9195 108.4260
L73.3005 108.4260
" />
<path d="M72.9195 108.9340
L73.3005 108.9340
" />
<path d="M64.0295 106.3940 A1.4824 1.4824 0.0 1 0 64.0294 105.8868" />
<path d="M64.4105 106.3940 A1.1090 1.1090 0.0 1 0 64.4106 105.8856" />
<path d="M72.9195 108.4260 A1.1090 1.1090 0.0 1 0 72.9194 108.9344" />
<path d="M73.3005 108.4260 A1.4824 1.4824 0.0 1 0 73.3006 108.9332" />
<path d="M158.2005 40.9660
L157.8195 40.9660
" />
<path d="M158.2005 41.4740
L157.8195 41.4740
" />
<path d="M166.7095 43.5060
L167.0905 43.5060
" />
<path d="M166.7095 44.0140
L167.0905 44.0140
" />
<path d="M157.8195 41.4740 A1.4824 1.4824 0.0 1 0 157.8194 40.9668" />
<path d="M158.2005 41.4740 A1.1090 1.1090 0.0 1 0 158.2006 40.9656" />
<path d="M166.7095 43.5060 A1.1090 1.1090 0.0 1 0 166.7094 44.0144" />
<path d="M167.0905 43.5060 A1.4824 1.4824 0.0 1 0 167.0906 44.0132" />
<path d="M90.1955 75.3900
L89.8145 75.3900
" />
<path d="M90.1955 75.8980
L89.8145 75.8980
" />
<path d="M98.7045 77.9300
L99.0855 77.9300
" />
<path d="M98.7045 78.4380
L99.0855 78.4380
" />
<path d="M89.8145 75.8980 A1.4824 1.4824 0.0 1 0 89.8144 75.3908" />
<path d="M90.1955 75.8980 A1.1090 1.1090 0.0 1 0 90.1956 75.3896" />
<path d="M98.7045 77.9300 A1.1090 1.1090 0.0 1 0 98.7044 78.4384" />
<path d="M99.0855 77.9300 A1.4824 1.4824 0.0 1 0 99.0856 78.4372" />
<path d="M158.1955 92.7240
L157.8145 92.7240
" />
<path d="M158.1955 93.2320
L157.8145 93.2320
" />
<path d="M166.7045 95.2640
L167.0855 95.2640
" />
<path d="M166.7045 95.7720
L167.0855 95.7720
" />
<path d="M157.8145 93.2320 A1.4824 1.4824 0.0 1 0 157.8144 92.7248" />
<path d="M158.1955 93.2320 A1.1090 1.1090 0.0 1 0 158.1956 92.7236" />
<path d="M166.7045 95.2640 A1.1090 1.1090 0.0 1 0 166.7044 95.7724" />
<path d="M167.0855 95.2640 A1.4824 1.4824 0.0 1 0 167.0856 95.7712" />
<path d="M175.5890 65.6460
L175.2080 65.6460
" />
<path d="M175.5890 66.1540
L175.2080 66.1540
" />
<path d="M184.0980 68.1860
L184.4790 68.1860
" />
<path d="M184.0980 68.6940
L184.4790 68.6940
" />
<path d="M175.2080 66.1540 A1.4824 1.4824 0.0 1 0 175.2079 65.6468" />
<path d="M175.5890 66.1540 A1.1090 1.1090 0.0 1 0 175.5891 65.6456" />
<path d="M184.0980 68.1860 A1.1090 1.1090 0.0 1 0 184.0979 68.6944" />
<path d="M184.4790 68.1860 A1.4824 1.4824 0.0 1 0 184.4791 68.6932" />
<path d="M158.2005 57.9860
L157.8195 57.9860
" />
<path d="M158.2005 58.4940
L157.8195 58.4940
" />
<path d="M166.7095 60.5260
L167.0905 60.5260
" />
<path d="M166.7095 61.0340
L167.0905 61.0340
" />
<path d="M157.8195 58.4940 A1.4824 1.4824 0.0 1 0 157.8194 57.9868" />
<path d="M158.2005 58.4940 A1.1090 1.1090 0.0 1 0 158.2006 57.9856" />
<path d="M166.7095 60.5260 A1.1090 1.1090 0.0 1 0 166.7094 61.0344" />
<path d="M167.0905 60.5260 A1.4824 1.4824 0.0 1 0 167.0906 61.0332" />
<path d="M107.1955 92.7240
L106.8145 92.7240
" />
<path d="M107.1955 93.2320
L106.8145 93.2320
" />
<path d="M115.7045 95.2640
L116.0855 95.2640
" />
<path d="M115.7045 95.7720
L116.0855 95.7720
" />
<path d="M106.8145 93.2320 A1.4824 1.4824 0.0 1 0 106.8144 92.7248" />
<path d="M107.1955 93.2320 A1.1090 1.1090 0.0 1 0 107.1956 92.7236" />
<path d="M115.7045 95.2640 A1.1090 1.1090 0.0 1 0 115.7044 95.7724" />
<path d="M116.0855 95.2640 A1.4824 1.4824 0.0 1 0 116.0856 95.7712" />
<path d="M175.5590 83.0460
L175.1780 83.0460
" />
<path d="M175.5590 83.5540
L175.1780 83.5540
" />
<path d="M184.0680 85.5860
L184.4490 85.5860
" />
<path d="M184.0680 86.0940
L184.4490 86.0940
" />
<path d="M175.1780 83.5540 A1.4824 1.4824 0.0 1 0 175.1779 83.0468" />
<path d="M175.5590 83.5540 A1.1090 1.1090 0.0 1 0 175.5591 83.0456" />
<path d="M184.0680 85.5860 A1.1090 1.1090 0.0 1 0 184.0679 86.0944" />
<path d="M184.4490 85.5860 A1.4824 1.4824 0.0 1 0 184.4491 86.0932" />
<path d="M141.1505 57.9660
L140.7695 57.9660
" />
<path d="M141.1505 58.4740
L140.7695 58.4740
" />
<path d="M149.6595 60.5060
L150.0405 60.5060
" />
<path d="M149.6595 61.0140
L150.0405 61.0140
" />
<path d="M140.7695 58.4740 A1.4824 1.4824 0.0 1 0 140.7694 57.9668" />
<path d="M141.1505 58.4740 A1.1090 1.1090 0.0 1 0 141.1506 57.9656" />
<path d="M149.6595 60.5060 A1.1090 1.1090 0.0 1 0 149.6594 61.0144" />
<path d="M150.0405 60.5060 A1.4824 1.4824 0.0 1 0 150.0406 61.0132" />
<path d="M124.1350 92.7460
L123.7540 92.7460
" />
<path d="M124.1350 93.2540
L123.7540 93.2540
" />
<path d="M132.6440 95.2860
L133.0250 95.2860
" />
<path d="M132.6440 95.7940
L133.0250 95.7940
" />
<path d="M123.7540 93.2540 A1.4824 1.4824 0.0 1 0 123.7539 92.7468" />
<path d="M124.1350 93.2540 A1.1090 1.1090 0.0 1 0 124.1351 92.7456" />
<path d="M132.6440 95.2860 A1.1090 1.1090 0.0 1 0 132.6439 95.7944" />
<path d="M133.0250 95.2860 A1.4824 1.4824 0.0 1 0 133.0251 95.7932" />
<path d="M107.2005 57.9860
L106.8195 57.9860
" />
<path d="M107.2005 58.4940
L106.8195 58.4940
" />
<path d="M115.7095 60.5260
L116.0905 60.5260
" />
<path d="M115.7095 61.0340
L116.0905 61.0340
" />
<path d="M106.8195 58.4940 A1.4824 1.4824 0.0 1 0 106.8194 57.9868" />
<path d="M107.2005 58.4940 A1.1090 1.1090 0.0 1 0 107.2006 57.9856" />
<path d="M115.7095 60.5260 A1.1090 1.1090 0.0 1 0 115.7094 61.0344" />
<path d="M116.0905 60.5260 A1.4824 1.4824 0.0 1 0 116.0906 61.0332" />
<path d="M124.1505 75.4160
L123.7695 75.4160
" />
<path d="M124.1505 75.9240
L123.7695 75.9240
" />
<path d="M132.6595 77.9560
L133.0405 77.9560
" />
<path d="M132.6595 78.4640
L133.0405 78.4640
" />
<path d="M123.7695 75.9240 A1.4824 1.4824 0.0 1 0 123.7694 75.4168" />
<path d="M124.1505 75.9240 A1.1090 1.1090 0.0 1 0 124.1506 75.4156" />
<path d="M132.6595 77.9560 A1.1090 1.1090 0.0 1 0 132.6594 78.4644" />
<path d="M133.0405 77.9560 A1.4824 1.4824 0.0 1 0 133.0406 78.4632" />
</g> 
</svg>
