%TF.GenerationSoftware,KiCad,Pcbnew,9.0.2*%
%TF.CreationDate,2025-06-30T11:43:15-04:00*%
%TF.ProjectId,PCB,5043422e-6b69-4636-9164-5f7063625858,rev?*%
%TF.SameCoordinates,Original*%
%TF.FileFunction,Copper,L1,Top*%
%TF.FilePolarity,Positive*%
%FSLAX46Y46*%
G04 Gerber Fmt 4.6, Leading zero omitted, Abs format (unit mm)*
G04 Created by KiCad (PCBNEW 9.0.2) date 2025-06-30 11:43:15*
%MOMM*%
%LPD*%
G01*
G04 APERTURE LIST*
%TA.AperFunction,SMDPad,CuDef*%
%ADD10R,1.500000X1.000000*%
%TD*%
%TA.AperFunction,ComponentPad*%
%ADD11C,1.238000*%
%TD*%
%TA.AperFunction,ComponentPad*%
%ADD12R,1.238000X1.238000*%
%TD*%
%TA.AperFunction,ComponentPad*%
%ADD13C,1.778000*%
%TD*%
%TA.AperFunction,ComponentPad*%
%ADD14C,2.286000*%
%TD*%
%TA.AperFunction,ComponentPad*%
%ADD15R,1.600000X1.600000*%
%TD*%
%TA.AperFunction,ComponentPad*%
%ADD16O,1.600000X1.600000*%
%TD*%
%TA.AperFunction,WasherPad*%
%ADD17C,1.750000*%
%TD*%
%TA.AperFunction,ComponentPad*%
%ADD18C,2.250000*%
%TD*%
%TA.AperFunction,ComponentPad*%
%ADD19R,1.524000X1.524000*%
%TD*%
%TA.AperFunction,ComponentPad*%
%ADD20C,1.524000*%
%TD*%
%TA.AperFunction,ViaPad*%
%ADD21C,0.600000*%
%TD*%
%TA.AperFunction,Conductor*%
%ADD22C,0.200000*%
%TD*%
G04 APERTURE END LIST*
D10*
%TO.P,D41,1,VSS*%
%TO.N,GND*%
X131300000Y-66325000D03*
%TO.P,D41,2,DIN*%
%TO.N,Net-(D41-DIN)*%
X131300000Y-69525000D03*
%TO.P,D41,3,VDD*%
%TO.N,+5V*%
X136200000Y-69525000D03*
%TO.P,D41,4,DOUT*%
%TO.N,Net-(D40-DIN)*%
X136200000Y-66325000D03*
%TD*%
D11*
%TO.P,D5,A*%
%TO.N,Net-(D5-PadA)*%
X73768500Y-112000000D03*
D12*
%TO.P,D5,K*%
%TO.N,Row 1*%
X66231500Y-112000000D03*
%TD*%
D11*
%TO.P,D3,A*%
%TO.N,Net-(D3-PadA)*%
X98037000Y-72500000D03*
D12*
%TO.P,D3,K*%
%TO.N,Row 1*%
X90500000Y-72500000D03*
%TD*%
D11*
%TO.P,D1,A*%
%TO.N,Net-(D1-PadA)*%
X98268500Y-38000000D03*
D12*
%TO.P,D1,K*%
%TO.N,Row 1*%
X90731500Y-38000000D03*
%TD*%
D11*
%TO.P,D2,A*%
%TO.N,Net-(D2-PadA)*%
X98537000Y-55000000D03*
D12*
%TO.P,D2,K*%
%TO.N,Row 1*%
X91000000Y-55000000D03*
%TD*%
D11*
%TO.P,D18,A*%
%TO.N,Net-(D18-PadA)*%
X149218500Y-72550000D03*
D12*
%TO.P,D18,K*%
%TO.N,Row 4*%
X141681500Y-72550000D03*
%TD*%
D11*
%TO.P,D14,A*%
%TO.N,Net-(D14-PadA)*%
X131513500Y-89874000D03*
D12*
%TO.P,D14,K*%
%TO.N,Row 3*%
X123976500Y-89874000D03*
%TD*%
D10*
%TO.P,D33,1,VSS*%
%TO.N,GND*%
X165600000Y-83900000D03*
%TO.P,D33,2,DIN*%
%TO.N,Net-(D32-DOUT)*%
X165600000Y-87100000D03*
%TO.P,D33,3,VDD*%
%TO.N,+5V*%
X170500000Y-87100000D03*
%TO.P,D33,4,DOUT*%
%TO.N,Net-(D33-DOUT)*%
X170500000Y-83900000D03*
%TD*%
%TO.P,D31,1,VSS*%
%TO.N,GND*%
X165700000Y-101100000D03*
%TO.P,D31,2,DIN*%
%TO.N,Net-(D30-DOUT)*%
X165700000Y-104300000D03*
%TO.P,D31,3,VDD*%
%TO.N,+5V*%
X170600000Y-104300000D03*
%TO.P,D31,4,DOUT*%
%TO.N,Net-(D31-DOUT)*%
X170600000Y-101100000D03*
%TD*%
D13*
%TO.P,U1,B1A,SEL+*%
%TO.N,SEL1*%
X150755400Y-116066500D03*
%TO.P,U1,B1B*%
%TO.N,N/C*%
X157105400Y-116086300D03*
%TO.P,U1,B2A,SEL-*%
%TO.N,GND*%
X150755400Y-121006500D03*
%TO.P,U1,B2B*%
%TO.N,N/C*%
X157115400Y-121026500D03*
%TO.P,U1,H1,H+*%
%TO.N,+3V3*%
X151405400Y-135756500D03*
%TO.P,U1,H2,H*%
%TO.N,H1*%
X153945400Y-135776500D03*
%TO.P,U1,H3,H-*%
%TO.N,GND*%
X156485400Y-135756500D03*
D14*
%TO.P,U1,S1,SHIELD*%
X147580400Y-121816500D03*
%TO.P,U1,S2,SHIELD*%
X147580400Y-131946500D03*
%TO.P,U1,S3,SHIELD*%
X160280400Y-131961300D03*
%TO.P,U1,S4,SHIELD*%
X160280400Y-121801300D03*
D13*
%TO.P,U1,V1,V+*%
%TO.N,+3V3*%
X145040400Y-124341300D03*
%TO.P,U1,V2,V*%
%TO.N,V1*%
X145025400Y-126866500D03*
%TO.P,U1,V3,V-*%
%TO.N,GND*%
X145025400Y-129406500D03*
%TD*%
D15*
%TO.P,A1,1,D1/TX*%
%TO.N,Column 2*%
X76740000Y-87060000D03*
D16*
%TO.P,A1,2,D0/RX*%
%TO.N,Column 1*%
X76740000Y-84520000D03*
%TO.P,A1,3,~{RESET}*%
%TO.N,unconnected-(A1-~{RESET}-Pad3)*%
X76740000Y-81980000D03*
%TO.P,A1,4,GND*%
%TO.N,GND*%
X76740000Y-79440000D03*
%TO.P,A1,5,D2*%
%TO.N,SEL1*%
X76740000Y-76900000D03*
%TO.P,A1,6,D3*%
%TO.N,SEL2*%
X76740000Y-74360000D03*
%TO.P,A1,7,D4*%
%TO.N,Column 3*%
X76740000Y-71820000D03*
%TO.P,A1,8,D5*%
%TO.N,Column 4*%
X76740000Y-69280000D03*
%TO.P,A1,9,D6*%
%TO.N,Column 5*%
X76740000Y-66740000D03*
%TO.P,A1,10,D7*%
%TO.N,Row 1*%
X76740000Y-64200000D03*
%TO.P,A1,11,D8*%
%TO.N,Row 2*%
X76740000Y-61660000D03*
%TO.P,A1,12,D9*%
%TO.N,Row 3*%
X76740000Y-59120000D03*
%TO.P,A1,13,D10/CS*%
%TO.N,Row 4*%
X76740000Y-56580000D03*
%TO.P,A1,14,D11/COPI*%
%TO.N,Row 5*%
X76740000Y-54040000D03*
%TO.P,A1,15,D12/CIPO*%
%TO.N,ARGB*%
X76740000Y-51500000D03*
%TO.P,A1,16,D13/SCK*%
%TO.N,unconnected-(A1-D13{slash}SCK-Pad16)*%
X61500000Y-51500000D03*
%TO.P,A1,17,3V3*%
%TO.N,+3V3*%
X61500000Y-54040000D03*
%TO.P,A1,18,B0*%
%TO.N,unconnected-(A1-B0-Pad18)*%
X61500000Y-56580000D03*
%TO.P,A1,19,A0*%
%TO.N,V1*%
X61500000Y-59120000D03*
%TO.P,A1,20,A1*%
%TO.N,H1*%
X61500000Y-61660000D03*
%TO.P,A1,21,A2*%
%TO.N,V2*%
X61500000Y-64200000D03*
%TO.P,A1,22,A3*%
%TO.N,H2*%
X61500000Y-66740000D03*
%TO.P,A1,23,SDA/A4*%
%TO.N,unconnected-(A1-SDA{slash}A4-Pad23)*%
X61500000Y-69280000D03*
%TO.P,A1,24,SCL/A5*%
%TO.N,unconnected-(A1-SCL{slash}A5-Pad24)*%
X61500000Y-71820000D03*
%TO.P,A1,25,A6*%
%TO.N,unconnected-(A1-A6-Pad25)*%
X61500000Y-74360000D03*
%TO.P,A1,26,A7*%
%TO.N,unconnected-(A1-A7-Pad26)*%
X61500000Y-76900000D03*
%TO.P,A1,27,VUSB/5V*%
%TO.N,+5V*%
X61500000Y-79440000D03*
%TO.P,A1,28,B1*%
%TO.N,unconnected-(A1-B1-Pad28)*%
X61500000Y-81980000D03*
%TO.P,A1,29,GND*%
%TO.N,GND*%
X61500000Y-84520000D03*
%TO.P,A1,30,VIN*%
%TO.N,unconnected-(A1-VIN-Pad30)*%
X61500000Y-87060000D03*
%TD*%
D10*
%TO.P,D35,1,VSS*%
%TO.N,GND*%
X131275000Y-83750000D03*
%TO.P,D35,2,DIN*%
%TO.N,Net-(D34-DOUT)*%
X131275000Y-86950000D03*
%TO.P,D35,3,VDD*%
%TO.N,+5V*%
X136175000Y-86950000D03*
%TO.P,D35,4,DOUT*%
%TO.N,Net-(D35-DOUT)*%
X136175000Y-83750000D03*
%TD*%
D11*
%TO.P,D4,A*%
%TO.N,Net-(D4-PadA)*%
X98268500Y-90000000D03*
D12*
%TO.P,D4,K*%
%TO.N,Row 1*%
X90731500Y-90000000D03*
%TD*%
D11*
%TO.P,D8,A*%
%TO.N,Net-(D8-PadA)*%
X115000000Y-72500000D03*
D12*
%TO.P,D8,K*%
%TO.N,Row 2*%
X107463000Y-72500000D03*
%TD*%
D11*
%TO.P,D13,A*%
%TO.N,Net-(D13-PadA)*%
X131968500Y-72400000D03*
D12*
%TO.P,D13,K*%
%TO.N,Row 3*%
X124431500Y-72400000D03*
%TD*%
D10*
%TO.P,D34,1,VSS*%
%TO.N,GND*%
X148350000Y-83750000D03*
%TO.P,D34,2,DIN*%
%TO.N,Net-(D33-DOUT)*%
X148350000Y-86950000D03*
%TO.P,D34,3,VDD*%
%TO.N,+5V*%
X153250000Y-86950000D03*
%TO.P,D34,4,DOUT*%
%TO.N,Net-(D34-DOUT)*%
X153250000Y-83750000D03*
%TD*%
%TO.P,D46,1,VSS*%
%TO.N,GND*%
X131400000Y-49325000D03*
%TO.P,D46,2,DIN*%
%TO.N,Net-(D45-DOUT)*%
X131400000Y-52525000D03*
%TO.P,D46,3,VDD*%
%TO.N,+5V*%
X136300000Y-52525000D03*
%TO.P,D46,4,DOUT*%
%TO.N,Net-(D46-DOUT)*%
X136300000Y-49325000D03*
%TD*%
%TO.P,D37,1,VSS*%
%TO.N,GND*%
X97500000Y-83800000D03*
%TO.P,D37,2,DIN*%
%TO.N,Net-(D36-DOUT)*%
X97500000Y-87000000D03*
%TO.P,D37,3,VDD*%
%TO.N,+5V*%
X102400000Y-87000000D03*
%TO.P,D37,4,DOUT*%
%TO.N,Net-(D37-DOUT)*%
X102400000Y-83800000D03*
%TD*%
%TO.P,D40,1,VSS*%
%TO.N,GND*%
X148375000Y-66300000D03*
%TO.P,D40,2,DIN*%
%TO.N,Net-(D40-DIN)*%
X148375000Y-69500000D03*
%TO.P,D40,3,VDD*%
%TO.N,+5V*%
X153275000Y-69500000D03*
%TO.P,D40,4,DOUT*%
%TO.N,Net-(D39-DIN)*%
X153275000Y-66300000D03*
%TD*%
D11*
%TO.P,D10,A*%
%TO.N,Net-(D10-PadA)*%
X115268500Y-38000000D03*
D12*
%TO.P,D10,K*%
%TO.N,Row 2*%
X107731500Y-38000000D03*
%TD*%
D10*
%TO.P,D50,1,VSS*%
%TO.N,GND*%
X183918500Y-40125000D03*
%TO.P,D50,2,DIN*%
%TO.N,Net-(D49-DOUT)*%
X183918500Y-43325000D03*
%TO.P,D50,3,VDD*%
%TO.N,+5V*%
X188818500Y-43325000D03*
%TO.P,D50,4,DOUT*%
%TO.N,unconnected-(D50-DOUT-Pad4)*%
X188818500Y-40125000D03*
%TD*%
D11*
%TO.P,D23,A*%
%TO.N,Net-(D23-PadA)*%
X166268500Y-72500000D03*
D12*
%TO.P,D23,K*%
%TO.N,Row 5*%
X158731500Y-72500000D03*
%TD*%
D10*
%TO.P,D38,1,VSS*%
%TO.N,GND*%
X183875000Y-57175000D03*
%TO.P,D38,2,DIN*%
%TO.N,Net-(D38-DIN)*%
X183875000Y-60375000D03*
%TO.P,D38,3,VDD*%
%TO.N,+5V*%
X188775000Y-60375000D03*
%TO.P,D38,4,DOUT*%
%TO.N,Net-(D38-DOUT)*%
X188775000Y-57175000D03*
%TD*%
%TO.P,D47,1,VSS*%
%TO.N,GND*%
X114400000Y-49425000D03*
%TO.P,D47,2,DIN*%
%TO.N,Net-(D46-DOUT)*%
X114400000Y-52625000D03*
%TO.P,D47,3,VDD*%
%TO.N,+5V*%
X119300000Y-52625000D03*
%TO.P,D47,4,DOUT*%
%TO.N,Net-(D47-DOUT)*%
X119300000Y-49425000D03*
%TD*%
D11*
%TO.P,D19,A*%
%TO.N,Net-(D19-PadA)*%
X149208000Y-89856000D03*
D12*
%TO.P,D19,K*%
%TO.N,Row 4*%
X141671000Y-89856000D03*
%TD*%
D10*
%TO.P,D45,1,VSS*%
%TO.N,GND*%
X148400000Y-49300000D03*
%TO.P,D45,2,DIN*%
%TO.N,Net-(D44-DOUT)*%
X148400000Y-52500000D03*
%TO.P,D45,3,VDD*%
%TO.N,+5V*%
X153300000Y-52500000D03*
%TO.P,D45,4,DOUT*%
%TO.N,Net-(D45-DOUT)*%
X153300000Y-49300000D03*
%TD*%
D11*
%TO.P,D20,A*%
%TO.N,Net-(D20-PadA)*%
X184587000Y-89000000D03*
D12*
%TO.P,D20,K*%
%TO.N,Row 4*%
X177050000Y-89000000D03*
%TD*%
D11*
%TO.P,D21,A*%
%TO.N,Net-(D21-PadA)*%
X184587000Y-106000000D03*
D12*
%TO.P,D21,K*%
%TO.N,Row 5*%
X177050000Y-106000000D03*
%TD*%
D10*
%TO.P,D29,1,VSS*%
%TO.N,GND*%
X131300000Y-101100000D03*
%TO.P,D29,2,DIN*%
%TO.N,Net-(D28-DOUT)*%
X131300000Y-104300000D03*
%TO.P,D29,3,VDD*%
%TO.N,+5V*%
X136200000Y-104300000D03*
%TO.P,D29,4,DOUT*%
%TO.N,Net-(D29-DOUT)*%
X136200000Y-101100000D03*
%TD*%
D11*
%TO.P,D12,A*%
%TO.N,Net-(D12-PadA)*%
X132037250Y-55500000D03*
D12*
%TO.P,D12,K*%
%TO.N,Row 3*%
X124500250Y-55500000D03*
%TD*%
D11*
%TO.P,D24,A*%
%TO.N,Net-(D24-PadA)*%
X166268500Y-55000000D03*
D12*
%TO.P,D24,K*%
%TO.N,Row 5*%
X158731500Y-55000000D03*
%TD*%
D10*
%TO.P,D32,1,VSS*%
%TO.N,GND*%
X184018500Y-91800000D03*
%TO.P,D32,2,DIN*%
%TO.N,Net-(D31-DOUT)*%
X184018500Y-95000000D03*
%TO.P,D32,3,VDD*%
%TO.N,+5V*%
X188918500Y-95000000D03*
%TO.P,D32,4,DOUT*%
%TO.N,Net-(D32-DOUT)*%
X188918500Y-91800000D03*
%TD*%
%TO.P,D26,1,VSS*%
%TO.N,GND*%
X73200000Y-97200000D03*
%TO.P,D26,2,DIN*%
%TO.N,ARGB*%
X73200000Y-100400000D03*
%TO.P,D26,3,VDD*%
%TO.N,+5V*%
X78100000Y-100400000D03*
%TO.P,D26,4,DOUT*%
%TO.N,Net-(D26-DOUT)*%
X78100000Y-97200000D03*
%TD*%
%TO.P,D39,1,VSS*%
%TO.N,GND*%
X165575000Y-66350000D03*
%TO.P,D39,2,DIN*%
%TO.N,Net-(D39-DIN)*%
X165575000Y-69550000D03*
%TO.P,D39,3,VDD*%
%TO.N,+5V*%
X170475000Y-69550000D03*
%TO.P,D39,4,DOUT*%
%TO.N,Net-(D38-DIN)*%
X170475000Y-66350000D03*
%TD*%
%TO.P,D28,1,VSS*%
%TO.N,GND*%
X114350000Y-101200000D03*
%TO.P,D28,2,DIN*%
%TO.N,Net-(D27-DOUT)*%
X114350000Y-104400000D03*
%TO.P,D28,3,VDD*%
%TO.N,+5V*%
X119250000Y-104400000D03*
%TO.P,D28,4,DOUT*%
%TO.N,Net-(D28-DOUT)*%
X119250000Y-101200000D03*
%TD*%
%TO.P,D42,1,VSS*%
%TO.N,GND*%
X114375000Y-66325000D03*
%TO.P,D42,2,DIN*%
%TO.N,Net-(D42-DIN)*%
X114375000Y-69525000D03*
%TO.P,D42,3,VDD*%
%TO.N,+5V*%
X119275000Y-69525000D03*
%TO.P,D42,4,DOUT*%
%TO.N,Net-(D41-DIN)*%
X119275000Y-66325000D03*
%TD*%
%TO.P,D44,1,VSS*%
%TO.N,GND*%
X165600000Y-49425000D03*
%TO.P,D44,2,DIN*%
%TO.N,Net-(D38-DOUT)*%
X165600000Y-52625000D03*
%TO.P,D44,3,VDD*%
%TO.N,+5V*%
X170500000Y-52625000D03*
%TO.P,D44,4,DOUT*%
%TO.N,Net-(D44-DOUT)*%
X170500000Y-49425000D03*
%TD*%
D13*
%TO.P,U2,B1A,SEL+*%
%TO.N,SEL2*%
X178875000Y-116066500D03*
%TO.P,U2,B1B*%
%TO.N,N/C*%
X185225000Y-116086300D03*
%TO.P,U2,B2A,SEL-*%
%TO.N,GND*%
X178875000Y-121006500D03*
%TO.P,U2,B2B*%
%TO.N,N/C*%
X185235000Y-121026500D03*
%TO.P,U2,H1,H+*%
%TO.N,+3V3*%
X179525000Y-135756500D03*
%TO.P,U2,H2,H*%
%TO.N,H2*%
X182065000Y-135776500D03*
%TO.P,U2,H3,H-*%
%TO.N,GND*%
X184605000Y-135756500D03*
D14*
%TO.P,U2,S1,SHIELD*%
X175700000Y-121816500D03*
%TO.P,U2,S2,SHIELD*%
X175700000Y-131946500D03*
%TO.P,U2,S3,SHIELD*%
X188400000Y-131961300D03*
%TO.P,U2,S4,SHIELD*%
X188400000Y-121801300D03*
D13*
%TO.P,U2,V1,V+*%
%TO.N,+3V3*%
X173160000Y-124341300D03*
%TO.P,U2,V2,V*%
%TO.N,V2*%
X173145000Y-126866500D03*
%TO.P,U2,V3,V-*%
%TO.N,GND*%
X173145000Y-129406500D03*
%TD*%
D11*
%TO.P,D11,A*%
%TO.N,Net-(D11-PadA)*%
X132000000Y-38000000D03*
D12*
%TO.P,D11,K*%
%TO.N,Row 3*%
X124463000Y-38000000D03*
%TD*%
D10*
%TO.P,D43,1,VSS*%
%TO.N,GND*%
X97375000Y-66325000D03*
%TO.P,D43,2,DIN*%
%TO.N,Net-(D37-DOUT)*%
X97375000Y-69525000D03*
%TO.P,D43,3,VDD*%
%TO.N,+5V*%
X102275000Y-69525000D03*
%TO.P,D43,4,DOUT*%
%TO.N,Net-(D42-DIN)*%
X102275000Y-66325000D03*
%TD*%
D11*
%TO.P,D15,A*%
%TO.N,Net-(D15-PadA)*%
X185037000Y-71500000D03*
D12*
%TO.P,D15,K*%
%TO.N,Row 3*%
X177500000Y-71500000D03*
%TD*%
D10*
%TO.P,D30,1,VSS*%
%TO.N,GND*%
X148350000Y-101075000D03*
%TO.P,D30,2,DIN*%
%TO.N,Net-(D29-DOUT)*%
X148350000Y-104275000D03*
%TO.P,D30,3,VDD*%
%TO.N,+5V*%
X153250000Y-104275000D03*
%TO.P,D30,4,DOUT*%
%TO.N,Net-(D30-DOUT)*%
X153250000Y-101075000D03*
%TD*%
D11*
%TO.P,D9,A*%
%TO.N,Net-(D9-PadA)*%
X115268500Y-55000000D03*
D12*
%TO.P,D9,K*%
%TO.N,Row 2*%
X107731500Y-55000000D03*
%TD*%
D11*
%TO.P,D7,A*%
%TO.N,Net-(D7-PadA)*%
X115268500Y-90000000D03*
D12*
%TO.P,D7,K*%
%TO.N,Row 2*%
X107731500Y-90000000D03*
%TD*%
D10*
%TO.P,D48,1,VSS*%
%TO.N,GND*%
X97400000Y-49325000D03*
%TO.P,D48,2,DIN*%
%TO.N,Net-(D47-DOUT)*%
X97400000Y-52525000D03*
%TO.P,D48,3,VDD*%
%TO.N,+5V*%
X102300000Y-52525000D03*
%TO.P,D48,4,DOUT*%
%TO.N,Net-(D48-DOUT)*%
X102300000Y-49325000D03*
%TD*%
%TO.P,D27,1,VSS*%
%TO.N,GND*%
X97350000Y-101200000D03*
%TO.P,D27,2,DIN*%
%TO.N,Net-(D26-DOUT)*%
X97350000Y-104400000D03*
%TO.P,D27,3,VDD*%
%TO.N,+5V*%
X102250000Y-104400000D03*
%TO.P,D27,4,DOUT*%
%TO.N,Net-(D27-DOUT)*%
X102250000Y-101200000D03*
%TD*%
%TO.P,D36,1,VSS*%
%TO.N,GND*%
X114400000Y-83800000D03*
%TO.P,D36,2,DIN*%
%TO.N,Net-(D35-DOUT)*%
X114400000Y-87000000D03*
%TO.P,D36,3,VDD*%
%TO.N,+5V*%
X119300000Y-87000000D03*
%TO.P,D36,4,DOUT*%
%TO.N,Net-(D36-DOUT)*%
X119300000Y-83800000D03*
%TD*%
%TO.P,D49,1,VSS*%
%TO.N,GND*%
X184018500Y-74500000D03*
%TO.P,D49,2,DIN*%
%TO.N,Net-(D48-DOUT)*%
X184018500Y-77700000D03*
%TO.P,D49,3,VDD*%
%TO.N,+5V*%
X188918500Y-77700000D03*
%TO.P,D49,4,DOUT*%
%TO.N,Net-(D49-DOUT)*%
X188918500Y-74500000D03*
%TD*%
D11*
%TO.P,D6,A*%
%TO.N,Net-(D6-PadA)*%
X184955800Y-54400000D03*
D12*
%TO.P,D6,K*%
%TO.N,Row 2*%
X177418800Y-54400000D03*
%TD*%
D11*
%TO.P,D17,A*%
%TO.N,Net-(D17-PadA)*%
X148837300Y-55000000D03*
D12*
%TO.P,D17,K*%
%TO.N,Row 4*%
X141300300Y-55000000D03*
%TD*%
D11*
%TO.P,D25,A*%
%TO.N,Net-(D25-PadA)*%
X166268500Y-38000000D03*
D12*
%TO.P,D25,K*%
%TO.N,Row 5*%
X158731500Y-38000000D03*
%TD*%
D11*
%TO.P,D16,A*%
%TO.N,Net-(D16-PadA)*%
X148987000Y-37975000D03*
D12*
%TO.P,D16,K*%
%TO.N,Row 4*%
X141450000Y-37975000D03*
%TD*%
D11*
%TO.P,D22,A*%
%TO.N,Net-(D22-PadA)*%
X166268500Y-90000000D03*
D12*
%TO.P,D22,K*%
%TO.N,Row 5*%
X158731500Y-90000000D03*
%TD*%
D17*
%TO.P,SW13,*%
%TO.N,*%
X149850000Y-46295000D03*
X139690000Y-46295000D03*
D18*
%TO.P,SW13,1,1*%
%TO.N,Column 1*%
X140960000Y-43755000D03*
%TO.P,SW13,2,2*%
%TO.N,Net-(D16-PadA)*%
X147310000Y-41215000D03*
D19*
%TO.P,SW13,3*%
%TO.N,N/C*%
X146040000Y-51375000D03*
D20*
%TO.P,SW13,4*%
X143500000Y-51375000D03*
%TD*%
D17*
%TO.P,SW9,*%
%TO.N,*%
X115895000Y-80724000D03*
X105735000Y-80724000D03*
D18*
%TO.P,SW9,1,1*%
%TO.N,Column 3*%
X107005000Y-78184000D03*
%TO.P,SW9,2,2*%
%TO.N,Net-(D8-PadA)*%
X113355000Y-75644000D03*
D19*
%TO.P,SW9,3*%
%TO.N,N/C*%
X112085000Y-85804000D03*
D20*
%TO.P,SW9,4*%
X109545000Y-85804000D03*
%TD*%
D17*
%TO.P,SW24,*%
%TO.N,*%
X166895000Y-80724000D03*
X156735000Y-80724000D03*
D18*
%TO.P,SW24,1,1*%
%TO.N,Column 3*%
X158005000Y-78184000D03*
%TO.P,SW24,2,2*%
%TO.N,Net-(D23-PadA)*%
X164355000Y-75644000D03*
D19*
%TO.P,SW24,3*%
%TO.N,N/C*%
X163085000Y-85804000D03*
D20*
%TO.P,SW24,4*%
X160545000Y-85804000D03*
%TD*%
D17*
%TO.P,SW7,*%
%TO.N,*%
X115900000Y-46300000D03*
X105740000Y-46300000D03*
D18*
%TO.P,SW7,1,1*%
%TO.N,Column 1*%
X107010000Y-43760000D03*
%TO.P,SW7,2,2*%
%TO.N,Net-(D10-PadA)*%
X113360000Y-41220000D03*
D19*
%TO.P,SW7,3*%
%TO.N,N/C*%
X112090000Y-51380000D03*
D20*
%TO.P,SW7,4*%
X109550000Y-51380000D03*
%TD*%
D17*
%TO.P,SW19,*%
%TO.N,*%
X149834500Y-98080000D03*
X139674500Y-98080000D03*
D18*
%TO.P,SW19,1,1*%
%TO.N,Column 4*%
X140944500Y-95540000D03*
%TO.P,SW19,2,2*%
%TO.N,Net-(D19-PadA)*%
X147294500Y-93000000D03*
D19*
%TO.P,SW19,3*%
%TO.N,N/C*%
X146024500Y-103160000D03*
D20*
%TO.P,SW19,4*%
X143484500Y-103160000D03*
%TD*%
D17*
%TO.P,SW3,*%
%TO.N,*%
X98900000Y-63320000D03*
X88740000Y-63320000D03*
D18*
%TO.P,SW3,1,1*%
%TO.N,Column 2*%
X90010000Y-60780000D03*
%TO.P,SW3,2,2*%
%TO.N,Net-(D2-PadA)*%
X96360000Y-58240000D03*
D19*
%TO.P,SW3,3*%
%TO.N,N/C*%
X95090000Y-68400000D03*
D20*
%TO.P,SW3,4*%
X92550000Y-68400000D03*
%TD*%
D17*
%TO.P,SW11,*%
%TO.N,*%
X175308500Y-46405000D03*
X185468500Y-46405000D03*
D18*
%TO.P,SW11,1,1*%
%TO.N,Column 5*%
X184198500Y-48945000D03*
%TO.P,SW11,2,2*%
%TO.N,Net-(D6-PadA)*%
X177848500Y-51485000D03*
D19*
%TO.P,SW11,3*%
%TO.N,N/C*%
X179118500Y-41325000D03*
D20*
%TO.P,SW11,4*%
X181658500Y-41325000D03*
%TD*%
D17*
%TO.P,SW17,*%
%TO.N,*%
X149850000Y-80725000D03*
X139690000Y-80725000D03*
D18*
%TO.P,SW17,1,1*%
%TO.N,Column 3*%
X140960000Y-78185000D03*
%TO.P,SW17,2,2*%
%TO.N,Net-(D18-PadA)*%
X147310000Y-75645000D03*
D19*
%TO.P,SW17,3*%
%TO.N,N/C*%
X146040000Y-85805000D03*
D20*
%TO.P,SW17,4*%
X143500000Y-85805000D03*
%TD*%
D17*
%TO.P,SW26,*%
%TO.N,*%
X175398500Y-98060000D03*
X185558500Y-98060000D03*
D18*
%TO.P,SW26,1,1*%
%TO.N,Column 5*%
X184288500Y-100600000D03*
%TO.P,SW26,2,2*%
%TO.N,Net-(D21-PadA)*%
X177938500Y-103140000D03*
D19*
%TO.P,SW26,3*%
%TO.N,N/C*%
X179208500Y-92980000D03*
D20*
%TO.P,SW26,4*%
X181748500Y-92980000D03*
%TD*%
D17*
%TO.P,SW2,*%
%TO.N,*%
X98905000Y-46300000D03*
X88745000Y-46300000D03*
D18*
%TO.P,SW2,1,1*%
%TO.N,Column 1*%
X90015000Y-43760000D03*
%TO.P,SW2,2,2*%
%TO.N,Net-(D1-PadA)*%
X96365000Y-41220000D03*
D19*
%TO.P,SW2,3*%
%TO.N,N/C*%
X95095000Y-51380000D03*
D20*
%TO.P,SW2,4*%
X92555000Y-51380000D03*
%TD*%
D17*
%TO.P,SW12,*%
%TO.N,*%
X132900000Y-46300000D03*
X122740000Y-46300000D03*
D18*
%TO.P,SW12,1,1*%
%TO.N,Column 1*%
X124010000Y-43760000D03*
%TO.P,SW12,2,2*%
%TO.N,Net-(D11-PadA)*%
X130360000Y-41220000D03*
D19*
%TO.P,SW12,3*%
%TO.N,N/C*%
X129090000Y-51380000D03*
D20*
%TO.P,SW12,4*%
X126550000Y-51380000D03*
%TD*%
D17*
%TO.P,SW14,*%
%TO.N,*%
X132920000Y-63330000D03*
X122760000Y-63330000D03*
D18*
%TO.P,SW14,1,1*%
%TO.N,Column 2*%
X124030000Y-60790000D03*
%TO.P,SW14,2,2*%
%TO.N,Net-(D12-PadA)*%
X130380000Y-58250000D03*
D19*
%TO.P,SW14,3*%
%TO.N,N/C*%
X129110000Y-68410000D03*
D20*
%TO.P,SW14,4*%
X126570000Y-68410000D03*
%TD*%
D17*
%TO.P,SW5,*%
%TO.N,*%
X98895000Y-98058000D03*
X88735000Y-98058000D03*
D18*
%TO.P,SW5,1,1*%
%TO.N,Column 4*%
X90005000Y-95518000D03*
%TO.P,SW5,2,2*%
%TO.N,Net-(D4-PadA)*%
X96355000Y-92978000D03*
D19*
%TO.P,SW5,3*%
%TO.N,N/C*%
X95085000Y-103138000D03*
D20*
%TO.P,SW5,4*%
X92545000Y-103138000D03*
%TD*%
D17*
%TO.P,SW6,*%
%TO.N,*%
X64220000Y-103600000D03*
X74380000Y-103600000D03*
D18*
%TO.P,SW6,1,1*%
%TO.N,Column 5*%
X73110000Y-106140000D03*
%TO.P,SW6,2,2*%
%TO.N,Net-(D5-PadA)*%
X66760000Y-108680000D03*
D19*
%TO.P,SW6,3*%
%TO.N,N/C*%
X68030000Y-98520000D03*
D20*
%TO.P,SW6,4*%
X70570000Y-98520000D03*
%TD*%
D17*
%TO.P,SW22,*%
%TO.N,*%
X166900000Y-46300000D03*
X156740000Y-46300000D03*
D18*
%TO.P,SW22,1,1*%
%TO.N,Column 1*%
X158010000Y-43760000D03*
%TO.P,SW22,2,2*%
%TO.N,Net-(D25-PadA)*%
X164360000Y-41220000D03*
D19*
%TO.P,SW22,3*%
%TO.N,N/C*%
X163090000Y-51380000D03*
D20*
%TO.P,SW22,4*%
X160550000Y-51380000D03*
%TD*%
D17*
%TO.P,SW4,*%
%TO.N,*%
X98895000Y-80724000D03*
X88735000Y-80724000D03*
D18*
%TO.P,SW4,1,1*%
%TO.N,Column 3*%
X90005000Y-78184000D03*
%TO.P,SW4,2,2*%
%TO.N,Net-(D3-PadA)*%
X96355000Y-75644000D03*
D19*
%TO.P,SW4,3*%
%TO.N,N/C*%
X95085000Y-85804000D03*
D20*
%TO.P,SW4,4*%
X92545000Y-85804000D03*
%TD*%
D17*
%TO.P,SW25,*%
%TO.N,*%
X166895000Y-98058000D03*
X156735000Y-98058000D03*
D18*
%TO.P,SW25,1,1*%
%TO.N,Column 4*%
X158005000Y-95518000D03*
%TO.P,SW25,2,2*%
%TO.N,Net-(D22-PadA)*%
X164355000Y-92978000D03*
D19*
%TO.P,SW25,3*%
%TO.N,N/C*%
X163085000Y-103138000D03*
D20*
%TO.P,SW25,4*%
X160545000Y-103138000D03*
%TD*%
D17*
%TO.P,SW20,*%
%TO.N,*%
X175398500Y-63360000D03*
X185558500Y-63360000D03*
D18*
%TO.P,SW20,1,1*%
%TO.N,Column 5*%
X184288500Y-65900000D03*
%TO.P,SW20,2,2*%
%TO.N,Net-(D15-PadA)*%
X177938500Y-68440000D03*
D19*
%TO.P,SW20,3*%
%TO.N,N/C*%
X179208500Y-58280000D03*
D20*
%TO.P,SW20,4*%
X181748500Y-58280000D03*
%TD*%
D17*
%TO.P,SW23,*%
%TO.N,*%
X166900000Y-63320000D03*
X156740000Y-63320000D03*
D18*
%TO.P,SW23,1,1*%
%TO.N,Column 2*%
X158010000Y-60780000D03*
%TO.P,SW23,2,2*%
%TO.N,Net-(D24-PadA)*%
X164360000Y-58240000D03*
D19*
%TO.P,SW23,3*%
%TO.N,N/C*%
X163090000Y-68400000D03*
D20*
%TO.P,SW23,4*%
X160550000Y-68400000D03*
%TD*%
D17*
%TO.P,SW10,*%
%TO.N,*%
X115895000Y-98058000D03*
X105735000Y-98058000D03*
D18*
%TO.P,SW10,1,1*%
%TO.N,Column 4*%
X107005000Y-95518000D03*
%TO.P,SW10,2,2*%
%TO.N,Net-(D7-PadA)*%
X113355000Y-92978000D03*
D19*
%TO.P,SW10,3*%
%TO.N,N/C*%
X112085000Y-103138000D03*
D20*
%TO.P,SW10,4*%
X109545000Y-103138000D03*
%TD*%
D17*
%TO.P,SW21,*%
%TO.N,*%
X175368500Y-80760000D03*
X185528500Y-80760000D03*
D18*
%TO.P,SW21,1,1*%
%TO.N,Column 5*%
X184258500Y-83300000D03*
%TO.P,SW21,2,2*%
%TO.N,Net-(D20-PadA)*%
X177908500Y-85840000D03*
D19*
%TO.P,SW21,3*%
%TO.N,N/C*%
X179178500Y-75680000D03*
D20*
%TO.P,SW21,4*%
X181718500Y-75680000D03*
%TD*%
D17*
%TO.P,SW15,*%
%TO.N,*%
X149850000Y-63300000D03*
X139690000Y-63300000D03*
D18*
%TO.P,SW15,1,1*%
%TO.N,Column 2*%
X140960000Y-60760000D03*
%TO.P,SW15,2,2*%
%TO.N,Net-(D17-PadA)*%
X147310000Y-58220000D03*
D19*
%TO.P,SW15,3*%
%TO.N,N/C*%
X146040000Y-68380000D03*
D20*
%TO.P,SW15,4*%
X143500000Y-68380000D03*
%TD*%
D17*
%TO.P,SW18,*%
%TO.N,*%
X132834500Y-98080000D03*
X122674500Y-98080000D03*
D18*
%TO.P,SW18,1,1*%
%TO.N,Column 4*%
X123944500Y-95540000D03*
%TO.P,SW18,2,2*%
%TO.N,Net-(D14-PadA)*%
X130294500Y-93000000D03*
D19*
%TO.P,SW18,3*%
%TO.N,N/C*%
X129024500Y-103160000D03*
D20*
%TO.P,SW18,4*%
X126484500Y-103160000D03*
%TD*%
D17*
%TO.P,SW8,*%
%TO.N,*%
X115900000Y-63320000D03*
X105740000Y-63320000D03*
D18*
%TO.P,SW8,1,1*%
%TO.N,Column 2*%
X107010000Y-60780000D03*
%TO.P,SW8,2,2*%
%TO.N,Net-(D9-PadA)*%
X113360000Y-58240000D03*
D19*
%TO.P,SW8,3*%
%TO.N,N/C*%
X112090000Y-68400000D03*
D20*
%TO.P,SW8,4*%
X109550000Y-68400000D03*
%TD*%
D17*
%TO.P,SW16,*%
%TO.N,*%
X132850000Y-80750000D03*
X122690000Y-80750000D03*
D18*
%TO.P,SW16,1,1*%
%TO.N,Column 3*%
X123960000Y-78210000D03*
%TO.P,SW16,2,2*%
%TO.N,Net-(D13-PadA)*%
X130310000Y-75670000D03*
D19*
%TO.P,SW16,3*%
%TO.N,N/C*%
X129040000Y-85830000D03*
D20*
%TO.P,SW16,4*%
X126500000Y-85830000D03*
%TD*%
D21*
%TO.N,Column 4*%
X84040000Y-89050000D03*
%TO.N,Column 2*%
X123620000Y-64730000D03*
X79000000Y-72500000D03*
X137260000Y-63030000D03*
X106630000Y-64924000D03*
X125920000Y-65300000D03*
X148150000Y-62010000D03*
X108440000Y-64850000D03*
X141000000Y-60190000D03*
%TO.N,Column 3*%
X123200000Y-82340000D03*
X142930000Y-82830000D03*
X107131500Y-82460000D03*
X125010000Y-82440000D03*
X89370000Y-82440000D03*
X91331500Y-82580000D03*
X86170000Y-76510000D03*
X140900000Y-82830000D03*
X108750000Y-82550000D03*
%TO.N,Column 1*%
X128281332Y-42162654D03*
X117290000Y-43690000D03*
X77400000Y-50379999D03*
X125172488Y-41795801D03*
X120490000Y-43710000D03*
X154940000Y-41640000D03*
%TO.N,+5V*%
X189670000Y-98180000D03*
X170875000Y-97333031D03*
%TO.N,Row 4*%
X172040000Y-100330000D03*
X158878910Y-48760000D03*
X138740000Y-55570000D03*
X161024599Y-60610000D03*
X138201985Y-57857368D03*
X160078910Y-48640000D03*
%TO.N,GND*%
X171343498Y-99500000D03*
X167961000Y-99973942D03*
X168500000Y-67500000D03*
X73000000Y-98500000D03*
X176450000Y-95500000D03*
X128500000Y-50000000D03*
X170500000Y-68000000D03*
X172500000Y-98000000D03*
X168500000Y-85341000D03*
X134000000Y-47924000D03*
X186000000Y-57000000D03*
X189000000Y-54000000D03*
X134000000Y-49124000D03*
X148500000Y-64500000D03*
X126500000Y-49500000D03*
X168500000Y-47000000D03*
X148375000Y-66300000D03*
X68500000Y-95500000D03*
X143000000Y-66500000D03*
X175010614Y-43489386D03*
X168000000Y-84000000D03*
X153000000Y-103000000D03*
X151500000Y-103000000D03*
%TO.N,Row 1*%
X66100000Y-113660000D03*
%TO.N,Row 5*%
X150380000Y-66400000D03*
X151239236Y-65540764D03*
%TO.N,SEL1*%
X61500000Y-90500000D03*
X78500000Y-89500000D03*
%TO.N,SEL2*%
X63500000Y-89500000D03*
X79100000Y-88934313D03*
%TO.N,Column 5*%
X74500000Y-100500000D03*
X187454500Y-50870000D03*
X160950000Y-35160000D03*
X83000000Y-73000000D03*
X165370000Y-35230000D03*
X81305735Y-74694265D03*
%TO.N,Row 3*%
X174000000Y-71500000D03*
X172000000Y-71500000D03*
%TO.N,Net-(D37-DOUT)*%
X102125000Y-76050000D03*
X100660000Y-80500000D03*
X101780000Y-82650000D03*
%TO.N,Net-(D44-DOUT)*%
X170000000Y-48000000D03*
X167500000Y-48500000D03*
%TO.N,Net-(D48-DOUT)*%
X110500000Y-49717000D03*
X123500000Y-52900000D03*
X130000000Y-52900000D03*
X181640873Y-77501000D03*
%TO.N,Net-(D49-DOUT)*%
X188500000Y-55500000D03*
X187500000Y-57500000D03*
%TO.N,Net-(D5-PadA)*%
X64100000Y-111290000D03*
%TO.N,Net-(D6-PadA)*%
X172250000Y-52520000D03*
X180740000Y-55160000D03*
%TO.N,Net-(D19-PadA)*%
X153990000Y-92100000D03*
X154120000Y-90849000D03*
%TO.N,Net-(D24-PadA)*%
X167770000Y-56600000D03*
%TO.N,Net-(D22-PadA)*%
X165440000Y-95210000D03*
X162710000Y-89400000D03*
%TD*%
D22*
%TO.N,Column 4*%
X84040000Y-89050000D02*
X84040000Y-87880000D01*
X76740000Y-69280000D02*
X84000000Y-76540000D01*
X84000000Y-87840000D02*
X84000000Y-88000000D01*
X84000000Y-76540000D02*
X84000000Y-87840000D01*
X84040000Y-87880000D02*
X84000000Y-87840000D01*
%TO.N,Column 2*%
X123620000Y-64730000D02*
X125220000Y-64730000D01*
X78579000Y-72921000D02*
X79000000Y-72500000D01*
X108380000Y-64850000D02*
X108440000Y-64850000D01*
X148150000Y-63230801D02*
X145739711Y-65641090D01*
X76579000Y-72921000D02*
X78579000Y-72921000D01*
X76740000Y-87060000D02*
X75500000Y-85820000D01*
X75500000Y-74000000D02*
X76579000Y-72921000D01*
X108107000Y-65123000D02*
X108330000Y-64900000D01*
X75500000Y-85820000D02*
X75500000Y-74000000D01*
X108330000Y-64900000D02*
X108380000Y-64850000D01*
X106630000Y-64924000D02*
X106829000Y-65123000D01*
X125220000Y-64730000D02*
X125260000Y-64770000D01*
X125790000Y-65300000D02*
X125920000Y-65300000D01*
X145739711Y-65641090D02*
X143800289Y-65641090D01*
X125260000Y-64770000D02*
X125790000Y-65300000D01*
X142660199Y-64501000D02*
X138731000Y-64501000D01*
X138731000Y-64501000D02*
X137260000Y-63030000D01*
X148150000Y-62010000D02*
X148150000Y-63230801D01*
X143800289Y-65641090D02*
X142660199Y-64501000D01*
X106829000Y-65123000D02*
X108107000Y-65123000D01*
%TO.N,Column 3*%
X108660000Y-82460000D02*
X108750000Y-82550000D01*
X91110000Y-82440000D02*
X91250000Y-82580000D01*
X86040000Y-76390000D02*
X86160000Y-76510000D01*
X86160000Y-76510000D02*
X86170000Y-76510000D01*
X123200000Y-82340000D02*
X124910000Y-82340000D01*
X76740000Y-71820000D02*
X75639000Y-70719000D01*
X85000000Y-75982950D02*
X85632950Y-75982950D01*
X77196050Y-68179000D02*
X85000000Y-75982950D01*
X89370000Y-82440000D02*
X91110000Y-82440000D01*
X75639000Y-68823950D02*
X76283950Y-68179000D01*
X76283950Y-68179000D02*
X77196050Y-68179000D01*
X85632950Y-75982950D02*
X86040000Y-76390000D01*
X75639000Y-70719000D02*
X75639000Y-68823950D01*
X124910000Y-82340000D02*
X125010000Y-82440000D01*
X142450000Y-82830000D02*
X142930000Y-82830000D01*
X91250000Y-82580000D02*
X91331500Y-82580000D01*
X140900000Y-82830000D02*
X142450000Y-82830000D01*
X107131500Y-82460000D02*
X108660000Y-82460000D01*
%TO.N,+3V3*%
X151405400Y-135756500D02*
X152575400Y-134586500D01*
X154705485Y-134586500D02*
X155295400Y-135176415D01*
X155295400Y-136249415D02*
X155992485Y-136946500D01*
X65401000Y-57941000D02*
X61500000Y-54040000D01*
X65401000Y-72016050D02*
X65401000Y-57941000D01*
X152575400Y-134586500D02*
X154705485Y-134586500D01*
X144532485Y-128056500D02*
X145518315Y-128056500D01*
X60643000Y-75461000D02*
X61956050Y-75461000D01*
X155992485Y-136946500D02*
X160554800Y-136946500D01*
X160554800Y-136946500D02*
X173160000Y-124341300D01*
X143835400Y-130243625D02*
X143835400Y-128753585D01*
X146215400Y-127359415D02*
X146215400Y-125516300D01*
X145518315Y-128056500D02*
X146215400Y-127359415D01*
X123833900Y-140896000D02*
X82664400Y-140896000D01*
X140388600Y-124341300D02*
X123833900Y-140896000D01*
X61956050Y-75461000D02*
X65401000Y-72016050D01*
X145040400Y-124341300D02*
X140388600Y-124341300D01*
X58104000Y-78000000D02*
X60643000Y-75461000D01*
X149348275Y-135756500D02*
X143835400Y-130243625D01*
X151405400Y-135756500D02*
X149348275Y-135756500D01*
X82664400Y-140896000D02*
X58104000Y-116335600D01*
X143835400Y-128753585D02*
X144532485Y-128056500D01*
X155295400Y-135176415D02*
X155295400Y-136249415D01*
X146215400Y-125516300D02*
X145040400Y-124341300D01*
X58104000Y-116335600D02*
X58104000Y-78000000D01*
%TO.N,Row 2*%
X76740000Y-61660000D02*
X80000000Y-58400000D01*
X83998300Y-33203000D02*
X100000000Y-33203000D01*
X100000000Y-33203000D02*
X104797000Y-38000000D01*
X104797000Y-38000000D02*
X107731500Y-38000000D01*
X80000000Y-58400000D02*
X80000000Y-37201300D01*
X80000000Y-37201300D02*
X83998300Y-33203000D01*
%TO.N,Column 1*%
X77500000Y-50279999D02*
X77500000Y-36865800D01*
X83167800Y-31198000D02*
X161870699Y-31198000D01*
X156931500Y-41640000D02*
X154940000Y-41640000D01*
X161870699Y-31198000D02*
X162000000Y-31327301D01*
X77500000Y-36865800D02*
X83167800Y-31198000D01*
X125172488Y-41795801D02*
X127914479Y-41795801D01*
X117290000Y-43690000D02*
X120470000Y-43690000D01*
X158113597Y-43000000D02*
X158417018Y-43303421D01*
X77400000Y-50379999D02*
X77500000Y-50279999D01*
X162000000Y-36571500D02*
X156931500Y-41640000D01*
X162000000Y-31327301D02*
X162000000Y-36571500D01*
X127914479Y-41795801D02*
X128281332Y-42162654D01*
X120470000Y-43690000D02*
X120490000Y-43710000D01*
%TO.N,+5V*%
X168191100Y-93967000D02*
X163362050Y-89137950D01*
X152300000Y-53500000D02*
X137275000Y-53500000D01*
X118474000Y-70326000D02*
X119275000Y-69525000D01*
X170751000Y-97209031D02*
X170875000Y-97333031D01*
X170751000Y-97069000D02*
X170751000Y-93967000D01*
X152449000Y-105076000D02*
X153250000Y-104275000D01*
X119300000Y-87000000D02*
X118499000Y-87801000D01*
X91000000Y-80135403D02*
X91000000Y-81219801D01*
X163924801Y-99259000D02*
X168561000Y-99259000D01*
X188918500Y-77700000D02*
X190000000Y-76618500D01*
X170751000Y-97069000D02*
X170751000Y-97209031D01*
X189969500Y-78751000D02*
X188918500Y-77700000D01*
X152199000Y-103224000D02*
X152199000Y-97091000D01*
X164549000Y-86299000D02*
X163362050Y-87485950D01*
X152474000Y-70301000D02*
X153275000Y-69500000D01*
X78100000Y-100400000D02*
X77299000Y-101201000D01*
X119951000Y-105101000D02*
X135399000Y-105101000D01*
X136300000Y-52525000D02*
X135325000Y-53500000D01*
X120051000Y-87751000D02*
X119300000Y-87000000D01*
X137275000Y-53500000D02*
X136300000Y-52525000D01*
X135325000Y-53500000D02*
X120175000Y-53500000D01*
X136976000Y-87751000D02*
X136175000Y-86950000D01*
X101449000Y-105201000D02*
X102250000Y-104400000D01*
X136976000Y-105076000D02*
X152449000Y-105076000D01*
X101599000Y-87801000D02*
X96449000Y-87801000D01*
X103201000Y-53426000D02*
X102300000Y-52525000D01*
X93500000Y-76500000D02*
X93500000Y-77150000D01*
X170500000Y-87100000D02*
X169699000Y-86299000D01*
X96324000Y-68724000D02*
X96324000Y-69116000D01*
X93500000Y-71940000D02*
X93500000Y-77150000D01*
X102275000Y-69525000D02*
X103076000Y-70326000D01*
X154800000Y-54000000D02*
X153300000Y-52500000D01*
X190000000Y-61600000D02*
X188775000Y-60375000D01*
X135399000Y-105101000D02*
X136200000Y-104300000D01*
X102250000Y-104400000D02*
X103051000Y-105201000D01*
X153300000Y-52500000D02*
X152300000Y-53500000D01*
X77299000Y-101201000D02*
X71125000Y-101201000D01*
X154126000Y-70351000D02*
X169674000Y-70351000D01*
X170500000Y-52625000D02*
X169125000Y-54000000D01*
X163362050Y-87485950D02*
X163362050Y-89137950D01*
X119250000Y-104400000D02*
X119951000Y-105101000D01*
X189869500Y-59280500D02*
X189869500Y-44376000D01*
X136200000Y-104300000D02*
X136976000Y-105076000D01*
X118449000Y-105201000D02*
X119250000Y-104400000D01*
X94216668Y-84436469D02*
X91000000Y-81219801D01*
X169674000Y-70351000D02*
X170475000Y-69550000D01*
X161174100Y-86950000D02*
X153250000Y-86950000D01*
X168561000Y-102261000D02*
X170600000Y-104300000D01*
X152199000Y-97091000D02*
X155507090Y-100399090D01*
X189969500Y-93949000D02*
X189969500Y-78751000D01*
X188775000Y-60375000D02*
X189869500Y-59280500D01*
X103051000Y-105201000D02*
X118449000Y-105201000D01*
X188918500Y-95000000D02*
X189969500Y-93949000D01*
X135399000Y-70326000D02*
X136200000Y-69525000D01*
X189869500Y-44376000D02*
X188818500Y-43325000D01*
X78100000Y-100400000D02*
X82901000Y-105201000D01*
X118499000Y-87801000D02*
X103201000Y-87801000D01*
X190000000Y-76618500D02*
X190000000Y-61600000D01*
X96324000Y-68724000D02*
X101474000Y-68724000D01*
X119275000Y-69525000D02*
X120076000Y-70326000D01*
X170756000Y-52881000D02*
X170500000Y-52625000D01*
X155507090Y-100399090D02*
X162784711Y-100399090D01*
X153250000Y-104275000D02*
X152199000Y-103224000D01*
X162784711Y-100399090D02*
X163924801Y-99259000D01*
X118499000Y-53426000D02*
X103201000Y-53426000D01*
X120076000Y-70326000D02*
X135399000Y-70326000D01*
X93500000Y-77150000D02*
X93500000Y-77635403D01*
X169424000Y-68499000D02*
X169424000Y-63663000D01*
X102400000Y-87000000D02*
X101599000Y-87801000D01*
X168561000Y-99259000D02*
X170751000Y-97069000D01*
X136175000Y-86950000D02*
X135374000Y-87751000D01*
X101474000Y-68724000D02*
X102275000Y-69525000D01*
X189670000Y-98180000D02*
X188918500Y-97428500D01*
X96156090Y-87508090D02*
X96156090Y-84436469D01*
X120175000Y-53500000D02*
X119300000Y-52625000D01*
X153275000Y-69500000D02*
X154126000Y-70351000D01*
X71125000Y-101201000D02*
X69507000Y-99583000D01*
X96324000Y-69116000D02*
X93500000Y-71940000D01*
X169424000Y-63663000D02*
X170756000Y-62331000D01*
X69507000Y-99583000D02*
X69507000Y-87447000D01*
X82901000Y-105201000D02*
X101449000Y-105201000D01*
X96156090Y-84436469D02*
X94216668Y-84436469D01*
X69507000Y-87447000D02*
X61500000Y-79440000D01*
X96449000Y-87801000D02*
X96156090Y-87508090D01*
X170751000Y-93967000D02*
X168191100Y-93967000D01*
X119300000Y-52625000D02*
X118499000Y-53426000D01*
X169125000Y-54000000D02*
X154800000Y-54000000D01*
X170756000Y-62331000D02*
X170756000Y-52881000D01*
X135374000Y-87751000D02*
X120051000Y-87751000D01*
X103201000Y-87801000D02*
X102400000Y-87000000D01*
X188918500Y-96965570D02*
X188918500Y-95000000D01*
X153250000Y-86950000D02*
X152449000Y-87751000D01*
X136200000Y-69525000D02*
X136976000Y-70301000D01*
X188918500Y-97428500D02*
X188918500Y-95000000D01*
X93500000Y-77635403D02*
X91000000Y-80135403D01*
X103076000Y-70326000D02*
X118474000Y-70326000D01*
X168561000Y-99259000D02*
X168561000Y-102261000D01*
X163362050Y-89137950D02*
X161174100Y-86950000D01*
X169699000Y-86299000D02*
X164549000Y-86299000D01*
X136976000Y-70301000D02*
X152474000Y-70301000D01*
X170475000Y-69550000D02*
X169424000Y-68499000D01*
X152449000Y-87751000D02*
X136976000Y-87751000D01*
%TO.N,ARGB*%
X75099000Y-53141000D02*
X76740000Y-51500000D01*
X72149000Y-99349000D02*
X72149000Y-96501000D01*
X73200000Y-100400000D02*
X72149000Y-99349000D01*
X75099000Y-93551000D02*
X75099000Y-53141000D01*
X72149000Y-96501000D02*
X75099000Y-93551000D01*
%TO.N,Row 4*%
X172040000Y-100330000D02*
X172040000Y-99557943D01*
X149779824Y-58696579D02*
X147996403Y-60480000D01*
X79000000Y-37067100D02*
X83666100Y-32401000D01*
X138340000Y-57340000D02*
X138201985Y-57478015D01*
X138740000Y-55570000D02*
X138960000Y-55790000D01*
X138960000Y-56720000D02*
X138340000Y-57340000D01*
X144131000Y-58621000D02*
X138513900Y-58621000D01*
X79000000Y-54320000D02*
X79000000Y-37067100D01*
X138960000Y-55790000D02*
X138960000Y-56720000D01*
X158878910Y-48760000D02*
X159958910Y-48760000D01*
X145990000Y-60480000D02*
X144131000Y-58621000D01*
X172040000Y-99557943D02*
X175849000Y-95748943D01*
X161024599Y-60610000D02*
X159111178Y-58696579D01*
X76740000Y-56580000D02*
X79000000Y-54320000D01*
X139574000Y-37975000D02*
X141450000Y-37975000D01*
X138279000Y-58386100D02*
X138279000Y-58021300D01*
X138513900Y-58621000D02*
X138279000Y-58386100D01*
X159111178Y-58696579D02*
X149779824Y-58696579D01*
X175849000Y-95748943D02*
X175849000Y-90201000D01*
X138279000Y-58021300D02*
X141300300Y-55000000D01*
X147996403Y-60480000D02*
X145990000Y-60480000D01*
X134000000Y-32401000D02*
X139574000Y-37975000D01*
X138201985Y-57478015D02*
X138201985Y-57857368D01*
X83666100Y-32401000D02*
X134000000Y-32401000D01*
X159958910Y-48760000D02*
X160078910Y-48640000D01*
X175849000Y-90201000D02*
X177050000Y-89000000D01*
%TO.N,GND*%
X134000000Y-49124000D02*
X133799000Y-49325000D01*
X168659000Y-85500000D02*
X168500000Y-85341000D01*
X147580400Y-131946500D02*
X152675400Y-131946500D01*
X147580400Y-126851500D02*
X147580400Y-121816500D01*
X98557900Y-83800000D02*
X97500000Y-83800000D01*
X189000000Y-54000000D02*
X189000000Y-46500000D01*
X180905079Y-83614222D02*
X185069500Y-79449801D01*
X126500000Y-49500000D02*
X125624000Y-48624000D01*
X160781530Y-43956940D02*
X156239470Y-48499000D01*
X125024000Y-65524000D02*
X115176000Y-65524000D01*
X150106000Y-48906000D02*
X149712000Y-49300000D01*
X149575000Y-101075000D02*
X148350000Y-101075000D01*
X175700000Y-126851500D02*
X175700000Y-121816500D01*
X170500000Y-68000000D02*
X171000000Y-68000000D01*
X114400000Y-83800000D02*
X105101000Y-83800000D01*
X180045000Y-119836500D02*
X186435200Y-119836500D01*
X120351000Y-82999000D02*
X115201000Y-82999000D01*
X147565400Y-131946500D02*
X147580400Y-131946500D01*
X159137400Y-122944300D02*
X148708200Y-122944300D01*
X182366100Y-78501000D02*
X181966100Y-78101000D01*
X181354500Y-95500000D02*
X184018500Y-92836000D01*
X165600000Y-83900000D02*
X155252000Y-83900000D01*
X154301000Y-103474000D02*
X154301000Y-117460900D01*
X171343498Y-99156502D02*
X172500000Y-98000000D01*
X105101000Y-83800000D02*
X104276000Y-82975000D01*
X168500000Y-47000000D02*
X168500000Y-48349943D01*
X165575000Y-66350000D02*
X167350000Y-66350000D01*
X145025400Y-129406500D02*
X147580400Y-126851500D01*
X114350000Y-101200000D02*
X113549000Y-100399000D01*
X148520685Y-64520685D02*
X148500000Y-64500000D01*
X143949000Y-120213800D02*
X123667800Y-140495000D01*
X115151000Y-100399000D02*
X114350000Y-101200000D01*
X166401530Y-47500000D02*
X162858470Y-43956940D01*
X160280400Y-121801300D02*
X159137400Y-122944300D01*
X186435200Y-119836500D02*
X188400000Y-121801300D01*
X177501482Y-80284597D02*
X177501482Y-81216579D01*
X98201000Y-48524000D02*
X97400000Y-49325000D01*
X154301000Y-82949000D02*
X149151000Y-82949000D01*
X132125000Y-65500000D02*
X131300000Y-66325000D01*
X156239470Y-48499000D02*
X150513000Y-48499000D01*
X77899000Y-92501000D02*
X77899000Y-80599000D01*
X181966100Y-78101000D02*
X179685079Y-78101000D01*
X125624000Y-48624000D02*
X115201000Y-48624000D01*
X171343498Y-99500000D02*
X171343498Y-99156502D01*
X167900000Y-83900000D02*
X165600000Y-83900000D01*
X180935079Y-69000000D02*
X180935079Y-66781322D01*
X172500000Y-85500000D02*
X168659000Y-85500000D01*
X153827000Y-103000000D02*
X154301000Y-103474000D01*
X138027000Y-83750000D02*
X137226000Y-82949000D01*
X184926000Y-58226000D02*
X183875000Y-57175000D01*
X176783421Y-81216579D02*
X172500000Y-85500000D01*
X155252000Y-83900000D02*
X154301000Y-82949000D01*
X115201000Y-82999000D02*
X114400000Y-83800000D01*
X184605000Y-135756300D02*
X184605000Y-135756500D01*
X109825000Y-66325000D02*
X114375000Y-66325000D01*
X133799000Y-49325000D02*
X131400000Y-49325000D01*
X173145000Y-129406500D02*
X175700000Y-126851500D01*
X166751000Y-102151000D02*
X165700000Y-101100000D01*
X153827000Y-103000000D02*
X153000000Y-103000000D01*
X168000000Y-47500000D02*
X166401530Y-47500000D01*
X68500000Y-95500000D02*
X68500000Y-91520000D01*
X149151000Y-82949000D02*
X148350000Y-83750000D01*
X184605000Y-135756500D02*
X180795000Y-131946500D01*
X184018500Y-74500000D02*
X180935079Y-71416579D01*
X145566500Y-121816500D02*
X144070000Y-120320000D01*
X148708200Y-122944300D02*
X147580400Y-121816500D01*
X173580000Y-70580000D02*
X180525079Y-70580000D01*
X103827000Y-49000000D02*
X103351000Y-48524000D01*
X132076000Y-82949000D02*
X131275000Y-83750000D01*
X175010614Y-43306886D02*
X175010614Y-43489386D01*
X77899000Y-80599000D02*
X76740000Y-79440000D01*
X113549000Y-100399000D02*
X98151000Y-100399000D01*
X184018500Y-92836000D02*
X184018500Y-91800000D01*
X152675400Y-131946500D02*
X156485400Y-135756500D01*
X168500000Y-47000000D02*
X168000000Y-47500000D01*
X138027000Y-101075000D02*
X137251000Y-100299000D01*
X185069500Y-75551000D02*
X184018500Y-74500000D01*
X168500000Y-48349943D02*
X167424943Y-49425000D01*
X103074000Y-79283900D02*
X98557900Y-83800000D01*
X180525079Y-70580000D02*
X180935079Y-70990000D01*
X175700000Y-121816500D02*
X175700000Y-131946500D01*
X109024000Y-65524000D02*
X109825000Y-66325000D01*
X143088199Y-47924000D02*
X134000000Y-47924000D01*
X155928000Y-105101000D02*
X166751000Y-105101000D01*
X153827000Y-103000000D02*
X155928000Y-105101000D01*
X137226000Y-82949000D02*
X132076000Y-82949000D01*
X73200000Y-98300000D02*
X73000000Y-98500000D01*
X166751000Y-105101000D02*
X166751000Y-102151000D01*
X178875000Y-121006500D02*
X180045000Y-119836500D01*
X188400000Y-131961300D02*
X184605000Y-135756300D01*
X131400000Y-49325000D02*
X130725000Y-50000000D01*
X103351000Y-48524000D02*
X98201000Y-48524000D01*
X185069500Y-75551000D02*
X185069500Y-78501000D01*
X162858470Y-43956940D02*
X160781530Y-43956940D01*
X98176000Y-65524000D02*
X109024000Y-65524000D01*
X156485400Y-135756300D02*
X160280400Y-131961300D01*
X103923943Y-78649000D02*
X103426057Y-78649000D01*
X183918500Y-40125000D02*
X178192500Y-40125000D01*
X188400000Y-121801300D02*
X188400000Y-131961300D01*
X115201000Y-48624000D02*
X114400000Y-49425000D01*
X132101000Y-100299000D02*
X131300000Y-101100000D01*
X145025400Y-129406500D02*
X147565400Y-131946500D01*
X154301000Y-117460900D02*
X150755400Y-121006500D01*
X123667800Y-140495000D02*
X82830500Y-140495000D01*
X172000000Y-69000000D02*
X173580000Y-70580000D01*
X73200000Y-97200000D02*
X73200000Y-98300000D01*
X185825000Y-57175000D02*
X186000000Y-57000000D01*
X183918500Y-41418500D02*
X183918500Y-40125000D01*
X97375000Y-66325000D02*
X98176000Y-65524000D01*
X184926000Y-61176000D02*
X184926000Y-58226000D01*
X137251000Y-100299000D02*
X132101000Y-100299000D01*
X184276000Y-61826000D02*
X184926000Y-61176000D01*
X150513000Y-48499000D02*
X150106000Y-48906000D01*
X167424943Y-49425000D02*
X165600000Y-49425000D01*
X148350000Y-101075000D02*
X138027000Y-101075000D01*
X165575000Y-66350000D02*
X159067100Y-66350000D01*
X130725000Y-50000000D02*
X128500000Y-50000000D01*
X178192500Y-40125000D02*
X175010614Y-43306886D01*
X131275000Y-83750000D02*
X121102000Y-83750000D01*
X165700000Y-101100000D02*
X166834942Y-101100000D01*
X171000000Y-68000000D02*
X172000000Y-69000000D01*
X183875000Y-57175000D02*
X185825000Y-57175000D01*
X131300000Y-101100000D02*
X121002000Y-101100000D01*
X185069500Y-79449801D02*
X185069500Y-75551000D01*
X180795000Y-131946500D02*
X175700000Y-131946500D01*
X156485400Y-135756500D02*
X156485400Y-135756300D01*
X104276000Y-82975000D02*
X104276000Y-79001057D01*
X58505000Y-87515000D02*
X61500000Y-84520000D01*
X98151000Y-100399000D02*
X97350000Y-101200000D01*
X120301000Y-100399000D02*
X115151000Y-100399000D01*
X82830500Y-140495000D02*
X58505000Y-116169500D01*
X73200000Y-97200000D02*
X77899000Y-92501000D01*
X121002000Y-101100000D02*
X120301000Y-100399000D01*
X180935079Y-71416579D02*
X180935079Y-70990000D01*
X176510000Y-121006500D02*
X175700000Y-121816500D01*
X175700000Y-121816500D02*
X170425200Y-121816500D01*
X144464199Y-49300000D02*
X143088199Y-47924000D01*
X142000000Y-65500000D02*
X132125000Y-65500000D01*
X104276000Y-79001057D02*
X103923943Y-78649000D01*
X68500000Y-91520000D02*
X61500000Y-84520000D01*
X151500000Y-103000000D02*
X149575000Y-101075000D01*
X180935079Y-70990000D02*
X180935079Y-69000000D01*
X143000000Y-66500000D02*
X142000000Y-65500000D01*
X58505000Y-116169500D02*
X58505000Y-87515000D01*
X115176000Y-65524000D02*
X114375000Y-66325000D01*
X148400000Y-49300000D02*
X144464199Y-49300000D01*
X179685079Y-78101000D02*
X177501482Y-80284597D01*
X180935079Y-66781322D02*
X184276000Y-63440401D01*
X168000000Y-84000000D02*
X167900000Y-83900000D01*
X180905079Y-88686579D02*
X180905079Y-83614222D01*
X157237785Y-64520685D02*
X148520685Y-64520685D01*
X178875000Y-121006500D02*
X176510000Y-121006500D01*
X176450000Y-95500000D02*
X181354500Y-95500000D01*
X167350000Y-66350000D02*
X168500000Y-67500000D01*
X189000000Y-46500000D02*
X183918500Y-41418500D01*
X131300000Y-66325000D02*
X125825000Y-66325000D01*
X103426057Y-78649000D02*
X103074000Y-79001057D01*
X114400000Y-49425000D02*
X113975000Y-49000000D01*
X125825000Y-66325000D02*
X125024000Y-65524000D01*
X170425200Y-121816500D02*
X160280400Y-131961300D01*
X121102000Y-83750000D02*
X120351000Y-82999000D01*
X184276000Y-63440401D02*
X184276000Y-61826000D01*
X184018500Y-91800000D02*
X180905079Y-88686579D01*
X166834942Y-101100000D02*
X167961000Y-99973942D01*
X103074000Y-79001057D02*
X103074000Y-79283900D01*
X177501482Y-81216579D02*
X176783421Y-81216579D01*
X185069500Y-78501000D02*
X182366100Y-78501000D01*
X159067100Y-66350000D02*
X157237785Y-64520685D01*
X148350000Y-83750000D02*
X138027000Y-83750000D01*
X113975000Y-49000000D02*
X103827000Y-49000000D01*
X147580400Y-121816500D02*
X145566500Y-121816500D01*
X149712000Y-49300000D02*
X148400000Y-49300000D01*
%TO.N,V2*%
X60966100Y-67841000D02*
X61956050Y-67841000D01*
X56901000Y-71906100D02*
X60966100Y-67841000D01*
X61956050Y-67841000D02*
X62601000Y-67196050D01*
X62601000Y-65301000D02*
X61500000Y-64200000D01*
X82166100Y-142099000D02*
X56901000Y-116833900D01*
X62601000Y-67196050D02*
X62601000Y-65301000D01*
X56901000Y-116833900D02*
X56901000Y-71906100D01*
X157912500Y-142099000D02*
X82166100Y-142099000D01*
X173145000Y-126866500D02*
X157912500Y-142099000D01*
%TO.N,Row 1*%
X84164400Y-33604000D02*
X85000000Y-33604000D01*
X66231500Y-113528500D02*
X66100000Y-113660000D01*
X80500000Y-60440000D02*
X80500000Y-37268400D01*
X85000000Y-33604000D02*
X89396000Y-38000000D01*
X66231500Y-112000000D02*
X66231500Y-113528500D01*
X89396000Y-38000000D02*
X90731500Y-38000000D01*
X80500000Y-37268400D02*
X84164400Y-33604000D01*
X76740000Y-64200000D02*
X80500000Y-60440000D01*
%TO.N,Row 5*%
X151239236Y-65540764D02*
X150380000Y-66400000D01*
X78500000Y-52280000D02*
X78500000Y-37000000D01*
X76740000Y-54040000D02*
X78500000Y-52280000D01*
X83500000Y-32000000D02*
X152731500Y-32000000D01*
X152731500Y-32000000D02*
X158731500Y-38000000D01*
X78500000Y-37000000D02*
X83500000Y-32000000D01*
%TO.N,SEL1*%
X123500000Y-140094000D02*
X82996600Y-140094000D01*
X150755400Y-116066500D02*
X149412700Y-114723800D01*
X149412700Y-114723800D02*
X149412700Y-114181300D01*
X149412700Y-114181300D02*
X123500000Y-140094000D01*
X82996600Y-140094000D02*
X58906000Y-116003400D01*
X58906000Y-116003400D02*
X58906000Y-93094000D01*
X58906000Y-93094000D02*
X61500000Y-90500000D01*
X78500000Y-78660000D02*
X76740000Y-76900000D01*
X78500000Y-89500000D02*
X78500000Y-78660000D01*
%TO.N,SEL2*%
X151945400Y-114901100D02*
X150035600Y-112991300D01*
X63500000Y-89500000D02*
X59307000Y-93693000D01*
X83162700Y-139693000D02*
X123333900Y-139693000D01*
X59307000Y-93693000D02*
X59307000Y-115837300D01*
X123333900Y-139693000D02*
X150035600Y-112991300D01*
X152678115Y-122196500D02*
X150262485Y-122196500D01*
X149141450Y-121075465D02*
X149141450Y-119363365D01*
X149141450Y-119363365D02*
X151945400Y-116559415D01*
X158808115Y-116066500D02*
X152678115Y-122196500D01*
X150262485Y-122196500D02*
X149141450Y-121075465D01*
X59307000Y-115837300D02*
X83162700Y-139693000D01*
X151945400Y-116559415D02*
X151945400Y-114901100D01*
X79100000Y-88934313D02*
X79100000Y-76720000D01*
X79100000Y-76720000D02*
X76740000Y-74360000D01*
X178875000Y-116066500D02*
X158808115Y-116066500D01*
%TO.N,H2*%
X56500000Y-71740000D02*
X56500000Y-117000000D01*
X82000000Y-142500000D02*
X176591300Y-142500000D01*
X61500000Y-66740000D02*
X56500000Y-71740000D01*
X176591300Y-141250200D02*
X182065000Y-135776500D01*
X56500000Y-117000000D02*
X82000000Y-142500000D01*
X176591300Y-142500000D02*
X176591300Y-141250200D01*
%TO.N,H1*%
X61500000Y-61660000D02*
X63002000Y-63162000D01*
X57302000Y-72072200D02*
X57302000Y-116667800D01*
X82332200Y-141698000D02*
X147770000Y-141698000D01*
X153945400Y-137142600D02*
X149390000Y-141698000D01*
X147770000Y-141698000D02*
X149273700Y-141698000D01*
X58993200Y-70381000D02*
X57302000Y-72072200D01*
X61956050Y-70381000D02*
X58993200Y-70381000D01*
X63002000Y-63162000D02*
X63002000Y-69335050D01*
X149390000Y-141698000D02*
X147770000Y-141698000D01*
X63002000Y-69335050D02*
X61956050Y-70381000D01*
X57302000Y-116667800D02*
X82332200Y-141698000D01*
X153945400Y-135776500D02*
X153945400Y-137142600D01*
%TO.N,Column 5*%
X76740000Y-66740000D02*
X75639000Y-65639000D01*
X181701120Y-51028421D02*
X187296079Y-51028421D01*
X74500000Y-98365800D02*
X74500000Y-100500000D01*
X77153500Y-52643550D02*
X78000000Y-51797050D01*
X76579400Y-52643550D02*
X77153500Y-52643550D01*
X165370000Y-35230000D02*
X165902699Y-35230000D01*
X78000000Y-51797050D02*
X78000000Y-36932900D01*
X81305735Y-74694265D02*
X81305735Y-91560065D01*
X165902699Y-35230000D02*
X181701120Y-51028421D01*
X81305735Y-91560065D02*
X74500000Y-98365800D01*
X187296079Y-51028421D02*
X187454500Y-50870000D01*
X161599000Y-31599000D02*
X161599000Y-34511000D01*
X76740000Y-66740000D02*
X83000000Y-73000000D01*
X75639000Y-65639000D02*
X75639000Y-53583950D01*
X161599000Y-34511000D02*
X160950000Y-35160000D01*
X75639000Y-53583950D02*
X76579400Y-52643550D01*
X78000000Y-36932900D02*
X83333900Y-31599000D01*
X83333900Y-31599000D02*
X161599000Y-31599000D01*
%TO.N,Row 3*%
X121198000Y-38000000D02*
X124463000Y-38000000D01*
X76740000Y-59120000D02*
X79500000Y-56360000D01*
X116000000Y-32802000D02*
X121198000Y-38000000D01*
X125932500Y-70899000D02*
X124431500Y-72400000D01*
X83832200Y-32802000D02*
X116000000Y-32802000D01*
X177500000Y-71500000D02*
X174000000Y-71500000D01*
X79500000Y-56360000D02*
X79500000Y-37134200D01*
X171399000Y-70899000D02*
X125932500Y-70899000D01*
X172000000Y-71500000D02*
X171399000Y-70899000D01*
X79500000Y-37134200D02*
X83832200Y-32802000D01*
%TO.N,V1*%
X58000000Y-73000000D02*
X57703000Y-73297000D01*
X57703000Y-116501700D02*
X82498300Y-141297000D01*
X82498300Y-141297000D02*
X124000000Y-141297000D01*
X57703000Y-73297000D02*
X57703000Y-116501700D01*
X65000000Y-62620000D02*
X65000000Y-69877050D01*
X61877050Y-73000000D02*
X58000000Y-73000000D01*
X57703000Y-116501700D02*
X57703000Y-105740000D01*
X137648500Y-127648500D02*
X124000000Y-141297000D01*
X138430500Y-126866500D02*
X137648500Y-127648500D01*
X124000000Y-141297000D02*
X138415700Y-126881300D01*
X65000000Y-69877050D02*
X61877050Y-73000000D01*
X145025400Y-126866500D02*
X138430500Y-126866500D01*
X61500000Y-59120000D02*
X65000000Y-62620000D01*
%TO.N,Net-(D26-DOUT)*%
X85300000Y-104400000D02*
X97350000Y-104400000D01*
X78100000Y-97200000D02*
X85300000Y-104400000D01*
%TO.N,Net-(D27-DOUT)*%
X105450000Y-104400000D02*
X114350000Y-104400000D01*
X102250000Y-101200000D02*
X105450000Y-104400000D01*
%TO.N,Net-(D28-DOUT)*%
X119250000Y-101200000D02*
X122350000Y-104300000D01*
X122350000Y-104300000D02*
X131300000Y-104300000D01*
%TO.N,Net-(D29-DOUT)*%
X139375000Y-104275000D02*
X148350000Y-104275000D01*
X136200000Y-101100000D02*
X139375000Y-104275000D01*
%TO.N,Net-(D30-DOUT)*%
X156475000Y-104300000D02*
X165700000Y-104300000D01*
X153250000Y-101075000D02*
X156475000Y-104300000D01*
%TO.N,Net-(D31-DOUT)*%
X180792722Y-101056579D02*
X170643421Y-101056579D01*
X170643421Y-101056579D02*
X170600000Y-101100000D01*
X184018500Y-97830801D02*
X180792722Y-101056579D01*
X184018500Y-97830801D02*
X184018500Y-95000000D01*
%TO.N,Net-(D32-DOUT)*%
X169549000Y-100299000D02*
X171475000Y-98373000D01*
X171475000Y-92975000D02*
X165600000Y-87100000D01*
X170732421Y-103084421D02*
X169549000Y-101901000D01*
X171236421Y-103084421D02*
X170732421Y-103084421D01*
X186759500Y-98557470D02*
X186055970Y-99261000D01*
X188918500Y-91800000D02*
X186759500Y-93959000D01*
X186759500Y-93959000D02*
X186759500Y-98557470D01*
X169549000Y-101901000D02*
X169549000Y-100299000D01*
X171475000Y-98373000D02*
X171475000Y-92975000D01*
X180914903Y-106920000D02*
X175072000Y-106920000D01*
X175072000Y-106920000D02*
X171236421Y-103084421D01*
X186371921Y-101462982D02*
X180914903Y-106920000D01*
X186055970Y-99261000D02*
X186371921Y-99576951D01*
X186371921Y-99576951D02*
X186371921Y-101462982D01*
%TO.N,Net-(D33-DOUT)*%
X170500000Y-83900000D02*
X169659000Y-84741000D01*
X150559000Y-84741000D02*
X148350000Y-86950000D01*
X169659000Y-84741000D02*
X150559000Y-84741000D01*
%TO.N,Net-(D34-DOUT)*%
X150982900Y-83750000D02*
X149990900Y-84742000D01*
X153250000Y-83750000D02*
X150982900Y-83750000D01*
X149990900Y-84742000D02*
X133483000Y-84742000D01*
X133483000Y-84742000D02*
X131275000Y-86950000D01*
%TO.N,Net-(D35-DOUT)*%
X136175000Y-83750000D02*
X133127000Y-83750000D01*
X116633000Y-84767000D02*
X114400000Y-87000000D01*
X132110000Y-84767000D02*
X116633000Y-84767000D01*
X133127000Y-83750000D02*
X132110000Y-84767000D01*
%TO.N,Net-(D36-DOUT)*%
X116252000Y-83800000D02*
X115311000Y-84741000D01*
X99759000Y-84741000D02*
X97500000Y-87000000D01*
X119300000Y-83800000D02*
X116252000Y-83800000D01*
X115311000Y-84741000D02*
X99759000Y-84741000D01*
%TO.N,Net-(D37-DOUT)*%
X101780000Y-83180000D02*
X102400000Y-83800000D01*
X97650000Y-69525000D02*
X97375000Y-69525000D01*
X101780000Y-82650000D02*
X101780000Y-83180000D01*
X100660000Y-77515000D02*
X100660000Y-80500000D01*
X102125000Y-76050000D02*
X102125000Y-74000000D01*
X102125000Y-76050000D02*
X100660000Y-77515000D01*
X102125000Y-74000000D02*
X97650000Y-69525000D01*
%TO.N,Net-(D38-DOUT)*%
X173188421Y-49401579D02*
X170766000Y-51824000D01*
X178711482Y-49401579D02*
X173188421Y-49401579D01*
X181590000Y-56374000D02*
X181590000Y-52280097D01*
X166401000Y-51824000D02*
X165600000Y-52625000D01*
X188775000Y-57175000D02*
X187974000Y-56374000D01*
X187974000Y-56374000D02*
X181590000Y-56374000D01*
X181590000Y-52280097D02*
X178711482Y-49401579D01*
X170766000Y-51824000D02*
X166401000Y-51824000D01*
%TO.N,Net-(D38-DIN)*%
X170475000Y-66350000D02*
X172000000Y-67875000D01*
X172000000Y-68000000D02*
X174298910Y-65701090D01*
X172000000Y-67875000D02*
X172000000Y-68000000D01*
X183875000Y-63274301D02*
X183875000Y-60375000D01*
X174298910Y-65701090D02*
X181448211Y-65701090D01*
X181448211Y-65701090D02*
X183875000Y-63274301D01*
%TO.N,Net-(D39-DIN)*%
X156525000Y-69550000D02*
X165575000Y-69550000D01*
X153275000Y-66300000D02*
X156525000Y-69550000D01*
%TO.N,Net-(D40-DIN)*%
X136200000Y-66325000D02*
X139375000Y-69500000D01*
X139375000Y-69500000D02*
X148375000Y-69500000D01*
%TO.N,Net-(D41-DIN)*%
X122475000Y-69525000D02*
X131300000Y-69525000D01*
X119275000Y-66325000D02*
X122475000Y-69525000D01*
%TO.N,Net-(D42-DIN)*%
X102275000Y-66325000D02*
X105475000Y-69525000D01*
X105475000Y-69525000D02*
X114375000Y-69525000D01*
%TO.N,Net-(D44-DOUT)*%
X170500000Y-49425000D02*
X170500000Y-48500000D01*
X149201000Y-51699000D02*
X148400000Y-52500000D01*
X154500000Y-50000000D02*
X152801000Y-51699000D01*
X161430801Y-50000000D02*
X154500000Y-50000000D01*
X162930801Y-48500000D02*
X161430801Y-50000000D01*
X167500000Y-48500000D02*
X162930801Y-48500000D01*
X152801000Y-51699000D02*
X149201000Y-51699000D01*
X170500000Y-48500000D02*
X170000000Y-48000000D01*
%TO.N,Net-(D45-DOUT)*%
X153300000Y-49300000D02*
X152288000Y-50312000D01*
X133613000Y-50312000D02*
X131400000Y-52525000D01*
X152288000Y-50312000D02*
X133613000Y-50312000D01*
%TO.N,Net-(D46-DOUT)*%
X128906801Y-48524000D02*
X127113801Y-50317000D01*
X135499000Y-48524000D02*
X128906801Y-48524000D01*
X136300000Y-49325000D02*
X135499000Y-48524000D01*
X116708000Y-50317000D02*
X114400000Y-52625000D01*
X127113801Y-50317000D02*
X116708000Y-50317000D01*
%TO.N,Net-(D47-DOUT)*%
X119300000Y-49425000D02*
X117032900Y-49425000D01*
X99608000Y-50317000D02*
X97400000Y-52525000D01*
X117032900Y-49425000D02*
X116140900Y-50317000D01*
X116140900Y-50317000D02*
X99608000Y-50317000D01*
%TO.N,Net-(D48-DOUT)*%
X102300000Y-49325000D02*
X102776002Y-49801002D01*
X181839873Y-77700000D02*
X184018500Y-77700000D01*
X102776002Y-49801002D02*
X110415998Y-49801002D01*
X181640873Y-77501000D02*
X181839873Y-77700000D01*
X123500000Y-52900000D02*
X130000000Y-52900000D01*
X110415998Y-49801002D02*
X110500000Y-49717000D01*
%TO.N,Net-(D49-DOUT)*%
X184168500Y-43325000D02*
X188054500Y-47211000D01*
X187500000Y-57500000D02*
X187500000Y-66244500D01*
X183918500Y-43325000D02*
X184168500Y-43325000D01*
X188054500Y-47211000D02*
X188054500Y-55054500D01*
X188918500Y-67663000D02*
X188918500Y-74500000D01*
X187500000Y-66244500D02*
X188918500Y-67663000D01*
X188054500Y-55054500D02*
X188500000Y-55500000D01*
%TO.N,Net-(D5-PadA)*%
X72848500Y-111080000D02*
X73768500Y-112000000D01*
X64310000Y-111080000D02*
X72848500Y-111080000D01*
X64100000Y-111290000D02*
X64310000Y-111080000D01*
%TO.N,Net-(D6-PadA)*%
X180580000Y-55320000D02*
X175050000Y-55320000D01*
X175050000Y-55320000D02*
X172250000Y-52520000D01*
X180740000Y-55160000D02*
X180580000Y-55320000D01*
%TO.N,Net-(D17-PadA)*%
X148837300Y-55000000D02*
X147700721Y-56136579D01*
X147700721Y-56136579D02*
X140763421Y-56136579D01*
X140763421Y-56136579D02*
X138680000Y-58220000D01*
%TO.N,Net-(D19-PadA)*%
X154120000Y-90849000D02*
X154120000Y-91970000D01*
X154120000Y-91970000D02*
X153990000Y-92100000D01*
%TO.N,Net-(D24-PadA)*%
X166268500Y-55000000D02*
X165234250Y-56034250D01*
X167204250Y-56034250D02*
X167770000Y-56600000D01*
X165234250Y-56034250D02*
X167204250Y-56034250D01*
%TO.N,Net-(D22-PadA)*%
X162710000Y-89400000D02*
X162271579Y-89838421D01*
X162271579Y-93840982D02*
X163640597Y-95210000D01*
X162271579Y-89838421D02*
X162271579Y-93840982D01*
X163640597Y-95210000D02*
X165440000Y-95210000D01*
%TD*%
M02*
