M48
; DRILL file {KiCad 9.0.2} date 2025-06-30T11:43:15-0400
; FORMAT={-:-/ absolute / inch / decimal}
; #@! TF.CreationDate,2025-06-30T11:43:15-04:00
; #@! TF.GenerationSoftware,Kicad,Pcbnew,9.0.2
; #@! TF.FileFunction,NonPlated,1,2,NPTH
FMAT,2
INCH
; #@! TA.AperFunction,NonPlated,NPTH,ComponentDrill
T1C0.0669
; #@! TA.AperFunction,NonPlated,NPTH,ComponentDrill
T2C0.1567
%
G90
G05
T1
X2.5283Y-4.0787
X2.9283Y-4.0787
X3.4935Y-3.1781
X3.4935Y-3.8606
X3.4937Y-2.4929
X3.4939Y-1.8228
X3.8935Y-3.1781
X3.8935Y-3.8606
X3.8937Y-2.4929
X3.8939Y-1.8228
X4.1628Y-3.1781
X4.1628Y-3.8606
X4.163Y-1.8228
X4.163Y-2.4929
X4.5628Y-3.1781
X4.5628Y-3.8606
X4.563Y-1.8228
X4.563Y-2.4929
X4.8297Y-3.8614
X4.8303Y-3.1791
X4.8323Y-1.8228
X4.8331Y-2.4933
X5.2297Y-3.8614
X5.2303Y-3.1791
X5.2323Y-1.8228
X5.2331Y-2.4933
X5.499Y-3.8614
X5.4996Y-1.8226
X5.4996Y-2.4921
X5.4996Y-3.1781
X5.899Y-3.8614
X5.8996Y-1.8226
X5.8996Y-2.4921
X5.8996Y-3.1781
X6.1707Y-3.1781
X6.1707Y-3.8606
X6.1709Y-1.8228
X6.1709Y-2.4929
X6.5707Y-3.1781
X6.5707Y-3.8606
X6.5709Y-1.8228
X6.5709Y-2.4929
X6.9019Y-1.827
X6.9043Y-3.1795
X6.9055Y-2.4945
X6.9055Y-3.8606
X7.3019Y-1.827
X7.3043Y-3.1795
X7.3055Y-2.4945
X7.3055Y-3.8606
T2
X2.7283Y-4.0787
X3.6935Y-3.1781
X3.6935Y-3.8606
X3.6937Y-2.4929
X3.6939Y-1.8228
X4.3628Y-3.1781
X4.3628Y-3.8606
X4.363Y-1.8228
X4.363Y-2.4929
X5.0297Y-3.8614
X5.0303Y-3.1791
X5.0323Y-1.8228
X5.0331Y-2.4933
X5.699Y-3.8614
X5.6996Y-1.8226
X5.6996Y-2.4921
X5.6996Y-3.1781
X6.3707Y-3.1781
X6.3707Y-3.8606
X6.3709Y-1.8228
X6.3709Y-2.4929
X7.1019Y-1.827
X7.1043Y-3.1795
X7.1055Y-2.4945
X7.1055Y-3.8606
M30
