%TF.GenerationSoftware,KiCad,Pcbnew,9.0.2*%
%TF.CreationDate,2025-06-30T11:43:15-04:00*%
%TF.ProjectId,PCB,5043422e-6b69-4636-9164-5f7063625858,rev?*%
%TF.SameCoordinates,Original*%
%TF.FileFunction,Legend,Top*%
%TF.FilePolarity,Positive*%
%FSLAX46Y46*%
G04 Gerber Fmt 4.6, Leading zero omitted, Abs format (unit mm)*
G04 Created by KiCad (PCBNEW 9.0.2) date 2025-06-30 11:43:15*
%MOMM*%
%LPD*%
G01*
G04 APERTURE LIST*
G04 Aperture macros list*
%AMRoundRect*
0 Rectangle with rounded corners*
0 $1 Rounding radius*
0 $2 $3 $4 $5 $6 $7 $8 $9 X,Y pos of 4 corners*
0 Add a 4 corners polygon primitive as box body*
4,1,4,$2,$3,$4,$5,$6,$7,$8,$9,$2,$3,0*
0 Add four circle primitives for the rounded corners*
1,1,$1+$1,$2,$3*
1,1,$1+$1,$4,$5*
1,1,$1+$1,$6,$7*
1,1,$1+$1,$8,$9*
0 Add four rect primitives between the rounded corners*
20,1,$1+$1,$2,$3,$4,$5,0*
20,1,$1+$1,$4,$5,$6,$7,0*
20,1,$1+$1,$6,$7,$8,$9,0*
20,1,$1+$1,$8,$9,$2,$3,0*%
G04 Aperture macros list end*
%ADD10C,0.300000*%
%ADD11C,1.500000*%
%ADD12C,0.150000*%
%ADD13C,0.000000*%
%ADD14C,0.120000*%
%ADD15C,0.127000*%
%ADD16C,0.200000*%
%ADD17R,1.500000X1.000000*%
%ADD18C,1.442000*%
%ADD19RoundRect,0.102000X-0.619000X-0.619000X0.619000X-0.619000X0.619000X0.619000X-0.619000X0.619000X0*%
%ADD20C,1.778000*%
%ADD21C,2.286000*%
%ADD22R,1.600000X1.600000*%
%ADD23O,1.600000X1.600000*%
%ADD24C,1.750000*%
%ADD25C,3.980180*%
%ADD26C,2.250000*%
%ADD27R,1.524000X1.524000*%
%ADD28C,1.524000*%
G04 APERTURE END LIST*
D10*
X78673558Y-130739638D02*
X78673558Y-128739638D01*
X78673558Y-128739638D02*
X79340225Y-130168209D01*
X79340225Y-130168209D02*
X80006891Y-128739638D01*
X80006891Y-128739638D02*
X80006891Y-130739638D01*
X81816415Y-130739638D02*
X81816415Y-129692019D01*
X81816415Y-129692019D02*
X81721177Y-129501542D01*
X81721177Y-129501542D02*
X81530701Y-129406304D01*
X81530701Y-129406304D02*
X81149748Y-129406304D01*
X81149748Y-129406304D02*
X80959272Y-129501542D01*
X81816415Y-130644400D02*
X81625939Y-130739638D01*
X81625939Y-130739638D02*
X81149748Y-130739638D01*
X81149748Y-130739638D02*
X80959272Y-130644400D01*
X80959272Y-130644400D02*
X80864034Y-130453923D01*
X80864034Y-130453923D02*
X80864034Y-130263447D01*
X80864034Y-130263447D02*
X80959272Y-130072971D01*
X80959272Y-130072971D02*
X81149748Y-129977733D01*
X81149748Y-129977733D02*
X81625939Y-129977733D01*
X81625939Y-129977733D02*
X81816415Y-129882495D01*
X83625939Y-130739638D02*
X83625939Y-128739638D01*
X83625939Y-130644400D02*
X83435463Y-130739638D01*
X83435463Y-130739638D02*
X83054510Y-130739638D01*
X83054510Y-130739638D02*
X82864034Y-130644400D01*
X82864034Y-130644400D02*
X82768796Y-130549161D01*
X82768796Y-130549161D02*
X82673558Y-130358685D01*
X82673558Y-130358685D02*
X82673558Y-129787257D01*
X82673558Y-129787257D02*
X82768796Y-129596780D01*
X82768796Y-129596780D02*
X82864034Y-129501542D01*
X82864034Y-129501542D02*
X83054510Y-129406304D01*
X83054510Y-129406304D02*
X83435463Y-129406304D01*
X83435463Y-129406304D02*
X83625939Y-129501542D01*
X85340225Y-130644400D02*
X85149749Y-130739638D01*
X85149749Y-130739638D02*
X84768796Y-130739638D01*
X84768796Y-130739638D02*
X84578320Y-130644400D01*
X84578320Y-130644400D02*
X84483082Y-130453923D01*
X84483082Y-130453923D02*
X84483082Y-129692019D01*
X84483082Y-129692019D02*
X84578320Y-129501542D01*
X84578320Y-129501542D02*
X84768796Y-129406304D01*
X84768796Y-129406304D02*
X85149749Y-129406304D01*
X85149749Y-129406304D02*
X85340225Y-129501542D01*
X85340225Y-129501542D02*
X85435463Y-129692019D01*
X85435463Y-129692019D02*
X85435463Y-129882495D01*
X85435463Y-129882495D02*
X84483082Y-130072971D01*
X87816416Y-130739638D02*
X87816416Y-128739638D01*
X87816416Y-129501542D02*
X88006892Y-129406304D01*
X88006892Y-129406304D02*
X88387845Y-129406304D01*
X88387845Y-129406304D02*
X88578321Y-129501542D01*
X88578321Y-129501542D02*
X88673559Y-129596780D01*
X88673559Y-129596780D02*
X88768797Y-129787257D01*
X88768797Y-129787257D02*
X88768797Y-130358685D01*
X88768797Y-130358685D02*
X88673559Y-130549161D01*
X88673559Y-130549161D02*
X88578321Y-130644400D01*
X88578321Y-130644400D02*
X88387845Y-130739638D01*
X88387845Y-130739638D02*
X88006892Y-130739638D01*
X88006892Y-130739638D02*
X87816416Y-130644400D01*
X89435464Y-129406304D02*
X89911654Y-130739638D01*
X90387845Y-129406304D02*
X89911654Y-130739638D01*
X89911654Y-130739638D02*
X89721178Y-131215828D01*
X89721178Y-131215828D02*
X89625940Y-131311066D01*
X89625940Y-131311066D02*
X89435464Y-131406304D01*
X93911655Y-129787257D02*
X93816417Y-129692019D01*
X93816417Y-129692019D02*
X93625941Y-129596780D01*
X93625941Y-129596780D02*
X93435465Y-129596780D01*
X93435465Y-129596780D02*
X93244989Y-129692019D01*
X93244989Y-129692019D02*
X93149750Y-129787257D01*
X93149750Y-129787257D02*
X93054512Y-129977733D01*
X93054512Y-129977733D02*
X93054512Y-130168209D01*
X93054512Y-130168209D02*
X93149750Y-130358685D01*
X93149750Y-130358685D02*
X93244989Y-130453923D01*
X93244989Y-130453923D02*
X93435465Y-130549161D01*
X93435465Y-130549161D02*
X93625941Y-130549161D01*
X93625941Y-130549161D02*
X93816417Y-130453923D01*
X93816417Y-130453923D02*
X93911655Y-130358685D01*
X93911655Y-129596780D02*
X93911655Y-130358685D01*
X93911655Y-130358685D02*
X94006893Y-130453923D01*
X94006893Y-130453923D02*
X94102131Y-130453923D01*
X94102131Y-130453923D02*
X94292608Y-130358685D01*
X94292608Y-130358685D02*
X94387846Y-130168209D01*
X94387846Y-130168209D02*
X94387846Y-129692019D01*
X94387846Y-129692019D02*
X94197370Y-129406304D01*
X94197370Y-129406304D02*
X93911655Y-129215828D01*
X93911655Y-129215828D02*
X93530703Y-129120590D01*
X93530703Y-129120590D02*
X93149750Y-129215828D01*
X93149750Y-129215828D02*
X92864036Y-129406304D01*
X92864036Y-129406304D02*
X92673560Y-129692019D01*
X92673560Y-129692019D02*
X92578322Y-130072971D01*
X92578322Y-130072971D02*
X92673560Y-130453923D01*
X92673560Y-130453923D02*
X92864036Y-130739638D01*
X92864036Y-130739638D02*
X93149750Y-130930114D01*
X93149750Y-130930114D02*
X93530703Y-131025352D01*
X93530703Y-131025352D02*
X93911655Y-130930114D01*
X93911655Y-130930114D02*
X94197370Y-130739638D01*
X95244989Y-130739638D02*
X95244989Y-129406304D01*
X95244989Y-128739638D02*
X95149751Y-128834876D01*
X95149751Y-128834876D02*
X95244989Y-128930114D01*
X95244989Y-128930114D02*
X95340227Y-128834876D01*
X95340227Y-128834876D02*
X95244989Y-128739638D01*
X95244989Y-128739638D02*
X95244989Y-128930114D01*
X95911656Y-129406304D02*
X96673560Y-129406304D01*
X96197370Y-128739638D02*
X96197370Y-130453923D01*
X96197370Y-130453923D02*
X96292608Y-130644400D01*
X96292608Y-130644400D02*
X96483084Y-130739638D01*
X96483084Y-130739638D02*
X96673560Y-130739638D01*
X97244989Y-130644400D02*
X97435465Y-130739638D01*
X97435465Y-130739638D02*
X97816417Y-130739638D01*
X97816417Y-130739638D02*
X98006894Y-130644400D01*
X98006894Y-130644400D02*
X98102132Y-130453923D01*
X98102132Y-130453923D02*
X98102132Y-130358685D01*
X98102132Y-130358685D02*
X98006894Y-130168209D01*
X98006894Y-130168209D02*
X97816417Y-130072971D01*
X97816417Y-130072971D02*
X97530703Y-130072971D01*
X97530703Y-130072971D02*
X97340227Y-129977733D01*
X97340227Y-129977733D02*
X97244989Y-129787257D01*
X97244989Y-129787257D02*
X97244989Y-129692019D01*
X97244989Y-129692019D02*
X97340227Y-129501542D01*
X97340227Y-129501542D02*
X97530703Y-129406304D01*
X97530703Y-129406304D02*
X97816417Y-129406304D01*
X97816417Y-129406304D02*
X98006894Y-129501542D01*
X98959275Y-130739638D02*
X98959275Y-129406304D01*
X98959275Y-129596780D02*
X99054513Y-129501542D01*
X99054513Y-129501542D02*
X99244989Y-129406304D01*
X99244989Y-129406304D02*
X99530704Y-129406304D01*
X99530704Y-129406304D02*
X99721180Y-129501542D01*
X99721180Y-129501542D02*
X99816418Y-129692019D01*
X99816418Y-129692019D02*
X99816418Y-130739638D01*
X99816418Y-129692019D02*
X99911656Y-129501542D01*
X99911656Y-129501542D02*
X100102132Y-129406304D01*
X100102132Y-129406304D02*
X100387846Y-129406304D01*
X100387846Y-129406304D02*
X100578323Y-129501542D01*
X100578323Y-129501542D02*
X100673561Y-129692019D01*
X100673561Y-129692019D02*
X100673561Y-130739638D01*
X102387847Y-130644400D02*
X102197371Y-130739638D01*
X102197371Y-130739638D02*
X101816418Y-130739638D01*
X101816418Y-130739638D02*
X101625942Y-130644400D01*
X101625942Y-130644400D02*
X101530704Y-130453923D01*
X101530704Y-130453923D02*
X101530704Y-129692019D01*
X101530704Y-129692019D02*
X101625942Y-129501542D01*
X101625942Y-129501542D02*
X101816418Y-129406304D01*
X101816418Y-129406304D02*
X102197371Y-129406304D01*
X102197371Y-129406304D02*
X102387847Y-129501542D01*
X102387847Y-129501542D02*
X102483085Y-129692019D01*
X102483085Y-129692019D02*
X102483085Y-129882495D01*
X102483085Y-129882495D02*
X101530704Y-130072971D01*
X104673562Y-129406304D02*
X105054514Y-130739638D01*
X105054514Y-130739638D02*
X105435467Y-129787257D01*
X105435467Y-129787257D02*
X105816419Y-130739638D01*
X105816419Y-130739638D02*
X106197371Y-129406304D01*
X106959276Y-130739638D02*
X106959276Y-129406304D01*
X106959276Y-128739638D02*
X106864038Y-128834876D01*
X106864038Y-128834876D02*
X106959276Y-128930114D01*
X106959276Y-128930114D02*
X107054514Y-128834876D01*
X107054514Y-128834876D02*
X106959276Y-128739638D01*
X106959276Y-128739638D02*
X106959276Y-128930114D01*
X107625943Y-129406304D02*
X108387847Y-129406304D01*
X107911657Y-128739638D02*
X107911657Y-130453923D01*
X107911657Y-130453923D02*
X108006895Y-130644400D01*
X108006895Y-130644400D02*
X108197371Y-130739638D01*
X108197371Y-130739638D02*
X108387847Y-130739638D01*
X109054514Y-130739638D02*
X109054514Y-128739638D01*
X109911657Y-130739638D02*
X109911657Y-129692019D01*
X109911657Y-129692019D02*
X109816419Y-129501542D01*
X109816419Y-129501542D02*
X109625943Y-129406304D01*
X109625943Y-129406304D02*
X109340228Y-129406304D01*
X109340228Y-129406304D02*
X109149752Y-129501542D01*
X109149752Y-129501542D02*
X109054514Y-129596780D01*
X112292610Y-130644400D02*
X112483086Y-130739638D01*
X112483086Y-130739638D02*
X112864038Y-130739638D01*
X112864038Y-130739638D02*
X113054515Y-130644400D01*
X113054515Y-130644400D02*
X113149753Y-130453923D01*
X113149753Y-130453923D02*
X113149753Y-130358685D01*
X113149753Y-130358685D02*
X113054515Y-130168209D01*
X113054515Y-130168209D02*
X112864038Y-130072971D01*
X112864038Y-130072971D02*
X112578324Y-130072971D01*
X112578324Y-130072971D02*
X112387848Y-129977733D01*
X112387848Y-129977733D02*
X112292610Y-129787257D01*
X112292610Y-129787257D02*
X112292610Y-129692019D01*
X112292610Y-129692019D02*
X112387848Y-129501542D01*
X112387848Y-129501542D02*
X112578324Y-129406304D01*
X112578324Y-129406304D02*
X112864038Y-129406304D01*
X112864038Y-129406304D02*
X113054515Y-129501542D01*
X114006896Y-130739638D02*
X114006896Y-128739638D01*
X114197372Y-129977733D02*
X114768801Y-130739638D01*
X114768801Y-129406304D02*
X114006896Y-130168209D01*
X115625944Y-130739638D02*
X115625944Y-129406304D01*
X115625944Y-128739638D02*
X115530706Y-128834876D01*
X115530706Y-128834876D02*
X115625944Y-128930114D01*
X115625944Y-128930114D02*
X115721182Y-128834876D01*
X115721182Y-128834876D02*
X115625944Y-128739638D01*
X115625944Y-128739638D02*
X115625944Y-128930114D01*
X116864039Y-130739638D02*
X116673563Y-130644400D01*
X116673563Y-130644400D02*
X116578325Y-130453923D01*
X116578325Y-130453923D02*
X116578325Y-128739638D01*
X117911658Y-130739638D02*
X117721182Y-130644400D01*
X117721182Y-130644400D02*
X117625944Y-130453923D01*
X117625944Y-130453923D02*
X117625944Y-128739638D01*
X120197373Y-130739638D02*
X120197373Y-129406304D01*
X120197373Y-128739638D02*
X120102135Y-128834876D01*
X120102135Y-128834876D02*
X120197373Y-128930114D01*
X120197373Y-128930114D02*
X120292611Y-128834876D01*
X120292611Y-128834876D02*
X120197373Y-128739638D01*
X120197373Y-128739638D02*
X120197373Y-128930114D01*
X121054516Y-130644400D02*
X121244992Y-130739638D01*
X121244992Y-130739638D02*
X121625944Y-130739638D01*
X121625944Y-130739638D02*
X121816421Y-130644400D01*
X121816421Y-130644400D02*
X121911659Y-130453923D01*
X121911659Y-130453923D02*
X121911659Y-130358685D01*
X121911659Y-130358685D02*
X121816421Y-130168209D01*
X121816421Y-130168209D02*
X121625944Y-130072971D01*
X121625944Y-130072971D02*
X121340230Y-130072971D01*
X121340230Y-130072971D02*
X121149754Y-129977733D01*
X121149754Y-129977733D02*
X121054516Y-129787257D01*
X121054516Y-129787257D02*
X121054516Y-129692019D01*
X121054516Y-129692019D02*
X121149754Y-129501542D01*
X121149754Y-129501542D02*
X121340230Y-129406304D01*
X121340230Y-129406304D02*
X121625944Y-129406304D01*
X121625944Y-129406304D02*
X121816421Y-129501542D01*
X122673564Y-130644400D02*
X122864040Y-130739638D01*
X122864040Y-130739638D02*
X123244992Y-130739638D01*
X123244992Y-130739638D02*
X123435469Y-130644400D01*
X123435469Y-130644400D02*
X123530707Y-130453923D01*
X123530707Y-130453923D02*
X123530707Y-130358685D01*
X123530707Y-130358685D02*
X123435469Y-130168209D01*
X123435469Y-130168209D02*
X123244992Y-130072971D01*
X123244992Y-130072971D02*
X122959278Y-130072971D01*
X122959278Y-130072971D02*
X122768802Y-129977733D01*
X122768802Y-129977733D02*
X122673564Y-129787257D01*
X122673564Y-129787257D02*
X122673564Y-129692019D01*
X122673564Y-129692019D02*
X122768802Y-129501542D01*
X122768802Y-129501542D02*
X122959278Y-129406304D01*
X122959278Y-129406304D02*
X123244992Y-129406304D01*
X123244992Y-129406304D02*
X123435469Y-129501542D01*
X125244993Y-129406304D02*
X125244993Y-130739638D01*
X124387850Y-129406304D02*
X124387850Y-130453923D01*
X124387850Y-130453923D02*
X124483088Y-130644400D01*
X124483088Y-130644400D02*
X124673564Y-130739638D01*
X124673564Y-130739638D02*
X124959279Y-130739638D01*
X124959279Y-130739638D02*
X125149755Y-130644400D01*
X125149755Y-130644400D02*
X125244993Y-130549161D01*
X126959279Y-130644400D02*
X126768803Y-130739638D01*
X126768803Y-130739638D02*
X126387850Y-130739638D01*
X126387850Y-130739638D02*
X126197374Y-130644400D01*
X126197374Y-130644400D02*
X126102136Y-130453923D01*
X126102136Y-130453923D02*
X126102136Y-129692019D01*
X126102136Y-129692019D02*
X126197374Y-129501542D01*
X126197374Y-129501542D02*
X126387850Y-129406304D01*
X126387850Y-129406304D02*
X126768803Y-129406304D01*
X126768803Y-129406304D02*
X126959279Y-129501542D01*
X126959279Y-129501542D02*
X127054517Y-129692019D01*
X127054517Y-129692019D02*
X127054517Y-129882495D01*
X127054517Y-129882495D02*
X126102136Y-130072971D01*
X127816422Y-130644400D02*
X128006898Y-130739638D01*
X128006898Y-130739638D02*
X128387850Y-130739638D01*
X128387850Y-130739638D02*
X128578327Y-130644400D01*
X128578327Y-130644400D02*
X128673565Y-130453923D01*
X128673565Y-130453923D02*
X128673565Y-130358685D01*
X128673565Y-130358685D02*
X128578327Y-130168209D01*
X128578327Y-130168209D02*
X128387850Y-130072971D01*
X128387850Y-130072971D02*
X128102136Y-130072971D01*
X128102136Y-130072971D02*
X127911660Y-129977733D01*
X127911660Y-129977733D02*
X127816422Y-129787257D01*
X127816422Y-129787257D02*
X127816422Y-129692019D01*
X127816422Y-129692019D02*
X127911660Y-129501542D01*
X127911660Y-129501542D02*
X128102136Y-129406304D01*
X128102136Y-129406304D02*
X128387850Y-129406304D01*
X128387850Y-129406304D02*
X128578327Y-129501542D01*
D11*
X79391603Y-125722000D02*
X80820175Y-126198190D01*
X80820175Y-126198190D02*
X83201127Y-126198190D01*
X83201127Y-126198190D02*
X84153508Y-125722000D01*
X84153508Y-125722000D02*
X84629699Y-125245809D01*
X84629699Y-125245809D02*
X85105889Y-124293428D01*
X85105889Y-124293428D02*
X85105889Y-123341047D01*
X85105889Y-123341047D02*
X84629699Y-122388666D01*
X84629699Y-122388666D02*
X84153508Y-121912476D01*
X84153508Y-121912476D02*
X83201127Y-121436285D01*
X83201127Y-121436285D02*
X81296365Y-120960095D01*
X81296365Y-120960095D02*
X80343984Y-120483904D01*
X80343984Y-120483904D02*
X79867794Y-120007714D01*
X79867794Y-120007714D02*
X79391603Y-119055333D01*
X79391603Y-119055333D02*
X79391603Y-118102952D01*
X79391603Y-118102952D02*
X79867794Y-117150571D01*
X79867794Y-117150571D02*
X80343984Y-116674380D01*
X80343984Y-116674380D02*
X81296365Y-116198190D01*
X81296365Y-116198190D02*
X83677318Y-116198190D01*
X83677318Y-116198190D02*
X85105889Y-116674380D01*
X87963032Y-116198190D02*
X93677318Y-116198190D01*
X90820175Y-126198190D02*
X90820175Y-116198190D01*
X97010652Y-126198190D02*
X97010652Y-116198190D01*
X97010652Y-116198190D02*
X102724938Y-126198190D01*
X102724938Y-126198190D02*
X102724938Y-116198190D01*
X109391604Y-116198190D02*
X111296366Y-116198190D01*
X111296366Y-116198190D02*
X112248747Y-116674380D01*
X112248747Y-116674380D02*
X113201128Y-117626761D01*
X113201128Y-117626761D02*
X113677318Y-119531523D01*
X113677318Y-119531523D02*
X113677318Y-122864857D01*
X113677318Y-122864857D02*
X113201128Y-124769619D01*
X113201128Y-124769619D02*
X112248747Y-125722000D01*
X112248747Y-125722000D02*
X111296366Y-126198190D01*
X111296366Y-126198190D02*
X109391604Y-126198190D01*
X109391604Y-126198190D02*
X108439223Y-125722000D01*
X108439223Y-125722000D02*
X107486842Y-124769619D01*
X107486842Y-124769619D02*
X107010651Y-122864857D01*
X107010651Y-122864857D02*
X107010651Y-119531523D01*
X107010651Y-119531523D02*
X107486842Y-117626761D01*
X107486842Y-117626761D02*
X108439223Y-116674380D01*
X108439223Y-116674380D02*
X109391604Y-116198190D01*
D12*
X132535714Y-64879819D02*
X132535714Y-63879819D01*
X132535714Y-63879819D02*
X132773809Y-63879819D01*
X132773809Y-63879819D02*
X132916666Y-63927438D01*
X132916666Y-63927438D02*
X133011904Y-64022676D01*
X133011904Y-64022676D02*
X133059523Y-64117914D01*
X133059523Y-64117914D02*
X133107142Y-64308390D01*
X133107142Y-64308390D02*
X133107142Y-64451247D01*
X133107142Y-64451247D02*
X133059523Y-64641723D01*
X133059523Y-64641723D02*
X133011904Y-64736961D01*
X133011904Y-64736961D02*
X132916666Y-64832200D01*
X132916666Y-64832200D02*
X132773809Y-64879819D01*
X132773809Y-64879819D02*
X132535714Y-64879819D01*
X133964285Y-64213152D02*
X133964285Y-64879819D01*
X133726190Y-63832200D02*
X133488095Y-64546485D01*
X133488095Y-64546485D02*
X134107142Y-64546485D01*
X135011904Y-64879819D02*
X134440476Y-64879819D01*
X134726190Y-64879819D02*
X134726190Y-63879819D01*
X134726190Y-63879819D02*
X134630952Y-64022676D01*
X134630952Y-64022676D02*
X134535714Y-64117914D01*
X134535714Y-64117914D02*
X134440476Y-64165533D01*
X69579405Y-110549819D02*
X69579405Y-109549819D01*
X69579405Y-109549819D02*
X69817500Y-109549819D01*
X69817500Y-109549819D02*
X69960357Y-109597438D01*
X69960357Y-109597438D02*
X70055595Y-109692676D01*
X70055595Y-109692676D02*
X70103214Y-109787914D01*
X70103214Y-109787914D02*
X70150833Y-109978390D01*
X70150833Y-109978390D02*
X70150833Y-110121247D01*
X70150833Y-110121247D02*
X70103214Y-110311723D01*
X70103214Y-110311723D02*
X70055595Y-110406961D01*
X70055595Y-110406961D02*
X69960357Y-110502200D01*
X69960357Y-110502200D02*
X69817500Y-110549819D01*
X69817500Y-110549819D02*
X69579405Y-110549819D01*
X71055595Y-109549819D02*
X70579405Y-109549819D01*
X70579405Y-109549819D02*
X70531786Y-110026009D01*
X70531786Y-110026009D02*
X70579405Y-109978390D01*
X70579405Y-109978390D02*
X70674643Y-109930771D01*
X70674643Y-109930771D02*
X70912738Y-109930771D01*
X70912738Y-109930771D02*
X71007976Y-109978390D01*
X71007976Y-109978390D02*
X71055595Y-110026009D01*
X71055595Y-110026009D02*
X71103214Y-110121247D01*
X71103214Y-110121247D02*
X71103214Y-110359342D01*
X71103214Y-110359342D02*
X71055595Y-110454580D01*
X71055595Y-110454580D02*
X71007976Y-110502200D01*
X71007976Y-110502200D02*
X70912738Y-110549819D01*
X70912738Y-110549819D02*
X70674643Y-110549819D01*
X70674643Y-110549819D02*
X70579405Y-110502200D01*
X70579405Y-110502200D02*
X70531786Y-110454580D01*
X93847905Y-71049819D02*
X93847905Y-70049819D01*
X93847905Y-70049819D02*
X94086000Y-70049819D01*
X94086000Y-70049819D02*
X94228857Y-70097438D01*
X94228857Y-70097438D02*
X94324095Y-70192676D01*
X94324095Y-70192676D02*
X94371714Y-70287914D01*
X94371714Y-70287914D02*
X94419333Y-70478390D01*
X94419333Y-70478390D02*
X94419333Y-70621247D01*
X94419333Y-70621247D02*
X94371714Y-70811723D01*
X94371714Y-70811723D02*
X94324095Y-70906961D01*
X94324095Y-70906961D02*
X94228857Y-71002200D01*
X94228857Y-71002200D02*
X94086000Y-71049819D01*
X94086000Y-71049819D02*
X93847905Y-71049819D01*
X94752667Y-70049819D02*
X95371714Y-70049819D01*
X95371714Y-70049819D02*
X95038381Y-70430771D01*
X95038381Y-70430771D02*
X95181238Y-70430771D01*
X95181238Y-70430771D02*
X95276476Y-70478390D01*
X95276476Y-70478390D02*
X95324095Y-70526009D01*
X95324095Y-70526009D02*
X95371714Y-70621247D01*
X95371714Y-70621247D02*
X95371714Y-70859342D01*
X95371714Y-70859342D02*
X95324095Y-70954580D01*
X95324095Y-70954580D02*
X95276476Y-71002200D01*
X95276476Y-71002200D02*
X95181238Y-71049819D01*
X95181238Y-71049819D02*
X94895524Y-71049819D01*
X94895524Y-71049819D02*
X94800286Y-71002200D01*
X94800286Y-71002200D02*
X94752667Y-70954580D01*
X94079405Y-36549819D02*
X94079405Y-35549819D01*
X94079405Y-35549819D02*
X94317500Y-35549819D01*
X94317500Y-35549819D02*
X94460357Y-35597438D01*
X94460357Y-35597438D02*
X94555595Y-35692676D01*
X94555595Y-35692676D02*
X94603214Y-35787914D01*
X94603214Y-35787914D02*
X94650833Y-35978390D01*
X94650833Y-35978390D02*
X94650833Y-36121247D01*
X94650833Y-36121247D02*
X94603214Y-36311723D01*
X94603214Y-36311723D02*
X94555595Y-36406961D01*
X94555595Y-36406961D02*
X94460357Y-36502200D01*
X94460357Y-36502200D02*
X94317500Y-36549819D01*
X94317500Y-36549819D02*
X94079405Y-36549819D01*
X95603214Y-36549819D02*
X95031786Y-36549819D01*
X95317500Y-36549819D02*
X95317500Y-35549819D01*
X95317500Y-35549819D02*
X95222262Y-35692676D01*
X95222262Y-35692676D02*
X95127024Y-35787914D01*
X95127024Y-35787914D02*
X95031786Y-35835533D01*
X94347905Y-53549819D02*
X94347905Y-52549819D01*
X94347905Y-52549819D02*
X94586000Y-52549819D01*
X94586000Y-52549819D02*
X94728857Y-52597438D01*
X94728857Y-52597438D02*
X94824095Y-52692676D01*
X94824095Y-52692676D02*
X94871714Y-52787914D01*
X94871714Y-52787914D02*
X94919333Y-52978390D01*
X94919333Y-52978390D02*
X94919333Y-53121247D01*
X94919333Y-53121247D02*
X94871714Y-53311723D01*
X94871714Y-53311723D02*
X94824095Y-53406961D01*
X94824095Y-53406961D02*
X94728857Y-53502200D01*
X94728857Y-53502200D02*
X94586000Y-53549819D01*
X94586000Y-53549819D02*
X94347905Y-53549819D01*
X95300286Y-52645057D02*
X95347905Y-52597438D01*
X95347905Y-52597438D02*
X95443143Y-52549819D01*
X95443143Y-52549819D02*
X95681238Y-52549819D01*
X95681238Y-52549819D02*
X95776476Y-52597438D01*
X95776476Y-52597438D02*
X95824095Y-52645057D01*
X95824095Y-52645057D02*
X95871714Y-52740295D01*
X95871714Y-52740295D02*
X95871714Y-52835533D01*
X95871714Y-52835533D02*
X95824095Y-52978390D01*
X95824095Y-52978390D02*
X95252667Y-53549819D01*
X95252667Y-53549819D02*
X95871714Y-53549819D01*
X144553214Y-71099819D02*
X144553214Y-70099819D01*
X144553214Y-70099819D02*
X144791309Y-70099819D01*
X144791309Y-70099819D02*
X144934166Y-70147438D01*
X144934166Y-70147438D02*
X145029404Y-70242676D01*
X145029404Y-70242676D02*
X145077023Y-70337914D01*
X145077023Y-70337914D02*
X145124642Y-70528390D01*
X145124642Y-70528390D02*
X145124642Y-70671247D01*
X145124642Y-70671247D02*
X145077023Y-70861723D01*
X145077023Y-70861723D02*
X145029404Y-70956961D01*
X145029404Y-70956961D02*
X144934166Y-71052200D01*
X144934166Y-71052200D02*
X144791309Y-71099819D01*
X144791309Y-71099819D02*
X144553214Y-71099819D01*
X146077023Y-71099819D02*
X145505595Y-71099819D01*
X145791309Y-71099819D02*
X145791309Y-70099819D01*
X145791309Y-70099819D02*
X145696071Y-70242676D01*
X145696071Y-70242676D02*
X145600833Y-70337914D01*
X145600833Y-70337914D02*
X145505595Y-70385533D01*
X146648452Y-70528390D02*
X146553214Y-70480771D01*
X146553214Y-70480771D02*
X146505595Y-70433152D01*
X146505595Y-70433152D02*
X146457976Y-70337914D01*
X146457976Y-70337914D02*
X146457976Y-70290295D01*
X146457976Y-70290295D02*
X146505595Y-70195057D01*
X146505595Y-70195057D02*
X146553214Y-70147438D01*
X146553214Y-70147438D02*
X146648452Y-70099819D01*
X146648452Y-70099819D02*
X146838928Y-70099819D01*
X146838928Y-70099819D02*
X146934166Y-70147438D01*
X146934166Y-70147438D02*
X146981785Y-70195057D01*
X146981785Y-70195057D02*
X147029404Y-70290295D01*
X147029404Y-70290295D02*
X147029404Y-70337914D01*
X147029404Y-70337914D02*
X146981785Y-70433152D01*
X146981785Y-70433152D02*
X146934166Y-70480771D01*
X146934166Y-70480771D02*
X146838928Y-70528390D01*
X146838928Y-70528390D02*
X146648452Y-70528390D01*
X146648452Y-70528390D02*
X146553214Y-70576009D01*
X146553214Y-70576009D02*
X146505595Y-70623628D01*
X146505595Y-70623628D02*
X146457976Y-70718866D01*
X146457976Y-70718866D02*
X146457976Y-70909342D01*
X146457976Y-70909342D02*
X146505595Y-71004580D01*
X146505595Y-71004580D02*
X146553214Y-71052200D01*
X146553214Y-71052200D02*
X146648452Y-71099819D01*
X146648452Y-71099819D02*
X146838928Y-71099819D01*
X146838928Y-71099819D02*
X146934166Y-71052200D01*
X146934166Y-71052200D02*
X146981785Y-71004580D01*
X146981785Y-71004580D02*
X147029404Y-70909342D01*
X147029404Y-70909342D02*
X147029404Y-70718866D01*
X147029404Y-70718866D02*
X146981785Y-70623628D01*
X146981785Y-70623628D02*
X146934166Y-70576009D01*
X146934166Y-70576009D02*
X146838928Y-70528390D01*
X126848214Y-88423819D02*
X126848214Y-87423819D01*
X126848214Y-87423819D02*
X127086309Y-87423819D01*
X127086309Y-87423819D02*
X127229166Y-87471438D01*
X127229166Y-87471438D02*
X127324404Y-87566676D01*
X127324404Y-87566676D02*
X127372023Y-87661914D01*
X127372023Y-87661914D02*
X127419642Y-87852390D01*
X127419642Y-87852390D02*
X127419642Y-87995247D01*
X127419642Y-87995247D02*
X127372023Y-88185723D01*
X127372023Y-88185723D02*
X127324404Y-88280961D01*
X127324404Y-88280961D02*
X127229166Y-88376200D01*
X127229166Y-88376200D02*
X127086309Y-88423819D01*
X127086309Y-88423819D02*
X126848214Y-88423819D01*
X128372023Y-88423819D02*
X127800595Y-88423819D01*
X128086309Y-88423819D02*
X128086309Y-87423819D01*
X128086309Y-87423819D02*
X127991071Y-87566676D01*
X127991071Y-87566676D02*
X127895833Y-87661914D01*
X127895833Y-87661914D02*
X127800595Y-87709533D01*
X129229166Y-87757152D02*
X129229166Y-88423819D01*
X128991071Y-87376200D02*
X128752976Y-88090485D01*
X128752976Y-88090485D02*
X129372023Y-88090485D01*
X166835714Y-82454819D02*
X166835714Y-81454819D01*
X166835714Y-81454819D02*
X167073809Y-81454819D01*
X167073809Y-81454819D02*
X167216666Y-81502438D01*
X167216666Y-81502438D02*
X167311904Y-81597676D01*
X167311904Y-81597676D02*
X167359523Y-81692914D01*
X167359523Y-81692914D02*
X167407142Y-81883390D01*
X167407142Y-81883390D02*
X167407142Y-82026247D01*
X167407142Y-82026247D02*
X167359523Y-82216723D01*
X167359523Y-82216723D02*
X167311904Y-82311961D01*
X167311904Y-82311961D02*
X167216666Y-82407200D01*
X167216666Y-82407200D02*
X167073809Y-82454819D01*
X167073809Y-82454819D02*
X166835714Y-82454819D01*
X167740476Y-81454819D02*
X168359523Y-81454819D01*
X168359523Y-81454819D02*
X168026190Y-81835771D01*
X168026190Y-81835771D02*
X168169047Y-81835771D01*
X168169047Y-81835771D02*
X168264285Y-81883390D01*
X168264285Y-81883390D02*
X168311904Y-81931009D01*
X168311904Y-81931009D02*
X168359523Y-82026247D01*
X168359523Y-82026247D02*
X168359523Y-82264342D01*
X168359523Y-82264342D02*
X168311904Y-82359580D01*
X168311904Y-82359580D02*
X168264285Y-82407200D01*
X168264285Y-82407200D02*
X168169047Y-82454819D01*
X168169047Y-82454819D02*
X167883333Y-82454819D01*
X167883333Y-82454819D02*
X167788095Y-82407200D01*
X167788095Y-82407200D02*
X167740476Y-82359580D01*
X168692857Y-81454819D02*
X169311904Y-81454819D01*
X169311904Y-81454819D02*
X168978571Y-81835771D01*
X168978571Y-81835771D02*
X169121428Y-81835771D01*
X169121428Y-81835771D02*
X169216666Y-81883390D01*
X169216666Y-81883390D02*
X169264285Y-81931009D01*
X169264285Y-81931009D02*
X169311904Y-82026247D01*
X169311904Y-82026247D02*
X169311904Y-82264342D01*
X169311904Y-82264342D02*
X169264285Y-82359580D01*
X169264285Y-82359580D02*
X169216666Y-82407200D01*
X169216666Y-82407200D02*
X169121428Y-82454819D01*
X169121428Y-82454819D02*
X168835714Y-82454819D01*
X168835714Y-82454819D02*
X168740476Y-82407200D01*
X168740476Y-82407200D02*
X168692857Y-82359580D01*
X166935714Y-99654819D02*
X166935714Y-98654819D01*
X166935714Y-98654819D02*
X167173809Y-98654819D01*
X167173809Y-98654819D02*
X167316666Y-98702438D01*
X167316666Y-98702438D02*
X167411904Y-98797676D01*
X167411904Y-98797676D02*
X167459523Y-98892914D01*
X167459523Y-98892914D02*
X167507142Y-99083390D01*
X167507142Y-99083390D02*
X167507142Y-99226247D01*
X167507142Y-99226247D02*
X167459523Y-99416723D01*
X167459523Y-99416723D02*
X167411904Y-99511961D01*
X167411904Y-99511961D02*
X167316666Y-99607200D01*
X167316666Y-99607200D02*
X167173809Y-99654819D01*
X167173809Y-99654819D02*
X166935714Y-99654819D01*
X167840476Y-98654819D02*
X168459523Y-98654819D01*
X168459523Y-98654819D02*
X168126190Y-99035771D01*
X168126190Y-99035771D02*
X168269047Y-99035771D01*
X168269047Y-99035771D02*
X168364285Y-99083390D01*
X168364285Y-99083390D02*
X168411904Y-99131009D01*
X168411904Y-99131009D02*
X168459523Y-99226247D01*
X168459523Y-99226247D02*
X168459523Y-99464342D01*
X168459523Y-99464342D02*
X168411904Y-99559580D01*
X168411904Y-99559580D02*
X168364285Y-99607200D01*
X168364285Y-99607200D02*
X168269047Y-99654819D01*
X168269047Y-99654819D02*
X167983333Y-99654819D01*
X167983333Y-99654819D02*
X167888095Y-99607200D01*
X167888095Y-99607200D02*
X167840476Y-99559580D01*
X169411904Y-99654819D02*
X168840476Y-99654819D01*
X169126190Y-99654819D02*
X169126190Y-98654819D01*
X169126190Y-98654819D02*
X169030952Y-98797676D01*
X169030952Y-98797676D02*
X168935714Y-98892914D01*
X168935714Y-98892914D02*
X168840476Y-98940533D01*
X68405714Y-92309104D02*
X68881904Y-92309104D01*
X68310476Y-92594819D02*
X68643809Y-91594819D01*
X68643809Y-91594819D02*
X68977142Y-92594819D01*
X69834285Y-92594819D02*
X69262857Y-92594819D01*
X69548571Y-92594819D02*
X69548571Y-91594819D01*
X69548571Y-91594819D02*
X69453333Y-91737676D01*
X69453333Y-91737676D02*
X69358095Y-91832914D01*
X69358095Y-91832914D02*
X69262857Y-91880533D01*
X70381904Y-52045180D02*
X70381904Y-51235657D01*
X70381904Y-51235657D02*
X70334285Y-51140419D01*
X70334285Y-51140419D02*
X70286666Y-51092800D01*
X70286666Y-51092800D02*
X70191428Y-51045180D01*
X70191428Y-51045180D02*
X70000952Y-51045180D01*
X70000952Y-51045180D02*
X69905714Y-51092800D01*
X69905714Y-51092800D02*
X69858095Y-51140419D01*
X69858095Y-51140419D02*
X69810476Y-51235657D01*
X69810476Y-51235657D02*
X69810476Y-52045180D01*
X69381904Y-51092800D02*
X69239047Y-51045180D01*
X69239047Y-51045180D02*
X69000952Y-51045180D01*
X69000952Y-51045180D02*
X68905714Y-51092800D01*
X68905714Y-51092800D02*
X68858095Y-51140419D01*
X68858095Y-51140419D02*
X68810476Y-51235657D01*
X68810476Y-51235657D02*
X68810476Y-51330895D01*
X68810476Y-51330895D02*
X68858095Y-51426133D01*
X68858095Y-51426133D02*
X68905714Y-51473752D01*
X68905714Y-51473752D02*
X69000952Y-51521371D01*
X69000952Y-51521371D02*
X69191428Y-51568990D01*
X69191428Y-51568990D02*
X69286666Y-51616609D01*
X69286666Y-51616609D02*
X69334285Y-51664228D01*
X69334285Y-51664228D02*
X69381904Y-51759466D01*
X69381904Y-51759466D02*
X69381904Y-51854704D01*
X69381904Y-51854704D02*
X69334285Y-51949942D01*
X69334285Y-51949942D02*
X69286666Y-51997561D01*
X69286666Y-51997561D02*
X69191428Y-52045180D01*
X69191428Y-52045180D02*
X68953333Y-52045180D01*
X68953333Y-52045180D02*
X68810476Y-51997561D01*
X68048571Y-51568990D02*
X67905714Y-51521371D01*
X67905714Y-51521371D02*
X67858095Y-51473752D01*
X67858095Y-51473752D02*
X67810476Y-51378514D01*
X67810476Y-51378514D02*
X67810476Y-51235657D01*
X67810476Y-51235657D02*
X67858095Y-51140419D01*
X67858095Y-51140419D02*
X67905714Y-51092800D01*
X67905714Y-51092800D02*
X68000952Y-51045180D01*
X68000952Y-51045180D02*
X68381904Y-51045180D01*
X68381904Y-51045180D02*
X68381904Y-52045180D01*
X68381904Y-52045180D02*
X68048571Y-52045180D01*
X68048571Y-52045180D02*
X67953333Y-51997561D01*
X67953333Y-51997561D02*
X67905714Y-51949942D01*
X67905714Y-51949942D02*
X67858095Y-51854704D01*
X67858095Y-51854704D02*
X67858095Y-51759466D01*
X67858095Y-51759466D02*
X67905714Y-51664228D01*
X67905714Y-51664228D02*
X67953333Y-51616609D01*
X67953333Y-51616609D02*
X68048571Y-51568990D01*
X68048571Y-51568990D02*
X68381904Y-51568990D01*
X132510714Y-82304819D02*
X132510714Y-81304819D01*
X132510714Y-81304819D02*
X132748809Y-81304819D01*
X132748809Y-81304819D02*
X132891666Y-81352438D01*
X132891666Y-81352438D02*
X132986904Y-81447676D01*
X132986904Y-81447676D02*
X133034523Y-81542914D01*
X133034523Y-81542914D02*
X133082142Y-81733390D01*
X133082142Y-81733390D02*
X133082142Y-81876247D01*
X133082142Y-81876247D02*
X133034523Y-82066723D01*
X133034523Y-82066723D02*
X132986904Y-82161961D01*
X132986904Y-82161961D02*
X132891666Y-82257200D01*
X132891666Y-82257200D02*
X132748809Y-82304819D01*
X132748809Y-82304819D02*
X132510714Y-82304819D01*
X133415476Y-81304819D02*
X134034523Y-81304819D01*
X134034523Y-81304819D02*
X133701190Y-81685771D01*
X133701190Y-81685771D02*
X133844047Y-81685771D01*
X133844047Y-81685771D02*
X133939285Y-81733390D01*
X133939285Y-81733390D02*
X133986904Y-81781009D01*
X133986904Y-81781009D02*
X134034523Y-81876247D01*
X134034523Y-81876247D02*
X134034523Y-82114342D01*
X134034523Y-82114342D02*
X133986904Y-82209580D01*
X133986904Y-82209580D02*
X133939285Y-82257200D01*
X133939285Y-82257200D02*
X133844047Y-82304819D01*
X133844047Y-82304819D02*
X133558333Y-82304819D01*
X133558333Y-82304819D02*
X133463095Y-82257200D01*
X133463095Y-82257200D02*
X133415476Y-82209580D01*
X134939285Y-81304819D02*
X134463095Y-81304819D01*
X134463095Y-81304819D02*
X134415476Y-81781009D01*
X134415476Y-81781009D02*
X134463095Y-81733390D01*
X134463095Y-81733390D02*
X134558333Y-81685771D01*
X134558333Y-81685771D02*
X134796428Y-81685771D01*
X134796428Y-81685771D02*
X134891666Y-81733390D01*
X134891666Y-81733390D02*
X134939285Y-81781009D01*
X134939285Y-81781009D02*
X134986904Y-81876247D01*
X134986904Y-81876247D02*
X134986904Y-82114342D01*
X134986904Y-82114342D02*
X134939285Y-82209580D01*
X134939285Y-82209580D02*
X134891666Y-82257200D01*
X134891666Y-82257200D02*
X134796428Y-82304819D01*
X134796428Y-82304819D02*
X134558333Y-82304819D01*
X134558333Y-82304819D02*
X134463095Y-82257200D01*
X134463095Y-82257200D02*
X134415476Y-82209580D01*
X94079405Y-88549819D02*
X94079405Y-87549819D01*
X94079405Y-87549819D02*
X94317500Y-87549819D01*
X94317500Y-87549819D02*
X94460357Y-87597438D01*
X94460357Y-87597438D02*
X94555595Y-87692676D01*
X94555595Y-87692676D02*
X94603214Y-87787914D01*
X94603214Y-87787914D02*
X94650833Y-87978390D01*
X94650833Y-87978390D02*
X94650833Y-88121247D01*
X94650833Y-88121247D02*
X94603214Y-88311723D01*
X94603214Y-88311723D02*
X94555595Y-88406961D01*
X94555595Y-88406961D02*
X94460357Y-88502200D01*
X94460357Y-88502200D02*
X94317500Y-88549819D01*
X94317500Y-88549819D02*
X94079405Y-88549819D01*
X95507976Y-87883152D02*
X95507976Y-88549819D01*
X95269881Y-87502200D02*
X95031786Y-88216485D01*
X95031786Y-88216485D02*
X95650833Y-88216485D01*
X110810905Y-71049819D02*
X110810905Y-70049819D01*
X110810905Y-70049819D02*
X111049000Y-70049819D01*
X111049000Y-70049819D02*
X111191857Y-70097438D01*
X111191857Y-70097438D02*
X111287095Y-70192676D01*
X111287095Y-70192676D02*
X111334714Y-70287914D01*
X111334714Y-70287914D02*
X111382333Y-70478390D01*
X111382333Y-70478390D02*
X111382333Y-70621247D01*
X111382333Y-70621247D02*
X111334714Y-70811723D01*
X111334714Y-70811723D02*
X111287095Y-70906961D01*
X111287095Y-70906961D02*
X111191857Y-71002200D01*
X111191857Y-71002200D02*
X111049000Y-71049819D01*
X111049000Y-71049819D02*
X110810905Y-71049819D01*
X111953762Y-70478390D02*
X111858524Y-70430771D01*
X111858524Y-70430771D02*
X111810905Y-70383152D01*
X111810905Y-70383152D02*
X111763286Y-70287914D01*
X111763286Y-70287914D02*
X111763286Y-70240295D01*
X111763286Y-70240295D02*
X111810905Y-70145057D01*
X111810905Y-70145057D02*
X111858524Y-70097438D01*
X111858524Y-70097438D02*
X111953762Y-70049819D01*
X111953762Y-70049819D02*
X112144238Y-70049819D01*
X112144238Y-70049819D02*
X112239476Y-70097438D01*
X112239476Y-70097438D02*
X112287095Y-70145057D01*
X112287095Y-70145057D02*
X112334714Y-70240295D01*
X112334714Y-70240295D02*
X112334714Y-70287914D01*
X112334714Y-70287914D02*
X112287095Y-70383152D01*
X112287095Y-70383152D02*
X112239476Y-70430771D01*
X112239476Y-70430771D02*
X112144238Y-70478390D01*
X112144238Y-70478390D02*
X111953762Y-70478390D01*
X111953762Y-70478390D02*
X111858524Y-70526009D01*
X111858524Y-70526009D02*
X111810905Y-70573628D01*
X111810905Y-70573628D02*
X111763286Y-70668866D01*
X111763286Y-70668866D02*
X111763286Y-70859342D01*
X111763286Y-70859342D02*
X111810905Y-70954580D01*
X111810905Y-70954580D02*
X111858524Y-71002200D01*
X111858524Y-71002200D02*
X111953762Y-71049819D01*
X111953762Y-71049819D02*
X112144238Y-71049819D01*
X112144238Y-71049819D02*
X112239476Y-71002200D01*
X112239476Y-71002200D02*
X112287095Y-70954580D01*
X112287095Y-70954580D02*
X112334714Y-70859342D01*
X112334714Y-70859342D02*
X112334714Y-70668866D01*
X112334714Y-70668866D02*
X112287095Y-70573628D01*
X112287095Y-70573628D02*
X112239476Y-70526009D01*
X112239476Y-70526009D02*
X112144238Y-70478390D01*
X127303214Y-70949819D02*
X127303214Y-69949819D01*
X127303214Y-69949819D02*
X127541309Y-69949819D01*
X127541309Y-69949819D02*
X127684166Y-69997438D01*
X127684166Y-69997438D02*
X127779404Y-70092676D01*
X127779404Y-70092676D02*
X127827023Y-70187914D01*
X127827023Y-70187914D02*
X127874642Y-70378390D01*
X127874642Y-70378390D02*
X127874642Y-70521247D01*
X127874642Y-70521247D02*
X127827023Y-70711723D01*
X127827023Y-70711723D02*
X127779404Y-70806961D01*
X127779404Y-70806961D02*
X127684166Y-70902200D01*
X127684166Y-70902200D02*
X127541309Y-70949819D01*
X127541309Y-70949819D02*
X127303214Y-70949819D01*
X128827023Y-70949819D02*
X128255595Y-70949819D01*
X128541309Y-70949819D02*
X128541309Y-69949819D01*
X128541309Y-69949819D02*
X128446071Y-70092676D01*
X128446071Y-70092676D02*
X128350833Y-70187914D01*
X128350833Y-70187914D02*
X128255595Y-70235533D01*
X129160357Y-69949819D02*
X129779404Y-69949819D01*
X129779404Y-69949819D02*
X129446071Y-70330771D01*
X129446071Y-70330771D02*
X129588928Y-70330771D01*
X129588928Y-70330771D02*
X129684166Y-70378390D01*
X129684166Y-70378390D02*
X129731785Y-70426009D01*
X129731785Y-70426009D02*
X129779404Y-70521247D01*
X129779404Y-70521247D02*
X129779404Y-70759342D01*
X129779404Y-70759342D02*
X129731785Y-70854580D01*
X129731785Y-70854580D02*
X129684166Y-70902200D01*
X129684166Y-70902200D02*
X129588928Y-70949819D01*
X129588928Y-70949819D02*
X129303214Y-70949819D01*
X129303214Y-70949819D02*
X129207976Y-70902200D01*
X129207976Y-70902200D02*
X129160357Y-70854580D01*
X149585714Y-82304819D02*
X149585714Y-81304819D01*
X149585714Y-81304819D02*
X149823809Y-81304819D01*
X149823809Y-81304819D02*
X149966666Y-81352438D01*
X149966666Y-81352438D02*
X150061904Y-81447676D01*
X150061904Y-81447676D02*
X150109523Y-81542914D01*
X150109523Y-81542914D02*
X150157142Y-81733390D01*
X150157142Y-81733390D02*
X150157142Y-81876247D01*
X150157142Y-81876247D02*
X150109523Y-82066723D01*
X150109523Y-82066723D02*
X150061904Y-82161961D01*
X150061904Y-82161961D02*
X149966666Y-82257200D01*
X149966666Y-82257200D02*
X149823809Y-82304819D01*
X149823809Y-82304819D02*
X149585714Y-82304819D01*
X150490476Y-81304819D02*
X151109523Y-81304819D01*
X151109523Y-81304819D02*
X150776190Y-81685771D01*
X150776190Y-81685771D02*
X150919047Y-81685771D01*
X150919047Y-81685771D02*
X151014285Y-81733390D01*
X151014285Y-81733390D02*
X151061904Y-81781009D01*
X151061904Y-81781009D02*
X151109523Y-81876247D01*
X151109523Y-81876247D02*
X151109523Y-82114342D01*
X151109523Y-82114342D02*
X151061904Y-82209580D01*
X151061904Y-82209580D02*
X151014285Y-82257200D01*
X151014285Y-82257200D02*
X150919047Y-82304819D01*
X150919047Y-82304819D02*
X150633333Y-82304819D01*
X150633333Y-82304819D02*
X150538095Y-82257200D01*
X150538095Y-82257200D02*
X150490476Y-82209580D01*
X151966666Y-81638152D02*
X151966666Y-82304819D01*
X151728571Y-81257200D02*
X151490476Y-81971485D01*
X151490476Y-81971485D02*
X152109523Y-81971485D01*
X132635714Y-47879819D02*
X132635714Y-46879819D01*
X132635714Y-46879819D02*
X132873809Y-46879819D01*
X132873809Y-46879819D02*
X133016666Y-46927438D01*
X133016666Y-46927438D02*
X133111904Y-47022676D01*
X133111904Y-47022676D02*
X133159523Y-47117914D01*
X133159523Y-47117914D02*
X133207142Y-47308390D01*
X133207142Y-47308390D02*
X133207142Y-47451247D01*
X133207142Y-47451247D02*
X133159523Y-47641723D01*
X133159523Y-47641723D02*
X133111904Y-47736961D01*
X133111904Y-47736961D02*
X133016666Y-47832200D01*
X133016666Y-47832200D02*
X132873809Y-47879819D01*
X132873809Y-47879819D02*
X132635714Y-47879819D01*
X134064285Y-47213152D02*
X134064285Y-47879819D01*
X133826190Y-46832200D02*
X133588095Y-47546485D01*
X133588095Y-47546485D02*
X134207142Y-47546485D01*
X135016666Y-46879819D02*
X134826190Y-46879819D01*
X134826190Y-46879819D02*
X134730952Y-46927438D01*
X134730952Y-46927438D02*
X134683333Y-46975057D01*
X134683333Y-46975057D02*
X134588095Y-47117914D01*
X134588095Y-47117914D02*
X134540476Y-47308390D01*
X134540476Y-47308390D02*
X134540476Y-47689342D01*
X134540476Y-47689342D02*
X134588095Y-47784580D01*
X134588095Y-47784580D02*
X134635714Y-47832200D01*
X134635714Y-47832200D02*
X134730952Y-47879819D01*
X134730952Y-47879819D02*
X134921428Y-47879819D01*
X134921428Y-47879819D02*
X135016666Y-47832200D01*
X135016666Y-47832200D02*
X135064285Y-47784580D01*
X135064285Y-47784580D02*
X135111904Y-47689342D01*
X135111904Y-47689342D02*
X135111904Y-47451247D01*
X135111904Y-47451247D02*
X135064285Y-47356009D01*
X135064285Y-47356009D02*
X135016666Y-47308390D01*
X135016666Y-47308390D02*
X134921428Y-47260771D01*
X134921428Y-47260771D02*
X134730952Y-47260771D01*
X134730952Y-47260771D02*
X134635714Y-47308390D01*
X134635714Y-47308390D02*
X134588095Y-47356009D01*
X134588095Y-47356009D02*
X134540476Y-47451247D01*
X98735714Y-82354819D02*
X98735714Y-81354819D01*
X98735714Y-81354819D02*
X98973809Y-81354819D01*
X98973809Y-81354819D02*
X99116666Y-81402438D01*
X99116666Y-81402438D02*
X99211904Y-81497676D01*
X99211904Y-81497676D02*
X99259523Y-81592914D01*
X99259523Y-81592914D02*
X99307142Y-81783390D01*
X99307142Y-81783390D02*
X99307142Y-81926247D01*
X99307142Y-81926247D02*
X99259523Y-82116723D01*
X99259523Y-82116723D02*
X99211904Y-82211961D01*
X99211904Y-82211961D02*
X99116666Y-82307200D01*
X99116666Y-82307200D02*
X98973809Y-82354819D01*
X98973809Y-82354819D02*
X98735714Y-82354819D01*
X99640476Y-81354819D02*
X100259523Y-81354819D01*
X100259523Y-81354819D02*
X99926190Y-81735771D01*
X99926190Y-81735771D02*
X100069047Y-81735771D01*
X100069047Y-81735771D02*
X100164285Y-81783390D01*
X100164285Y-81783390D02*
X100211904Y-81831009D01*
X100211904Y-81831009D02*
X100259523Y-81926247D01*
X100259523Y-81926247D02*
X100259523Y-82164342D01*
X100259523Y-82164342D02*
X100211904Y-82259580D01*
X100211904Y-82259580D02*
X100164285Y-82307200D01*
X100164285Y-82307200D02*
X100069047Y-82354819D01*
X100069047Y-82354819D02*
X99783333Y-82354819D01*
X99783333Y-82354819D02*
X99688095Y-82307200D01*
X99688095Y-82307200D02*
X99640476Y-82259580D01*
X100592857Y-81354819D02*
X101259523Y-81354819D01*
X101259523Y-81354819D02*
X100830952Y-82354819D01*
X149610714Y-64854819D02*
X149610714Y-63854819D01*
X149610714Y-63854819D02*
X149848809Y-63854819D01*
X149848809Y-63854819D02*
X149991666Y-63902438D01*
X149991666Y-63902438D02*
X150086904Y-63997676D01*
X150086904Y-63997676D02*
X150134523Y-64092914D01*
X150134523Y-64092914D02*
X150182142Y-64283390D01*
X150182142Y-64283390D02*
X150182142Y-64426247D01*
X150182142Y-64426247D02*
X150134523Y-64616723D01*
X150134523Y-64616723D02*
X150086904Y-64711961D01*
X150086904Y-64711961D02*
X149991666Y-64807200D01*
X149991666Y-64807200D02*
X149848809Y-64854819D01*
X149848809Y-64854819D02*
X149610714Y-64854819D01*
X151039285Y-64188152D02*
X151039285Y-64854819D01*
X150801190Y-63807200D02*
X150563095Y-64521485D01*
X150563095Y-64521485D02*
X151182142Y-64521485D01*
X151753571Y-63854819D02*
X151848809Y-63854819D01*
X151848809Y-63854819D02*
X151944047Y-63902438D01*
X151944047Y-63902438D02*
X151991666Y-63950057D01*
X151991666Y-63950057D02*
X152039285Y-64045295D01*
X152039285Y-64045295D02*
X152086904Y-64235771D01*
X152086904Y-64235771D02*
X152086904Y-64473866D01*
X152086904Y-64473866D02*
X152039285Y-64664342D01*
X152039285Y-64664342D02*
X151991666Y-64759580D01*
X151991666Y-64759580D02*
X151944047Y-64807200D01*
X151944047Y-64807200D02*
X151848809Y-64854819D01*
X151848809Y-64854819D02*
X151753571Y-64854819D01*
X151753571Y-64854819D02*
X151658333Y-64807200D01*
X151658333Y-64807200D02*
X151610714Y-64759580D01*
X151610714Y-64759580D02*
X151563095Y-64664342D01*
X151563095Y-64664342D02*
X151515476Y-64473866D01*
X151515476Y-64473866D02*
X151515476Y-64235771D01*
X151515476Y-64235771D02*
X151563095Y-64045295D01*
X151563095Y-64045295D02*
X151610714Y-63950057D01*
X151610714Y-63950057D02*
X151658333Y-63902438D01*
X151658333Y-63902438D02*
X151753571Y-63854819D01*
X110603214Y-36549819D02*
X110603214Y-35549819D01*
X110603214Y-35549819D02*
X110841309Y-35549819D01*
X110841309Y-35549819D02*
X110984166Y-35597438D01*
X110984166Y-35597438D02*
X111079404Y-35692676D01*
X111079404Y-35692676D02*
X111127023Y-35787914D01*
X111127023Y-35787914D02*
X111174642Y-35978390D01*
X111174642Y-35978390D02*
X111174642Y-36121247D01*
X111174642Y-36121247D02*
X111127023Y-36311723D01*
X111127023Y-36311723D02*
X111079404Y-36406961D01*
X111079404Y-36406961D02*
X110984166Y-36502200D01*
X110984166Y-36502200D02*
X110841309Y-36549819D01*
X110841309Y-36549819D02*
X110603214Y-36549819D01*
X112127023Y-36549819D02*
X111555595Y-36549819D01*
X111841309Y-36549819D02*
X111841309Y-35549819D01*
X111841309Y-35549819D02*
X111746071Y-35692676D01*
X111746071Y-35692676D02*
X111650833Y-35787914D01*
X111650833Y-35787914D02*
X111555595Y-35835533D01*
X112746071Y-35549819D02*
X112841309Y-35549819D01*
X112841309Y-35549819D02*
X112936547Y-35597438D01*
X112936547Y-35597438D02*
X112984166Y-35645057D01*
X112984166Y-35645057D02*
X113031785Y-35740295D01*
X113031785Y-35740295D02*
X113079404Y-35930771D01*
X113079404Y-35930771D02*
X113079404Y-36168866D01*
X113079404Y-36168866D02*
X113031785Y-36359342D01*
X113031785Y-36359342D02*
X112984166Y-36454580D01*
X112984166Y-36454580D02*
X112936547Y-36502200D01*
X112936547Y-36502200D02*
X112841309Y-36549819D01*
X112841309Y-36549819D02*
X112746071Y-36549819D01*
X112746071Y-36549819D02*
X112650833Y-36502200D01*
X112650833Y-36502200D02*
X112603214Y-36454580D01*
X112603214Y-36454580D02*
X112555595Y-36359342D01*
X112555595Y-36359342D02*
X112507976Y-36168866D01*
X112507976Y-36168866D02*
X112507976Y-35930771D01*
X112507976Y-35930771D02*
X112555595Y-35740295D01*
X112555595Y-35740295D02*
X112603214Y-35645057D01*
X112603214Y-35645057D02*
X112650833Y-35597438D01*
X112650833Y-35597438D02*
X112746071Y-35549819D01*
X185154214Y-38679819D02*
X185154214Y-37679819D01*
X185154214Y-37679819D02*
X185392309Y-37679819D01*
X185392309Y-37679819D02*
X185535166Y-37727438D01*
X185535166Y-37727438D02*
X185630404Y-37822676D01*
X185630404Y-37822676D02*
X185678023Y-37917914D01*
X185678023Y-37917914D02*
X185725642Y-38108390D01*
X185725642Y-38108390D02*
X185725642Y-38251247D01*
X185725642Y-38251247D02*
X185678023Y-38441723D01*
X185678023Y-38441723D02*
X185630404Y-38536961D01*
X185630404Y-38536961D02*
X185535166Y-38632200D01*
X185535166Y-38632200D02*
X185392309Y-38679819D01*
X185392309Y-38679819D02*
X185154214Y-38679819D01*
X186630404Y-37679819D02*
X186154214Y-37679819D01*
X186154214Y-37679819D02*
X186106595Y-38156009D01*
X186106595Y-38156009D02*
X186154214Y-38108390D01*
X186154214Y-38108390D02*
X186249452Y-38060771D01*
X186249452Y-38060771D02*
X186487547Y-38060771D01*
X186487547Y-38060771D02*
X186582785Y-38108390D01*
X186582785Y-38108390D02*
X186630404Y-38156009D01*
X186630404Y-38156009D02*
X186678023Y-38251247D01*
X186678023Y-38251247D02*
X186678023Y-38489342D01*
X186678023Y-38489342D02*
X186630404Y-38584580D01*
X186630404Y-38584580D02*
X186582785Y-38632200D01*
X186582785Y-38632200D02*
X186487547Y-38679819D01*
X186487547Y-38679819D02*
X186249452Y-38679819D01*
X186249452Y-38679819D02*
X186154214Y-38632200D01*
X186154214Y-38632200D02*
X186106595Y-38584580D01*
X187297071Y-37679819D02*
X187392309Y-37679819D01*
X187392309Y-37679819D02*
X187487547Y-37727438D01*
X187487547Y-37727438D02*
X187535166Y-37775057D01*
X187535166Y-37775057D02*
X187582785Y-37870295D01*
X187582785Y-37870295D02*
X187630404Y-38060771D01*
X187630404Y-38060771D02*
X187630404Y-38298866D01*
X187630404Y-38298866D02*
X187582785Y-38489342D01*
X187582785Y-38489342D02*
X187535166Y-38584580D01*
X187535166Y-38584580D02*
X187487547Y-38632200D01*
X187487547Y-38632200D02*
X187392309Y-38679819D01*
X187392309Y-38679819D02*
X187297071Y-38679819D01*
X187297071Y-38679819D02*
X187201833Y-38632200D01*
X187201833Y-38632200D02*
X187154214Y-38584580D01*
X187154214Y-38584580D02*
X187106595Y-38489342D01*
X187106595Y-38489342D02*
X187058976Y-38298866D01*
X187058976Y-38298866D02*
X187058976Y-38060771D01*
X187058976Y-38060771D02*
X187106595Y-37870295D01*
X187106595Y-37870295D02*
X187154214Y-37775057D01*
X187154214Y-37775057D02*
X187201833Y-37727438D01*
X187201833Y-37727438D02*
X187297071Y-37679819D01*
X161603214Y-71049819D02*
X161603214Y-70049819D01*
X161603214Y-70049819D02*
X161841309Y-70049819D01*
X161841309Y-70049819D02*
X161984166Y-70097438D01*
X161984166Y-70097438D02*
X162079404Y-70192676D01*
X162079404Y-70192676D02*
X162127023Y-70287914D01*
X162127023Y-70287914D02*
X162174642Y-70478390D01*
X162174642Y-70478390D02*
X162174642Y-70621247D01*
X162174642Y-70621247D02*
X162127023Y-70811723D01*
X162127023Y-70811723D02*
X162079404Y-70906961D01*
X162079404Y-70906961D02*
X161984166Y-71002200D01*
X161984166Y-71002200D02*
X161841309Y-71049819D01*
X161841309Y-71049819D02*
X161603214Y-71049819D01*
X162555595Y-70145057D02*
X162603214Y-70097438D01*
X162603214Y-70097438D02*
X162698452Y-70049819D01*
X162698452Y-70049819D02*
X162936547Y-70049819D01*
X162936547Y-70049819D02*
X163031785Y-70097438D01*
X163031785Y-70097438D02*
X163079404Y-70145057D01*
X163079404Y-70145057D02*
X163127023Y-70240295D01*
X163127023Y-70240295D02*
X163127023Y-70335533D01*
X163127023Y-70335533D02*
X163079404Y-70478390D01*
X163079404Y-70478390D02*
X162507976Y-71049819D01*
X162507976Y-71049819D02*
X163127023Y-71049819D01*
X163460357Y-70049819D02*
X164079404Y-70049819D01*
X164079404Y-70049819D02*
X163746071Y-70430771D01*
X163746071Y-70430771D02*
X163888928Y-70430771D01*
X163888928Y-70430771D02*
X163984166Y-70478390D01*
X163984166Y-70478390D02*
X164031785Y-70526009D01*
X164031785Y-70526009D02*
X164079404Y-70621247D01*
X164079404Y-70621247D02*
X164079404Y-70859342D01*
X164079404Y-70859342D02*
X164031785Y-70954580D01*
X164031785Y-70954580D02*
X163984166Y-71002200D01*
X163984166Y-71002200D02*
X163888928Y-71049819D01*
X163888928Y-71049819D02*
X163603214Y-71049819D01*
X163603214Y-71049819D02*
X163507976Y-71002200D01*
X163507976Y-71002200D02*
X163460357Y-70954580D01*
X185110714Y-55729819D02*
X185110714Y-54729819D01*
X185110714Y-54729819D02*
X185348809Y-54729819D01*
X185348809Y-54729819D02*
X185491666Y-54777438D01*
X185491666Y-54777438D02*
X185586904Y-54872676D01*
X185586904Y-54872676D02*
X185634523Y-54967914D01*
X185634523Y-54967914D02*
X185682142Y-55158390D01*
X185682142Y-55158390D02*
X185682142Y-55301247D01*
X185682142Y-55301247D02*
X185634523Y-55491723D01*
X185634523Y-55491723D02*
X185586904Y-55586961D01*
X185586904Y-55586961D02*
X185491666Y-55682200D01*
X185491666Y-55682200D02*
X185348809Y-55729819D01*
X185348809Y-55729819D02*
X185110714Y-55729819D01*
X186015476Y-54729819D02*
X186634523Y-54729819D01*
X186634523Y-54729819D02*
X186301190Y-55110771D01*
X186301190Y-55110771D02*
X186444047Y-55110771D01*
X186444047Y-55110771D02*
X186539285Y-55158390D01*
X186539285Y-55158390D02*
X186586904Y-55206009D01*
X186586904Y-55206009D02*
X186634523Y-55301247D01*
X186634523Y-55301247D02*
X186634523Y-55539342D01*
X186634523Y-55539342D02*
X186586904Y-55634580D01*
X186586904Y-55634580D02*
X186539285Y-55682200D01*
X186539285Y-55682200D02*
X186444047Y-55729819D01*
X186444047Y-55729819D02*
X186158333Y-55729819D01*
X186158333Y-55729819D02*
X186063095Y-55682200D01*
X186063095Y-55682200D02*
X186015476Y-55634580D01*
X187205952Y-55158390D02*
X187110714Y-55110771D01*
X187110714Y-55110771D02*
X187063095Y-55063152D01*
X187063095Y-55063152D02*
X187015476Y-54967914D01*
X187015476Y-54967914D02*
X187015476Y-54920295D01*
X187015476Y-54920295D02*
X187063095Y-54825057D01*
X187063095Y-54825057D02*
X187110714Y-54777438D01*
X187110714Y-54777438D02*
X187205952Y-54729819D01*
X187205952Y-54729819D02*
X187396428Y-54729819D01*
X187396428Y-54729819D02*
X187491666Y-54777438D01*
X187491666Y-54777438D02*
X187539285Y-54825057D01*
X187539285Y-54825057D02*
X187586904Y-54920295D01*
X187586904Y-54920295D02*
X187586904Y-54967914D01*
X187586904Y-54967914D02*
X187539285Y-55063152D01*
X187539285Y-55063152D02*
X187491666Y-55110771D01*
X187491666Y-55110771D02*
X187396428Y-55158390D01*
X187396428Y-55158390D02*
X187205952Y-55158390D01*
X187205952Y-55158390D02*
X187110714Y-55206009D01*
X187110714Y-55206009D02*
X187063095Y-55253628D01*
X187063095Y-55253628D02*
X187015476Y-55348866D01*
X187015476Y-55348866D02*
X187015476Y-55539342D01*
X187015476Y-55539342D02*
X187063095Y-55634580D01*
X187063095Y-55634580D02*
X187110714Y-55682200D01*
X187110714Y-55682200D02*
X187205952Y-55729819D01*
X187205952Y-55729819D02*
X187396428Y-55729819D01*
X187396428Y-55729819D02*
X187491666Y-55682200D01*
X187491666Y-55682200D02*
X187539285Y-55634580D01*
X187539285Y-55634580D02*
X187586904Y-55539342D01*
X187586904Y-55539342D02*
X187586904Y-55348866D01*
X187586904Y-55348866D02*
X187539285Y-55253628D01*
X187539285Y-55253628D02*
X187491666Y-55206009D01*
X187491666Y-55206009D02*
X187396428Y-55158390D01*
X115635714Y-47979819D02*
X115635714Y-46979819D01*
X115635714Y-46979819D02*
X115873809Y-46979819D01*
X115873809Y-46979819D02*
X116016666Y-47027438D01*
X116016666Y-47027438D02*
X116111904Y-47122676D01*
X116111904Y-47122676D02*
X116159523Y-47217914D01*
X116159523Y-47217914D02*
X116207142Y-47408390D01*
X116207142Y-47408390D02*
X116207142Y-47551247D01*
X116207142Y-47551247D02*
X116159523Y-47741723D01*
X116159523Y-47741723D02*
X116111904Y-47836961D01*
X116111904Y-47836961D02*
X116016666Y-47932200D01*
X116016666Y-47932200D02*
X115873809Y-47979819D01*
X115873809Y-47979819D02*
X115635714Y-47979819D01*
X117064285Y-47313152D02*
X117064285Y-47979819D01*
X116826190Y-46932200D02*
X116588095Y-47646485D01*
X116588095Y-47646485D02*
X117207142Y-47646485D01*
X117492857Y-46979819D02*
X118159523Y-46979819D01*
X118159523Y-46979819D02*
X117730952Y-47979819D01*
X144542714Y-88405819D02*
X144542714Y-87405819D01*
X144542714Y-87405819D02*
X144780809Y-87405819D01*
X144780809Y-87405819D02*
X144923666Y-87453438D01*
X144923666Y-87453438D02*
X145018904Y-87548676D01*
X145018904Y-87548676D02*
X145066523Y-87643914D01*
X145066523Y-87643914D02*
X145114142Y-87834390D01*
X145114142Y-87834390D02*
X145114142Y-87977247D01*
X145114142Y-87977247D02*
X145066523Y-88167723D01*
X145066523Y-88167723D02*
X145018904Y-88262961D01*
X145018904Y-88262961D02*
X144923666Y-88358200D01*
X144923666Y-88358200D02*
X144780809Y-88405819D01*
X144780809Y-88405819D02*
X144542714Y-88405819D01*
X146066523Y-88405819D02*
X145495095Y-88405819D01*
X145780809Y-88405819D02*
X145780809Y-87405819D01*
X145780809Y-87405819D02*
X145685571Y-87548676D01*
X145685571Y-87548676D02*
X145590333Y-87643914D01*
X145590333Y-87643914D02*
X145495095Y-87691533D01*
X146542714Y-88405819D02*
X146733190Y-88405819D01*
X146733190Y-88405819D02*
X146828428Y-88358200D01*
X146828428Y-88358200D02*
X146876047Y-88310580D01*
X146876047Y-88310580D02*
X146971285Y-88167723D01*
X146971285Y-88167723D02*
X147018904Y-87977247D01*
X147018904Y-87977247D02*
X147018904Y-87596295D01*
X147018904Y-87596295D02*
X146971285Y-87501057D01*
X146971285Y-87501057D02*
X146923666Y-87453438D01*
X146923666Y-87453438D02*
X146828428Y-87405819D01*
X146828428Y-87405819D02*
X146637952Y-87405819D01*
X146637952Y-87405819D02*
X146542714Y-87453438D01*
X146542714Y-87453438D02*
X146495095Y-87501057D01*
X146495095Y-87501057D02*
X146447476Y-87596295D01*
X146447476Y-87596295D02*
X146447476Y-87834390D01*
X146447476Y-87834390D02*
X146495095Y-87929628D01*
X146495095Y-87929628D02*
X146542714Y-87977247D01*
X146542714Y-87977247D02*
X146637952Y-88024866D01*
X146637952Y-88024866D02*
X146828428Y-88024866D01*
X146828428Y-88024866D02*
X146923666Y-87977247D01*
X146923666Y-87977247D02*
X146971285Y-87929628D01*
X146971285Y-87929628D02*
X147018904Y-87834390D01*
X149635714Y-47854819D02*
X149635714Y-46854819D01*
X149635714Y-46854819D02*
X149873809Y-46854819D01*
X149873809Y-46854819D02*
X150016666Y-46902438D01*
X150016666Y-46902438D02*
X150111904Y-46997676D01*
X150111904Y-46997676D02*
X150159523Y-47092914D01*
X150159523Y-47092914D02*
X150207142Y-47283390D01*
X150207142Y-47283390D02*
X150207142Y-47426247D01*
X150207142Y-47426247D02*
X150159523Y-47616723D01*
X150159523Y-47616723D02*
X150111904Y-47711961D01*
X150111904Y-47711961D02*
X150016666Y-47807200D01*
X150016666Y-47807200D02*
X149873809Y-47854819D01*
X149873809Y-47854819D02*
X149635714Y-47854819D01*
X151064285Y-47188152D02*
X151064285Y-47854819D01*
X150826190Y-46807200D02*
X150588095Y-47521485D01*
X150588095Y-47521485D02*
X151207142Y-47521485D01*
X152064285Y-46854819D02*
X151588095Y-46854819D01*
X151588095Y-46854819D02*
X151540476Y-47331009D01*
X151540476Y-47331009D02*
X151588095Y-47283390D01*
X151588095Y-47283390D02*
X151683333Y-47235771D01*
X151683333Y-47235771D02*
X151921428Y-47235771D01*
X151921428Y-47235771D02*
X152016666Y-47283390D01*
X152016666Y-47283390D02*
X152064285Y-47331009D01*
X152064285Y-47331009D02*
X152111904Y-47426247D01*
X152111904Y-47426247D02*
X152111904Y-47664342D01*
X152111904Y-47664342D02*
X152064285Y-47759580D01*
X152064285Y-47759580D02*
X152016666Y-47807200D01*
X152016666Y-47807200D02*
X151921428Y-47854819D01*
X151921428Y-47854819D02*
X151683333Y-47854819D01*
X151683333Y-47854819D02*
X151588095Y-47807200D01*
X151588095Y-47807200D02*
X151540476Y-47759580D01*
X179921714Y-87549819D02*
X179921714Y-86549819D01*
X179921714Y-86549819D02*
X180159809Y-86549819D01*
X180159809Y-86549819D02*
X180302666Y-86597438D01*
X180302666Y-86597438D02*
X180397904Y-86692676D01*
X180397904Y-86692676D02*
X180445523Y-86787914D01*
X180445523Y-86787914D02*
X180493142Y-86978390D01*
X180493142Y-86978390D02*
X180493142Y-87121247D01*
X180493142Y-87121247D02*
X180445523Y-87311723D01*
X180445523Y-87311723D02*
X180397904Y-87406961D01*
X180397904Y-87406961D02*
X180302666Y-87502200D01*
X180302666Y-87502200D02*
X180159809Y-87549819D01*
X180159809Y-87549819D02*
X179921714Y-87549819D01*
X180874095Y-86645057D02*
X180921714Y-86597438D01*
X180921714Y-86597438D02*
X181016952Y-86549819D01*
X181016952Y-86549819D02*
X181255047Y-86549819D01*
X181255047Y-86549819D02*
X181350285Y-86597438D01*
X181350285Y-86597438D02*
X181397904Y-86645057D01*
X181397904Y-86645057D02*
X181445523Y-86740295D01*
X181445523Y-86740295D02*
X181445523Y-86835533D01*
X181445523Y-86835533D02*
X181397904Y-86978390D01*
X181397904Y-86978390D02*
X180826476Y-87549819D01*
X180826476Y-87549819D02*
X181445523Y-87549819D01*
X182064571Y-86549819D02*
X182159809Y-86549819D01*
X182159809Y-86549819D02*
X182255047Y-86597438D01*
X182255047Y-86597438D02*
X182302666Y-86645057D01*
X182302666Y-86645057D02*
X182350285Y-86740295D01*
X182350285Y-86740295D02*
X182397904Y-86930771D01*
X182397904Y-86930771D02*
X182397904Y-87168866D01*
X182397904Y-87168866D02*
X182350285Y-87359342D01*
X182350285Y-87359342D02*
X182302666Y-87454580D01*
X182302666Y-87454580D02*
X182255047Y-87502200D01*
X182255047Y-87502200D02*
X182159809Y-87549819D01*
X182159809Y-87549819D02*
X182064571Y-87549819D01*
X182064571Y-87549819D02*
X181969333Y-87502200D01*
X181969333Y-87502200D02*
X181921714Y-87454580D01*
X181921714Y-87454580D02*
X181874095Y-87359342D01*
X181874095Y-87359342D02*
X181826476Y-87168866D01*
X181826476Y-87168866D02*
X181826476Y-86930771D01*
X181826476Y-86930771D02*
X181874095Y-86740295D01*
X181874095Y-86740295D02*
X181921714Y-86645057D01*
X181921714Y-86645057D02*
X181969333Y-86597438D01*
X181969333Y-86597438D02*
X182064571Y-86549819D01*
X179921714Y-104549819D02*
X179921714Y-103549819D01*
X179921714Y-103549819D02*
X180159809Y-103549819D01*
X180159809Y-103549819D02*
X180302666Y-103597438D01*
X180302666Y-103597438D02*
X180397904Y-103692676D01*
X180397904Y-103692676D02*
X180445523Y-103787914D01*
X180445523Y-103787914D02*
X180493142Y-103978390D01*
X180493142Y-103978390D02*
X180493142Y-104121247D01*
X180493142Y-104121247D02*
X180445523Y-104311723D01*
X180445523Y-104311723D02*
X180397904Y-104406961D01*
X180397904Y-104406961D02*
X180302666Y-104502200D01*
X180302666Y-104502200D02*
X180159809Y-104549819D01*
X180159809Y-104549819D02*
X179921714Y-104549819D01*
X180874095Y-103645057D02*
X180921714Y-103597438D01*
X180921714Y-103597438D02*
X181016952Y-103549819D01*
X181016952Y-103549819D02*
X181255047Y-103549819D01*
X181255047Y-103549819D02*
X181350285Y-103597438D01*
X181350285Y-103597438D02*
X181397904Y-103645057D01*
X181397904Y-103645057D02*
X181445523Y-103740295D01*
X181445523Y-103740295D02*
X181445523Y-103835533D01*
X181445523Y-103835533D02*
X181397904Y-103978390D01*
X181397904Y-103978390D02*
X180826476Y-104549819D01*
X180826476Y-104549819D02*
X181445523Y-104549819D01*
X182397904Y-104549819D02*
X181826476Y-104549819D01*
X182112190Y-104549819D02*
X182112190Y-103549819D01*
X182112190Y-103549819D02*
X182016952Y-103692676D01*
X182016952Y-103692676D02*
X181921714Y-103787914D01*
X181921714Y-103787914D02*
X181826476Y-103835533D01*
X132535714Y-99654819D02*
X132535714Y-98654819D01*
X132535714Y-98654819D02*
X132773809Y-98654819D01*
X132773809Y-98654819D02*
X132916666Y-98702438D01*
X132916666Y-98702438D02*
X133011904Y-98797676D01*
X133011904Y-98797676D02*
X133059523Y-98892914D01*
X133059523Y-98892914D02*
X133107142Y-99083390D01*
X133107142Y-99083390D02*
X133107142Y-99226247D01*
X133107142Y-99226247D02*
X133059523Y-99416723D01*
X133059523Y-99416723D02*
X133011904Y-99511961D01*
X133011904Y-99511961D02*
X132916666Y-99607200D01*
X132916666Y-99607200D02*
X132773809Y-99654819D01*
X132773809Y-99654819D02*
X132535714Y-99654819D01*
X133488095Y-98750057D02*
X133535714Y-98702438D01*
X133535714Y-98702438D02*
X133630952Y-98654819D01*
X133630952Y-98654819D02*
X133869047Y-98654819D01*
X133869047Y-98654819D02*
X133964285Y-98702438D01*
X133964285Y-98702438D02*
X134011904Y-98750057D01*
X134011904Y-98750057D02*
X134059523Y-98845295D01*
X134059523Y-98845295D02*
X134059523Y-98940533D01*
X134059523Y-98940533D02*
X134011904Y-99083390D01*
X134011904Y-99083390D02*
X133440476Y-99654819D01*
X133440476Y-99654819D02*
X134059523Y-99654819D01*
X134535714Y-99654819D02*
X134726190Y-99654819D01*
X134726190Y-99654819D02*
X134821428Y-99607200D01*
X134821428Y-99607200D02*
X134869047Y-99559580D01*
X134869047Y-99559580D02*
X134964285Y-99416723D01*
X134964285Y-99416723D02*
X135011904Y-99226247D01*
X135011904Y-99226247D02*
X135011904Y-98845295D01*
X135011904Y-98845295D02*
X134964285Y-98750057D01*
X134964285Y-98750057D02*
X134916666Y-98702438D01*
X134916666Y-98702438D02*
X134821428Y-98654819D01*
X134821428Y-98654819D02*
X134630952Y-98654819D01*
X134630952Y-98654819D02*
X134535714Y-98702438D01*
X134535714Y-98702438D02*
X134488095Y-98750057D01*
X134488095Y-98750057D02*
X134440476Y-98845295D01*
X134440476Y-98845295D02*
X134440476Y-99083390D01*
X134440476Y-99083390D02*
X134488095Y-99178628D01*
X134488095Y-99178628D02*
X134535714Y-99226247D01*
X134535714Y-99226247D02*
X134630952Y-99273866D01*
X134630952Y-99273866D02*
X134821428Y-99273866D01*
X134821428Y-99273866D02*
X134916666Y-99226247D01*
X134916666Y-99226247D02*
X134964285Y-99178628D01*
X134964285Y-99178628D02*
X135011904Y-99083390D01*
X127371964Y-54049819D02*
X127371964Y-53049819D01*
X127371964Y-53049819D02*
X127610059Y-53049819D01*
X127610059Y-53049819D02*
X127752916Y-53097438D01*
X127752916Y-53097438D02*
X127848154Y-53192676D01*
X127848154Y-53192676D02*
X127895773Y-53287914D01*
X127895773Y-53287914D02*
X127943392Y-53478390D01*
X127943392Y-53478390D02*
X127943392Y-53621247D01*
X127943392Y-53621247D02*
X127895773Y-53811723D01*
X127895773Y-53811723D02*
X127848154Y-53906961D01*
X127848154Y-53906961D02*
X127752916Y-54002200D01*
X127752916Y-54002200D02*
X127610059Y-54049819D01*
X127610059Y-54049819D02*
X127371964Y-54049819D01*
X128895773Y-54049819D02*
X128324345Y-54049819D01*
X128610059Y-54049819D02*
X128610059Y-53049819D01*
X128610059Y-53049819D02*
X128514821Y-53192676D01*
X128514821Y-53192676D02*
X128419583Y-53287914D01*
X128419583Y-53287914D02*
X128324345Y-53335533D01*
X129276726Y-53145057D02*
X129324345Y-53097438D01*
X129324345Y-53097438D02*
X129419583Y-53049819D01*
X129419583Y-53049819D02*
X129657678Y-53049819D01*
X129657678Y-53049819D02*
X129752916Y-53097438D01*
X129752916Y-53097438D02*
X129800535Y-53145057D01*
X129800535Y-53145057D02*
X129848154Y-53240295D01*
X129848154Y-53240295D02*
X129848154Y-53335533D01*
X129848154Y-53335533D02*
X129800535Y-53478390D01*
X129800535Y-53478390D02*
X129229107Y-54049819D01*
X129229107Y-54049819D02*
X129848154Y-54049819D01*
X161603214Y-53549819D02*
X161603214Y-52549819D01*
X161603214Y-52549819D02*
X161841309Y-52549819D01*
X161841309Y-52549819D02*
X161984166Y-52597438D01*
X161984166Y-52597438D02*
X162079404Y-52692676D01*
X162079404Y-52692676D02*
X162127023Y-52787914D01*
X162127023Y-52787914D02*
X162174642Y-52978390D01*
X162174642Y-52978390D02*
X162174642Y-53121247D01*
X162174642Y-53121247D02*
X162127023Y-53311723D01*
X162127023Y-53311723D02*
X162079404Y-53406961D01*
X162079404Y-53406961D02*
X161984166Y-53502200D01*
X161984166Y-53502200D02*
X161841309Y-53549819D01*
X161841309Y-53549819D02*
X161603214Y-53549819D01*
X162555595Y-52645057D02*
X162603214Y-52597438D01*
X162603214Y-52597438D02*
X162698452Y-52549819D01*
X162698452Y-52549819D02*
X162936547Y-52549819D01*
X162936547Y-52549819D02*
X163031785Y-52597438D01*
X163031785Y-52597438D02*
X163079404Y-52645057D01*
X163079404Y-52645057D02*
X163127023Y-52740295D01*
X163127023Y-52740295D02*
X163127023Y-52835533D01*
X163127023Y-52835533D02*
X163079404Y-52978390D01*
X163079404Y-52978390D02*
X162507976Y-53549819D01*
X162507976Y-53549819D02*
X163127023Y-53549819D01*
X163984166Y-52883152D02*
X163984166Y-53549819D01*
X163746071Y-52502200D02*
X163507976Y-53216485D01*
X163507976Y-53216485D02*
X164127023Y-53216485D01*
X185254214Y-90354819D02*
X185254214Y-89354819D01*
X185254214Y-89354819D02*
X185492309Y-89354819D01*
X185492309Y-89354819D02*
X185635166Y-89402438D01*
X185635166Y-89402438D02*
X185730404Y-89497676D01*
X185730404Y-89497676D02*
X185778023Y-89592914D01*
X185778023Y-89592914D02*
X185825642Y-89783390D01*
X185825642Y-89783390D02*
X185825642Y-89926247D01*
X185825642Y-89926247D02*
X185778023Y-90116723D01*
X185778023Y-90116723D02*
X185730404Y-90211961D01*
X185730404Y-90211961D02*
X185635166Y-90307200D01*
X185635166Y-90307200D02*
X185492309Y-90354819D01*
X185492309Y-90354819D02*
X185254214Y-90354819D01*
X186158976Y-89354819D02*
X186778023Y-89354819D01*
X186778023Y-89354819D02*
X186444690Y-89735771D01*
X186444690Y-89735771D02*
X186587547Y-89735771D01*
X186587547Y-89735771D02*
X186682785Y-89783390D01*
X186682785Y-89783390D02*
X186730404Y-89831009D01*
X186730404Y-89831009D02*
X186778023Y-89926247D01*
X186778023Y-89926247D02*
X186778023Y-90164342D01*
X186778023Y-90164342D02*
X186730404Y-90259580D01*
X186730404Y-90259580D02*
X186682785Y-90307200D01*
X186682785Y-90307200D02*
X186587547Y-90354819D01*
X186587547Y-90354819D02*
X186301833Y-90354819D01*
X186301833Y-90354819D02*
X186206595Y-90307200D01*
X186206595Y-90307200D02*
X186158976Y-90259580D01*
X187158976Y-89450057D02*
X187206595Y-89402438D01*
X187206595Y-89402438D02*
X187301833Y-89354819D01*
X187301833Y-89354819D02*
X187539928Y-89354819D01*
X187539928Y-89354819D02*
X187635166Y-89402438D01*
X187635166Y-89402438D02*
X187682785Y-89450057D01*
X187682785Y-89450057D02*
X187730404Y-89545295D01*
X187730404Y-89545295D02*
X187730404Y-89640533D01*
X187730404Y-89640533D02*
X187682785Y-89783390D01*
X187682785Y-89783390D02*
X187111357Y-90354819D01*
X187111357Y-90354819D02*
X187730404Y-90354819D01*
X74435714Y-95754819D02*
X74435714Y-94754819D01*
X74435714Y-94754819D02*
X74673809Y-94754819D01*
X74673809Y-94754819D02*
X74816666Y-94802438D01*
X74816666Y-94802438D02*
X74911904Y-94897676D01*
X74911904Y-94897676D02*
X74959523Y-94992914D01*
X74959523Y-94992914D02*
X75007142Y-95183390D01*
X75007142Y-95183390D02*
X75007142Y-95326247D01*
X75007142Y-95326247D02*
X74959523Y-95516723D01*
X74959523Y-95516723D02*
X74911904Y-95611961D01*
X74911904Y-95611961D02*
X74816666Y-95707200D01*
X74816666Y-95707200D02*
X74673809Y-95754819D01*
X74673809Y-95754819D02*
X74435714Y-95754819D01*
X75388095Y-94850057D02*
X75435714Y-94802438D01*
X75435714Y-94802438D02*
X75530952Y-94754819D01*
X75530952Y-94754819D02*
X75769047Y-94754819D01*
X75769047Y-94754819D02*
X75864285Y-94802438D01*
X75864285Y-94802438D02*
X75911904Y-94850057D01*
X75911904Y-94850057D02*
X75959523Y-94945295D01*
X75959523Y-94945295D02*
X75959523Y-95040533D01*
X75959523Y-95040533D02*
X75911904Y-95183390D01*
X75911904Y-95183390D02*
X75340476Y-95754819D01*
X75340476Y-95754819D02*
X75959523Y-95754819D01*
X76816666Y-94754819D02*
X76626190Y-94754819D01*
X76626190Y-94754819D02*
X76530952Y-94802438D01*
X76530952Y-94802438D02*
X76483333Y-94850057D01*
X76483333Y-94850057D02*
X76388095Y-94992914D01*
X76388095Y-94992914D02*
X76340476Y-95183390D01*
X76340476Y-95183390D02*
X76340476Y-95564342D01*
X76340476Y-95564342D02*
X76388095Y-95659580D01*
X76388095Y-95659580D02*
X76435714Y-95707200D01*
X76435714Y-95707200D02*
X76530952Y-95754819D01*
X76530952Y-95754819D02*
X76721428Y-95754819D01*
X76721428Y-95754819D02*
X76816666Y-95707200D01*
X76816666Y-95707200D02*
X76864285Y-95659580D01*
X76864285Y-95659580D02*
X76911904Y-95564342D01*
X76911904Y-95564342D02*
X76911904Y-95326247D01*
X76911904Y-95326247D02*
X76864285Y-95231009D01*
X76864285Y-95231009D02*
X76816666Y-95183390D01*
X76816666Y-95183390D02*
X76721428Y-95135771D01*
X76721428Y-95135771D02*
X76530952Y-95135771D01*
X76530952Y-95135771D02*
X76435714Y-95183390D01*
X76435714Y-95183390D02*
X76388095Y-95231009D01*
X76388095Y-95231009D02*
X76340476Y-95326247D01*
X166810714Y-64904819D02*
X166810714Y-63904819D01*
X166810714Y-63904819D02*
X167048809Y-63904819D01*
X167048809Y-63904819D02*
X167191666Y-63952438D01*
X167191666Y-63952438D02*
X167286904Y-64047676D01*
X167286904Y-64047676D02*
X167334523Y-64142914D01*
X167334523Y-64142914D02*
X167382142Y-64333390D01*
X167382142Y-64333390D02*
X167382142Y-64476247D01*
X167382142Y-64476247D02*
X167334523Y-64666723D01*
X167334523Y-64666723D02*
X167286904Y-64761961D01*
X167286904Y-64761961D02*
X167191666Y-64857200D01*
X167191666Y-64857200D02*
X167048809Y-64904819D01*
X167048809Y-64904819D02*
X166810714Y-64904819D01*
X167715476Y-63904819D02*
X168334523Y-63904819D01*
X168334523Y-63904819D02*
X168001190Y-64285771D01*
X168001190Y-64285771D02*
X168144047Y-64285771D01*
X168144047Y-64285771D02*
X168239285Y-64333390D01*
X168239285Y-64333390D02*
X168286904Y-64381009D01*
X168286904Y-64381009D02*
X168334523Y-64476247D01*
X168334523Y-64476247D02*
X168334523Y-64714342D01*
X168334523Y-64714342D02*
X168286904Y-64809580D01*
X168286904Y-64809580D02*
X168239285Y-64857200D01*
X168239285Y-64857200D02*
X168144047Y-64904819D01*
X168144047Y-64904819D02*
X167858333Y-64904819D01*
X167858333Y-64904819D02*
X167763095Y-64857200D01*
X167763095Y-64857200D02*
X167715476Y-64809580D01*
X168810714Y-64904819D02*
X169001190Y-64904819D01*
X169001190Y-64904819D02*
X169096428Y-64857200D01*
X169096428Y-64857200D02*
X169144047Y-64809580D01*
X169144047Y-64809580D02*
X169239285Y-64666723D01*
X169239285Y-64666723D02*
X169286904Y-64476247D01*
X169286904Y-64476247D02*
X169286904Y-64095295D01*
X169286904Y-64095295D02*
X169239285Y-64000057D01*
X169239285Y-64000057D02*
X169191666Y-63952438D01*
X169191666Y-63952438D02*
X169096428Y-63904819D01*
X169096428Y-63904819D02*
X168905952Y-63904819D01*
X168905952Y-63904819D02*
X168810714Y-63952438D01*
X168810714Y-63952438D02*
X168763095Y-64000057D01*
X168763095Y-64000057D02*
X168715476Y-64095295D01*
X168715476Y-64095295D02*
X168715476Y-64333390D01*
X168715476Y-64333390D02*
X168763095Y-64428628D01*
X168763095Y-64428628D02*
X168810714Y-64476247D01*
X168810714Y-64476247D02*
X168905952Y-64523866D01*
X168905952Y-64523866D02*
X169096428Y-64523866D01*
X169096428Y-64523866D02*
X169191666Y-64476247D01*
X169191666Y-64476247D02*
X169239285Y-64428628D01*
X169239285Y-64428628D02*
X169286904Y-64333390D01*
X115585714Y-99754819D02*
X115585714Y-98754819D01*
X115585714Y-98754819D02*
X115823809Y-98754819D01*
X115823809Y-98754819D02*
X115966666Y-98802438D01*
X115966666Y-98802438D02*
X116061904Y-98897676D01*
X116061904Y-98897676D02*
X116109523Y-98992914D01*
X116109523Y-98992914D02*
X116157142Y-99183390D01*
X116157142Y-99183390D02*
X116157142Y-99326247D01*
X116157142Y-99326247D02*
X116109523Y-99516723D01*
X116109523Y-99516723D02*
X116061904Y-99611961D01*
X116061904Y-99611961D02*
X115966666Y-99707200D01*
X115966666Y-99707200D02*
X115823809Y-99754819D01*
X115823809Y-99754819D02*
X115585714Y-99754819D01*
X116538095Y-98850057D02*
X116585714Y-98802438D01*
X116585714Y-98802438D02*
X116680952Y-98754819D01*
X116680952Y-98754819D02*
X116919047Y-98754819D01*
X116919047Y-98754819D02*
X117014285Y-98802438D01*
X117014285Y-98802438D02*
X117061904Y-98850057D01*
X117061904Y-98850057D02*
X117109523Y-98945295D01*
X117109523Y-98945295D02*
X117109523Y-99040533D01*
X117109523Y-99040533D02*
X117061904Y-99183390D01*
X117061904Y-99183390D02*
X116490476Y-99754819D01*
X116490476Y-99754819D02*
X117109523Y-99754819D01*
X117680952Y-99183390D02*
X117585714Y-99135771D01*
X117585714Y-99135771D02*
X117538095Y-99088152D01*
X117538095Y-99088152D02*
X117490476Y-98992914D01*
X117490476Y-98992914D02*
X117490476Y-98945295D01*
X117490476Y-98945295D02*
X117538095Y-98850057D01*
X117538095Y-98850057D02*
X117585714Y-98802438D01*
X117585714Y-98802438D02*
X117680952Y-98754819D01*
X117680952Y-98754819D02*
X117871428Y-98754819D01*
X117871428Y-98754819D02*
X117966666Y-98802438D01*
X117966666Y-98802438D02*
X118014285Y-98850057D01*
X118014285Y-98850057D02*
X118061904Y-98945295D01*
X118061904Y-98945295D02*
X118061904Y-98992914D01*
X118061904Y-98992914D02*
X118014285Y-99088152D01*
X118014285Y-99088152D02*
X117966666Y-99135771D01*
X117966666Y-99135771D02*
X117871428Y-99183390D01*
X117871428Y-99183390D02*
X117680952Y-99183390D01*
X117680952Y-99183390D02*
X117585714Y-99231009D01*
X117585714Y-99231009D02*
X117538095Y-99278628D01*
X117538095Y-99278628D02*
X117490476Y-99373866D01*
X117490476Y-99373866D02*
X117490476Y-99564342D01*
X117490476Y-99564342D02*
X117538095Y-99659580D01*
X117538095Y-99659580D02*
X117585714Y-99707200D01*
X117585714Y-99707200D02*
X117680952Y-99754819D01*
X117680952Y-99754819D02*
X117871428Y-99754819D01*
X117871428Y-99754819D02*
X117966666Y-99707200D01*
X117966666Y-99707200D02*
X118014285Y-99659580D01*
X118014285Y-99659580D02*
X118061904Y-99564342D01*
X118061904Y-99564342D02*
X118061904Y-99373866D01*
X118061904Y-99373866D02*
X118014285Y-99278628D01*
X118014285Y-99278628D02*
X117966666Y-99231009D01*
X117966666Y-99231009D02*
X117871428Y-99183390D01*
X115610714Y-64879819D02*
X115610714Y-63879819D01*
X115610714Y-63879819D02*
X115848809Y-63879819D01*
X115848809Y-63879819D02*
X115991666Y-63927438D01*
X115991666Y-63927438D02*
X116086904Y-64022676D01*
X116086904Y-64022676D02*
X116134523Y-64117914D01*
X116134523Y-64117914D02*
X116182142Y-64308390D01*
X116182142Y-64308390D02*
X116182142Y-64451247D01*
X116182142Y-64451247D02*
X116134523Y-64641723D01*
X116134523Y-64641723D02*
X116086904Y-64736961D01*
X116086904Y-64736961D02*
X115991666Y-64832200D01*
X115991666Y-64832200D02*
X115848809Y-64879819D01*
X115848809Y-64879819D02*
X115610714Y-64879819D01*
X117039285Y-64213152D02*
X117039285Y-64879819D01*
X116801190Y-63832200D02*
X116563095Y-64546485D01*
X116563095Y-64546485D02*
X117182142Y-64546485D01*
X117515476Y-63975057D02*
X117563095Y-63927438D01*
X117563095Y-63927438D02*
X117658333Y-63879819D01*
X117658333Y-63879819D02*
X117896428Y-63879819D01*
X117896428Y-63879819D02*
X117991666Y-63927438D01*
X117991666Y-63927438D02*
X118039285Y-63975057D01*
X118039285Y-63975057D02*
X118086904Y-64070295D01*
X118086904Y-64070295D02*
X118086904Y-64165533D01*
X118086904Y-64165533D02*
X118039285Y-64308390D01*
X118039285Y-64308390D02*
X117467857Y-64879819D01*
X117467857Y-64879819D02*
X118086904Y-64879819D01*
X166835714Y-47979819D02*
X166835714Y-46979819D01*
X166835714Y-46979819D02*
X167073809Y-46979819D01*
X167073809Y-46979819D02*
X167216666Y-47027438D01*
X167216666Y-47027438D02*
X167311904Y-47122676D01*
X167311904Y-47122676D02*
X167359523Y-47217914D01*
X167359523Y-47217914D02*
X167407142Y-47408390D01*
X167407142Y-47408390D02*
X167407142Y-47551247D01*
X167407142Y-47551247D02*
X167359523Y-47741723D01*
X167359523Y-47741723D02*
X167311904Y-47836961D01*
X167311904Y-47836961D02*
X167216666Y-47932200D01*
X167216666Y-47932200D02*
X167073809Y-47979819D01*
X167073809Y-47979819D02*
X166835714Y-47979819D01*
X168264285Y-47313152D02*
X168264285Y-47979819D01*
X168026190Y-46932200D02*
X167788095Y-47646485D01*
X167788095Y-47646485D02*
X168407142Y-47646485D01*
X169216666Y-47313152D02*
X169216666Y-47979819D01*
X168978571Y-46932200D02*
X168740476Y-47646485D01*
X168740476Y-47646485D02*
X169359523Y-47646485D01*
X127334714Y-36549819D02*
X127334714Y-35549819D01*
X127334714Y-35549819D02*
X127572809Y-35549819D01*
X127572809Y-35549819D02*
X127715666Y-35597438D01*
X127715666Y-35597438D02*
X127810904Y-35692676D01*
X127810904Y-35692676D02*
X127858523Y-35787914D01*
X127858523Y-35787914D02*
X127906142Y-35978390D01*
X127906142Y-35978390D02*
X127906142Y-36121247D01*
X127906142Y-36121247D02*
X127858523Y-36311723D01*
X127858523Y-36311723D02*
X127810904Y-36406961D01*
X127810904Y-36406961D02*
X127715666Y-36502200D01*
X127715666Y-36502200D02*
X127572809Y-36549819D01*
X127572809Y-36549819D02*
X127334714Y-36549819D01*
X128858523Y-36549819D02*
X128287095Y-36549819D01*
X128572809Y-36549819D02*
X128572809Y-35549819D01*
X128572809Y-35549819D02*
X128477571Y-35692676D01*
X128477571Y-35692676D02*
X128382333Y-35787914D01*
X128382333Y-35787914D02*
X128287095Y-35835533D01*
X129810904Y-36549819D02*
X129239476Y-36549819D01*
X129525190Y-36549819D02*
X129525190Y-35549819D01*
X129525190Y-35549819D02*
X129429952Y-35692676D01*
X129429952Y-35692676D02*
X129334714Y-35787914D01*
X129334714Y-35787914D02*
X129239476Y-35835533D01*
X98610714Y-64879819D02*
X98610714Y-63879819D01*
X98610714Y-63879819D02*
X98848809Y-63879819D01*
X98848809Y-63879819D02*
X98991666Y-63927438D01*
X98991666Y-63927438D02*
X99086904Y-64022676D01*
X99086904Y-64022676D02*
X99134523Y-64117914D01*
X99134523Y-64117914D02*
X99182142Y-64308390D01*
X99182142Y-64308390D02*
X99182142Y-64451247D01*
X99182142Y-64451247D02*
X99134523Y-64641723D01*
X99134523Y-64641723D02*
X99086904Y-64736961D01*
X99086904Y-64736961D02*
X98991666Y-64832200D01*
X98991666Y-64832200D02*
X98848809Y-64879819D01*
X98848809Y-64879819D02*
X98610714Y-64879819D01*
X100039285Y-64213152D02*
X100039285Y-64879819D01*
X99801190Y-63832200D02*
X99563095Y-64546485D01*
X99563095Y-64546485D02*
X100182142Y-64546485D01*
X100467857Y-63879819D02*
X101086904Y-63879819D01*
X101086904Y-63879819D02*
X100753571Y-64260771D01*
X100753571Y-64260771D02*
X100896428Y-64260771D01*
X100896428Y-64260771D02*
X100991666Y-64308390D01*
X100991666Y-64308390D02*
X101039285Y-64356009D01*
X101039285Y-64356009D02*
X101086904Y-64451247D01*
X101086904Y-64451247D02*
X101086904Y-64689342D01*
X101086904Y-64689342D02*
X101039285Y-64784580D01*
X101039285Y-64784580D02*
X100991666Y-64832200D01*
X100991666Y-64832200D02*
X100896428Y-64879819D01*
X100896428Y-64879819D02*
X100610714Y-64879819D01*
X100610714Y-64879819D02*
X100515476Y-64832200D01*
X100515476Y-64832200D02*
X100467857Y-64784580D01*
X180371714Y-70049819D02*
X180371714Y-69049819D01*
X180371714Y-69049819D02*
X180609809Y-69049819D01*
X180609809Y-69049819D02*
X180752666Y-69097438D01*
X180752666Y-69097438D02*
X180847904Y-69192676D01*
X180847904Y-69192676D02*
X180895523Y-69287914D01*
X180895523Y-69287914D02*
X180943142Y-69478390D01*
X180943142Y-69478390D02*
X180943142Y-69621247D01*
X180943142Y-69621247D02*
X180895523Y-69811723D01*
X180895523Y-69811723D02*
X180847904Y-69906961D01*
X180847904Y-69906961D02*
X180752666Y-70002200D01*
X180752666Y-70002200D02*
X180609809Y-70049819D01*
X180609809Y-70049819D02*
X180371714Y-70049819D01*
X181895523Y-70049819D02*
X181324095Y-70049819D01*
X181609809Y-70049819D02*
X181609809Y-69049819D01*
X181609809Y-69049819D02*
X181514571Y-69192676D01*
X181514571Y-69192676D02*
X181419333Y-69287914D01*
X181419333Y-69287914D02*
X181324095Y-69335533D01*
X182800285Y-69049819D02*
X182324095Y-69049819D01*
X182324095Y-69049819D02*
X182276476Y-69526009D01*
X182276476Y-69526009D02*
X182324095Y-69478390D01*
X182324095Y-69478390D02*
X182419333Y-69430771D01*
X182419333Y-69430771D02*
X182657428Y-69430771D01*
X182657428Y-69430771D02*
X182752666Y-69478390D01*
X182752666Y-69478390D02*
X182800285Y-69526009D01*
X182800285Y-69526009D02*
X182847904Y-69621247D01*
X182847904Y-69621247D02*
X182847904Y-69859342D01*
X182847904Y-69859342D02*
X182800285Y-69954580D01*
X182800285Y-69954580D02*
X182752666Y-70002200D01*
X182752666Y-70002200D02*
X182657428Y-70049819D01*
X182657428Y-70049819D02*
X182419333Y-70049819D01*
X182419333Y-70049819D02*
X182324095Y-70002200D01*
X182324095Y-70002200D02*
X182276476Y-69954580D01*
X149585714Y-99629819D02*
X149585714Y-98629819D01*
X149585714Y-98629819D02*
X149823809Y-98629819D01*
X149823809Y-98629819D02*
X149966666Y-98677438D01*
X149966666Y-98677438D02*
X150061904Y-98772676D01*
X150061904Y-98772676D02*
X150109523Y-98867914D01*
X150109523Y-98867914D02*
X150157142Y-99058390D01*
X150157142Y-99058390D02*
X150157142Y-99201247D01*
X150157142Y-99201247D02*
X150109523Y-99391723D01*
X150109523Y-99391723D02*
X150061904Y-99486961D01*
X150061904Y-99486961D02*
X149966666Y-99582200D01*
X149966666Y-99582200D02*
X149823809Y-99629819D01*
X149823809Y-99629819D02*
X149585714Y-99629819D01*
X150490476Y-98629819D02*
X151109523Y-98629819D01*
X151109523Y-98629819D02*
X150776190Y-99010771D01*
X150776190Y-99010771D02*
X150919047Y-99010771D01*
X150919047Y-99010771D02*
X151014285Y-99058390D01*
X151014285Y-99058390D02*
X151061904Y-99106009D01*
X151061904Y-99106009D02*
X151109523Y-99201247D01*
X151109523Y-99201247D02*
X151109523Y-99439342D01*
X151109523Y-99439342D02*
X151061904Y-99534580D01*
X151061904Y-99534580D02*
X151014285Y-99582200D01*
X151014285Y-99582200D02*
X150919047Y-99629819D01*
X150919047Y-99629819D02*
X150633333Y-99629819D01*
X150633333Y-99629819D02*
X150538095Y-99582200D01*
X150538095Y-99582200D02*
X150490476Y-99534580D01*
X151728571Y-98629819D02*
X151823809Y-98629819D01*
X151823809Y-98629819D02*
X151919047Y-98677438D01*
X151919047Y-98677438D02*
X151966666Y-98725057D01*
X151966666Y-98725057D02*
X152014285Y-98820295D01*
X152014285Y-98820295D02*
X152061904Y-99010771D01*
X152061904Y-99010771D02*
X152061904Y-99248866D01*
X152061904Y-99248866D02*
X152014285Y-99439342D01*
X152014285Y-99439342D02*
X151966666Y-99534580D01*
X151966666Y-99534580D02*
X151919047Y-99582200D01*
X151919047Y-99582200D02*
X151823809Y-99629819D01*
X151823809Y-99629819D02*
X151728571Y-99629819D01*
X151728571Y-99629819D02*
X151633333Y-99582200D01*
X151633333Y-99582200D02*
X151585714Y-99534580D01*
X151585714Y-99534580D02*
X151538095Y-99439342D01*
X151538095Y-99439342D02*
X151490476Y-99248866D01*
X151490476Y-99248866D02*
X151490476Y-99010771D01*
X151490476Y-99010771D02*
X151538095Y-98820295D01*
X151538095Y-98820295D02*
X151585714Y-98725057D01*
X151585714Y-98725057D02*
X151633333Y-98677438D01*
X151633333Y-98677438D02*
X151728571Y-98629819D01*
X111079405Y-53549819D02*
X111079405Y-52549819D01*
X111079405Y-52549819D02*
X111317500Y-52549819D01*
X111317500Y-52549819D02*
X111460357Y-52597438D01*
X111460357Y-52597438D02*
X111555595Y-52692676D01*
X111555595Y-52692676D02*
X111603214Y-52787914D01*
X111603214Y-52787914D02*
X111650833Y-52978390D01*
X111650833Y-52978390D02*
X111650833Y-53121247D01*
X111650833Y-53121247D02*
X111603214Y-53311723D01*
X111603214Y-53311723D02*
X111555595Y-53406961D01*
X111555595Y-53406961D02*
X111460357Y-53502200D01*
X111460357Y-53502200D02*
X111317500Y-53549819D01*
X111317500Y-53549819D02*
X111079405Y-53549819D01*
X112127024Y-53549819D02*
X112317500Y-53549819D01*
X112317500Y-53549819D02*
X112412738Y-53502200D01*
X112412738Y-53502200D02*
X112460357Y-53454580D01*
X112460357Y-53454580D02*
X112555595Y-53311723D01*
X112555595Y-53311723D02*
X112603214Y-53121247D01*
X112603214Y-53121247D02*
X112603214Y-52740295D01*
X112603214Y-52740295D02*
X112555595Y-52645057D01*
X112555595Y-52645057D02*
X112507976Y-52597438D01*
X112507976Y-52597438D02*
X112412738Y-52549819D01*
X112412738Y-52549819D02*
X112222262Y-52549819D01*
X112222262Y-52549819D02*
X112127024Y-52597438D01*
X112127024Y-52597438D02*
X112079405Y-52645057D01*
X112079405Y-52645057D02*
X112031786Y-52740295D01*
X112031786Y-52740295D02*
X112031786Y-52978390D01*
X112031786Y-52978390D02*
X112079405Y-53073628D01*
X112079405Y-53073628D02*
X112127024Y-53121247D01*
X112127024Y-53121247D02*
X112222262Y-53168866D01*
X112222262Y-53168866D02*
X112412738Y-53168866D01*
X112412738Y-53168866D02*
X112507976Y-53121247D01*
X112507976Y-53121247D02*
X112555595Y-53073628D01*
X112555595Y-53073628D02*
X112603214Y-52978390D01*
X111079405Y-88549819D02*
X111079405Y-87549819D01*
X111079405Y-87549819D02*
X111317500Y-87549819D01*
X111317500Y-87549819D02*
X111460357Y-87597438D01*
X111460357Y-87597438D02*
X111555595Y-87692676D01*
X111555595Y-87692676D02*
X111603214Y-87787914D01*
X111603214Y-87787914D02*
X111650833Y-87978390D01*
X111650833Y-87978390D02*
X111650833Y-88121247D01*
X111650833Y-88121247D02*
X111603214Y-88311723D01*
X111603214Y-88311723D02*
X111555595Y-88406961D01*
X111555595Y-88406961D02*
X111460357Y-88502200D01*
X111460357Y-88502200D02*
X111317500Y-88549819D01*
X111317500Y-88549819D02*
X111079405Y-88549819D01*
X111984167Y-87549819D02*
X112650833Y-87549819D01*
X112650833Y-87549819D02*
X112222262Y-88549819D01*
X98635714Y-47879819D02*
X98635714Y-46879819D01*
X98635714Y-46879819D02*
X98873809Y-46879819D01*
X98873809Y-46879819D02*
X99016666Y-46927438D01*
X99016666Y-46927438D02*
X99111904Y-47022676D01*
X99111904Y-47022676D02*
X99159523Y-47117914D01*
X99159523Y-47117914D02*
X99207142Y-47308390D01*
X99207142Y-47308390D02*
X99207142Y-47451247D01*
X99207142Y-47451247D02*
X99159523Y-47641723D01*
X99159523Y-47641723D02*
X99111904Y-47736961D01*
X99111904Y-47736961D02*
X99016666Y-47832200D01*
X99016666Y-47832200D02*
X98873809Y-47879819D01*
X98873809Y-47879819D02*
X98635714Y-47879819D01*
X100064285Y-47213152D02*
X100064285Y-47879819D01*
X99826190Y-46832200D02*
X99588095Y-47546485D01*
X99588095Y-47546485D02*
X100207142Y-47546485D01*
X100730952Y-47308390D02*
X100635714Y-47260771D01*
X100635714Y-47260771D02*
X100588095Y-47213152D01*
X100588095Y-47213152D02*
X100540476Y-47117914D01*
X100540476Y-47117914D02*
X100540476Y-47070295D01*
X100540476Y-47070295D02*
X100588095Y-46975057D01*
X100588095Y-46975057D02*
X100635714Y-46927438D01*
X100635714Y-46927438D02*
X100730952Y-46879819D01*
X100730952Y-46879819D02*
X100921428Y-46879819D01*
X100921428Y-46879819D02*
X101016666Y-46927438D01*
X101016666Y-46927438D02*
X101064285Y-46975057D01*
X101064285Y-46975057D02*
X101111904Y-47070295D01*
X101111904Y-47070295D02*
X101111904Y-47117914D01*
X101111904Y-47117914D02*
X101064285Y-47213152D01*
X101064285Y-47213152D02*
X101016666Y-47260771D01*
X101016666Y-47260771D02*
X100921428Y-47308390D01*
X100921428Y-47308390D02*
X100730952Y-47308390D01*
X100730952Y-47308390D02*
X100635714Y-47356009D01*
X100635714Y-47356009D02*
X100588095Y-47403628D01*
X100588095Y-47403628D02*
X100540476Y-47498866D01*
X100540476Y-47498866D02*
X100540476Y-47689342D01*
X100540476Y-47689342D02*
X100588095Y-47784580D01*
X100588095Y-47784580D02*
X100635714Y-47832200D01*
X100635714Y-47832200D02*
X100730952Y-47879819D01*
X100730952Y-47879819D02*
X100921428Y-47879819D01*
X100921428Y-47879819D02*
X101016666Y-47832200D01*
X101016666Y-47832200D02*
X101064285Y-47784580D01*
X101064285Y-47784580D02*
X101111904Y-47689342D01*
X101111904Y-47689342D02*
X101111904Y-47498866D01*
X101111904Y-47498866D02*
X101064285Y-47403628D01*
X101064285Y-47403628D02*
X101016666Y-47356009D01*
X101016666Y-47356009D02*
X100921428Y-47308390D01*
X98585714Y-99754819D02*
X98585714Y-98754819D01*
X98585714Y-98754819D02*
X98823809Y-98754819D01*
X98823809Y-98754819D02*
X98966666Y-98802438D01*
X98966666Y-98802438D02*
X99061904Y-98897676D01*
X99061904Y-98897676D02*
X99109523Y-98992914D01*
X99109523Y-98992914D02*
X99157142Y-99183390D01*
X99157142Y-99183390D02*
X99157142Y-99326247D01*
X99157142Y-99326247D02*
X99109523Y-99516723D01*
X99109523Y-99516723D02*
X99061904Y-99611961D01*
X99061904Y-99611961D02*
X98966666Y-99707200D01*
X98966666Y-99707200D02*
X98823809Y-99754819D01*
X98823809Y-99754819D02*
X98585714Y-99754819D01*
X99538095Y-98850057D02*
X99585714Y-98802438D01*
X99585714Y-98802438D02*
X99680952Y-98754819D01*
X99680952Y-98754819D02*
X99919047Y-98754819D01*
X99919047Y-98754819D02*
X100014285Y-98802438D01*
X100014285Y-98802438D02*
X100061904Y-98850057D01*
X100061904Y-98850057D02*
X100109523Y-98945295D01*
X100109523Y-98945295D02*
X100109523Y-99040533D01*
X100109523Y-99040533D02*
X100061904Y-99183390D01*
X100061904Y-99183390D02*
X99490476Y-99754819D01*
X99490476Y-99754819D02*
X100109523Y-99754819D01*
X100442857Y-98754819D02*
X101109523Y-98754819D01*
X101109523Y-98754819D02*
X100680952Y-99754819D01*
X115635714Y-82354819D02*
X115635714Y-81354819D01*
X115635714Y-81354819D02*
X115873809Y-81354819D01*
X115873809Y-81354819D02*
X116016666Y-81402438D01*
X116016666Y-81402438D02*
X116111904Y-81497676D01*
X116111904Y-81497676D02*
X116159523Y-81592914D01*
X116159523Y-81592914D02*
X116207142Y-81783390D01*
X116207142Y-81783390D02*
X116207142Y-81926247D01*
X116207142Y-81926247D02*
X116159523Y-82116723D01*
X116159523Y-82116723D02*
X116111904Y-82211961D01*
X116111904Y-82211961D02*
X116016666Y-82307200D01*
X116016666Y-82307200D02*
X115873809Y-82354819D01*
X115873809Y-82354819D02*
X115635714Y-82354819D01*
X116540476Y-81354819D02*
X117159523Y-81354819D01*
X117159523Y-81354819D02*
X116826190Y-81735771D01*
X116826190Y-81735771D02*
X116969047Y-81735771D01*
X116969047Y-81735771D02*
X117064285Y-81783390D01*
X117064285Y-81783390D02*
X117111904Y-81831009D01*
X117111904Y-81831009D02*
X117159523Y-81926247D01*
X117159523Y-81926247D02*
X117159523Y-82164342D01*
X117159523Y-82164342D02*
X117111904Y-82259580D01*
X117111904Y-82259580D02*
X117064285Y-82307200D01*
X117064285Y-82307200D02*
X116969047Y-82354819D01*
X116969047Y-82354819D02*
X116683333Y-82354819D01*
X116683333Y-82354819D02*
X116588095Y-82307200D01*
X116588095Y-82307200D02*
X116540476Y-82259580D01*
X118016666Y-81354819D02*
X117826190Y-81354819D01*
X117826190Y-81354819D02*
X117730952Y-81402438D01*
X117730952Y-81402438D02*
X117683333Y-81450057D01*
X117683333Y-81450057D02*
X117588095Y-81592914D01*
X117588095Y-81592914D02*
X117540476Y-81783390D01*
X117540476Y-81783390D02*
X117540476Y-82164342D01*
X117540476Y-82164342D02*
X117588095Y-82259580D01*
X117588095Y-82259580D02*
X117635714Y-82307200D01*
X117635714Y-82307200D02*
X117730952Y-82354819D01*
X117730952Y-82354819D02*
X117921428Y-82354819D01*
X117921428Y-82354819D02*
X118016666Y-82307200D01*
X118016666Y-82307200D02*
X118064285Y-82259580D01*
X118064285Y-82259580D02*
X118111904Y-82164342D01*
X118111904Y-82164342D02*
X118111904Y-81926247D01*
X118111904Y-81926247D02*
X118064285Y-81831009D01*
X118064285Y-81831009D02*
X118016666Y-81783390D01*
X118016666Y-81783390D02*
X117921428Y-81735771D01*
X117921428Y-81735771D02*
X117730952Y-81735771D01*
X117730952Y-81735771D02*
X117635714Y-81783390D01*
X117635714Y-81783390D02*
X117588095Y-81831009D01*
X117588095Y-81831009D02*
X117540476Y-81926247D01*
X185254214Y-73054819D02*
X185254214Y-72054819D01*
X185254214Y-72054819D02*
X185492309Y-72054819D01*
X185492309Y-72054819D02*
X185635166Y-72102438D01*
X185635166Y-72102438D02*
X185730404Y-72197676D01*
X185730404Y-72197676D02*
X185778023Y-72292914D01*
X185778023Y-72292914D02*
X185825642Y-72483390D01*
X185825642Y-72483390D02*
X185825642Y-72626247D01*
X185825642Y-72626247D02*
X185778023Y-72816723D01*
X185778023Y-72816723D02*
X185730404Y-72911961D01*
X185730404Y-72911961D02*
X185635166Y-73007200D01*
X185635166Y-73007200D02*
X185492309Y-73054819D01*
X185492309Y-73054819D02*
X185254214Y-73054819D01*
X186682785Y-72388152D02*
X186682785Y-73054819D01*
X186444690Y-72007200D02*
X186206595Y-72721485D01*
X186206595Y-72721485D02*
X186825642Y-72721485D01*
X187254214Y-73054819D02*
X187444690Y-73054819D01*
X187444690Y-73054819D02*
X187539928Y-73007200D01*
X187539928Y-73007200D02*
X187587547Y-72959580D01*
X187587547Y-72959580D02*
X187682785Y-72816723D01*
X187682785Y-72816723D02*
X187730404Y-72626247D01*
X187730404Y-72626247D02*
X187730404Y-72245295D01*
X187730404Y-72245295D02*
X187682785Y-72150057D01*
X187682785Y-72150057D02*
X187635166Y-72102438D01*
X187635166Y-72102438D02*
X187539928Y-72054819D01*
X187539928Y-72054819D02*
X187349452Y-72054819D01*
X187349452Y-72054819D02*
X187254214Y-72102438D01*
X187254214Y-72102438D02*
X187206595Y-72150057D01*
X187206595Y-72150057D02*
X187158976Y-72245295D01*
X187158976Y-72245295D02*
X187158976Y-72483390D01*
X187158976Y-72483390D02*
X187206595Y-72578628D01*
X187206595Y-72578628D02*
X187254214Y-72626247D01*
X187254214Y-72626247D02*
X187349452Y-72673866D01*
X187349452Y-72673866D02*
X187539928Y-72673866D01*
X187539928Y-72673866D02*
X187635166Y-72626247D01*
X187635166Y-72626247D02*
X187682785Y-72578628D01*
X187682785Y-72578628D02*
X187730404Y-72483390D01*
X180766705Y-52949819D02*
X180766705Y-51949819D01*
X180766705Y-51949819D02*
X181004800Y-51949819D01*
X181004800Y-51949819D02*
X181147657Y-51997438D01*
X181147657Y-51997438D02*
X181242895Y-52092676D01*
X181242895Y-52092676D02*
X181290514Y-52187914D01*
X181290514Y-52187914D02*
X181338133Y-52378390D01*
X181338133Y-52378390D02*
X181338133Y-52521247D01*
X181338133Y-52521247D02*
X181290514Y-52711723D01*
X181290514Y-52711723D02*
X181242895Y-52806961D01*
X181242895Y-52806961D02*
X181147657Y-52902200D01*
X181147657Y-52902200D02*
X181004800Y-52949819D01*
X181004800Y-52949819D02*
X180766705Y-52949819D01*
X182195276Y-51949819D02*
X182004800Y-51949819D01*
X182004800Y-51949819D02*
X181909562Y-51997438D01*
X181909562Y-51997438D02*
X181861943Y-52045057D01*
X181861943Y-52045057D02*
X181766705Y-52187914D01*
X181766705Y-52187914D02*
X181719086Y-52378390D01*
X181719086Y-52378390D02*
X181719086Y-52759342D01*
X181719086Y-52759342D02*
X181766705Y-52854580D01*
X181766705Y-52854580D02*
X181814324Y-52902200D01*
X181814324Y-52902200D02*
X181909562Y-52949819D01*
X181909562Y-52949819D02*
X182100038Y-52949819D01*
X182100038Y-52949819D02*
X182195276Y-52902200D01*
X182195276Y-52902200D02*
X182242895Y-52854580D01*
X182242895Y-52854580D02*
X182290514Y-52759342D01*
X182290514Y-52759342D02*
X182290514Y-52521247D01*
X182290514Y-52521247D02*
X182242895Y-52426009D01*
X182242895Y-52426009D02*
X182195276Y-52378390D01*
X182195276Y-52378390D02*
X182100038Y-52330771D01*
X182100038Y-52330771D02*
X181909562Y-52330771D01*
X181909562Y-52330771D02*
X181814324Y-52378390D01*
X181814324Y-52378390D02*
X181766705Y-52426009D01*
X181766705Y-52426009D02*
X181719086Y-52521247D01*
X144172014Y-53549819D02*
X144172014Y-52549819D01*
X144172014Y-52549819D02*
X144410109Y-52549819D01*
X144410109Y-52549819D02*
X144552966Y-52597438D01*
X144552966Y-52597438D02*
X144648204Y-52692676D01*
X144648204Y-52692676D02*
X144695823Y-52787914D01*
X144695823Y-52787914D02*
X144743442Y-52978390D01*
X144743442Y-52978390D02*
X144743442Y-53121247D01*
X144743442Y-53121247D02*
X144695823Y-53311723D01*
X144695823Y-53311723D02*
X144648204Y-53406961D01*
X144648204Y-53406961D02*
X144552966Y-53502200D01*
X144552966Y-53502200D02*
X144410109Y-53549819D01*
X144410109Y-53549819D02*
X144172014Y-53549819D01*
X145695823Y-53549819D02*
X145124395Y-53549819D01*
X145410109Y-53549819D02*
X145410109Y-52549819D01*
X145410109Y-52549819D02*
X145314871Y-52692676D01*
X145314871Y-52692676D02*
X145219633Y-52787914D01*
X145219633Y-52787914D02*
X145124395Y-52835533D01*
X146029157Y-52549819D02*
X146695823Y-52549819D01*
X146695823Y-52549819D02*
X146267252Y-53549819D01*
X161603214Y-36549819D02*
X161603214Y-35549819D01*
X161603214Y-35549819D02*
X161841309Y-35549819D01*
X161841309Y-35549819D02*
X161984166Y-35597438D01*
X161984166Y-35597438D02*
X162079404Y-35692676D01*
X162079404Y-35692676D02*
X162127023Y-35787914D01*
X162127023Y-35787914D02*
X162174642Y-35978390D01*
X162174642Y-35978390D02*
X162174642Y-36121247D01*
X162174642Y-36121247D02*
X162127023Y-36311723D01*
X162127023Y-36311723D02*
X162079404Y-36406961D01*
X162079404Y-36406961D02*
X161984166Y-36502200D01*
X161984166Y-36502200D02*
X161841309Y-36549819D01*
X161841309Y-36549819D02*
X161603214Y-36549819D01*
X162555595Y-35645057D02*
X162603214Y-35597438D01*
X162603214Y-35597438D02*
X162698452Y-35549819D01*
X162698452Y-35549819D02*
X162936547Y-35549819D01*
X162936547Y-35549819D02*
X163031785Y-35597438D01*
X163031785Y-35597438D02*
X163079404Y-35645057D01*
X163079404Y-35645057D02*
X163127023Y-35740295D01*
X163127023Y-35740295D02*
X163127023Y-35835533D01*
X163127023Y-35835533D02*
X163079404Y-35978390D01*
X163079404Y-35978390D02*
X162507976Y-36549819D01*
X162507976Y-36549819D02*
X163127023Y-36549819D01*
X164031785Y-35549819D02*
X163555595Y-35549819D01*
X163555595Y-35549819D02*
X163507976Y-36026009D01*
X163507976Y-36026009D02*
X163555595Y-35978390D01*
X163555595Y-35978390D02*
X163650833Y-35930771D01*
X163650833Y-35930771D02*
X163888928Y-35930771D01*
X163888928Y-35930771D02*
X163984166Y-35978390D01*
X163984166Y-35978390D02*
X164031785Y-36026009D01*
X164031785Y-36026009D02*
X164079404Y-36121247D01*
X164079404Y-36121247D02*
X164079404Y-36359342D01*
X164079404Y-36359342D02*
X164031785Y-36454580D01*
X164031785Y-36454580D02*
X163984166Y-36502200D01*
X163984166Y-36502200D02*
X163888928Y-36549819D01*
X163888928Y-36549819D02*
X163650833Y-36549819D01*
X163650833Y-36549819D02*
X163555595Y-36502200D01*
X163555595Y-36502200D02*
X163507976Y-36454580D01*
X144321714Y-36524819D02*
X144321714Y-35524819D01*
X144321714Y-35524819D02*
X144559809Y-35524819D01*
X144559809Y-35524819D02*
X144702666Y-35572438D01*
X144702666Y-35572438D02*
X144797904Y-35667676D01*
X144797904Y-35667676D02*
X144845523Y-35762914D01*
X144845523Y-35762914D02*
X144893142Y-35953390D01*
X144893142Y-35953390D02*
X144893142Y-36096247D01*
X144893142Y-36096247D02*
X144845523Y-36286723D01*
X144845523Y-36286723D02*
X144797904Y-36381961D01*
X144797904Y-36381961D02*
X144702666Y-36477200D01*
X144702666Y-36477200D02*
X144559809Y-36524819D01*
X144559809Y-36524819D02*
X144321714Y-36524819D01*
X145845523Y-36524819D02*
X145274095Y-36524819D01*
X145559809Y-36524819D02*
X145559809Y-35524819D01*
X145559809Y-35524819D02*
X145464571Y-35667676D01*
X145464571Y-35667676D02*
X145369333Y-35762914D01*
X145369333Y-35762914D02*
X145274095Y-35810533D01*
X146702666Y-35524819D02*
X146512190Y-35524819D01*
X146512190Y-35524819D02*
X146416952Y-35572438D01*
X146416952Y-35572438D02*
X146369333Y-35620057D01*
X146369333Y-35620057D02*
X146274095Y-35762914D01*
X146274095Y-35762914D02*
X146226476Y-35953390D01*
X146226476Y-35953390D02*
X146226476Y-36334342D01*
X146226476Y-36334342D02*
X146274095Y-36429580D01*
X146274095Y-36429580D02*
X146321714Y-36477200D01*
X146321714Y-36477200D02*
X146416952Y-36524819D01*
X146416952Y-36524819D02*
X146607428Y-36524819D01*
X146607428Y-36524819D02*
X146702666Y-36477200D01*
X146702666Y-36477200D02*
X146750285Y-36429580D01*
X146750285Y-36429580D02*
X146797904Y-36334342D01*
X146797904Y-36334342D02*
X146797904Y-36096247D01*
X146797904Y-36096247D02*
X146750285Y-36001009D01*
X146750285Y-36001009D02*
X146702666Y-35953390D01*
X146702666Y-35953390D02*
X146607428Y-35905771D01*
X146607428Y-35905771D02*
X146416952Y-35905771D01*
X146416952Y-35905771D02*
X146321714Y-35953390D01*
X146321714Y-35953390D02*
X146274095Y-36001009D01*
X146274095Y-36001009D02*
X146226476Y-36096247D01*
X161603214Y-88549819D02*
X161603214Y-87549819D01*
X161603214Y-87549819D02*
X161841309Y-87549819D01*
X161841309Y-87549819D02*
X161984166Y-87597438D01*
X161984166Y-87597438D02*
X162079404Y-87692676D01*
X162079404Y-87692676D02*
X162127023Y-87787914D01*
X162127023Y-87787914D02*
X162174642Y-87978390D01*
X162174642Y-87978390D02*
X162174642Y-88121247D01*
X162174642Y-88121247D02*
X162127023Y-88311723D01*
X162127023Y-88311723D02*
X162079404Y-88406961D01*
X162079404Y-88406961D02*
X161984166Y-88502200D01*
X161984166Y-88502200D02*
X161841309Y-88549819D01*
X161841309Y-88549819D02*
X161603214Y-88549819D01*
X162555595Y-87645057D02*
X162603214Y-87597438D01*
X162603214Y-87597438D02*
X162698452Y-87549819D01*
X162698452Y-87549819D02*
X162936547Y-87549819D01*
X162936547Y-87549819D02*
X163031785Y-87597438D01*
X163031785Y-87597438D02*
X163079404Y-87645057D01*
X163079404Y-87645057D02*
X163127023Y-87740295D01*
X163127023Y-87740295D02*
X163127023Y-87835533D01*
X163127023Y-87835533D02*
X163079404Y-87978390D01*
X163079404Y-87978390D02*
X162507976Y-88549819D01*
X162507976Y-88549819D02*
X163127023Y-88549819D01*
X163507976Y-87645057D02*
X163555595Y-87597438D01*
X163555595Y-87597438D02*
X163650833Y-87549819D01*
X163650833Y-87549819D02*
X163888928Y-87549819D01*
X163888928Y-87549819D02*
X163984166Y-87597438D01*
X163984166Y-87597438D02*
X164031785Y-87645057D01*
X164031785Y-87645057D02*
X164079404Y-87740295D01*
X164079404Y-87740295D02*
X164079404Y-87835533D01*
X164079404Y-87835533D02*
X164031785Y-87978390D01*
X164031785Y-87978390D02*
X163460357Y-88549819D01*
X163460357Y-88549819D02*
X164079404Y-88549819D01*
D13*
%TO.C,G\u002A\u002A\u002A*%
G36*
X125261541Y-111151915D02*
G01*
X126100692Y-111204033D01*
X126946858Y-111315973D01*
X127811175Y-111490781D01*
X128704780Y-111731506D01*
X129638811Y-112041195D01*
X130624404Y-112422895D01*
X131672696Y-112879654D01*
X131815503Y-112945326D01*
X132695270Y-113328979D01*
X133522795Y-113638515D01*
X134320373Y-113879043D01*
X135110303Y-114055671D01*
X135914882Y-114173509D01*
X136756407Y-114237665D01*
X137526423Y-114253800D01*
X138804363Y-114200287D01*
X140071839Y-114041629D01*
X141331786Y-113777098D01*
X142587137Y-113405965D01*
X143840824Y-112927504D01*
X144964835Y-112407181D01*
X145238609Y-112268047D01*
X145496114Y-112133677D01*
X145712525Y-112017264D01*
X145863021Y-111931999D01*
X145889727Y-111915655D01*
X146034753Y-111839918D01*
X146133769Y-111819254D01*
X146153843Y-111828105D01*
X146144501Y-111889801D01*
X146088564Y-112036537D01*
X145990901Y-112257517D01*
X145856380Y-112541943D01*
X145689870Y-112879020D01*
X145599934Y-113056501D01*
X144997487Y-114236360D01*
X146333796Y-114236360D01*
X146736265Y-114238343D01*
X147081051Y-114244006D01*
X147356833Y-114252923D01*
X147552289Y-114264665D01*
X147656099Y-114278805D01*
X147670106Y-114286836D01*
X147629913Y-114347221D01*
X147516751Y-114466523D01*
X147341746Y-114634660D01*
X147116026Y-114841548D01*
X146850717Y-115077106D01*
X146556946Y-115331251D01*
X146245840Y-115593901D01*
X146038415Y-115765376D01*
X145105446Y-116502392D01*
X144166362Y-117191014D01*
X143234192Y-117822794D01*
X142321964Y-118389284D01*
X141442708Y-118882035D01*
X140609453Y-119292599D01*
X140574550Y-119308418D01*
X140179586Y-119475969D01*
X139733242Y-119647459D01*
X139267172Y-119812045D01*
X138813027Y-119958882D01*
X138402459Y-120077126D01*
X138151905Y-120138404D01*
X137799532Y-120195488D01*
X137356918Y-120234839D01*
X136841109Y-120256684D01*
X136269151Y-120261250D01*
X135658090Y-120248763D01*
X135024973Y-120219450D01*
X134386844Y-120173537D01*
X133760750Y-120111251D01*
X133474389Y-120076241D01*
X132899779Y-119994918D01*
X132332326Y-119900523D01*
X131756644Y-119789480D01*
X131157347Y-119658215D01*
X130519049Y-119503155D01*
X129826364Y-119320723D01*
X129063906Y-119107347D01*
X128216290Y-118859452D01*
X128143895Y-118837889D01*
X127143196Y-118543831D01*
X126236887Y-118287103D01*
X125933079Y-118205189D01*
X131307348Y-118205189D01*
X131362766Y-118347325D01*
X131465633Y-118407441D01*
X131603125Y-118394073D01*
X131762420Y-118315756D01*
X131930695Y-118181027D01*
X132095126Y-117998420D01*
X132242890Y-117776471D01*
X132361165Y-117523716D01*
X132370791Y-117497318D01*
X132454296Y-117312064D01*
X132536734Y-117231902D01*
X132560434Y-117227794D01*
X132610504Y-117242709D01*
X132654584Y-117296865D01*
X132697240Y-117404379D01*
X132743042Y-117579365D01*
X132796558Y-117835942D01*
X132850886Y-118125225D01*
X132922590Y-118441556D01*
X133007767Y-118660775D01*
X133113709Y-118794374D01*
X133247708Y-118853843D01*
X133316816Y-118859486D01*
X133460855Y-118829383D01*
X133552007Y-118774098D01*
X133650904Y-118610717D01*
X133683109Y-118381193D01*
X133648301Y-118080044D01*
X133546161Y-117701789D01*
X133477736Y-117503838D01*
X133401930Y-117298106D01*
X133349244Y-117158101D01*
X135551523Y-117158101D01*
X135559162Y-117663644D01*
X135623592Y-118081921D01*
X135747547Y-118420058D01*
X135933757Y-118685184D01*
X136184955Y-118884427D01*
X136221070Y-118905060D01*
X136378404Y-118950844D01*
X136594218Y-118964200D01*
X136823404Y-118945892D01*
X137020849Y-118896685D01*
X137034285Y-118891285D01*
X137221585Y-118769590D01*
X137317971Y-118592587D01*
X137336059Y-118433763D01*
X137309991Y-118302155D01*
X137223564Y-118236984D01*
X137064442Y-118233751D01*
X136886998Y-118270029D01*
X136687033Y-118306621D01*
X136544510Y-118283531D01*
X136423375Y-118186526D01*
X136316821Y-118044935D01*
X136193476Y-117803299D01*
X136115773Y-117524097D01*
X136083100Y-117231098D01*
X136094847Y-116948072D01*
X136150400Y-116698790D01*
X136249149Y-116507021D01*
X136358876Y-116410968D01*
X136462273Y-116377618D01*
X136582310Y-116398196D01*
X136686894Y-116440727D01*
X136877260Y-116503492D01*
X136998451Y-116485476D01*
X137056667Y-116384327D01*
X137064111Y-116297701D01*
X137015073Y-116113324D01*
X137616226Y-116113324D01*
X137625389Y-116299079D01*
X137649131Y-116589106D01*
X137682593Y-116912575D01*
X137723034Y-117250544D01*
X137767711Y-117584066D01*
X137813881Y-117894198D01*
X137858802Y-118161995D01*
X137899730Y-118368512D01*
X137933923Y-118494805D01*
X137947113Y-118521336D01*
X138048048Y-118565609D01*
X138237616Y-118573589D01*
X138502312Y-118546400D01*
X138828628Y-118485167D01*
X139065023Y-118428254D01*
X139377405Y-118333463D01*
X139587572Y-118236394D01*
X139702076Y-118133259D01*
X139729207Y-118044300D01*
X139690828Y-117923335D01*
X139572663Y-117861611D01*
X139370167Y-117858124D01*
X139103929Y-117905849D01*
X138887007Y-117949503D01*
X138690805Y-117976199D01*
X138556901Y-117980322D01*
X138554493Y-117980063D01*
X138396659Y-117962056D01*
X138354784Y-117418158D01*
X138317718Y-117035359D01*
X138267450Y-116657588D01*
X138208302Y-116309796D01*
X138144593Y-116016930D01*
X138080646Y-115803940D01*
X138071028Y-115779770D01*
X137994022Y-115647593D01*
X137983808Y-115642498D01*
X139348479Y-115642498D01*
X139366632Y-115804642D01*
X139415624Y-116040097D01*
X139487257Y-116321109D01*
X139573333Y-116619926D01*
X139665653Y-116908792D01*
X139756019Y-117159954D01*
X139836232Y-117345658D01*
X139868588Y-117403193D01*
X140078125Y-117629078D01*
X140352731Y-117770655D01*
X140683608Y-117823466D01*
X140698808Y-117823677D01*
X140885554Y-117815799D01*
X141010654Y-117777787D01*
X141120286Y-117693874D01*
X141142396Y-117672223D01*
X141298221Y-117444594D01*
X141388293Y-117137731D01*
X141412876Y-116749297D01*
X141372239Y-116276954D01*
X141330372Y-116023631D01*
X141242063Y-115641044D01*
X141138371Y-115351797D01*
X141021608Y-115160913D01*
X140894085Y-115073415D01*
X140892928Y-115073120D01*
X140738597Y-115073060D01*
X140642066Y-115162848D01*
X140604141Y-115339677D01*
X140625633Y-115600738D01*
X140675451Y-115828224D01*
X140728909Y-116080024D01*
X140770672Y-116365468D01*
X140797723Y-116651107D01*
X140807048Y-116903495D01*
X140795630Y-117089187D01*
X140791245Y-117112465D01*
X140718101Y-117253601D01*
X140596084Y-117324667D01*
X140458313Y-117311646D01*
X140402706Y-117276895D01*
X140349286Y-117222546D01*
X140301037Y-117144624D01*
X140251825Y-117026288D01*
X140195516Y-116850697D01*
X140125978Y-116601010D01*
X140048081Y-116303169D01*
X139959310Y-115965616D01*
X139888845Y-115718470D01*
X139830682Y-115546111D01*
X139778815Y-115432919D01*
X139727240Y-115363273D01*
X139670933Y-115322075D01*
X139568802Y-115276521D01*
X139500357Y-115294305D01*
X139433949Y-115355234D01*
X139376611Y-115465041D01*
X139348938Y-115621129D01*
X139348479Y-115642498D01*
X137983808Y-115642498D01*
X137895519Y-115598455D01*
X137857451Y-115596103D01*
X137739783Y-115622119D01*
X137663134Y-115708582D01*
X137623336Y-115868111D01*
X137616226Y-116113324D01*
X137015073Y-116113324D01*
X137014313Y-116110467D01*
X136883108Y-115942679D01*
X136697780Y-115818185D01*
X136485612Y-115760832D01*
X136448354Y-115759475D01*
X136177376Y-115805983D01*
X135950545Y-115947684D01*
X135761976Y-116188639D01*
X135722418Y-116260416D01*
X135654461Y-116403899D01*
X135608896Y-116541412D01*
X135580010Y-116702961D01*
X135562090Y-116918553D01*
X135551523Y-117158101D01*
X133349244Y-117158101D01*
X133336638Y-117124601D01*
X133293788Y-117014931D01*
X133288612Y-117002636D01*
X133295096Y-116922536D01*
X133370746Y-116794698D01*
X133521951Y-116608813D01*
X133557574Y-116568518D01*
X133772128Y-116315478D01*
X133912909Y-116115852D01*
X133989318Y-115952950D01*
X134010761Y-115810085D01*
X134007953Y-115769258D01*
X133966429Y-115653149D01*
X133858585Y-115607982D01*
X133849946Y-115606900D01*
X133722866Y-115631092D01*
X133545134Y-115730050D01*
X133311630Y-115907290D01*
X133017232Y-116166329D01*
X132966430Y-116213458D01*
X132757614Y-116408317D01*
X132788778Y-116151782D01*
X132818610Y-115798742D01*
X132829390Y-115424741D01*
X132826756Y-115264109D01*
X132781740Y-115100216D01*
X132676099Y-114966147D01*
X132597566Y-114914742D01*
X141589065Y-114914742D01*
X141592038Y-115077662D01*
X141620184Y-115203203D01*
X141655867Y-115331260D01*
X141712659Y-115529232D01*
X141783998Y-115774833D01*
X141863318Y-116045774D01*
X141944056Y-116319768D01*
X142019648Y-116574527D01*
X142083531Y-116787765D01*
X142129140Y-116937192D01*
X142148360Y-116996638D01*
X142221974Y-117051414D01*
X142369591Y-117062044D01*
X142567064Y-117031270D01*
X142790241Y-116961838D01*
X142911500Y-116909919D01*
X143213175Y-116733314D01*
X143432842Y-116531882D01*
X143560815Y-116316436D01*
X143590793Y-116151705D01*
X143543830Y-115883928D01*
X143416725Y-115639276D01*
X143233903Y-115459880D01*
X143126620Y-115380066D01*
X143096367Y-115309642D01*
X143128051Y-115200145D01*
X143142147Y-115165234D01*
X143189215Y-114936898D01*
X143164073Y-114699937D01*
X143073147Y-114499186D01*
X143041138Y-114460178D01*
X142876915Y-114361639D01*
X142647823Y-114341347D01*
X142363761Y-114398534D01*
X142034624Y-114532436D01*
X142020988Y-114539213D01*
X141790441Y-114667218D01*
X141650833Y-114785161D01*
X141589065Y-114914742D01*
X132597566Y-114914742D01*
X132535275Y-114873969D01*
X132384708Y-114835749D01*
X132249837Y-114863554D01*
X132165319Y-114950370D01*
X132135665Y-115050345D01*
X132103432Y-115231202D01*
X132072941Y-115465262D01*
X132052805Y-115671034D01*
X132008346Y-116100782D01*
X131948191Y-116459509D01*
X131862324Y-116784825D01*
X131740729Y-117114341D01*
X131573390Y-117485667D01*
X131564761Y-117503677D01*
X131450747Y-117755203D01*
X131364910Y-117972596D01*
X131315447Y-118133518D01*
X131307348Y-118205189D01*
X125933079Y-118205189D01*
X125417731Y-118066239D01*
X124678493Y-117879771D01*
X124011938Y-117726231D01*
X123410830Y-117604150D01*
X122867933Y-117512062D01*
X122376011Y-117448499D01*
X121927830Y-117411992D01*
X121516153Y-117401074D01*
X121133745Y-117414277D01*
X121127922Y-117414670D01*
X120808305Y-117435476D01*
X120579604Y-117455326D01*
X120424699Y-117485952D01*
X120326470Y-117539086D01*
X120267795Y-117626460D01*
X120231555Y-117759807D01*
X120200629Y-117950859D01*
X120183378Y-118061941D01*
X120100166Y-118630733D01*
X120036274Y-119189816D01*
X119987637Y-119780013D01*
X119953680Y-120368801D01*
X119916081Y-121143854D01*
X119515792Y-121143854D01*
X119115503Y-121143854D01*
X119115503Y-120856049D01*
X119129036Y-120558626D01*
X119167281Y-120176597D01*
X119226703Y-119730403D01*
X119303769Y-119240486D01*
X119394944Y-118727288D01*
X119496694Y-118211251D01*
X119605486Y-117712816D01*
X119717785Y-117252426D01*
X119775669Y-117037430D01*
X119950894Y-116461072D01*
X120168827Y-115824835D01*
X120190795Y-115765938D01*
X122982475Y-115765938D01*
X123013173Y-115918953D01*
X123042440Y-115965953D01*
X123139661Y-116011767D01*
X123282983Y-116031215D01*
X123285302Y-116031220D01*
X123487561Y-115978013D01*
X123692952Y-115822323D01*
X123895310Y-115570051D01*
X124055269Y-115294061D01*
X124255331Y-114901357D01*
X124690449Y-115066230D01*
X124888239Y-115141543D01*
X125041749Y-115200690D01*
X125126902Y-115234365D01*
X125136373Y-115238578D01*
X125130330Y-115291169D01*
X125105120Y-115425914D01*
X125065381Y-115618824D01*
X125041191Y-115731063D01*
X124979876Y-116028702D01*
X124947199Y-116241727D01*
X124942781Y-116390361D01*
X124966246Y-116494829D01*
X125017212Y-116575353D01*
X125025217Y-116584432D01*
X125167337Y-116674511D01*
X125218559Y-116669897D01*
X126355136Y-116669897D01*
X126357827Y-116783943D01*
X126402603Y-116861911D01*
X126457624Y-116901193D01*
X126604136Y-116921374D01*
X126771638Y-116846543D01*
X126946897Y-116684949D01*
X127070769Y-116519032D01*
X127246766Y-116248976D01*
X127573104Y-116283281D01*
X127747201Y-116302725D01*
X127869971Y-116318601D01*
X127910842Y-116326310D01*
X127901818Y-116378288D01*
X127867159Y-116505965D01*
X127815660Y-116677480D01*
X127735355Y-116982926D01*
X127713810Y-117204007D01*
X127752896Y-117349079D01*
X127854486Y-117426494D01*
X127987721Y-117445353D01*
X128147046Y-117397793D01*
X128301952Y-117279230D01*
X128428016Y-117097591D01*
X128543534Y-116824483D01*
X128645139Y-116476981D01*
X128645844Y-116473598D01*
X129289541Y-116473598D01*
X129290073Y-116787015D01*
X129309654Y-117080983D01*
X129347740Y-117319375D01*
X129369803Y-117396174D01*
X129510916Y-117668863D01*
X129709836Y-117881445D01*
X129947121Y-118024698D01*
X130203331Y-118089402D01*
X130459026Y-118066336D01*
X130627670Y-117992800D01*
X130788715Y-117853761D01*
X130843618Y-117699541D01*
X130791249Y-117533500D01*
X130785354Y-117524275D01*
X130675701Y-117420571D01*
X130514921Y-117390963D01*
X130299152Y-117346465D01*
X130143856Y-117217439D01*
X130050264Y-117010587D01*
X130019605Y-116732613D01*
X130053110Y-116390221D01*
X130152007Y-115990113D01*
X130220544Y-115786467D01*
X130368639Y-115437292D01*
X130521046Y-115192881D01*
X130676511Y-115054115D01*
X130833777Y-115021872D01*
X130991588Y-115097033D01*
X131078777Y-115185210D01*
X131199418Y-115257260D01*
X131347235Y-115259417D01*
X131451091Y-115204497D01*
X131491404Y-115112740D01*
X131514347Y-114960805D01*
X131516359Y-114899914D01*
X131501271Y-114729346D01*
X131440292Y-114598841D01*
X131331434Y-114475674D01*
X131221048Y-114374187D01*
X131121468Y-114318687D01*
X130992887Y-114295450D01*
X130795499Y-114290749D01*
X130795127Y-114290749D01*
X130467301Y-114329536D01*
X130190746Y-114453546D01*
X129940447Y-114674255D01*
X129927510Y-114688786D01*
X129838043Y-114818730D01*
X129726656Y-115020784D01*
X129607556Y-115264454D01*
X129494955Y-115519245D01*
X129403059Y-115754662D01*
X129347798Y-115932928D01*
X129308602Y-116176860D01*
X129289541Y-116473598D01*
X128645844Y-116473598D01*
X128729461Y-116072159D01*
X128793132Y-115627090D01*
X128832782Y-115158850D01*
X128845044Y-114684512D01*
X128842740Y-114538242D01*
X128832933Y-114238336D01*
X128819488Y-114024043D01*
X128798719Y-113872198D01*
X128766937Y-113759635D01*
X128720453Y-113663187D01*
X128697255Y-113624475D01*
X128598913Y-113491004D01*
X128500332Y-113432010D01*
X128388687Y-113420514D01*
X128225005Y-113449840D01*
X128068623Y-113544718D01*
X127909333Y-113715493D01*
X127736926Y-113972512D01*
X127594047Y-114225902D01*
X127470136Y-114456063D01*
X127309795Y-114752001D01*
X127129068Y-115084207D01*
X126943997Y-115423172D01*
X126830577Y-115630218D01*
X126632250Y-115999935D01*
X126489080Y-116289030D01*
X126397798Y-116508639D01*
X126355136Y-116669897D01*
X125218559Y-116669897D01*
X125333891Y-116659508D01*
X125522739Y-116539826D01*
X125588467Y-116478548D01*
X125672958Y-116385180D01*
X125745225Y-116279129D01*
X125814191Y-116140743D01*
X125888781Y-115950367D01*
X125977919Y-115688347D01*
X126051550Y-115458741D01*
X126191494Y-115004453D01*
X126315720Y-114577507D01*
X126421050Y-114190632D01*
X126504301Y-113856557D01*
X126562296Y-113588012D01*
X126591852Y-113397726D01*
X126590648Y-113300892D01*
X126506825Y-113159192D01*
X126373806Y-113042607D01*
X126233591Y-112986432D01*
X126215207Y-112985396D01*
X126089530Y-113009767D01*
X125969436Y-113090903D01*
X125844608Y-113240837D01*
X125704729Y-113471601D01*
X125564101Y-113744750D01*
X125277756Y-114328195D01*
X124914194Y-114193808D01*
X124550631Y-114059421D01*
X124586260Y-113744501D01*
X124594484Y-113414108D01*
X124547170Y-113114927D01*
X124451913Y-112863390D01*
X124316310Y-112675928D01*
X124147955Y-112568973D01*
X124034191Y-112550278D01*
X123916714Y-112565309D01*
X123822746Y-112619915D01*
X123744313Y-112728361D01*
X123673443Y-112904917D01*
X123602162Y-113163849D01*
X123541028Y-113432736D01*
X123370424Y-114153831D01*
X123191452Y-114775042D01*
X123082127Y-115095038D01*
X123018364Y-115322998D01*
X122984676Y-115556959D01*
X122982475Y-115765938D01*
X120190795Y-115765938D01*
X120420068Y-115151264D01*
X120695216Y-114462903D01*
X120984872Y-113782294D01*
X121279635Y-113131984D01*
X121570106Y-112534515D01*
X121846884Y-112012432D01*
X121935787Y-111856809D01*
X122060952Y-111653609D01*
X122155304Y-111531693D01*
X122234429Y-111473961D01*
X122295168Y-111462484D01*
X122401866Y-111480919D01*
X122442340Y-111512349D01*
X122498369Y-111520252D01*
X122630041Y-111495714D01*
X122810956Y-111443969D01*
X122846800Y-111432140D01*
X123236293Y-111315069D01*
X123622608Y-111230865D01*
X124030634Y-111176639D01*
X124485260Y-111149505D01*
X125011374Y-111146572D01*
X125261541Y-111151915D01*
G37*
G36*
X128289641Y-114524075D02*
G01*
X128292764Y-114671170D01*
X128283098Y-114861550D01*
X128263562Y-115065482D01*
X128237076Y-115253234D01*
X128206558Y-115395072D01*
X128174927Y-115461265D01*
X128171391Y-115462675D01*
X128090423Y-115459814D01*
X127942052Y-115440499D01*
X127832256Y-115422107D01*
X127547511Y-115370502D01*
X127883938Y-114885026D01*
X128042760Y-114666595D01*
X128166486Y-114518624D01*
X128247145Y-114450078D01*
X128270810Y-114449997D01*
X128289641Y-114524075D01*
G37*
G36*
X143058497Y-115887851D02*
G01*
X143070290Y-115899131D01*
X143148943Y-116039256D01*
X143127663Y-116190975D01*
X143013020Y-116343732D01*
X142811581Y-116486971D01*
X142658396Y-116561177D01*
X142577885Y-116589968D01*
X142527179Y-116577494D01*
X142488925Y-116503742D01*
X142445770Y-116348703D01*
X142434108Y-116302545D01*
X142353651Y-115983145D01*
X142565442Y-115898403D01*
X142784632Y-115828314D01*
X142941178Y-115824785D01*
X143058497Y-115887851D01*
G37*
G36*
X142625460Y-114876369D02*
G01*
X142707952Y-114938182D01*
X142723979Y-115053391D01*
X142678002Y-115192919D01*
X142574485Y-115327687D01*
X142553299Y-115346514D01*
X142402908Y-115454588D01*
X142297738Y-115472363D01*
X142215994Y-115395225D01*
X142152661Y-115261681D01*
X142107081Y-115117157D01*
X142097348Y-115015617D01*
X142105963Y-114994786D01*
X142202480Y-114945602D01*
X142356349Y-114901914D01*
X142516317Y-114875404D01*
X142625460Y-114876369D01*
G37*
D14*
%TO.C,D41*%
X130250000Y-65625000D02*
X130250000Y-70675000D01*
X130700000Y-65175000D02*
X130250000Y-65625000D01*
X131050000Y-67025000D02*
X131050000Y-68825000D01*
X136450000Y-67025000D02*
X136450000Y-68825000D01*
X137250000Y-65175000D02*
X130700000Y-65175000D01*
X137250000Y-70675000D02*
X130250000Y-70675000D01*
X137250000Y-70675000D02*
X137250000Y-65175000D01*
D15*
%TO.C,D5*%
X68097500Y-111140000D02*
X71902500Y-111140000D01*
X68097500Y-112860000D02*
X68097500Y-111140000D01*
X71902500Y-111140000D02*
X71902500Y-112860000D01*
X71902500Y-112860000D02*
X68097500Y-112860000D01*
D16*
X65100000Y-112000000D02*
G75*
G02*
X64900000Y-112000000I-100000J0D01*
G01*
X64900000Y-112000000D02*
G75*
G02*
X65100000Y-112000000I100000J0D01*
G01*
D15*
%TO.C,D3*%
X92366000Y-71640000D02*
X96171000Y-71640000D01*
X92366000Y-73360000D02*
X92366000Y-71640000D01*
X96171000Y-71640000D02*
X96171000Y-73360000D01*
X96171000Y-73360000D02*
X92366000Y-73360000D01*
D16*
X89368500Y-72500000D02*
G75*
G02*
X89168500Y-72500000I-100000J0D01*
G01*
X89168500Y-72500000D02*
G75*
G02*
X89368500Y-72500000I100000J0D01*
G01*
D15*
%TO.C,D1*%
X92597500Y-37140000D02*
X96402500Y-37140000D01*
X92597500Y-38860000D02*
X92597500Y-37140000D01*
X96402500Y-37140000D02*
X96402500Y-38860000D01*
X96402500Y-38860000D02*
X92597500Y-38860000D01*
D16*
X89600000Y-38000000D02*
G75*
G02*
X89400000Y-38000000I-100000J0D01*
G01*
X89400000Y-38000000D02*
G75*
G02*
X89600000Y-38000000I100000J0D01*
G01*
D15*
%TO.C,D2*%
X92866000Y-54140000D02*
X96671000Y-54140000D01*
X92866000Y-55860000D02*
X92866000Y-54140000D01*
X96671000Y-54140000D02*
X96671000Y-55860000D01*
X96671000Y-55860000D02*
X92866000Y-55860000D01*
D16*
X89868500Y-55000000D02*
G75*
G02*
X89668500Y-55000000I-100000J0D01*
G01*
X89668500Y-55000000D02*
G75*
G02*
X89868500Y-55000000I100000J0D01*
G01*
D15*
%TO.C,D18*%
X143547500Y-71690000D02*
X147352500Y-71690000D01*
X143547500Y-73410000D02*
X143547500Y-71690000D01*
X147352500Y-71690000D02*
X147352500Y-73410000D01*
X147352500Y-73410000D02*
X143547500Y-73410000D01*
D16*
X140550000Y-72550000D02*
G75*
G02*
X140350000Y-72550000I-100000J0D01*
G01*
X140350000Y-72550000D02*
G75*
G02*
X140550000Y-72550000I100000J0D01*
G01*
D15*
%TO.C,D14*%
X125842500Y-89014000D02*
X129647500Y-89014000D01*
X125842500Y-90734000D02*
X125842500Y-89014000D01*
X129647500Y-89014000D02*
X129647500Y-90734000D01*
X129647500Y-90734000D02*
X125842500Y-90734000D01*
D16*
X122845000Y-89874000D02*
G75*
G02*
X122645000Y-89874000I-100000J0D01*
G01*
X122645000Y-89874000D02*
G75*
G02*
X122845000Y-89874000I100000J0D01*
G01*
D14*
%TO.C,D33*%
X164550000Y-83200000D02*
X164550000Y-88250000D01*
X165000000Y-82750000D02*
X164550000Y-83200000D01*
X165350000Y-84600000D02*
X165350000Y-86400000D01*
X170750000Y-84600000D02*
X170750000Y-86400000D01*
X171550000Y-82750000D02*
X165000000Y-82750000D01*
X171550000Y-88250000D02*
X164550000Y-88250000D01*
X171550000Y-88250000D02*
X171550000Y-82750000D01*
%TO.C,D31*%
X164650000Y-100400000D02*
X164650000Y-105450000D01*
X165100000Y-99950000D02*
X164650000Y-100400000D01*
X165450000Y-101800000D02*
X165450000Y-103600000D01*
X170850000Y-101800000D02*
X170850000Y-103600000D01*
X171650000Y-99950000D02*
X165100000Y-99950000D01*
X171650000Y-105450000D02*
X164650000Y-105450000D01*
X171650000Y-105450000D02*
X171650000Y-99950000D01*
D16*
%TO.C,U1*%
X143846600Y-123071300D02*
X146056400Y-123071300D01*
X143897400Y-130691300D02*
X143846600Y-123071300D01*
X146052400Y-120025266D02*
X149608400Y-120025266D01*
X146056400Y-123071300D02*
X146056400Y-120023300D01*
X146056400Y-130691300D02*
X144024400Y-130691300D01*
X146056400Y-133739300D02*
X146056400Y-130691300D01*
D15*
X147895400Y-120826500D02*
X148515400Y-120826500D01*
D16*
X149612400Y-114943300D02*
X149612400Y-120023300D01*
X149612400Y-114943300D02*
X158248400Y-114943300D01*
X150120400Y-133739300D02*
X146056400Y-133739300D01*
X150120400Y-137041300D02*
X150120400Y-133739300D01*
X157740400Y-133739300D02*
X157740400Y-137041300D01*
X157740400Y-137041300D02*
X150120400Y-137041300D01*
X158248400Y-114943300D02*
X158248400Y-120023300D01*
X158248400Y-120023300D02*
X161804400Y-120023300D01*
X161804400Y-120023300D02*
X161804400Y-133739300D01*
X161804400Y-133739300D02*
X157740400Y-133739300D01*
X159327900Y-117532551D02*
G75*
G02*
X148532900Y-117532551I-5397500J-9348744D01*
G01*
X155726434Y-126881300D02*
G75*
G02*
X152134366Y-126881300I-1796034J0D01*
G01*
X152134366Y-126881300D02*
G75*
G02*
X155726434Y-126881300I1796034J0D01*
G01*
D14*
%TO.C,A1*%
X60100000Y-47560000D02*
X60100000Y-91000000D01*
X60100000Y-47560000D02*
X65180000Y-47560000D01*
X60100000Y-91000000D02*
X78140000Y-91000000D01*
X62770000Y-50230000D02*
X60100000Y-50230000D01*
X62770000Y-88330000D02*
X60100000Y-88330000D01*
X62770000Y-88330000D02*
X62770000Y-50230000D01*
X65180000Y-45020000D02*
X73060000Y-45020000D01*
X65180000Y-55440000D02*
X65180000Y-45020000D01*
X73060000Y-45020000D02*
X73060000Y-55440000D01*
X73060000Y-55440000D02*
X65180000Y-55440000D01*
X75470000Y-50230000D02*
X78140000Y-50230000D01*
X75470000Y-85790000D02*
X75470000Y-50230000D01*
X75470000Y-85790000D02*
X75470000Y-88330000D01*
X75470000Y-85790000D02*
X78140000Y-85790000D01*
X75470000Y-88330000D02*
X78140000Y-88330000D01*
X78140000Y-47560000D02*
X73060000Y-47560000D01*
X78140000Y-85790000D02*
X78140000Y-47560000D01*
X78140000Y-91000000D02*
X78140000Y-88330000D01*
%TO.C,D35*%
X130225000Y-83050000D02*
X130225000Y-88100000D01*
X130675000Y-82600000D02*
X130225000Y-83050000D01*
X131025000Y-84450000D02*
X131025000Y-86250000D01*
X136425000Y-84450000D02*
X136425000Y-86250000D01*
X137225000Y-82600000D02*
X130675000Y-82600000D01*
X137225000Y-88100000D02*
X130225000Y-88100000D01*
X137225000Y-88100000D02*
X137225000Y-82600000D01*
D15*
%TO.C,D4*%
X92597500Y-89140000D02*
X96402500Y-89140000D01*
X92597500Y-90860000D02*
X92597500Y-89140000D01*
X96402500Y-89140000D02*
X96402500Y-90860000D01*
X96402500Y-90860000D02*
X92597500Y-90860000D01*
D16*
X89600000Y-90000000D02*
G75*
G02*
X89400000Y-90000000I-100000J0D01*
G01*
X89400000Y-90000000D02*
G75*
G02*
X89600000Y-90000000I100000J0D01*
G01*
D15*
%TO.C,D8*%
X109329000Y-71640000D02*
X113134000Y-71640000D01*
X109329000Y-73360000D02*
X109329000Y-71640000D01*
X113134000Y-71640000D02*
X113134000Y-73360000D01*
X113134000Y-73360000D02*
X109329000Y-73360000D01*
D16*
X106331500Y-72500000D02*
G75*
G02*
X106131500Y-72500000I-100000J0D01*
G01*
X106131500Y-72500000D02*
G75*
G02*
X106331500Y-72500000I100000J0D01*
G01*
D15*
%TO.C,D13*%
X126297500Y-71540000D02*
X130102500Y-71540000D01*
X126297500Y-73260000D02*
X126297500Y-71540000D01*
X130102500Y-71540000D02*
X130102500Y-73260000D01*
X130102500Y-73260000D02*
X126297500Y-73260000D01*
D16*
X123300000Y-72400000D02*
G75*
G02*
X123100000Y-72400000I-100000J0D01*
G01*
X123100000Y-72400000D02*
G75*
G02*
X123300000Y-72400000I100000J0D01*
G01*
D14*
%TO.C,D34*%
X147300000Y-83050000D02*
X147300000Y-88100000D01*
X147750000Y-82600000D02*
X147300000Y-83050000D01*
X148100000Y-84450000D02*
X148100000Y-86250000D01*
X153500000Y-84450000D02*
X153500000Y-86250000D01*
X154300000Y-82600000D02*
X147750000Y-82600000D01*
X154300000Y-88100000D02*
X147300000Y-88100000D01*
X154300000Y-88100000D02*
X154300000Y-82600000D01*
%TO.C,D46*%
X130350000Y-48625000D02*
X130350000Y-53675000D01*
X130800000Y-48175000D02*
X130350000Y-48625000D01*
X131150000Y-50025000D02*
X131150000Y-51825000D01*
X136550000Y-50025000D02*
X136550000Y-51825000D01*
X137350000Y-48175000D02*
X130800000Y-48175000D01*
X137350000Y-53675000D02*
X130350000Y-53675000D01*
X137350000Y-53675000D02*
X137350000Y-48175000D01*
%TO.C,D37*%
X96450000Y-83100000D02*
X96450000Y-88150000D01*
X96900000Y-82650000D02*
X96450000Y-83100000D01*
X97250000Y-84500000D02*
X97250000Y-86300000D01*
X102650000Y-84500000D02*
X102650000Y-86300000D01*
X103450000Y-82650000D02*
X96900000Y-82650000D01*
X103450000Y-88150000D02*
X96450000Y-88150000D01*
X103450000Y-88150000D02*
X103450000Y-82650000D01*
%TO.C,D40*%
X147325000Y-65600000D02*
X147325000Y-70650000D01*
X147775000Y-65150000D02*
X147325000Y-65600000D01*
X148125000Y-67000000D02*
X148125000Y-68800000D01*
X153525000Y-67000000D02*
X153525000Y-68800000D01*
X154325000Y-65150000D02*
X147775000Y-65150000D01*
X154325000Y-70650000D02*
X147325000Y-70650000D01*
X154325000Y-70650000D02*
X154325000Y-65150000D01*
D15*
%TO.C,D10*%
X109597500Y-37140000D02*
X113402500Y-37140000D01*
X109597500Y-38860000D02*
X109597500Y-37140000D01*
X113402500Y-37140000D02*
X113402500Y-38860000D01*
X113402500Y-38860000D02*
X109597500Y-38860000D01*
D16*
X106600000Y-38000000D02*
G75*
G02*
X106400000Y-38000000I-100000J0D01*
G01*
X106400000Y-38000000D02*
G75*
G02*
X106600000Y-38000000I100000J0D01*
G01*
D14*
%TO.C,D50*%
X182868500Y-39425000D02*
X182868500Y-44475000D01*
X183318500Y-38975000D02*
X182868500Y-39425000D01*
X183668500Y-40825000D02*
X183668500Y-42625000D01*
X189068500Y-40825000D02*
X189068500Y-42625000D01*
X189868500Y-38975000D02*
X183318500Y-38975000D01*
X189868500Y-44475000D02*
X182868500Y-44475000D01*
X189868500Y-44475000D02*
X189868500Y-38975000D01*
D15*
%TO.C,D23*%
X160597500Y-71640000D02*
X164402500Y-71640000D01*
X160597500Y-73360000D02*
X160597500Y-71640000D01*
X164402500Y-71640000D02*
X164402500Y-73360000D01*
X164402500Y-73360000D02*
X160597500Y-73360000D01*
D16*
X157600000Y-72500000D02*
G75*
G02*
X157400000Y-72500000I-100000J0D01*
G01*
X157400000Y-72500000D02*
G75*
G02*
X157600000Y-72500000I100000J0D01*
G01*
D14*
%TO.C,D38*%
X182825000Y-56475000D02*
X182825000Y-61525000D01*
X183275000Y-56025000D02*
X182825000Y-56475000D01*
X183625000Y-57875000D02*
X183625000Y-59675000D01*
X189025000Y-57875000D02*
X189025000Y-59675000D01*
X189825000Y-56025000D02*
X183275000Y-56025000D01*
X189825000Y-61525000D02*
X182825000Y-61525000D01*
X189825000Y-61525000D02*
X189825000Y-56025000D01*
%TO.C,D47*%
X113350000Y-48725000D02*
X113350000Y-53775000D01*
X113800000Y-48275000D02*
X113350000Y-48725000D01*
X114150000Y-50125000D02*
X114150000Y-51925000D01*
X119550000Y-50125000D02*
X119550000Y-51925000D01*
X120350000Y-48275000D02*
X113800000Y-48275000D01*
X120350000Y-53775000D02*
X113350000Y-53775000D01*
X120350000Y-53775000D02*
X120350000Y-48275000D01*
D15*
%TO.C,D19*%
X143537000Y-88996000D02*
X147342000Y-88996000D01*
X143537000Y-90716000D02*
X143537000Y-88996000D01*
X147342000Y-88996000D02*
X147342000Y-90716000D01*
X147342000Y-90716000D02*
X143537000Y-90716000D01*
D16*
X140539500Y-89856000D02*
G75*
G02*
X140339500Y-89856000I-100000J0D01*
G01*
X140339500Y-89856000D02*
G75*
G02*
X140539500Y-89856000I100000J0D01*
G01*
D14*
%TO.C,D45*%
X147350000Y-48600000D02*
X147350000Y-53650000D01*
X147800000Y-48150000D02*
X147350000Y-48600000D01*
X148150000Y-50000000D02*
X148150000Y-51800000D01*
X153550000Y-50000000D02*
X153550000Y-51800000D01*
X154350000Y-48150000D02*
X147800000Y-48150000D01*
X154350000Y-53650000D02*
X147350000Y-53650000D01*
X154350000Y-53650000D02*
X154350000Y-48150000D01*
D15*
%TO.C,D20*%
X178916000Y-88140000D02*
X182721000Y-88140000D01*
X178916000Y-89860000D02*
X178916000Y-88140000D01*
X182721000Y-88140000D02*
X182721000Y-89860000D01*
X182721000Y-89860000D02*
X178916000Y-89860000D01*
D16*
X175918500Y-89000000D02*
G75*
G02*
X175718500Y-89000000I-100000J0D01*
G01*
X175718500Y-89000000D02*
G75*
G02*
X175918500Y-89000000I100000J0D01*
G01*
D15*
%TO.C,D21*%
X178916000Y-105140000D02*
X182721000Y-105140000D01*
X178916000Y-106860000D02*
X178916000Y-105140000D01*
X182721000Y-105140000D02*
X182721000Y-106860000D01*
X182721000Y-106860000D02*
X178916000Y-106860000D01*
D16*
X175918500Y-106000000D02*
G75*
G02*
X175718500Y-106000000I-100000J0D01*
G01*
X175718500Y-106000000D02*
G75*
G02*
X175918500Y-106000000I100000J0D01*
G01*
D14*
%TO.C,D29*%
X130250000Y-100400000D02*
X130250000Y-105450000D01*
X130700000Y-99950000D02*
X130250000Y-100400000D01*
X131050000Y-101800000D02*
X131050000Y-103600000D01*
X136450000Y-101800000D02*
X136450000Y-103600000D01*
X137250000Y-99950000D02*
X130700000Y-99950000D01*
X137250000Y-105450000D02*
X130250000Y-105450000D01*
X137250000Y-105450000D02*
X137250000Y-99950000D01*
D15*
%TO.C,D12*%
X126366250Y-54640000D02*
X130171250Y-54640000D01*
X126366250Y-56360000D02*
X126366250Y-54640000D01*
X130171250Y-54640000D02*
X130171250Y-56360000D01*
X130171250Y-56360000D02*
X126366250Y-56360000D01*
D16*
X123368750Y-55500000D02*
G75*
G02*
X123168750Y-55500000I-100000J0D01*
G01*
X123168750Y-55500000D02*
G75*
G02*
X123368750Y-55500000I100000J0D01*
G01*
D15*
%TO.C,D24*%
X160597500Y-54140000D02*
X164402500Y-54140000D01*
X160597500Y-55860000D02*
X160597500Y-54140000D01*
X164402500Y-54140000D02*
X164402500Y-55860000D01*
X164402500Y-55860000D02*
X160597500Y-55860000D01*
D16*
X157600000Y-55000000D02*
G75*
G02*
X157400000Y-55000000I-100000J0D01*
G01*
X157400000Y-55000000D02*
G75*
G02*
X157600000Y-55000000I100000J0D01*
G01*
D14*
%TO.C,D32*%
X182968500Y-91100000D02*
X182968500Y-96150000D01*
X183418500Y-90650000D02*
X182968500Y-91100000D01*
X183768500Y-92500000D02*
X183768500Y-94300000D01*
X189168500Y-92500000D02*
X189168500Y-94300000D01*
X189968500Y-90650000D02*
X183418500Y-90650000D01*
X189968500Y-96150000D02*
X182968500Y-96150000D01*
X189968500Y-96150000D02*
X189968500Y-90650000D01*
%TO.C,D26*%
X72150000Y-96500000D02*
X72150000Y-101550000D01*
X72600000Y-96050000D02*
X72150000Y-96500000D01*
X72950000Y-97900000D02*
X72950000Y-99700000D01*
X78350000Y-97900000D02*
X78350000Y-99700000D01*
X79150000Y-96050000D02*
X72600000Y-96050000D01*
X79150000Y-101550000D02*
X72150000Y-101550000D01*
X79150000Y-101550000D02*
X79150000Y-96050000D01*
%TO.C,D39*%
X164525000Y-65650000D02*
X164525000Y-70700000D01*
X164975000Y-65200000D02*
X164525000Y-65650000D01*
X165325000Y-67050000D02*
X165325000Y-68850000D01*
X170725000Y-67050000D02*
X170725000Y-68850000D01*
X171525000Y-65200000D02*
X164975000Y-65200000D01*
X171525000Y-70700000D02*
X164525000Y-70700000D01*
X171525000Y-70700000D02*
X171525000Y-65200000D01*
%TO.C,D28*%
X113300000Y-100500000D02*
X113300000Y-105550000D01*
X113750000Y-100050000D02*
X113300000Y-100500000D01*
X114100000Y-101900000D02*
X114100000Y-103700000D01*
X119500000Y-101900000D02*
X119500000Y-103700000D01*
X120300000Y-100050000D02*
X113750000Y-100050000D01*
X120300000Y-105550000D02*
X113300000Y-105550000D01*
X120300000Y-105550000D02*
X120300000Y-100050000D01*
%TO.C,D42*%
X113325000Y-65625000D02*
X113325000Y-70675000D01*
X113775000Y-65175000D02*
X113325000Y-65625000D01*
X114125000Y-67025000D02*
X114125000Y-68825000D01*
X119525000Y-67025000D02*
X119525000Y-68825000D01*
X120325000Y-65175000D02*
X113775000Y-65175000D01*
X120325000Y-70675000D02*
X113325000Y-70675000D01*
X120325000Y-70675000D02*
X120325000Y-65175000D01*
%TO.C,D44*%
X164550000Y-48725000D02*
X164550000Y-53775000D01*
X165000000Y-48275000D02*
X164550000Y-48725000D01*
X165350000Y-50125000D02*
X165350000Y-51925000D01*
X170750000Y-50125000D02*
X170750000Y-51925000D01*
X171550000Y-48275000D02*
X165000000Y-48275000D01*
X171550000Y-53775000D02*
X164550000Y-53775000D01*
X171550000Y-53775000D02*
X171550000Y-48275000D01*
D16*
%TO.C,U2*%
X171966200Y-123071300D02*
X174176000Y-123071300D01*
X172017000Y-130691300D02*
X171966200Y-123071300D01*
X174172000Y-120025266D02*
X177728000Y-120025266D01*
X174176000Y-123071300D02*
X174176000Y-120023300D01*
X174176000Y-130691300D02*
X172144000Y-130691300D01*
X174176000Y-133739300D02*
X174176000Y-130691300D01*
D15*
X176015000Y-120826500D02*
X176635000Y-120826500D01*
D16*
X177732000Y-114943300D02*
X177732000Y-120023300D01*
X177732000Y-114943300D02*
X186368000Y-114943300D01*
X178240000Y-133739300D02*
X174176000Y-133739300D01*
X178240000Y-137041300D02*
X178240000Y-133739300D01*
X185860000Y-133739300D02*
X185860000Y-137041300D01*
X185860000Y-137041300D02*
X178240000Y-137041300D01*
X186368000Y-114943300D02*
X186368000Y-120023300D01*
X186368000Y-120023300D02*
X189924000Y-120023300D01*
X189924000Y-120023300D02*
X189924000Y-133739300D01*
X189924000Y-133739300D02*
X185860000Y-133739300D01*
X187447500Y-117532551D02*
G75*
G02*
X176652500Y-117532551I-5397500J-9348744D01*
G01*
X183846034Y-126881300D02*
G75*
G02*
X180253966Y-126881300I-1796034J0D01*
G01*
X180253966Y-126881300D02*
G75*
G02*
X183846034Y-126881300I1796034J0D01*
G01*
D15*
%TO.C,D11*%
X126329000Y-37140000D02*
X130134000Y-37140000D01*
X126329000Y-38860000D02*
X126329000Y-37140000D01*
X130134000Y-37140000D02*
X130134000Y-38860000D01*
X130134000Y-38860000D02*
X126329000Y-38860000D01*
D16*
X123331500Y-38000000D02*
G75*
G02*
X123131500Y-38000000I-100000J0D01*
G01*
X123131500Y-38000000D02*
G75*
G02*
X123331500Y-38000000I100000J0D01*
G01*
D14*
%TO.C,D43*%
X96325000Y-65625000D02*
X96325000Y-70675000D01*
X96775000Y-65175000D02*
X96325000Y-65625000D01*
X97125000Y-67025000D02*
X97125000Y-68825000D01*
X102525000Y-67025000D02*
X102525000Y-68825000D01*
X103325000Y-65175000D02*
X96775000Y-65175000D01*
X103325000Y-70675000D02*
X96325000Y-70675000D01*
X103325000Y-70675000D02*
X103325000Y-65175000D01*
D15*
%TO.C,D15*%
X179366000Y-70640000D02*
X183171000Y-70640000D01*
X179366000Y-72360000D02*
X179366000Y-70640000D01*
X183171000Y-70640000D02*
X183171000Y-72360000D01*
X183171000Y-72360000D02*
X179366000Y-72360000D01*
D16*
X176368500Y-71500000D02*
G75*
G02*
X176168500Y-71500000I-100000J0D01*
G01*
X176168500Y-71500000D02*
G75*
G02*
X176368500Y-71500000I100000J0D01*
G01*
D14*
%TO.C,D30*%
X147300000Y-100375000D02*
X147300000Y-105425000D01*
X147750000Y-99925000D02*
X147300000Y-100375000D01*
X148100000Y-101775000D02*
X148100000Y-103575000D01*
X153500000Y-101775000D02*
X153500000Y-103575000D01*
X154300000Y-99925000D02*
X147750000Y-99925000D01*
X154300000Y-105425000D02*
X147300000Y-105425000D01*
X154300000Y-105425000D02*
X154300000Y-99925000D01*
D15*
%TO.C,D9*%
X109597500Y-54140000D02*
X113402500Y-54140000D01*
X109597500Y-55860000D02*
X109597500Y-54140000D01*
X113402500Y-54140000D02*
X113402500Y-55860000D01*
X113402500Y-55860000D02*
X109597500Y-55860000D01*
D16*
X106600000Y-55000000D02*
G75*
G02*
X106400000Y-55000000I-100000J0D01*
G01*
X106400000Y-55000000D02*
G75*
G02*
X106600000Y-55000000I100000J0D01*
G01*
D15*
%TO.C,D7*%
X109597500Y-89140000D02*
X113402500Y-89140000D01*
X109597500Y-90860000D02*
X109597500Y-89140000D01*
X113402500Y-89140000D02*
X113402500Y-90860000D01*
X113402500Y-90860000D02*
X109597500Y-90860000D01*
D16*
X106600000Y-90000000D02*
G75*
G02*
X106400000Y-90000000I-100000J0D01*
G01*
X106400000Y-90000000D02*
G75*
G02*
X106600000Y-90000000I100000J0D01*
G01*
D14*
%TO.C,D48*%
X96350000Y-48625000D02*
X96350000Y-53675000D01*
X96800000Y-48175000D02*
X96350000Y-48625000D01*
X97150000Y-50025000D02*
X97150000Y-51825000D01*
X102550000Y-50025000D02*
X102550000Y-51825000D01*
X103350000Y-48175000D02*
X96800000Y-48175000D01*
X103350000Y-53675000D02*
X96350000Y-53675000D01*
X103350000Y-53675000D02*
X103350000Y-48175000D01*
%TO.C,D27*%
X96300000Y-100500000D02*
X96300000Y-105550000D01*
X96750000Y-100050000D02*
X96300000Y-100500000D01*
X97100000Y-101900000D02*
X97100000Y-103700000D01*
X102500000Y-101900000D02*
X102500000Y-103700000D01*
X103300000Y-100050000D02*
X96750000Y-100050000D01*
X103300000Y-105550000D02*
X96300000Y-105550000D01*
X103300000Y-105550000D02*
X103300000Y-100050000D01*
%TO.C,D36*%
X113350000Y-83100000D02*
X113350000Y-88150000D01*
X113800000Y-82650000D02*
X113350000Y-83100000D01*
X114150000Y-84500000D02*
X114150000Y-86300000D01*
X119550000Y-84500000D02*
X119550000Y-86300000D01*
X120350000Y-82650000D02*
X113800000Y-82650000D01*
X120350000Y-88150000D02*
X113350000Y-88150000D01*
X120350000Y-88150000D02*
X120350000Y-82650000D01*
%TO.C,D49*%
X182968500Y-73800000D02*
X182968500Y-78850000D01*
X183418500Y-73350000D02*
X182968500Y-73800000D01*
X183768500Y-75200000D02*
X183768500Y-77000000D01*
X189168500Y-75200000D02*
X189168500Y-77000000D01*
X189968500Y-73350000D02*
X183418500Y-73350000D01*
X189968500Y-78850000D02*
X182968500Y-78850000D01*
X189968500Y-78850000D02*
X189968500Y-73350000D01*
D15*
%TO.C,D6*%
X179284800Y-53540000D02*
X183089800Y-53540000D01*
X179284800Y-55260000D02*
X179284800Y-53540000D01*
X183089800Y-53540000D02*
X183089800Y-55260000D01*
X183089800Y-55260000D02*
X179284800Y-55260000D01*
D16*
X176287300Y-54400000D02*
G75*
G02*
X176087300Y-54400000I-100000J0D01*
G01*
X176087300Y-54400000D02*
G75*
G02*
X176287300Y-54400000I100000J0D01*
G01*
D15*
%TO.C,D17*%
X143166300Y-54140000D02*
X146971300Y-54140000D01*
X143166300Y-55860000D02*
X143166300Y-54140000D01*
X146971300Y-54140000D02*
X146971300Y-55860000D01*
X146971300Y-55860000D02*
X143166300Y-55860000D01*
D16*
X140168800Y-55000000D02*
G75*
G02*
X139968800Y-55000000I-100000J0D01*
G01*
X139968800Y-55000000D02*
G75*
G02*
X140168800Y-55000000I100000J0D01*
G01*
D15*
%TO.C,D25*%
X160597500Y-37140000D02*
X164402500Y-37140000D01*
X160597500Y-38860000D02*
X160597500Y-37140000D01*
X164402500Y-37140000D02*
X164402500Y-38860000D01*
X164402500Y-38860000D02*
X160597500Y-38860000D01*
D16*
X157600000Y-38000000D02*
G75*
G02*
X157400000Y-38000000I-100000J0D01*
G01*
X157400000Y-38000000D02*
G75*
G02*
X157600000Y-38000000I100000J0D01*
G01*
D15*
%TO.C,D16*%
X143316000Y-37115000D02*
X147121000Y-37115000D01*
X143316000Y-38835000D02*
X143316000Y-37115000D01*
X147121000Y-37115000D02*
X147121000Y-38835000D01*
X147121000Y-38835000D02*
X143316000Y-38835000D01*
D16*
X140318500Y-37975000D02*
G75*
G02*
X140118500Y-37975000I-100000J0D01*
G01*
X140118500Y-37975000D02*
G75*
G02*
X140318500Y-37975000I100000J0D01*
G01*
D15*
%TO.C,D22*%
X160597500Y-89140000D02*
X164402500Y-89140000D01*
X160597500Y-90860000D02*
X160597500Y-89140000D01*
X164402500Y-89140000D02*
X164402500Y-90860000D01*
X164402500Y-90860000D02*
X160597500Y-90860000D01*
D16*
X157600000Y-90000000D02*
G75*
G02*
X157400000Y-90000000I-100000J0D01*
G01*
X157400000Y-90000000D02*
G75*
G02*
X157600000Y-90000000I100000J0D01*
G01*
%TD*%
%LPC*%
D17*
%TO.C,D41*%
X131300000Y-66325000D03*
X131300000Y-69525000D03*
X136200000Y-69525000D03*
X136200000Y-66325000D03*
%TD*%
D18*
%TO.C,D5*%
X73768500Y-112000000D03*
D19*
X66231500Y-112000000D03*
%TD*%
D18*
%TO.C,D3*%
X98037000Y-72500000D03*
D19*
X90500000Y-72500000D03*
%TD*%
D18*
%TO.C,D1*%
X98268500Y-38000000D03*
D19*
X90731500Y-38000000D03*
%TD*%
D18*
%TO.C,D2*%
X98537000Y-55000000D03*
D19*
X91000000Y-55000000D03*
%TD*%
D18*
%TO.C,D18*%
X149218500Y-72550000D03*
D19*
X141681500Y-72550000D03*
%TD*%
D18*
%TO.C,D14*%
X131513500Y-89874000D03*
D19*
X123976500Y-89874000D03*
%TD*%
D17*
%TO.C,D33*%
X165600000Y-83900000D03*
X165600000Y-87100000D03*
X170500000Y-87100000D03*
X170500000Y-83900000D03*
%TD*%
%TO.C,D31*%
X165700000Y-101100000D03*
X165700000Y-104300000D03*
X170600000Y-104300000D03*
X170600000Y-101100000D03*
%TD*%
D20*
%TO.C,U1*%
X150755400Y-116066500D03*
X157105400Y-116086300D03*
X150755400Y-121006500D03*
X157115400Y-121026500D03*
X151405400Y-135756500D03*
X153945400Y-135776500D03*
X156485400Y-135756500D03*
D21*
X147580400Y-121816500D03*
X147580400Y-131946500D03*
X160280400Y-131961300D03*
X160280400Y-121801300D03*
D20*
X145040400Y-124341300D03*
X145025400Y-126866500D03*
X145025400Y-129406500D03*
%TD*%
D22*
%TO.C,A1*%
X76740000Y-87060000D03*
D23*
X76740000Y-84520000D03*
X76740000Y-81980000D03*
X76740000Y-79440000D03*
X76740000Y-76900000D03*
X76740000Y-74360000D03*
X76740000Y-71820000D03*
X76740000Y-69280000D03*
X76740000Y-66740000D03*
X76740000Y-64200000D03*
X76740000Y-61660000D03*
X76740000Y-59120000D03*
X76740000Y-56580000D03*
X76740000Y-54040000D03*
X76740000Y-51500000D03*
X61500000Y-51500000D03*
X61500000Y-54040000D03*
X61500000Y-56580000D03*
X61500000Y-59120000D03*
X61500000Y-61660000D03*
X61500000Y-64200000D03*
X61500000Y-66740000D03*
X61500000Y-69280000D03*
X61500000Y-71820000D03*
X61500000Y-74360000D03*
X61500000Y-76900000D03*
X61500000Y-79440000D03*
X61500000Y-81980000D03*
X61500000Y-84520000D03*
X61500000Y-87060000D03*
%TD*%
D17*
%TO.C,D35*%
X131275000Y-83750000D03*
X131275000Y-86950000D03*
X136175000Y-86950000D03*
X136175000Y-83750000D03*
%TD*%
D18*
%TO.C,D4*%
X98268500Y-90000000D03*
D19*
X90731500Y-90000000D03*
%TD*%
D18*
%TO.C,D8*%
X115000000Y-72500000D03*
D19*
X107463000Y-72500000D03*
%TD*%
D18*
%TO.C,D13*%
X131968500Y-72400000D03*
D19*
X124431500Y-72400000D03*
%TD*%
D17*
%TO.C,D34*%
X148350000Y-83750000D03*
X148350000Y-86950000D03*
X153250000Y-86950000D03*
X153250000Y-83750000D03*
%TD*%
%TO.C,D46*%
X131400000Y-49325000D03*
X131400000Y-52525000D03*
X136300000Y-52525000D03*
X136300000Y-49325000D03*
%TD*%
%TO.C,D37*%
X97500000Y-83800000D03*
X97500000Y-87000000D03*
X102400000Y-87000000D03*
X102400000Y-83800000D03*
%TD*%
%TO.C,D40*%
X148375000Y-66300000D03*
X148375000Y-69500000D03*
X153275000Y-69500000D03*
X153275000Y-66300000D03*
%TD*%
D18*
%TO.C,D10*%
X115268500Y-38000000D03*
D19*
X107731500Y-38000000D03*
%TD*%
D17*
%TO.C,D50*%
X183918500Y-40125000D03*
X183918500Y-43325000D03*
X188818500Y-43325000D03*
X188818500Y-40125000D03*
%TD*%
D18*
%TO.C,D23*%
X166268500Y-72500000D03*
D19*
X158731500Y-72500000D03*
%TD*%
D17*
%TO.C,D38*%
X183875000Y-57175000D03*
X183875000Y-60375000D03*
X188775000Y-60375000D03*
X188775000Y-57175000D03*
%TD*%
%TO.C,D47*%
X114400000Y-49425000D03*
X114400000Y-52625000D03*
X119300000Y-52625000D03*
X119300000Y-49425000D03*
%TD*%
D18*
%TO.C,D19*%
X149208000Y-89856000D03*
D19*
X141671000Y-89856000D03*
%TD*%
D17*
%TO.C,D45*%
X148400000Y-49300000D03*
X148400000Y-52500000D03*
X153300000Y-52500000D03*
X153300000Y-49300000D03*
%TD*%
D18*
%TO.C,D20*%
X184587000Y-89000000D03*
D19*
X177050000Y-89000000D03*
%TD*%
D18*
%TO.C,D21*%
X184587000Y-106000000D03*
D19*
X177050000Y-106000000D03*
%TD*%
D17*
%TO.C,D29*%
X131300000Y-101100000D03*
X131300000Y-104300000D03*
X136200000Y-104300000D03*
X136200000Y-101100000D03*
%TD*%
D18*
%TO.C,D12*%
X132037250Y-55500000D03*
D19*
X124500250Y-55500000D03*
%TD*%
D18*
%TO.C,D24*%
X166268500Y-55000000D03*
D19*
X158731500Y-55000000D03*
%TD*%
D17*
%TO.C,D32*%
X184018500Y-91800000D03*
X184018500Y-95000000D03*
X188918500Y-95000000D03*
X188918500Y-91800000D03*
%TD*%
%TO.C,D26*%
X73200000Y-97200000D03*
X73200000Y-100400000D03*
X78100000Y-100400000D03*
X78100000Y-97200000D03*
%TD*%
%TO.C,D39*%
X165575000Y-66350000D03*
X165575000Y-69550000D03*
X170475000Y-69550000D03*
X170475000Y-66350000D03*
%TD*%
%TO.C,D28*%
X114350000Y-101200000D03*
X114350000Y-104400000D03*
X119250000Y-104400000D03*
X119250000Y-101200000D03*
%TD*%
%TO.C,D42*%
X114375000Y-66325000D03*
X114375000Y-69525000D03*
X119275000Y-69525000D03*
X119275000Y-66325000D03*
%TD*%
%TO.C,D44*%
X165600000Y-49425000D03*
X165600000Y-52625000D03*
X170500000Y-52625000D03*
X170500000Y-49425000D03*
%TD*%
D20*
%TO.C,U2*%
X178875000Y-116066500D03*
X185225000Y-116086300D03*
X178875000Y-121006500D03*
X185235000Y-121026500D03*
X179525000Y-135756500D03*
X182065000Y-135776500D03*
X184605000Y-135756500D03*
D21*
X175700000Y-121816500D03*
X175700000Y-131946500D03*
X188400000Y-131961300D03*
X188400000Y-121801300D03*
D20*
X173160000Y-124341300D03*
X173145000Y-126866500D03*
X173145000Y-129406500D03*
%TD*%
D18*
%TO.C,D11*%
X132000000Y-38000000D03*
D19*
X124463000Y-38000000D03*
%TD*%
D17*
%TO.C,D43*%
X97375000Y-66325000D03*
X97375000Y-69525000D03*
X102275000Y-69525000D03*
X102275000Y-66325000D03*
%TD*%
D18*
%TO.C,D15*%
X185037000Y-71500000D03*
D19*
X177500000Y-71500000D03*
%TD*%
D17*
%TO.C,D30*%
X148350000Y-101075000D03*
X148350000Y-104275000D03*
X153250000Y-104275000D03*
X153250000Y-101075000D03*
%TD*%
D18*
%TO.C,D9*%
X115268500Y-55000000D03*
D19*
X107731500Y-55000000D03*
%TD*%
D18*
%TO.C,D7*%
X115268500Y-90000000D03*
D19*
X107731500Y-90000000D03*
%TD*%
D17*
%TO.C,D48*%
X97400000Y-49325000D03*
X97400000Y-52525000D03*
X102300000Y-52525000D03*
X102300000Y-49325000D03*
%TD*%
%TO.C,D27*%
X97350000Y-101200000D03*
X97350000Y-104400000D03*
X102250000Y-104400000D03*
X102250000Y-101200000D03*
%TD*%
%TO.C,D36*%
X114400000Y-83800000D03*
X114400000Y-87000000D03*
X119300000Y-87000000D03*
X119300000Y-83800000D03*
%TD*%
%TO.C,D49*%
X184018500Y-74500000D03*
X184018500Y-77700000D03*
X188918500Y-77700000D03*
X188918500Y-74500000D03*
%TD*%
D18*
%TO.C,D6*%
X184955800Y-54400000D03*
D19*
X177418800Y-54400000D03*
%TD*%
D18*
%TO.C,D17*%
X148837300Y-55000000D03*
D19*
X141300300Y-55000000D03*
%TD*%
D18*
%TO.C,D25*%
X166268500Y-38000000D03*
D19*
X158731500Y-38000000D03*
%TD*%
D18*
%TO.C,D16*%
X148987000Y-37975000D03*
D19*
X141450000Y-37975000D03*
%TD*%
D18*
%TO.C,D22*%
X166268500Y-90000000D03*
D19*
X158731500Y-90000000D03*
%TD*%
D24*
%TO.C,SW13*%
X149850000Y-46295000D03*
D25*
X144770000Y-46295000D03*
D24*
X139690000Y-46295000D03*
D26*
X140960000Y-43755000D03*
X147310000Y-41215000D03*
D27*
X146040000Y-51375000D03*
D28*
X143500000Y-51375000D03*
%TD*%
D24*
%TO.C,SW9*%
X115895000Y-80724000D03*
D25*
X110815000Y-80724000D03*
D24*
X105735000Y-80724000D03*
D26*
X107005000Y-78184000D03*
X113355000Y-75644000D03*
D27*
X112085000Y-85804000D03*
D28*
X109545000Y-85804000D03*
%TD*%
D24*
%TO.C,SW24*%
X166895000Y-80724000D03*
D25*
X161815000Y-80724000D03*
D24*
X156735000Y-80724000D03*
D26*
X158005000Y-78184000D03*
X164355000Y-75644000D03*
D27*
X163085000Y-85804000D03*
D28*
X160545000Y-85804000D03*
%TD*%
D24*
%TO.C,SW7*%
X115900000Y-46300000D03*
D25*
X110820000Y-46300000D03*
D24*
X105740000Y-46300000D03*
D26*
X107010000Y-43760000D03*
X113360000Y-41220000D03*
D27*
X112090000Y-51380000D03*
D28*
X109550000Y-51380000D03*
%TD*%
D24*
%TO.C,SW19*%
X149834500Y-98080000D03*
D25*
X144754500Y-98080000D03*
D24*
X139674500Y-98080000D03*
D26*
X140944500Y-95540000D03*
X147294500Y-93000000D03*
D27*
X146024500Y-103160000D03*
D28*
X143484500Y-103160000D03*
%TD*%
D24*
%TO.C,SW3*%
X98900000Y-63320000D03*
D25*
X93820000Y-63320000D03*
D24*
X88740000Y-63320000D03*
D26*
X90010000Y-60780000D03*
X96360000Y-58240000D03*
D27*
X95090000Y-68400000D03*
D28*
X92550000Y-68400000D03*
%TD*%
D24*
%TO.C,SW11*%
X175308500Y-46405000D03*
D25*
X180388500Y-46405000D03*
D24*
X185468500Y-46405000D03*
D26*
X184198500Y-48945000D03*
X177848500Y-51485000D03*
D27*
X179118500Y-41325000D03*
D28*
X181658500Y-41325000D03*
%TD*%
D24*
%TO.C,SW17*%
X149850000Y-80725000D03*
D25*
X144770000Y-80725000D03*
D24*
X139690000Y-80725000D03*
D26*
X140960000Y-78185000D03*
X147310000Y-75645000D03*
D27*
X146040000Y-85805000D03*
D28*
X143500000Y-85805000D03*
%TD*%
D24*
%TO.C,SW26*%
X175398500Y-98060000D03*
D25*
X180478500Y-98060000D03*
D24*
X185558500Y-98060000D03*
D26*
X184288500Y-100600000D03*
X177938500Y-103140000D03*
D27*
X179208500Y-92980000D03*
D28*
X181748500Y-92980000D03*
%TD*%
D24*
%TO.C,SW2*%
X98905000Y-46300000D03*
D25*
X93825000Y-46300000D03*
D24*
X88745000Y-46300000D03*
D26*
X90015000Y-43760000D03*
X96365000Y-41220000D03*
D27*
X95095000Y-51380000D03*
D28*
X92555000Y-51380000D03*
%TD*%
D24*
%TO.C,SW12*%
X132900000Y-46300000D03*
D25*
X127820000Y-46300000D03*
D24*
X122740000Y-46300000D03*
D26*
X124010000Y-43760000D03*
X130360000Y-41220000D03*
D27*
X129090000Y-51380000D03*
D28*
X126550000Y-51380000D03*
%TD*%
D24*
%TO.C,SW14*%
X132920000Y-63330000D03*
D25*
X127840000Y-63330000D03*
D24*
X122760000Y-63330000D03*
D26*
X124030000Y-60790000D03*
X130380000Y-58250000D03*
D27*
X129110000Y-68410000D03*
D28*
X126570000Y-68410000D03*
%TD*%
D24*
%TO.C,SW5*%
X98895000Y-98058000D03*
D25*
X93815000Y-98058000D03*
D24*
X88735000Y-98058000D03*
D26*
X90005000Y-95518000D03*
X96355000Y-92978000D03*
D27*
X95085000Y-103138000D03*
D28*
X92545000Y-103138000D03*
%TD*%
D24*
%TO.C,SW6*%
X64220000Y-103600000D03*
D25*
X69300000Y-103600000D03*
D24*
X74380000Y-103600000D03*
D26*
X73110000Y-106140000D03*
X66760000Y-108680000D03*
D27*
X68030000Y-98520000D03*
D28*
X70570000Y-98520000D03*
%TD*%
D24*
%TO.C,SW22*%
X166900000Y-46300000D03*
D25*
X161820000Y-46300000D03*
D24*
X156740000Y-46300000D03*
D26*
X158010000Y-43760000D03*
X164360000Y-41220000D03*
D27*
X163090000Y-51380000D03*
D28*
X160550000Y-51380000D03*
%TD*%
D24*
%TO.C,SW4*%
X98895000Y-80724000D03*
D25*
X93815000Y-80724000D03*
D24*
X88735000Y-80724000D03*
D26*
X90005000Y-78184000D03*
X96355000Y-75644000D03*
D27*
X95085000Y-85804000D03*
D28*
X92545000Y-85804000D03*
%TD*%
D24*
%TO.C,SW25*%
X166895000Y-98058000D03*
D25*
X161815000Y-98058000D03*
D24*
X156735000Y-98058000D03*
D26*
X158005000Y-95518000D03*
X164355000Y-92978000D03*
D27*
X163085000Y-103138000D03*
D28*
X160545000Y-103138000D03*
%TD*%
D24*
%TO.C,SW20*%
X175398500Y-63360000D03*
D25*
X180478500Y-63360000D03*
D24*
X185558500Y-63360000D03*
D26*
X184288500Y-65900000D03*
X177938500Y-68440000D03*
D27*
X179208500Y-58280000D03*
D28*
X181748500Y-58280000D03*
%TD*%
D24*
%TO.C,SW23*%
X166900000Y-63320000D03*
D25*
X161820000Y-63320000D03*
D24*
X156740000Y-63320000D03*
D26*
X158010000Y-60780000D03*
X164360000Y-58240000D03*
D27*
X163090000Y-68400000D03*
D28*
X160550000Y-68400000D03*
%TD*%
D24*
%TO.C,SW10*%
X115895000Y-98058000D03*
D25*
X110815000Y-98058000D03*
D24*
X105735000Y-98058000D03*
D26*
X107005000Y-95518000D03*
X113355000Y-92978000D03*
D27*
X112085000Y-103138000D03*
D28*
X109545000Y-103138000D03*
%TD*%
D24*
%TO.C,SW21*%
X175368500Y-80760000D03*
D25*
X180448500Y-80760000D03*
D24*
X185528500Y-80760000D03*
D26*
X184258500Y-83300000D03*
X177908500Y-85840000D03*
D27*
X179178500Y-75680000D03*
D28*
X181718500Y-75680000D03*
%TD*%
D24*
%TO.C,SW15*%
X149850000Y-63300000D03*
D25*
X144770000Y-63300000D03*
D24*
X139690000Y-63300000D03*
D26*
X140960000Y-60760000D03*
X147310000Y-58220000D03*
D27*
X146040000Y-68380000D03*
D28*
X143500000Y-68380000D03*
%TD*%
D24*
%TO.C,SW18*%
X132834500Y-98080000D03*
D25*
X127754500Y-98080000D03*
D24*
X122674500Y-98080000D03*
D26*
X123944500Y-95540000D03*
X130294500Y-93000000D03*
D27*
X129024500Y-103160000D03*
D28*
X126484500Y-103160000D03*
%TD*%
D24*
%TO.C,SW8*%
X115900000Y-63320000D03*
D25*
X110820000Y-63320000D03*
D24*
X105740000Y-63320000D03*
D26*
X107010000Y-60780000D03*
X113360000Y-58240000D03*
D27*
X112090000Y-68400000D03*
D28*
X109550000Y-68400000D03*
%TD*%
D24*
%TO.C,SW16*%
X132850000Y-80750000D03*
D25*
X127770000Y-80750000D03*
D24*
X122690000Y-80750000D03*
D26*
X123960000Y-78210000D03*
X130310000Y-75670000D03*
D27*
X129040000Y-85830000D03*
D28*
X126500000Y-85830000D03*
%TD*%
%LPD*%
M02*
