%TF.GenerationSoftware,KiCad,Pcbnew,9.0.2*%
%TF.CreationDate,2025-06-30T11:43:15-04:00*%
%TF.ProjectId,PCB,5043422e-6b69-4636-9164-5f7063625858,rev?*%
%TF.SameCoordinates,Original*%
%TF.FileFunction,Profile,NP*%
%FSLAX46Y46*%
G04 Gerber Fmt 4.6, Leading zero omitted, Abs format (unit mm)*
G04 Created by KiCad (PCBNEW 9.0.2) date 2025-06-30 11:43:15*
%MOMM*%
%LPD*%
G01*
G04 APERTURE LIST*
%TA.AperFunction,Profile*%
%ADD10C,0.050000*%
%TD*%
%TA.AperFunction,Profile*%
%ADD11C,0.100000*%
%TD*%
G04 APERTURE END LIST*
D10*
X197319285Y-133487110D02*
X197679146Y-132544618D01*
X197717628Y-132434257D02*
G75*
G02*
X197679146Y-132544618I-1903228J601757D01*
G01*
X182411316Y-143500000D02*
X182745012Y-143490915D01*
X191000000Y-104612042D02*
X191000000Y-39000000D01*
X187723628Y-142510872D02*
G75*
G02*
X187532893Y-142579450I-771228J1845472D01*
G01*
X87300000Y-135100000D02*
G75*
G02*
X83900000Y-135100000I-1700000J0D01*
G01*
X83900000Y-135100000D02*
G75*
G02*
X87300000Y-135100000I1700000J0D01*
G01*
X195359874Y-136837326D02*
G75*
G02*
X195253928Y-136978005I-1651374J1133426D01*
G01*
X198087483Y-131245152D02*
X198370300Y-130034342D01*
X194425128Y-137983143D02*
G75*
G02*
X194309295Y-138111837I-1543028J1272343D01*
G01*
X170328427Y-37000000D02*
G75*
G02*
X168914199Y-36414227I-27J2000000D01*
G01*
X194425128Y-137983143D02*
X195253926Y-136978004D01*
X192212319Y-140027319D02*
G75*
G02*
X192104923Y-140109055I-1265619J1551519D01*
G01*
X196417993Y-135267165D02*
G75*
G02*
X196288209Y-135484600I-1778093J913865D01*
G01*
X161671573Y-30000000D02*
X83328427Y-30000000D01*
X139300000Y-111000000D02*
G75*
G02*
X135900000Y-111000000I-1700000J0D01*
G01*
X135900000Y-111000000D02*
G75*
G02*
X139300000Y-111000000I1700000J0D01*
G01*
X198569607Y-124700469D02*
G75*
G02*
X198605481Y-125014616I-1963407J-383331D01*
G01*
X198190179Y-122811943D02*
G75*
G02*
X198239642Y-123010592I-1913979J-582057D01*
G01*
X189965220Y-141487829D02*
G75*
G02*
X189852839Y-141548582I-1008620J1731429D01*
G01*
X193377391Y-139061163D02*
G75*
G02*
X193214398Y-139209834I-1426791J1400563D01*
G01*
X86300000Y-48000000D02*
G75*
G02*
X82900000Y-48000000I-1700000J0D01*
G01*
X82900000Y-48000000D02*
G75*
G02*
X86300000Y-48000000I1700000J0D01*
G01*
X161671573Y-30000000D02*
G75*
G02*
X163085779Y-30585793I27J-1999900D01*
G01*
X193377391Y-139061163D02*
X194309296Y-138111838D01*
X183911069Y-143390840D02*
X185171044Y-143201843D01*
X197717628Y-132434257D02*
X198046824Y-131393286D01*
X82828427Y-143500000D02*
G75*
G02*
X81414221Y-142914207I-27J1999900D01*
G01*
X189030663Y-141959668D02*
G75*
G02*
X188907422Y-142016152I-894163J1788268D01*
G01*
X191132867Y-140798331D02*
X192104923Y-140109055D01*
X189000000Y-37000000D02*
X170328427Y-37000000D01*
X198594538Y-128464716D02*
G75*
G02*
X198576412Y-128654419I-1996138J95016D01*
G01*
X56085787Y-117585787D02*
X81414214Y-142914214D01*
X197561566Y-120828943D02*
G75*
G02*
X197675618Y-121119998I-1798566J-872657D01*
G01*
X182894708Y-143483472D02*
G75*
G02*
X182745012Y-143490914I-174108J1992772D01*
G01*
X198594538Y-128464716D02*
X198666093Y-126962112D01*
X55500000Y-46500000D02*
G75*
G02*
X57500000Y-44500000I2000000J0D01*
G01*
X191700000Y-111000000D02*
G75*
G02*
X188300000Y-111000000I-1700000J0D01*
G01*
X188300000Y-111000000D02*
G75*
G02*
X191700000Y-111000000I1700000J0D01*
G01*
X182408684Y-143495020D02*
G75*
G02*
X182409995Y-143493687I-2147483647J2147483646D01*
G01*
X182053514Y-143499820D02*
G75*
G02*
X182026485Y-143500003I-27114J2006920D01*
G01*
X198667161Y-126797843D02*
X198605482Y-125014616D01*
X81914213Y-30585787D02*
X76585786Y-35914214D01*
X168914213Y-36414213D02*
X163085786Y-30585786D01*
X195359874Y-136837326D02*
X196288213Y-135484603D01*
X187723628Y-142510872D02*
X188907422Y-142016152D01*
X197561566Y-120828943D02*
X196523883Y-118690051D01*
X198569607Y-124700469D02*
X198239642Y-123010592D01*
X198190179Y-122811943D02*
X197675618Y-121119998D01*
X182053514Y-143499820D02*
X182408684Y-143500000D01*
X189965220Y-141487829D02*
X190982817Y-140894967D01*
X192212319Y-140027319D02*
X193214398Y-139209834D01*
X185327760Y-143171901D02*
X186345914Y-142934917D01*
X82828427Y-143500000D02*
X182026400Y-143500003D01*
X76000000Y-42500000D02*
G75*
G02*
X74000000Y-44500000I-2000000J0D01*
G01*
X76000000Y-37328427D02*
G75*
G02*
X76585793Y-35914221I1999900J27D01*
G01*
X76000000Y-37328427D02*
X76000000Y-42500000D01*
X191132867Y-140798331D02*
G75*
G02*
X190982817Y-140894966I-1157267J1632131D01*
G01*
X74000000Y-44500000D02*
X57500000Y-44500000D01*
X191145054Y-105359822D02*
G75*
G02*
X190999984Y-104612041I1854946J747822D01*
G01*
X183911069Y-143390840D02*
G75*
G02*
X183788482Y-143405374I-296769J1978840D01*
G01*
X197319285Y-133487110D02*
G75*
G02*
X197229650Y-133687952I-1869685J714010D01*
G01*
X185327760Y-143171901D02*
G75*
G02*
X185171044Y-143201843I-453460J1948301D01*
G01*
X139300000Y-135000000D02*
G75*
G02*
X135900000Y-135000000I-1700000J0D01*
G01*
X135900000Y-135000000D02*
G75*
G02*
X139300000Y-135000000I1700000J0D01*
G01*
X55500000Y-46500000D02*
X55500000Y-116171573D01*
X152700000Y-35000000D02*
G75*
G02*
X149300000Y-35000000I-1700000J0D01*
G01*
X149300000Y-35000000D02*
G75*
G02*
X152700000Y-35000000I1700000J0D01*
G01*
X186472966Y-142900904D02*
G75*
G02*
X186345914Y-142934915I-581066J1916304D01*
G01*
X196523883Y-118690051D02*
G75*
G02*
X196468347Y-118564845I1799617J873151D01*
G01*
X196417993Y-135267165D02*
X197229655Y-133687954D01*
X169300000Y-111000000D02*
G75*
G02*
X165900000Y-111000000I-1700000J0D01*
G01*
X165900000Y-111000000D02*
G75*
G02*
X169300000Y-111000000I1700000J0D01*
G01*
X56085787Y-117585787D02*
G75*
G02*
X55500019Y-116171573I1414213J1414187D01*
G01*
X182894708Y-143483472D02*
X183788482Y-143405375D01*
X186472966Y-142900904D02*
X187532893Y-142579451D01*
X198087483Y-131245152D02*
G75*
G02*
X198046824Y-131393286I-1948083J455052D01*
G01*
X189000000Y-37000000D02*
G75*
G02*
X191000000Y-39000000I0J-2000000D01*
G01*
X198402335Y-129864270D02*
G75*
G02*
X198370303Y-130034343I-1978435J284570D01*
G01*
X81914213Y-30585787D02*
G75*
G02*
X83328427Y-29999978I1414287J-1414313D01*
G01*
X198667161Y-126797843D02*
G75*
G02*
X198666094Y-126962112I-1997961J-69157D01*
G01*
X196468351Y-118564844D02*
X191145053Y-105359821D01*
X198402335Y-129864270D02*
X198576415Y-128654419D01*
X189030663Y-141959668D02*
X189852838Y-141548581D01*
D11*
%TO.C,SW13*%
X139880501Y-43501001D02*
X139499501Y-43501001D01*
X139880501Y-44009000D02*
X139499501Y-44009001D01*
X148389499Y-40961000D02*
X148770499Y-40960999D01*
X148389499Y-41468999D02*
X148770499Y-41468999D01*
X139499501Y-43501001D02*
G75*
G02*
X139499361Y-44008195I1460499J-253999D01*
G01*
X139880501Y-43501001D02*
G75*
G02*
X139880586Y-44009358I1079499J-253999D01*
G01*
X148389499Y-41468999D02*
G75*
G02*
X148389415Y-40960642I-1079499J254000D01*
G01*
X148770499Y-41468999D02*
G75*
G02*
X148770639Y-40961805I-1460499J254000D01*
G01*
%TO.C,SW9*%
X105925501Y-77930001D02*
X105544501Y-77930001D01*
X105925501Y-78438000D02*
X105544501Y-78438001D01*
X114434499Y-75390000D02*
X114815499Y-75389999D01*
X114434499Y-75897999D02*
X114815499Y-75897999D01*
X105544501Y-77930001D02*
G75*
G02*
X105544361Y-78437195I1460499J-253999D01*
G01*
X105925501Y-77930001D02*
G75*
G02*
X105925586Y-78438358I1079499J-253999D01*
G01*
X114434499Y-75897999D02*
G75*
G02*
X114434415Y-75389642I-1079499J254000D01*
G01*
X114815499Y-75897999D02*
G75*
G02*
X114815639Y-75390805I-1460499J254000D01*
G01*
%TO.C,SW24*%
X156925501Y-77930001D02*
X156544501Y-77930001D01*
X156925501Y-78438000D02*
X156544501Y-78438001D01*
X165434499Y-75390000D02*
X165815499Y-75389999D01*
X165434499Y-75897999D02*
X165815499Y-75897999D01*
X156544501Y-77930001D02*
G75*
G02*
X156544361Y-78437195I1460499J-253999D01*
G01*
X156925501Y-77930001D02*
G75*
G02*
X156925586Y-78438358I1079499J-253999D01*
G01*
X165434499Y-75897999D02*
G75*
G02*
X165434415Y-75389642I-1079499J254000D01*
G01*
X165815499Y-75897999D02*
G75*
G02*
X165815639Y-75390805I-1460499J254000D01*
G01*
%TO.C,SW7*%
X105930501Y-43506001D02*
X105549501Y-43506001D01*
X105930501Y-44014000D02*
X105549501Y-44014001D01*
X114439499Y-40966000D02*
X114820499Y-40965999D01*
X114439499Y-41473999D02*
X114820499Y-41473999D01*
X105549501Y-43506001D02*
G75*
G02*
X105549361Y-44013195I1460499J-253999D01*
G01*
X105930501Y-43506001D02*
G75*
G02*
X105930586Y-44014358I1079499J-253999D01*
G01*
X114439499Y-41473999D02*
G75*
G02*
X114439415Y-40965642I-1079499J254000D01*
G01*
X114820499Y-41473999D02*
G75*
G02*
X114820639Y-40966805I-1460499J254000D01*
G01*
%TO.C,SW19*%
X139865001Y-95286001D02*
X139484001Y-95286001D01*
X139865001Y-95794000D02*
X139484001Y-95794001D01*
X148373999Y-92746000D02*
X148754999Y-92745999D01*
X148373999Y-93253999D02*
X148754999Y-93253999D01*
X139484001Y-95286001D02*
G75*
G02*
X139483861Y-95793195I1460499J-253999D01*
G01*
X139865001Y-95286001D02*
G75*
G02*
X139865086Y-95794358I1079499J-253999D01*
G01*
X148373999Y-93253999D02*
G75*
G02*
X148373915Y-92745642I-1079499J254000D01*
G01*
X148754999Y-93253999D02*
G75*
G02*
X148755139Y-92746805I-1460499J254000D01*
G01*
%TO.C,SW3*%
X88930501Y-60526001D02*
X88549501Y-60526001D01*
X88930501Y-61034000D02*
X88549501Y-61034001D01*
X97439499Y-57986000D02*
X97820499Y-57985999D01*
X97439499Y-58493999D02*
X97820499Y-58493999D01*
X88549501Y-60526001D02*
G75*
G02*
X88549361Y-61033195I1460499J-253999D01*
G01*
X88930501Y-60526001D02*
G75*
G02*
X88930586Y-61034358I1079499J-253999D01*
G01*
X97439499Y-58493999D02*
G75*
G02*
X97439415Y-57985642I-1079499J254000D01*
G01*
X97820499Y-58493999D02*
G75*
G02*
X97820639Y-57986805I-1460499J254000D01*
G01*
%TO.C,SW11*%
X176769001Y-51231001D02*
X176388001Y-51231001D01*
X176769001Y-51739000D02*
X176388001Y-51739001D01*
X185277999Y-48691000D02*
X185658999Y-48690999D01*
X185277999Y-49198999D02*
X185658999Y-49198999D01*
X176388001Y-51231001D02*
G75*
G02*
X176387861Y-51738195I1460499J-254000D01*
G01*
X176769001Y-51231001D02*
G75*
G02*
X176769085Y-51739358I1079499J-254000D01*
G01*
X185277999Y-49198999D02*
G75*
G02*
X185277914Y-48690642I-1079499J253999D01*
G01*
X185658999Y-49198999D02*
G75*
G02*
X185659139Y-48691805I-1460499J253999D01*
G01*
%TO.C,SW17*%
X139880501Y-77931001D02*
X139499501Y-77931001D01*
X139880501Y-78439000D02*
X139499501Y-78439001D01*
X148389499Y-75391000D02*
X148770499Y-75390999D01*
X148389499Y-75898999D02*
X148770499Y-75898999D01*
X139499501Y-77931001D02*
G75*
G02*
X139499361Y-78438195I1460499J-253999D01*
G01*
X139880501Y-77931001D02*
G75*
G02*
X139880586Y-78439358I1079499J-253999D01*
G01*
X148389499Y-75898999D02*
G75*
G02*
X148389415Y-75390642I-1079499J254000D01*
G01*
X148770499Y-75898999D02*
G75*
G02*
X148770639Y-75391805I-1460499J254000D01*
G01*
%TO.C,SW26*%
X176859001Y-102886001D02*
X176478001Y-102886001D01*
X176859001Y-103394000D02*
X176478001Y-103394001D01*
X185367999Y-100346000D02*
X185748999Y-100345999D01*
X185367999Y-100853999D02*
X185748999Y-100853999D01*
X176478001Y-102886001D02*
G75*
G02*
X176477861Y-103393195I1460499J-254000D01*
G01*
X176859001Y-102886001D02*
G75*
G02*
X176859085Y-103394358I1079499J-254000D01*
G01*
X185367999Y-100853999D02*
G75*
G02*
X185367914Y-100345642I-1079499J253999D01*
G01*
X185748999Y-100853999D02*
G75*
G02*
X185749139Y-100346805I-1460499J253999D01*
G01*
%TO.C,SW2*%
X88935501Y-43506001D02*
X88554501Y-43506001D01*
X88935501Y-44014000D02*
X88554501Y-44014001D01*
X97444499Y-40966000D02*
X97825499Y-40965999D01*
X97444499Y-41473999D02*
X97825499Y-41473999D01*
X88554501Y-43506001D02*
G75*
G02*
X88554361Y-44013195I1460499J-253999D01*
G01*
X88935501Y-43506001D02*
G75*
G02*
X88935586Y-44014358I1079499J-253999D01*
G01*
X97444499Y-41473999D02*
G75*
G02*
X97444415Y-40965642I-1079499J254000D01*
G01*
X97825499Y-41473999D02*
G75*
G02*
X97825639Y-40966805I-1460499J254000D01*
G01*
%TO.C,SW12*%
X122930501Y-43506001D02*
X122549501Y-43506001D01*
X122930501Y-44014000D02*
X122549501Y-44014001D01*
X131439499Y-40966000D02*
X131820499Y-40965999D01*
X131439499Y-41473999D02*
X131820499Y-41473999D01*
X122549501Y-43506001D02*
G75*
G02*
X122549361Y-44013195I1460499J-253999D01*
G01*
X122930501Y-43506001D02*
G75*
G02*
X122930586Y-44014358I1079499J-253999D01*
G01*
X131439499Y-41473999D02*
G75*
G02*
X131439415Y-40965642I-1079499J254000D01*
G01*
X131820499Y-41473999D02*
G75*
G02*
X131820639Y-40966805I-1460499J254000D01*
G01*
%TO.C,SW14*%
X122950501Y-60536001D02*
X122569501Y-60536001D01*
X122950501Y-61044000D02*
X122569501Y-61044001D01*
X131459499Y-57996000D02*
X131840499Y-57995999D01*
X131459499Y-58503999D02*
X131840499Y-58503999D01*
X122569501Y-60536001D02*
G75*
G02*
X122569361Y-61043195I1460499J-253999D01*
G01*
X122950501Y-60536001D02*
G75*
G02*
X122950586Y-61044358I1079499J-253999D01*
G01*
X131459499Y-58503999D02*
G75*
G02*
X131459415Y-57995642I-1079499J254000D01*
G01*
X131840499Y-58503999D02*
G75*
G02*
X131840639Y-57996805I-1460499J254000D01*
G01*
%TO.C,SW5*%
X88925501Y-95264001D02*
X88544501Y-95264001D01*
X88925501Y-95772000D02*
X88544501Y-95772001D01*
X97434499Y-92724000D02*
X97815499Y-92723999D01*
X97434499Y-93231999D02*
X97815499Y-93231999D01*
X88544501Y-95264001D02*
G75*
G02*
X88544361Y-95771195I1460499J-253999D01*
G01*
X88925501Y-95264001D02*
G75*
G02*
X88925586Y-95772358I1079499J-253999D01*
G01*
X97434499Y-93231999D02*
G75*
G02*
X97434415Y-92723642I-1079499J254000D01*
G01*
X97815499Y-93231999D02*
G75*
G02*
X97815639Y-92724805I-1460499J254000D01*
G01*
%TO.C,SW6*%
X65680501Y-108426001D02*
X65299501Y-108426001D01*
X65680501Y-108934000D02*
X65299501Y-108934001D01*
X74189499Y-105886000D02*
X74570499Y-105885999D01*
X74189499Y-106393999D02*
X74570499Y-106393999D01*
X65299501Y-108426001D02*
G75*
G02*
X65299361Y-108933195I1460499J-254000D01*
G01*
X65680501Y-108426001D02*
G75*
G02*
X65680585Y-108934358I1079499J-254000D01*
G01*
X74189499Y-106393999D02*
G75*
G02*
X74189414Y-105885642I-1079499J253999D01*
G01*
X74570499Y-106393999D02*
G75*
G02*
X74570639Y-105886805I-1460499J253999D01*
G01*
%TO.C,SW22*%
X156930501Y-43506001D02*
X156549501Y-43506001D01*
X156930501Y-44014000D02*
X156549501Y-44014001D01*
X165439499Y-40966000D02*
X165820499Y-40965999D01*
X165439499Y-41473999D02*
X165820499Y-41473999D01*
X156549501Y-43506001D02*
G75*
G02*
X156549361Y-44013195I1460499J-253999D01*
G01*
X156930501Y-43506001D02*
G75*
G02*
X156930586Y-44014358I1079499J-253999D01*
G01*
X165439499Y-41473999D02*
G75*
G02*
X165439415Y-40965642I-1079499J254000D01*
G01*
X165820499Y-41473999D02*
G75*
G02*
X165820639Y-40966805I-1460499J254000D01*
G01*
%TO.C,SW4*%
X88925501Y-77930001D02*
X88544501Y-77930001D01*
X88925501Y-78438000D02*
X88544501Y-78438001D01*
X97434499Y-75390000D02*
X97815499Y-75389999D01*
X97434499Y-75897999D02*
X97815499Y-75897999D01*
X88544501Y-77930001D02*
G75*
G02*
X88544361Y-78437195I1460499J-253999D01*
G01*
X88925501Y-77930001D02*
G75*
G02*
X88925586Y-78438358I1079499J-253999D01*
G01*
X97434499Y-75897999D02*
G75*
G02*
X97434415Y-75389642I-1079499J254000D01*
G01*
X97815499Y-75897999D02*
G75*
G02*
X97815639Y-75390805I-1460499J254000D01*
G01*
%TO.C,SW25*%
X156925501Y-95264001D02*
X156544501Y-95264001D01*
X156925501Y-95772000D02*
X156544501Y-95772001D01*
X165434499Y-92724000D02*
X165815499Y-92723999D01*
X165434499Y-93231999D02*
X165815499Y-93231999D01*
X156544501Y-95264001D02*
G75*
G02*
X156544361Y-95771195I1460499J-253999D01*
G01*
X156925501Y-95264001D02*
G75*
G02*
X156925586Y-95772358I1079499J-253999D01*
G01*
X165434499Y-93231999D02*
G75*
G02*
X165434415Y-92723642I-1079499J254000D01*
G01*
X165815499Y-93231999D02*
G75*
G02*
X165815639Y-92724805I-1460499J254000D01*
G01*
%TO.C,SW20*%
X176859001Y-68186001D02*
X176478001Y-68186001D01*
X176859001Y-68694000D02*
X176478001Y-68694001D01*
X185367999Y-65646000D02*
X185748999Y-65645999D01*
X185367999Y-66153999D02*
X185748999Y-66153999D01*
X176478001Y-68186001D02*
G75*
G02*
X176477861Y-68693195I1460499J-254000D01*
G01*
X176859001Y-68186001D02*
G75*
G02*
X176859085Y-68694358I1079499J-254000D01*
G01*
X185367999Y-66153999D02*
G75*
G02*
X185367914Y-65645642I-1079499J253999D01*
G01*
X185748999Y-66153999D02*
G75*
G02*
X185749139Y-65646805I-1460499J253999D01*
G01*
%TO.C,SW23*%
X156930501Y-60526001D02*
X156549501Y-60526001D01*
X156930501Y-61034000D02*
X156549501Y-61034001D01*
X165439499Y-57986000D02*
X165820499Y-57985999D01*
X165439499Y-58493999D02*
X165820499Y-58493999D01*
X156549501Y-60526001D02*
G75*
G02*
X156549361Y-61033195I1460499J-253999D01*
G01*
X156930501Y-60526001D02*
G75*
G02*
X156930586Y-61034358I1079499J-253999D01*
G01*
X165439499Y-58493999D02*
G75*
G02*
X165439415Y-57985642I-1079499J254000D01*
G01*
X165820499Y-58493999D02*
G75*
G02*
X165820639Y-57986805I-1460499J254000D01*
G01*
%TO.C,SW10*%
X105925501Y-95264001D02*
X105544501Y-95264001D01*
X105925501Y-95772000D02*
X105544501Y-95772001D01*
X114434499Y-92724000D02*
X114815499Y-92723999D01*
X114434499Y-93231999D02*
X114815499Y-93231999D01*
X105544501Y-95264001D02*
G75*
G02*
X105544361Y-95771195I1460499J-253999D01*
G01*
X105925501Y-95264001D02*
G75*
G02*
X105925586Y-95772358I1079499J-253999D01*
G01*
X114434499Y-93231999D02*
G75*
G02*
X114434415Y-92723642I-1079499J254000D01*
G01*
X114815499Y-93231999D02*
G75*
G02*
X114815639Y-92724805I-1460499J254000D01*
G01*
%TO.C,SW21*%
X176829001Y-85586001D02*
X176448001Y-85586001D01*
X176829001Y-86094000D02*
X176448001Y-86094001D01*
X185337999Y-83046000D02*
X185718999Y-83045999D01*
X185337999Y-83553999D02*
X185718999Y-83553999D01*
X176448001Y-85586001D02*
G75*
G02*
X176447861Y-86093195I1460499J-254000D01*
G01*
X176829001Y-85586001D02*
G75*
G02*
X176829085Y-86094358I1079499J-254000D01*
G01*
X185337999Y-83553999D02*
G75*
G02*
X185337914Y-83045642I-1079499J253999D01*
G01*
X185718999Y-83553999D02*
G75*
G02*
X185719139Y-83046805I-1460499J253999D01*
G01*
%TO.C,SW15*%
X139880501Y-60506001D02*
X139499501Y-60506001D01*
X139880501Y-61014000D02*
X139499501Y-61014001D01*
X148389499Y-57966000D02*
X148770499Y-57965999D01*
X148389499Y-58473999D02*
X148770499Y-58473999D01*
X139499501Y-60506001D02*
G75*
G02*
X139499361Y-61013195I1460499J-253999D01*
G01*
X139880501Y-60506001D02*
G75*
G02*
X139880586Y-61014358I1079499J-253999D01*
G01*
X148389499Y-58473999D02*
G75*
G02*
X148389415Y-57965642I-1079499J254000D01*
G01*
X148770499Y-58473999D02*
G75*
G02*
X148770639Y-57966805I-1460499J254000D01*
G01*
%TO.C,SW18*%
X122865001Y-95286001D02*
X122484001Y-95286001D01*
X122865001Y-95794000D02*
X122484001Y-95794001D01*
X131373999Y-92746000D02*
X131754999Y-92745999D01*
X131373999Y-93253999D02*
X131754999Y-93253999D01*
X122484001Y-95286001D02*
G75*
G02*
X122483861Y-95793195I1460499J-253999D01*
G01*
X122865001Y-95286001D02*
G75*
G02*
X122865086Y-95794358I1079499J-253999D01*
G01*
X131373999Y-93253999D02*
G75*
G02*
X131373915Y-92745642I-1079499J254000D01*
G01*
X131754999Y-93253999D02*
G75*
G02*
X131755139Y-92746805I-1460499J254000D01*
G01*
%TO.C,SW8*%
X105930501Y-60526001D02*
X105549501Y-60526001D01*
X105930501Y-61034000D02*
X105549501Y-61034001D01*
X114439499Y-57986000D02*
X114820499Y-57985999D01*
X114439499Y-58493999D02*
X114820499Y-58493999D01*
X105549501Y-60526001D02*
G75*
G02*
X105549361Y-61033195I1460499J-253999D01*
G01*
X105930501Y-60526001D02*
G75*
G02*
X105930586Y-61034358I1079499J-253999D01*
G01*
X114439499Y-58493999D02*
G75*
G02*
X114439415Y-57985642I-1079499J254000D01*
G01*
X114820499Y-58493999D02*
G75*
G02*
X114820639Y-57986805I-1460499J254000D01*
G01*
%TO.C,SW16*%
X122880501Y-77956001D02*
X122499501Y-77956001D01*
X122880501Y-78464000D02*
X122499501Y-78464001D01*
X131389499Y-75416000D02*
X131770499Y-75415999D01*
X131389499Y-75923999D02*
X131770499Y-75923999D01*
X122499501Y-77956001D02*
G75*
G02*
X122499361Y-78463195I1460499J-253999D01*
G01*
X122880501Y-77956001D02*
G75*
G02*
X122880586Y-78464358I1079499J-253999D01*
G01*
X131389499Y-75923999D02*
G75*
G02*
X131389415Y-75415642I-1079499J254000D01*
G01*
X131770499Y-75923999D02*
G75*
G02*
X131770639Y-75416805I-1460499J254000D01*
G01*
%TD*%
M02*
