%TF.GenerationSoftware,KiCad,Pcbnew,9.0.2*%
%TF.CreationDate,2025-06-30T11:43:15-04:00*%
%TF.ProjectId,PCB,5043422e-6b69-4636-9164-5f7063625858,rev?*%
%TF.SameCoordinates,Original*%
%TF.FileFunction,Soldermask,Bot*%
%TF.FilePolarity,Negative*%
%FSLAX46Y46*%
G04 Gerber Fmt 4.6, Leading zero omitted, Abs format (unit mm)*
G04 Created by KiCad (PCBNEW 9.0.2) date 2025-06-30 11:43:15*
%MOMM*%
%LPD*%
G01*
G04 APERTURE LIST*
G04 Aperture macros list*
%AMRoundRect*
0 Rectangle with rounded corners*
0 $1 Rounding radius*
0 $2 $3 $4 $5 $6 $7 $8 $9 X,Y pos of 4 corners*
0 Add a 4 corners polygon primitive as box body*
4,1,4,$2,$3,$4,$5,$6,$7,$8,$9,$2,$3,0*
0 Add four circle primitives for the rounded corners*
1,1,$1+$1,$2,$3*
1,1,$1+$1,$4,$5*
1,1,$1+$1,$6,$7*
1,1,$1+$1,$8,$9*
0 Add four rect primitives between the rounded corners*
20,1,$1+$1,$2,$3,$4,$5,0*
20,1,$1+$1,$4,$5,$6,$7,0*
20,1,$1+$1,$6,$7,$8,$9,0*
20,1,$1+$1,$8,$9,$2,$3,0*%
G04 Aperture macros list end*
%ADD10C,1.442000*%
%ADD11RoundRect,0.102000X-0.619000X-0.619000X0.619000X-0.619000X0.619000X0.619000X-0.619000X0.619000X0*%
%ADD12C,1.778000*%
%ADD13C,2.286000*%
%ADD14R,1.600000X1.600000*%
%ADD15O,1.600000X1.600000*%
%ADD16C,1.750000*%
%ADD17C,3.980180*%
%ADD18C,2.250000*%
%ADD19R,1.500000X0.508000*%
%ADD20R,2.550000X2.500000*%
%ADD21R,1.524000X1.524000*%
%ADD22C,1.524000*%
G04 APERTURE END LIST*
D10*
%TO.C,D5*%
X73768500Y-112000000D03*
D11*
X66231500Y-112000000D03*
%TD*%
D10*
%TO.C,D3*%
X98037000Y-72500000D03*
D11*
X90500000Y-72500000D03*
%TD*%
D10*
%TO.C,D1*%
X98268500Y-38000000D03*
D11*
X90731500Y-38000000D03*
%TD*%
D10*
%TO.C,D2*%
X98537000Y-55000000D03*
D11*
X91000000Y-55000000D03*
%TD*%
D10*
%TO.C,D18*%
X149218500Y-72550000D03*
D11*
X141681500Y-72550000D03*
%TD*%
D10*
%TO.C,D14*%
X131513500Y-89874000D03*
D11*
X123976500Y-89874000D03*
%TD*%
D12*
%TO.C,U1*%
X150755400Y-116066500D03*
X157105400Y-116086300D03*
X150755400Y-121006500D03*
X157115400Y-121026500D03*
X151405400Y-135756500D03*
X153945400Y-135776500D03*
X156485400Y-135756500D03*
D13*
X147580400Y-121816500D03*
X147580400Y-131946500D03*
X160280400Y-131961300D03*
X160280400Y-121801300D03*
D12*
X145040400Y-124341300D03*
X145025400Y-126866500D03*
X145025400Y-129406500D03*
%TD*%
D14*
%TO.C,A1*%
X76740000Y-87060000D03*
D15*
X76740000Y-84520000D03*
X76740000Y-81980000D03*
X76740000Y-79440000D03*
X76740000Y-76900000D03*
X76740000Y-74360000D03*
X76740000Y-71820000D03*
X76740000Y-69280000D03*
X76740000Y-66740000D03*
X76740000Y-64200000D03*
X76740000Y-61660000D03*
X76740000Y-59120000D03*
X76740000Y-56580000D03*
X76740000Y-54040000D03*
X76740000Y-51500000D03*
X61500000Y-51500000D03*
X61500000Y-54040000D03*
X61500000Y-56580000D03*
X61500000Y-59120000D03*
X61500000Y-61660000D03*
X61500000Y-64200000D03*
X61500000Y-66740000D03*
X61500000Y-69280000D03*
X61500000Y-71820000D03*
X61500000Y-74360000D03*
X61500000Y-76900000D03*
X61500000Y-79440000D03*
X61500000Y-81980000D03*
X61500000Y-84520000D03*
X61500000Y-87060000D03*
%TD*%
D10*
%TO.C,D4*%
X98268500Y-90000000D03*
D11*
X90731500Y-90000000D03*
%TD*%
D10*
%TO.C,D8*%
X115000000Y-72500000D03*
D11*
X107463000Y-72500000D03*
%TD*%
D10*
%TO.C,D13*%
X131968500Y-72400000D03*
D11*
X124431500Y-72400000D03*
%TD*%
D10*
%TO.C,D10*%
X115268500Y-38000000D03*
D11*
X107731500Y-38000000D03*
%TD*%
D10*
%TO.C,D23*%
X166268500Y-72500000D03*
D11*
X158731500Y-72500000D03*
%TD*%
D10*
%TO.C,D19*%
X149208000Y-89856000D03*
D11*
X141671000Y-89856000D03*
%TD*%
D10*
%TO.C,D20*%
X184587000Y-89000000D03*
D11*
X177050000Y-89000000D03*
%TD*%
D10*
%TO.C,D21*%
X184587000Y-106000000D03*
D11*
X177050000Y-106000000D03*
%TD*%
D10*
%TO.C,D12*%
X132037250Y-55500000D03*
D11*
X124500250Y-55500000D03*
%TD*%
D10*
%TO.C,D24*%
X166268500Y-55000000D03*
D11*
X158731500Y-55000000D03*
%TD*%
D12*
%TO.C,U2*%
X178875000Y-116066500D03*
X185225000Y-116086300D03*
X178875000Y-121006500D03*
X185235000Y-121026500D03*
X179525000Y-135756500D03*
X182065000Y-135776500D03*
X184605000Y-135756500D03*
D13*
X175700000Y-121816500D03*
X175700000Y-131946500D03*
X188400000Y-131961300D03*
X188400000Y-121801300D03*
D12*
X173160000Y-124341300D03*
X173145000Y-126866500D03*
X173145000Y-129406500D03*
%TD*%
D10*
%TO.C,D11*%
X132000000Y-38000000D03*
D11*
X124463000Y-38000000D03*
%TD*%
D10*
%TO.C,D15*%
X185037000Y-71500000D03*
D11*
X177500000Y-71500000D03*
%TD*%
D10*
%TO.C,D9*%
X115268500Y-55000000D03*
D11*
X107731500Y-55000000D03*
%TD*%
D10*
%TO.C,D7*%
X115268500Y-90000000D03*
D11*
X107731500Y-90000000D03*
%TD*%
D10*
%TO.C,D6*%
X184955800Y-54400000D03*
D11*
X177418800Y-54400000D03*
%TD*%
D10*
%TO.C,D17*%
X148837300Y-55000000D03*
D11*
X141300300Y-55000000D03*
%TD*%
D10*
%TO.C,D25*%
X166268500Y-38000000D03*
D11*
X158731500Y-38000000D03*
%TD*%
D10*
%TO.C,D16*%
X148987000Y-37975000D03*
D11*
X141450000Y-37975000D03*
%TD*%
D10*
%TO.C,D22*%
X166268500Y-90000000D03*
D11*
X158731500Y-90000000D03*
%TD*%
D16*
%TO.C,SW13*%
X149850000Y-46295000D03*
D17*
X144770000Y-46295000D03*
D16*
X139690000Y-46295000D03*
D18*
X140960000Y-43755000D03*
D19*
X139245500Y-43755000D03*
D20*
X137410000Y-43755000D03*
X150860000Y-41215000D03*
D19*
X149024500Y-41215000D03*
D18*
X147310000Y-41215000D03*
D21*
X146040000Y-51375000D03*
D22*
X143500000Y-51375000D03*
%TD*%
D16*
%TO.C,SW9*%
X115895000Y-80724000D03*
D17*
X110815000Y-80724000D03*
D16*
X105735000Y-80724000D03*
D18*
X107005000Y-78184000D03*
D19*
X105290500Y-78184000D03*
D20*
X103455000Y-78184000D03*
X116905000Y-75644000D03*
D19*
X115069500Y-75644000D03*
D18*
X113355000Y-75644000D03*
D21*
X112085000Y-85804000D03*
D22*
X109545000Y-85804000D03*
%TD*%
D16*
%TO.C,SW24*%
X166895000Y-80724000D03*
D17*
X161815000Y-80724000D03*
D16*
X156735000Y-80724000D03*
D18*
X158005000Y-78184000D03*
D19*
X156290500Y-78184000D03*
D20*
X154455000Y-78184000D03*
X167905000Y-75644000D03*
D19*
X166069500Y-75644000D03*
D18*
X164355000Y-75644000D03*
D21*
X163085000Y-85804000D03*
D22*
X160545000Y-85804000D03*
%TD*%
D16*
%TO.C,SW7*%
X115900000Y-46300000D03*
D17*
X110820000Y-46300000D03*
D16*
X105740000Y-46300000D03*
D18*
X107010000Y-43760000D03*
D19*
X105295500Y-43760000D03*
D20*
X103460000Y-43760000D03*
X116910000Y-41220000D03*
D19*
X115074500Y-41220000D03*
D18*
X113360000Y-41220000D03*
D21*
X112090000Y-51380000D03*
D22*
X109550000Y-51380000D03*
%TD*%
D16*
%TO.C,SW19*%
X149834500Y-98080000D03*
D17*
X144754500Y-98080000D03*
D16*
X139674500Y-98080000D03*
D18*
X140944500Y-95540000D03*
D19*
X139230000Y-95540000D03*
D20*
X137394500Y-95540000D03*
X150844500Y-93000000D03*
D19*
X149009000Y-93000000D03*
D18*
X147294500Y-93000000D03*
D21*
X146024500Y-103160000D03*
D22*
X143484500Y-103160000D03*
%TD*%
D16*
%TO.C,SW3*%
X98900000Y-63320000D03*
D17*
X93820000Y-63320000D03*
D16*
X88740000Y-63320000D03*
D18*
X90010000Y-60780000D03*
D19*
X88295500Y-60780000D03*
D20*
X86460000Y-60780000D03*
X99910000Y-58240000D03*
D19*
X98074500Y-58240000D03*
D18*
X96360000Y-58240000D03*
D21*
X95090000Y-68400000D03*
D22*
X92550000Y-68400000D03*
%TD*%
D16*
%TO.C,SW11*%
X175308500Y-46405000D03*
D17*
X180388500Y-46405000D03*
D16*
X185468500Y-46405000D03*
D18*
X184198500Y-48945000D03*
D19*
X185913000Y-48945000D03*
D20*
X187748500Y-48945000D03*
X174298500Y-51485000D03*
D19*
X176134000Y-51485000D03*
D18*
X177848500Y-51485000D03*
D21*
X179118500Y-41325000D03*
D22*
X181658500Y-41325000D03*
%TD*%
D16*
%TO.C,SW17*%
X149850000Y-80725000D03*
D17*
X144770000Y-80725000D03*
D16*
X139690000Y-80725000D03*
D18*
X140960000Y-78185000D03*
D19*
X139245500Y-78185000D03*
D20*
X137410000Y-78185000D03*
X150860000Y-75645000D03*
D19*
X149024500Y-75645000D03*
D18*
X147310000Y-75645000D03*
D21*
X146040000Y-85805000D03*
D22*
X143500000Y-85805000D03*
%TD*%
D16*
%TO.C,SW26*%
X175398500Y-98060000D03*
D17*
X180478500Y-98060000D03*
D16*
X185558500Y-98060000D03*
D18*
X184288500Y-100600000D03*
D19*
X186003000Y-100600000D03*
D20*
X187838500Y-100600000D03*
X174388500Y-103140000D03*
D19*
X176224000Y-103140000D03*
D18*
X177938500Y-103140000D03*
D21*
X179208500Y-92980000D03*
D22*
X181748500Y-92980000D03*
%TD*%
D16*
%TO.C,SW2*%
X98905000Y-46300000D03*
D17*
X93825000Y-46300000D03*
D16*
X88745000Y-46300000D03*
D18*
X90015000Y-43760000D03*
D19*
X88300500Y-43760000D03*
D20*
X86465000Y-43760000D03*
X99915000Y-41220000D03*
D19*
X98079500Y-41220000D03*
D18*
X96365000Y-41220000D03*
D21*
X95095000Y-51380000D03*
D22*
X92555000Y-51380000D03*
%TD*%
D16*
%TO.C,SW12*%
X132900000Y-46300000D03*
D17*
X127820000Y-46300000D03*
D16*
X122740000Y-46300000D03*
D18*
X124010000Y-43760000D03*
D19*
X122295500Y-43760000D03*
D20*
X120460000Y-43760000D03*
X133910000Y-41220000D03*
D19*
X132074500Y-41220000D03*
D18*
X130360000Y-41220000D03*
D21*
X129090000Y-51380000D03*
D22*
X126550000Y-51380000D03*
%TD*%
D16*
%TO.C,SW14*%
X132920000Y-63330000D03*
D17*
X127840000Y-63330000D03*
D16*
X122760000Y-63330000D03*
D18*
X124030000Y-60790000D03*
D19*
X122315500Y-60790000D03*
D20*
X120480000Y-60790000D03*
X133930000Y-58250000D03*
D19*
X132094500Y-58250000D03*
D18*
X130380000Y-58250000D03*
D21*
X129110000Y-68410000D03*
D22*
X126570000Y-68410000D03*
%TD*%
D16*
%TO.C,SW5*%
X98895000Y-98058000D03*
D17*
X93815000Y-98058000D03*
D16*
X88735000Y-98058000D03*
D18*
X90005000Y-95518000D03*
D19*
X88290500Y-95518000D03*
D20*
X86455000Y-95518000D03*
X99905000Y-92978000D03*
D19*
X98069500Y-92978000D03*
D18*
X96355000Y-92978000D03*
D21*
X95085000Y-103138000D03*
D22*
X92545000Y-103138000D03*
%TD*%
D16*
%TO.C,SW6*%
X64220000Y-103600000D03*
D17*
X69300000Y-103600000D03*
D16*
X74380000Y-103600000D03*
D18*
X73110000Y-106140000D03*
D19*
X74824500Y-106140000D03*
D20*
X76660000Y-106140000D03*
X63210000Y-108680000D03*
D19*
X65045500Y-108680000D03*
D18*
X66760000Y-108680000D03*
D21*
X68030000Y-98520000D03*
D22*
X70570000Y-98520000D03*
%TD*%
D16*
%TO.C,SW22*%
X166900000Y-46300000D03*
D17*
X161820000Y-46300000D03*
D16*
X156740000Y-46300000D03*
D18*
X158010000Y-43760000D03*
D19*
X156295500Y-43760000D03*
D20*
X154460000Y-43760000D03*
X167910000Y-41220000D03*
D19*
X166074500Y-41220000D03*
D18*
X164360000Y-41220000D03*
D21*
X163090000Y-51380000D03*
D22*
X160550000Y-51380000D03*
%TD*%
D16*
%TO.C,SW4*%
X98895000Y-80724000D03*
D17*
X93815000Y-80724000D03*
D16*
X88735000Y-80724000D03*
D18*
X90005000Y-78184000D03*
D19*
X88290500Y-78184000D03*
D20*
X86455000Y-78184000D03*
X99905000Y-75644000D03*
D19*
X98069500Y-75644000D03*
D18*
X96355000Y-75644000D03*
D21*
X95085000Y-85804000D03*
D22*
X92545000Y-85804000D03*
%TD*%
D16*
%TO.C,SW25*%
X166895000Y-98058000D03*
D17*
X161815000Y-98058000D03*
D16*
X156735000Y-98058000D03*
D18*
X158005000Y-95518000D03*
D19*
X156290500Y-95518000D03*
D20*
X154455000Y-95518000D03*
X167905000Y-92978000D03*
D19*
X166069500Y-92978000D03*
D18*
X164355000Y-92978000D03*
D21*
X163085000Y-103138000D03*
D22*
X160545000Y-103138000D03*
%TD*%
D16*
%TO.C,SW20*%
X175398500Y-63360000D03*
D17*
X180478500Y-63360000D03*
D16*
X185558500Y-63360000D03*
D18*
X184288500Y-65900000D03*
D19*
X186003000Y-65900000D03*
D20*
X187838500Y-65900000D03*
X174388500Y-68440000D03*
D19*
X176224000Y-68440000D03*
D18*
X177938500Y-68440000D03*
D21*
X179208500Y-58280000D03*
D22*
X181748500Y-58280000D03*
%TD*%
D16*
%TO.C,SW23*%
X166900000Y-63320000D03*
D17*
X161820000Y-63320000D03*
D16*
X156740000Y-63320000D03*
D18*
X158010000Y-60780000D03*
D19*
X156295500Y-60780000D03*
D20*
X154460000Y-60780000D03*
X167910000Y-58240000D03*
D19*
X166074500Y-58240000D03*
D18*
X164360000Y-58240000D03*
D21*
X163090000Y-68400000D03*
D22*
X160550000Y-68400000D03*
%TD*%
D16*
%TO.C,SW10*%
X115895000Y-98058000D03*
D17*
X110815000Y-98058000D03*
D16*
X105735000Y-98058000D03*
D18*
X107005000Y-95518000D03*
D19*
X105290500Y-95518000D03*
D20*
X103455000Y-95518000D03*
X116905000Y-92978000D03*
D19*
X115069500Y-92978000D03*
D18*
X113355000Y-92978000D03*
D21*
X112085000Y-103138000D03*
D22*
X109545000Y-103138000D03*
%TD*%
D16*
%TO.C,SW21*%
X175368500Y-80760000D03*
D17*
X180448500Y-80760000D03*
D16*
X185528500Y-80760000D03*
D18*
X184258500Y-83300000D03*
D19*
X185973000Y-83300000D03*
D20*
X187808500Y-83300000D03*
X174358500Y-85840000D03*
D19*
X176194000Y-85840000D03*
D18*
X177908500Y-85840000D03*
D21*
X179178500Y-75680000D03*
D22*
X181718500Y-75680000D03*
%TD*%
D16*
%TO.C,SW15*%
X149850000Y-63300000D03*
D17*
X144770000Y-63300000D03*
D16*
X139690000Y-63300000D03*
D18*
X140960000Y-60760000D03*
D19*
X139245500Y-60760000D03*
D20*
X137410000Y-60760000D03*
X150860000Y-58220000D03*
D19*
X149024500Y-58220000D03*
D18*
X147310000Y-58220000D03*
D21*
X146040000Y-68380000D03*
D22*
X143500000Y-68380000D03*
%TD*%
D16*
%TO.C,SW18*%
X132834500Y-98080000D03*
D17*
X127754500Y-98080000D03*
D16*
X122674500Y-98080000D03*
D18*
X123944500Y-95540000D03*
D19*
X122230000Y-95540000D03*
D20*
X120394500Y-95540000D03*
X133844500Y-93000000D03*
D19*
X132009000Y-93000000D03*
D18*
X130294500Y-93000000D03*
D21*
X129024500Y-103160000D03*
D22*
X126484500Y-103160000D03*
%TD*%
D16*
%TO.C,SW8*%
X115900000Y-63320000D03*
D17*
X110820000Y-63320000D03*
D16*
X105740000Y-63320000D03*
D18*
X107010000Y-60780000D03*
D19*
X105295500Y-60780000D03*
D20*
X103460000Y-60780000D03*
X116910000Y-58240000D03*
D19*
X115074500Y-58240000D03*
D18*
X113360000Y-58240000D03*
D21*
X112090000Y-68400000D03*
D22*
X109550000Y-68400000D03*
%TD*%
D16*
%TO.C,SW16*%
X132850000Y-80750000D03*
D17*
X127770000Y-80750000D03*
D16*
X122690000Y-80750000D03*
D18*
X123960000Y-78210000D03*
D19*
X122245500Y-78210000D03*
D20*
X120410000Y-78210000D03*
X133860000Y-75670000D03*
D19*
X132024500Y-75670000D03*
D18*
X130310000Y-75670000D03*
D21*
X129040000Y-85830000D03*
D22*
X126500000Y-85830000D03*
%TD*%
M02*
