%TF.GenerationSoftware,KiCad,Pcbnew,9.0.2*%
%TF.CreationDate,2025-06-30T11:43:15-04:00*%
%TF.ProjectId,PCB,5043422e-6b69-4636-9164-5f7063625858,rev?*%
%TF.SameCoordinates,Original*%
%TF.FileFunction,Soldermask,Top*%
%TF.FilePolarity,Negative*%
%FSLAX46Y46*%
G04 Gerber Fmt 4.6, Leading zero omitted, Abs format (unit mm)*
G04 Created by KiCad (PCBNEW 9.0.2) date 2025-06-30 11:43:15*
%MOMM*%
%LPD*%
G01*
G04 APERTURE LIST*
G04 Aperture macros list*
%AMRoundRect*
0 Rectangle with rounded corners*
0 $1 Rounding radius*
0 $2 $3 $4 $5 $6 $7 $8 $9 X,Y pos of 4 corners*
0 Add a 4 corners polygon primitive as box body*
4,1,4,$2,$3,$4,$5,$6,$7,$8,$9,$2,$3,0*
0 Add four circle primitives for the rounded corners*
1,1,$1+$1,$2,$3*
1,1,$1+$1,$4,$5*
1,1,$1+$1,$6,$7*
1,1,$1+$1,$8,$9*
0 Add four rect primitives between the rounded corners*
20,1,$1+$1,$2,$3,$4,$5,0*
20,1,$1+$1,$4,$5,$6,$7,0*
20,1,$1+$1,$6,$7,$8,$9,0*
20,1,$1+$1,$8,$9,$2,$3,0*%
G04 Aperture macros list end*
%ADD10R,1.500000X1.000000*%
%ADD11C,1.442000*%
%ADD12RoundRect,0.102000X-0.619000X-0.619000X0.619000X-0.619000X0.619000X0.619000X-0.619000X0.619000X0*%
%ADD13C,1.778000*%
%ADD14C,2.286000*%
%ADD15R,1.600000X1.600000*%
%ADD16O,1.600000X1.600000*%
%ADD17C,1.750000*%
%ADD18C,2.250000*%
%ADD19R,1.524000X1.524000*%
%ADD20C,1.524000*%
G04 APERTURE END LIST*
D10*
%TO.C,D41*%
X131300000Y-66325000D03*
X131300000Y-69525000D03*
X136200000Y-69525000D03*
X136200000Y-66325000D03*
%TD*%
D11*
%TO.C,D5*%
X73768500Y-112000000D03*
D12*
X66231500Y-112000000D03*
%TD*%
D11*
%TO.C,D3*%
X98037000Y-72500000D03*
D12*
X90500000Y-72500000D03*
%TD*%
D11*
%TO.C,D1*%
X98268500Y-38000000D03*
D12*
X90731500Y-38000000D03*
%TD*%
D11*
%TO.C,D2*%
X98537000Y-55000000D03*
D12*
X91000000Y-55000000D03*
%TD*%
D11*
%TO.C,D18*%
X149218500Y-72550000D03*
D12*
X141681500Y-72550000D03*
%TD*%
D11*
%TO.C,D14*%
X131513500Y-89874000D03*
D12*
X123976500Y-89874000D03*
%TD*%
D10*
%TO.C,D33*%
X165600000Y-83900000D03*
X165600000Y-87100000D03*
X170500000Y-87100000D03*
X170500000Y-83900000D03*
%TD*%
%TO.C,D31*%
X165700000Y-101100000D03*
X165700000Y-104300000D03*
X170600000Y-104300000D03*
X170600000Y-101100000D03*
%TD*%
D13*
%TO.C,U1*%
X150755400Y-116066500D03*
X157105400Y-116086300D03*
X150755400Y-121006500D03*
X157115400Y-121026500D03*
X151405400Y-135756500D03*
X153945400Y-135776500D03*
X156485400Y-135756500D03*
D14*
X147580400Y-121816500D03*
X147580400Y-131946500D03*
X160280400Y-131961300D03*
X160280400Y-121801300D03*
D13*
X145040400Y-124341300D03*
X145025400Y-126866500D03*
X145025400Y-129406500D03*
%TD*%
D15*
%TO.C,A1*%
X76740000Y-87060000D03*
D16*
X76740000Y-84520000D03*
X76740000Y-81980000D03*
X76740000Y-79440000D03*
X76740000Y-76900000D03*
X76740000Y-74360000D03*
X76740000Y-71820000D03*
X76740000Y-69280000D03*
X76740000Y-66740000D03*
X76740000Y-64200000D03*
X76740000Y-61660000D03*
X76740000Y-59120000D03*
X76740000Y-56580000D03*
X76740000Y-54040000D03*
X76740000Y-51500000D03*
X61500000Y-51500000D03*
X61500000Y-54040000D03*
X61500000Y-56580000D03*
X61500000Y-59120000D03*
X61500000Y-61660000D03*
X61500000Y-64200000D03*
X61500000Y-66740000D03*
X61500000Y-69280000D03*
X61500000Y-71820000D03*
X61500000Y-74360000D03*
X61500000Y-76900000D03*
X61500000Y-79440000D03*
X61500000Y-81980000D03*
X61500000Y-84520000D03*
X61500000Y-87060000D03*
%TD*%
D10*
%TO.C,D35*%
X131275000Y-83750000D03*
X131275000Y-86950000D03*
X136175000Y-86950000D03*
X136175000Y-83750000D03*
%TD*%
D11*
%TO.C,D4*%
X98268500Y-90000000D03*
D12*
X90731500Y-90000000D03*
%TD*%
D11*
%TO.C,D8*%
X115000000Y-72500000D03*
D12*
X107463000Y-72500000D03*
%TD*%
D11*
%TO.C,D13*%
X131968500Y-72400000D03*
D12*
X124431500Y-72400000D03*
%TD*%
D10*
%TO.C,D34*%
X148350000Y-83750000D03*
X148350000Y-86950000D03*
X153250000Y-86950000D03*
X153250000Y-83750000D03*
%TD*%
%TO.C,D46*%
X131400000Y-49325000D03*
X131400000Y-52525000D03*
X136300000Y-52525000D03*
X136300000Y-49325000D03*
%TD*%
%TO.C,D37*%
X97500000Y-83800000D03*
X97500000Y-87000000D03*
X102400000Y-87000000D03*
X102400000Y-83800000D03*
%TD*%
%TO.C,D40*%
X148375000Y-66300000D03*
X148375000Y-69500000D03*
X153275000Y-69500000D03*
X153275000Y-66300000D03*
%TD*%
D11*
%TO.C,D10*%
X115268500Y-38000000D03*
D12*
X107731500Y-38000000D03*
%TD*%
D10*
%TO.C,D50*%
X183918500Y-40125000D03*
X183918500Y-43325000D03*
X188818500Y-43325000D03*
X188818500Y-40125000D03*
%TD*%
D11*
%TO.C,D23*%
X166268500Y-72500000D03*
D12*
X158731500Y-72500000D03*
%TD*%
D10*
%TO.C,D38*%
X183875000Y-57175000D03*
X183875000Y-60375000D03*
X188775000Y-60375000D03*
X188775000Y-57175000D03*
%TD*%
%TO.C,D47*%
X114400000Y-49425000D03*
X114400000Y-52625000D03*
X119300000Y-52625000D03*
X119300000Y-49425000D03*
%TD*%
D11*
%TO.C,D19*%
X149208000Y-89856000D03*
D12*
X141671000Y-89856000D03*
%TD*%
D10*
%TO.C,D45*%
X148400000Y-49300000D03*
X148400000Y-52500000D03*
X153300000Y-52500000D03*
X153300000Y-49300000D03*
%TD*%
D11*
%TO.C,D20*%
X184587000Y-89000000D03*
D12*
X177050000Y-89000000D03*
%TD*%
D11*
%TO.C,D21*%
X184587000Y-106000000D03*
D12*
X177050000Y-106000000D03*
%TD*%
D10*
%TO.C,D29*%
X131300000Y-101100000D03*
X131300000Y-104300000D03*
X136200000Y-104300000D03*
X136200000Y-101100000D03*
%TD*%
D11*
%TO.C,D12*%
X132037250Y-55500000D03*
D12*
X124500250Y-55500000D03*
%TD*%
D11*
%TO.C,D24*%
X166268500Y-55000000D03*
D12*
X158731500Y-55000000D03*
%TD*%
D10*
%TO.C,D32*%
X184018500Y-91800000D03*
X184018500Y-95000000D03*
X188918500Y-95000000D03*
X188918500Y-91800000D03*
%TD*%
%TO.C,D26*%
X73200000Y-97200000D03*
X73200000Y-100400000D03*
X78100000Y-100400000D03*
X78100000Y-97200000D03*
%TD*%
%TO.C,D39*%
X165575000Y-66350000D03*
X165575000Y-69550000D03*
X170475000Y-69550000D03*
X170475000Y-66350000D03*
%TD*%
%TO.C,D28*%
X114350000Y-101200000D03*
X114350000Y-104400000D03*
X119250000Y-104400000D03*
X119250000Y-101200000D03*
%TD*%
%TO.C,D42*%
X114375000Y-66325000D03*
X114375000Y-69525000D03*
X119275000Y-69525000D03*
X119275000Y-66325000D03*
%TD*%
%TO.C,D44*%
X165600000Y-49425000D03*
X165600000Y-52625000D03*
X170500000Y-52625000D03*
X170500000Y-49425000D03*
%TD*%
D13*
%TO.C,U2*%
X178875000Y-116066500D03*
X185225000Y-116086300D03*
X178875000Y-121006500D03*
X185235000Y-121026500D03*
X179525000Y-135756500D03*
X182065000Y-135776500D03*
X184605000Y-135756500D03*
D14*
X175700000Y-121816500D03*
X175700000Y-131946500D03*
X188400000Y-131961300D03*
X188400000Y-121801300D03*
D13*
X173160000Y-124341300D03*
X173145000Y-126866500D03*
X173145000Y-129406500D03*
%TD*%
D11*
%TO.C,D11*%
X132000000Y-38000000D03*
D12*
X124463000Y-38000000D03*
%TD*%
D10*
%TO.C,D43*%
X97375000Y-66325000D03*
X97375000Y-69525000D03*
X102275000Y-69525000D03*
X102275000Y-66325000D03*
%TD*%
D11*
%TO.C,D15*%
X185037000Y-71500000D03*
D12*
X177500000Y-71500000D03*
%TD*%
D10*
%TO.C,D30*%
X148350000Y-101075000D03*
X148350000Y-104275000D03*
X153250000Y-104275000D03*
X153250000Y-101075000D03*
%TD*%
D11*
%TO.C,D9*%
X115268500Y-55000000D03*
D12*
X107731500Y-55000000D03*
%TD*%
D11*
%TO.C,D7*%
X115268500Y-90000000D03*
D12*
X107731500Y-90000000D03*
%TD*%
D10*
%TO.C,D48*%
X97400000Y-49325000D03*
X97400000Y-52525000D03*
X102300000Y-52525000D03*
X102300000Y-49325000D03*
%TD*%
%TO.C,D27*%
X97350000Y-101200000D03*
X97350000Y-104400000D03*
X102250000Y-104400000D03*
X102250000Y-101200000D03*
%TD*%
%TO.C,D36*%
X114400000Y-83800000D03*
X114400000Y-87000000D03*
X119300000Y-87000000D03*
X119300000Y-83800000D03*
%TD*%
%TO.C,D49*%
X184018500Y-74500000D03*
X184018500Y-77700000D03*
X188918500Y-77700000D03*
X188918500Y-74500000D03*
%TD*%
D11*
%TO.C,D6*%
X184955800Y-54400000D03*
D12*
X177418800Y-54400000D03*
%TD*%
D11*
%TO.C,D17*%
X148837300Y-55000000D03*
D12*
X141300300Y-55000000D03*
%TD*%
D11*
%TO.C,D25*%
X166268500Y-38000000D03*
D12*
X158731500Y-38000000D03*
%TD*%
D11*
%TO.C,D16*%
X148987000Y-37975000D03*
D12*
X141450000Y-37975000D03*
%TD*%
D11*
%TO.C,D22*%
X166268500Y-90000000D03*
D12*
X158731500Y-90000000D03*
%TD*%
D17*
%TO.C,SW13*%
X149850000Y-46295000D03*
X139690000Y-46295000D03*
D18*
X140960000Y-43755000D03*
X147310000Y-41215000D03*
D19*
X146040000Y-51375000D03*
D20*
X143500000Y-51375000D03*
%TD*%
D17*
%TO.C,SW9*%
X115895000Y-80724000D03*
X105735000Y-80724000D03*
D18*
X107005000Y-78184000D03*
X113355000Y-75644000D03*
D19*
X112085000Y-85804000D03*
D20*
X109545000Y-85804000D03*
%TD*%
D17*
%TO.C,SW24*%
X166895000Y-80724000D03*
X156735000Y-80724000D03*
D18*
X158005000Y-78184000D03*
X164355000Y-75644000D03*
D19*
X163085000Y-85804000D03*
D20*
X160545000Y-85804000D03*
%TD*%
D17*
%TO.C,SW7*%
X115900000Y-46300000D03*
X105740000Y-46300000D03*
D18*
X107010000Y-43760000D03*
X113360000Y-41220000D03*
D19*
X112090000Y-51380000D03*
D20*
X109550000Y-51380000D03*
%TD*%
D17*
%TO.C,SW19*%
X149834500Y-98080000D03*
X139674500Y-98080000D03*
D18*
X140944500Y-95540000D03*
X147294500Y-93000000D03*
D19*
X146024500Y-103160000D03*
D20*
X143484500Y-103160000D03*
%TD*%
D17*
%TO.C,SW3*%
X98900000Y-63320000D03*
X88740000Y-63320000D03*
D18*
X90010000Y-60780000D03*
X96360000Y-58240000D03*
D19*
X95090000Y-68400000D03*
D20*
X92550000Y-68400000D03*
%TD*%
D17*
%TO.C,SW11*%
X175308500Y-46405000D03*
X185468500Y-46405000D03*
D18*
X184198500Y-48945000D03*
X177848500Y-51485000D03*
D19*
X179118500Y-41325000D03*
D20*
X181658500Y-41325000D03*
%TD*%
D17*
%TO.C,SW17*%
X149850000Y-80725000D03*
X139690000Y-80725000D03*
D18*
X140960000Y-78185000D03*
X147310000Y-75645000D03*
D19*
X146040000Y-85805000D03*
D20*
X143500000Y-85805000D03*
%TD*%
D17*
%TO.C,SW26*%
X175398500Y-98060000D03*
X185558500Y-98060000D03*
D18*
X184288500Y-100600000D03*
X177938500Y-103140000D03*
D19*
X179208500Y-92980000D03*
D20*
X181748500Y-92980000D03*
%TD*%
D17*
%TO.C,SW2*%
X98905000Y-46300000D03*
X88745000Y-46300000D03*
D18*
X90015000Y-43760000D03*
X96365000Y-41220000D03*
D19*
X95095000Y-51380000D03*
D20*
X92555000Y-51380000D03*
%TD*%
D17*
%TO.C,SW12*%
X132900000Y-46300000D03*
X122740000Y-46300000D03*
D18*
X124010000Y-43760000D03*
X130360000Y-41220000D03*
D19*
X129090000Y-51380000D03*
D20*
X126550000Y-51380000D03*
%TD*%
D17*
%TO.C,SW14*%
X132920000Y-63330000D03*
X122760000Y-63330000D03*
D18*
X124030000Y-60790000D03*
X130380000Y-58250000D03*
D19*
X129110000Y-68410000D03*
D20*
X126570000Y-68410000D03*
%TD*%
D17*
%TO.C,SW5*%
X98895000Y-98058000D03*
X88735000Y-98058000D03*
D18*
X90005000Y-95518000D03*
X96355000Y-92978000D03*
D19*
X95085000Y-103138000D03*
D20*
X92545000Y-103138000D03*
%TD*%
D17*
%TO.C,SW6*%
X64220000Y-103600000D03*
X74380000Y-103600000D03*
D18*
X73110000Y-106140000D03*
X66760000Y-108680000D03*
D19*
X68030000Y-98520000D03*
D20*
X70570000Y-98520000D03*
%TD*%
D17*
%TO.C,SW22*%
X166900000Y-46300000D03*
X156740000Y-46300000D03*
D18*
X158010000Y-43760000D03*
X164360000Y-41220000D03*
D19*
X163090000Y-51380000D03*
D20*
X160550000Y-51380000D03*
%TD*%
D17*
%TO.C,SW4*%
X98895000Y-80724000D03*
X88735000Y-80724000D03*
D18*
X90005000Y-78184000D03*
X96355000Y-75644000D03*
D19*
X95085000Y-85804000D03*
D20*
X92545000Y-85804000D03*
%TD*%
D17*
%TO.C,SW25*%
X166895000Y-98058000D03*
X156735000Y-98058000D03*
D18*
X158005000Y-95518000D03*
X164355000Y-92978000D03*
D19*
X163085000Y-103138000D03*
D20*
X160545000Y-103138000D03*
%TD*%
D17*
%TO.C,SW20*%
X175398500Y-63360000D03*
X185558500Y-63360000D03*
D18*
X184288500Y-65900000D03*
X177938500Y-68440000D03*
D19*
X179208500Y-58280000D03*
D20*
X181748500Y-58280000D03*
%TD*%
D17*
%TO.C,SW23*%
X166900000Y-63320000D03*
X156740000Y-63320000D03*
D18*
X158010000Y-60780000D03*
X164360000Y-58240000D03*
D19*
X163090000Y-68400000D03*
D20*
X160550000Y-68400000D03*
%TD*%
D17*
%TO.C,SW10*%
X115895000Y-98058000D03*
X105735000Y-98058000D03*
D18*
X107005000Y-95518000D03*
X113355000Y-92978000D03*
D19*
X112085000Y-103138000D03*
D20*
X109545000Y-103138000D03*
%TD*%
D17*
%TO.C,SW21*%
X175368500Y-80760000D03*
X185528500Y-80760000D03*
D18*
X184258500Y-83300000D03*
X177908500Y-85840000D03*
D19*
X179178500Y-75680000D03*
D20*
X181718500Y-75680000D03*
%TD*%
D17*
%TO.C,SW15*%
X149850000Y-63300000D03*
X139690000Y-63300000D03*
D18*
X140960000Y-60760000D03*
X147310000Y-58220000D03*
D19*
X146040000Y-68380000D03*
D20*
X143500000Y-68380000D03*
%TD*%
D17*
%TO.C,SW18*%
X132834500Y-98080000D03*
X122674500Y-98080000D03*
D18*
X123944500Y-95540000D03*
X130294500Y-93000000D03*
D19*
X129024500Y-103160000D03*
D20*
X126484500Y-103160000D03*
%TD*%
D17*
%TO.C,SW8*%
X115900000Y-63320000D03*
X105740000Y-63320000D03*
D18*
X107010000Y-60780000D03*
X113360000Y-58240000D03*
D19*
X112090000Y-68400000D03*
D20*
X109550000Y-68400000D03*
%TD*%
D17*
%TO.C,SW16*%
X132850000Y-80750000D03*
X122690000Y-80750000D03*
D18*
X123960000Y-78210000D03*
X130310000Y-75670000D03*
D19*
X129040000Y-85830000D03*
D20*
X126500000Y-85830000D03*
%TD*%
M02*
