M48
; DRILL file {KiCad 9.0.2} date 2025-06-30T11:43:15-0400
; FORMAT={-:-/ absolute / inch / decimal}
; #@! TF.CreationDate,2025-06-30T11:43:15-04:00
; #@! TF.GenerationSoftware,Kicad,Pcbnew,9.0.2
; #@! TF.FileFunction,Plated,1,2,PTH
FMAT,2
INCH
; #@! TA.AperFunction,Plated,PTH,ViaDrill
T1C0.0118
; #@! TA.AperFunction,Plated,PTH,ComponentDrill
T2C0.0287
; #@! TA.AperFunction,Plated,PTH,ComponentDrill
T3C0.0300
; #@! TA.AperFunction,Plated,PTH,ComponentDrill
T4C0.0350
; #@! TA.AperFunction,Plated,PTH,ComponentDrill
T5C0.0354
; #@! TA.AperFunction,Plated,PTH,ComponentDrill
T6C0.0394
; #@! TA.AperFunction,Plated,PTH,ComponentDrill
T7C0.0550
; #@! TA.AperFunction,Plated,PTH,ComponentDrill
T8C0.0579
%
G90
G05
T1
X2.4213Y-3.563
X2.5Y-3.5236
X2.5236Y-4.3815
X2.6024Y-4.4748
X2.6969Y-3.7598
X2.874Y-3.878
X2.9331Y-3.9567
X3.0472Y-1.9835
X3.0906Y-3.5236
X3.1102Y-2.8543
X3.1142Y-3.5014
X3.201Y-2.9407
X3.2677Y-2.874
X3.3087Y-3.5059
X3.3925Y-3.0122
X3.5185Y-3.2457
X3.5957Y-3.2512
X3.963Y-3.1693
X4.0071Y-3.2539
X4.0207Y-2.9941
X4.198Y-2.5561
X4.2178Y-3.2465
X4.2693Y-2.5531
X4.2815Y-3.25
X4.3504Y-1.9574
X4.6177Y-1.7201
X4.7437Y-1.7209
X4.8504Y-3.2417
X4.8622Y-2.0827
X4.8669Y-2.5484
X4.9217Y-3.2457
X4.9281Y-1.6455
X4.9575Y-2.5709
X4.9803Y-1.9488
X5.0504Y-1.6599
X5.0591Y-1.9685
X5.1181Y-2.0827
X5.2756Y-1.8868
X5.2756Y-1.934
X5.4039Y-2.4815
X5.441Y-2.2778
X5.4622Y-2.1878
X5.5472Y-3.261
X5.5512Y-2.3697
X5.6272Y-3.261
X5.6299Y-2.6181
X5.8327Y-2.4413
X5.8415Y-2.6102
X5.8465Y-2.5394
X5.9205Y-2.6142
X5.9543Y-2.5803
X5.9646Y-4.0551
X6.0236Y-4.0551
X6.0626Y-3.626
X6.0677Y-3.5767
X6.1Y-1.6394
X6.2551Y-1.9197
X6.3023Y-1.915
X6.3366Y-1.3843
X6.3396Y-2.3862
X6.4059Y-3.5197
X6.5106Y-1.387
X6.5134Y-3.7484
X6.5945Y-1.9094
X6.6051Y-2.2283
X6.6126Y-3.936
X6.6142Y-3.3071
X6.6339Y-1.8504
X6.6339Y-2.6575
X6.6339Y-3.3599
X6.6929Y-1.8898
X6.7126Y-2.6772
X6.7274Y-3.832
X6.7458Y-3.9173
X6.7717Y-2.815
X6.7732Y-3.95
X6.7815Y-2.0677
X6.7913Y-3.8583
X6.8504Y-2.815
X6.8902Y-1.7122
X6.9469Y-3.7598
X7.1157Y-2.1717
X7.1512Y-3.0512
X7.3228Y-2.2441
X7.3801Y-2.0028
X7.3819Y-2.2638
X7.4213Y-2.185
X7.4409Y-2.126
X7.4673Y-3.8654
T2
X2.6075Y-4.4094
X2.9043Y-4.4094
X3.563Y-2.8543
X3.5721Y-1.4961
X3.5721Y-3.5433
X3.5827Y-2.1654
X3.8597Y-2.8543
X3.8688Y-1.4961
X3.8688Y-3.5433
X3.8794Y-2.1654
X4.2308Y-2.8543
X4.2414Y-1.4961
X4.2414Y-2.1654
X4.2414Y-3.5433
X4.5276Y-2.8543
X4.5381Y-1.4961
X4.5381Y-2.1654
X4.5381Y-3.5433
X4.881Y-3.5383
X4.8989Y-2.8504
X4.9001Y-1.4961
X4.9016Y-2.185
X5.1777Y-3.5383
X5.1956Y-2.8504
X5.1969Y-1.4961
X5.1983Y-2.185
X5.563Y-2.1654
X5.5689Y-1.4951
X5.5776Y-3.5376
X5.578Y-2.8563
X5.8597Y-2.1654
X5.8656Y-1.4951
X5.8743Y-3.5376
X5.8747Y-2.8563
X6.2493Y-1.4961
X6.2493Y-2.1654
X6.2493Y-2.8543
X6.2493Y-3.5433
X6.546Y-1.4961
X6.546Y-2.1654
X6.546Y-2.8543
X6.546Y-3.5433
X6.9705Y-3.5039
X6.9705Y-4.1732
X6.985Y-2.1417
X6.9882Y-2.815
X7.2672Y-3.5039
X7.2672Y-4.1732
X7.2817Y-2.1417
X7.2849Y-2.815
T3
X2.6783Y-3.8787
X2.7783Y-3.8787
X3.6435Y-3.3781
X3.6435Y-4.0606
X3.6437Y-2.6929
X3.6439Y-2.0228
X3.7435Y-3.3781
X3.7435Y-4.0606
X3.7437Y-2.6929
X3.7439Y-2.0228
X4.3128Y-3.3781
X4.3128Y-4.0606
X4.313Y-2.0228
X4.313Y-2.6929
X4.4128Y-3.3781
X4.4128Y-4.0606
X4.413Y-2.0228
X4.413Y-2.6929
X4.9797Y-4.0614
X4.9803Y-3.3791
X4.9823Y-2.0228
X4.9831Y-2.6933
X5.0797Y-4.0614
X5.0803Y-3.3791
X5.0823Y-2.0228
X5.0831Y-2.6933
X5.649Y-4.0614
X5.6496Y-2.0226
X5.6496Y-2.6921
X5.6496Y-3.3781
X5.749Y-4.0614
X5.7496Y-2.0226
X5.7496Y-2.6921
X5.7496Y-3.3781
X6.3207Y-3.3781
X6.3207Y-4.0606
X6.3209Y-2.0228
X6.3209Y-2.6929
X6.4207Y-3.3781
X6.4207Y-4.0606
X6.4209Y-2.0228
X6.4209Y-2.6929
X7.0519Y-1.627
X7.0543Y-2.9795
X7.0555Y-2.2945
X7.0555Y-3.6606
X7.1519Y-1.627
X7.1543Y-2.9795
X7.1555Y-2.2945
X7.1555Y-3.6606
T4
X5.7097Y-4.9947
X5.7097Y-5.0947
X5.7103Y-4.8953
X5.9608Y-5.3447
X6.0608Y-5.3455
X6.1608Y-5.3447
X6.8167Y-4.9947
X6.8167Y-5.0947
X6.8173Y-4.8953
X7.0679Y-5.3447
X7.1679Y-5.3455
X7.2679Y-5.3447
T5
X5.9353Y-4.5695
X5.9353Y-4.764
X6.1853Y-4.5703
X6.1856Y-4.7648
X7.0423Y-4.5695
X7.0423Y-4.764
X7.2923Y-4.5703
X7.2927Y-4.7648
T6
X2.4213Y-2.0276
X2.4213Y-2.1276
X2.4213Y-2.2276
X2.4213Y-2.3276
X2.4213Y-2.4276
X2.4213Y-2.5276
X2.4213Y-2.6276
X2.4213Y-2.7276
X2.4213Y-2.8276
X2.4213Y-2.9276
X2.4213Y-3.0276
X2.4213Y-3.1276
X2.4213Y-3.2276
X2.4213Y-3.3276
X2.4213Y-3.4276
X3.0213Y-2.0276
X3.0213Y-2.1276
X3.0213Y-2.2276
X3.0213Y-2.3276
X3.0213Y-2.4276
X3.0213Y-2.5276
X3.0213Y-2.6276
X3.0213Y-2.7276
X3.0213Y-2.8276
X3.0213Y-2.9276
X3.0213Y-3.0276
X3.0213Y-3.1276
X3.0213Y-3.2276
X3.0213Y-3.3276
X3.0213Y-3.4276
T7
X5.8103Y-4.7959
X5.8103Y-5.1947
X6.3103Y-4.7953
X6.3103Y-5.1953
X6.9173Y-4.7959
X6.9173Y-5.1947
X7.4173Y-4.7953
X7.4173Y-5.1953
T8
X2.6283Y-4.2787
X2.8783Y-4.1787
X3.5435Y-3.0781
X3.5435Y-3.7606
X3.5437Y-2.3929
X3.5439Y-1.7228
X3.7935Y-2.9781
X3.7935Y-3.6606
X3.7937Y-2.2929
X3.7939Y-1.6228
X4.2128Y-3.0781
X4.2128Y-3.7606
X4.213Y-1.7228
X4.213Y-2.3929
X4.4628Y-2.9781
X4.4628Y-3.6606
X4.463Y-1.6228
X4.463Y-2.2929
X4.8797Y-3.7614
X4.8803Y-3.0791
X4.8823Y-1.7228
X4.8831Y-2.3933
X5.1297Y-3.6614
X5.1303Y-2.9791
X5.1323Y-1.6228
X5.1331Y-2.2933
X5.549Y-3.7614
X5.5496Y-1.7226
X5.5496Y-2.3921
X5.5496Y-3.0781
X5.799Y-3.6614
X5.7996Y-1.6226
X5.7996Y-2.2921
X5.7996Y-2.9781
X6.2207Y-3.0781
X6.2207Y-3.7606
X6.2209Y-1.7228
X6.2209Y-2.3929
X6.4707Y-2.9781
X6.4707Y-3.6606
X6.4709Y-1.6228
X6.4709Y-2.2929
X7.0019Y-2.027
X7.0043Y-3.3795
X7.0055Y-2.6945
X7.0055Y-4.0606
X7.2519Y-1.927
X7.2543Y-3.2795
X7.2555Y-2.5945
X7.2555Y-3.9606
M30
